<?xml version="1.0" encoding="UTF-8" standalone="no"?>
<!-- Created with Inkscape (http://www.inkscape.org/) -->

<svg
   width="300mm"
   height="150mm"
   viewBox="0 0 300 150"
   version="1.1"
   id="svg1"
   xml:space="preserve"
   inkscape:version="1.3 (0e150ed, 2023-07-21)"
   sodipodi:docname="enlacesfo9.svg"
   xmlns:inkscape="http://www.inkscape.org/namespaces/inkscape"
   xmlns:sodipodi="http://sodipodi.sourceforge.net/DTD/sodipodi-0.dtd"
   xmlns="http://www.w3.org/2000/svg"
   xmlns:svg="http://www.w3.org/2000/svg"><sodipodi:namedview
     id="namedview1"
     pagecolor="#ffffff"
     bordercolor="#000000"
     borderopacity="0.25"
     inkscape:showpageshadow="2"
     inkscape:pageopacity="0.0"
     inkscape:pagecheckerboard="0"
     inkscape:deskcolor="#d1d1d1"
     inkscape:document-units="mm"
     inkscape:zoom="0.57373859"
     inkscape:cx="590.86143"
     inkscape:cy="196.95381"
     inkscape:window-width="1392"
     inkscape:window-height="1099"
     inkscape:window-x="0"
     inkscape:window-y="25"
     inkscape:window-maximized="0"
     inkscape:current-layer="layer1" /><defs
     id="defs1" /><g
     inkscape:label="Capa 1"
     inkscape:groupmode="layer"
     id="layer1"><path
       style="fill:#000000;stroke-width:1.16579"
       d="m 135.8922,142.83794 c -4.56376,-0.52404 -9.19975,-1.45204 -11.3459,-2.27114 -0.34193,-0.13049 -1.81069,-0.62302 -3.26389,-1.09449 -7.69487,-2.49641 -17.11679,-7.95792 -23.111818,-13.39695 -0.41535,-0.37683 -1.15519,-1.04109 -1.64411,-1.47617 -1.42721,-1.26999 -6.950438,-7.22376 -6.950438,-7.4922 0,-0.0834 -0.560675,-0.87071 -1.245943,-1.74956 -0.685268,-0.87882 -1.353244,-1.73557 -1.484388,-1.90391 C 83.206116,108.78175 78.938335,99.261501 77.035476,91.569553 74.393677,80.890568 74.284369,69.34793 76.728235,59.126189 c 0.783659,-3.277736 2.188539,-7.864823 2.577838,-8.416898 0.118709,-0.168334 0.467209,-0.994731 0.77446,-1.836423 1.463816,-4.010027 6.638123,-12.904487 9.152521,-15.732883 0.35961,-0.404516 0.653836,-0.821605 0.653836,-0.926867 0,-0.105209 1.048882,-1.289335 2.330842,-2.631274 1.28196,-1.34194 2.33107,-2.543199 2.33135,-2.66945 2.8e-4,-0.126252 0.10541,-0.231089 0.23364,-0.232981 0.12823,-0.0017 1.29075,-1.011247 2.58337,-2.243061 5.701978,-5.433713 14.290158,-10.669349 22.517498,-13.727383 26.59097,-9.88369276 57.28172,-2.5795547 76.16137,18.125748 3.42783,3.759294 7.92268,9.802088 7.92268,10.651118 0,0.196891 0.12161,0.357994 0.27036,0.357994 0.32149,0 4.70317,8.604224 4.70317,9.235514 0,0.239948 0.11813,0.567122 0.26257,0.727041 3.68544,4.081499 6.23445,31.063389 3.59844,38.090323 -0.0946,0.252521 -0.37894,1.530733 -0.63158,2.840509 -0.93713,4.858244 -4.18108,13.026384 -7.11501,17.915354 -4.69896,7.83011 -12.27488,16.66331 -16.71782,19.49227 -0.26438,0.16834 -1.50686,1.07726 -2.76108,2.01984 -2.55037,1.91668 -7.91226,5.17279 -8.51811,5.17279 -0.21651,0 -0.44028,0.13703 -0.49727,0.30471 -0.24367,0.71655 -10.0757,4.47543 -14.78445,5.65223 -7.54447,1.88549 -17.65575,2.48844 -25.88466,1.54353 z m 18.49539,-4.26456 c 8.35636,-1.41572 15.35773,-3.77733 21.57073,-7.27593 1.435,-0.80808 2.64483,-1.46922 2.68854,-1.46922 0.0437,0 0.89789,-0.55612 1.89819,-1.23583 1.00029,-0.6797 2.16843,-1.46847 2.59583,-1.75281 0.42744,-0.28438 0.84707,-0.58907 0.93256,-0.67713 0.0855,-0.0881 0.9947,-0.83772 2.02051,-1.66589 3.90273,-3.15096 9.26765,-8.84204 11.97046,-12.69826 0.73109,-1.04308 0.73109,-1.04308 -7.09621,-0.86686 -4.30503,0.0969 -7.82732,0.10291 -7.82732,0.0123 0,-0.0896 0.64069,-1.32979 1.42374,-2.75593 0.78305,-1.42614 1.37755,-2.62712 1.32111,-2.66885 -0.0565,-0.0417 -1.36155,-0.91919 -2.90026,-1.94992 -4.95787,-3.3212 -9.54441,-7.140776 -14.32625,-11.930572 -3.25941,-3.264846 -3.26139,-3.262353 -8.54049,10.795562 -2.43389,6.48137 -6.16904,20.29863 -5.58353,20.65494 0.19732,0.12007 1.53872,0.39906 2.98091,0.61997 3.03243,0.46447 3.07946,0.56042 1.27636,2.60377 -0.74017,0.83879 -2.92568,3.38447 -4.85666,5.65702 -3.69019,4.34293 -4.02624,4.60037 -4.39485,3.36677 -0.12583,-0.42084 -1.28962,-3.64627 -2.58636,-7.16762 -2.73622,-7.43042 -2.80941,-6.84026 0.76391,-6.16031 3.40634,0.64817 2.90282,1.17203 4.35519,-4.53119 2.4319,-9.54983 6.06187,-20.261054 9.12381,-26.92239 1.8255,-3.971428 2.08463,-4.673324 1.84562,-4.999207 -0.14453,-0.196998 -1.2469,-1.64489 -2.44982,-3.217546 -4.07412,-5.326435 -8.29661,-12.411384 -10.45989,-17.550741 -1.40253,-3.331984 -2.0794,-5.0432 -2.6029,-6.580493 -0.80246,-2.356368 -0.78602,-2.350851 -3.14503,-1.056123 -8.68368,4.765925 -15.3959,9.360244 -22.71452,15.547362 -3.05187,2.58003 -3.19291,2.807566 -2.31756,3.738711 0.30679,0.326326 1.23832,1.557451 2.07007,2.735811 0.83175,1.178361 1.83968,2.56868 2.23984,3.089581 0.40015,0.5209 0.72755,1.043162 0.72755,1.160555 0,0.117409 0.24479,0.472275 0.54398,0.788609 2.25391,2.383016 11.27136,19.094101 13.79684,25.568201 0.32834,0.84169 0.73349,1.80579 0.90035,2.14248 1.7903,3.61235 6.28885,18.24933 7.30019,23.75266 0.19992,1.08793 0.18593,1.10629 -0.98905,1.29744 -1.83689,0.29882 -2.27981,0.24212 -2.27981,-0.29189 0,-0.27088 -0.43331,-2.23355 -0.9629,-4.36148 -4.39732,-17.66894 -13.48744,-36.957212 -24.15003,-51.243707 -2.46348,-3.300776 -2.46348,-3.300776 -4.46654,-1.377322 -3.66547,3.519824 -11.0402,12.006302 -13.31738,15.325025 -0.42741,0.622892 -0.882018,1.133484 -1.010248,1.134633 -0.12823,0.0011 -0.23313,0.134563 -0.23313,0.296426 0,0.161792 -0.95291,1.711352 -2.11757,3.443276 -1.16466,1.731919 -2.65634,4.113079 -3.31484,5.291439 -1.58441,2.83524 -1.78544,2.89671 -4.130603,1.26282 -0.842377,-0.5869 7.028333,-12.793856 11.995831,-18.60473 1.42808,-1.670546 4.58307,-5.33455 4.87078,-5.656632 0.17168,-0.19217 1.8365,-1.882786 3.6996,-3.756907 3.9228,-3.946036 4.26306,-2.957689 -4.16457,-12.097241 -2.36324,-2.562879 -9.778648,-9.661868 -10.008878,-9.581803 -0.11946,0.04155 -0.95875,1.028274 -1.86508,2.192737 -2.1098,2.710703 -2.13407,2.712701 -3.11588,0.257913 -5.800651,-14.503314 -5.988023,-12.707083 1.21566,-11.653753 3.21617,0.470258 6.6519,0.945026 7.634948,1.05501 2.21929,0.248311 2.22013,0.377799 0.0206,3.165047 -1.766748,2.238853 -1.766748,2.238853 -0.854828,2.996201 3.356618,2.787638 11.155248,10.807216 15.027178,15.45292 2.2397,2.687274 2.02279,2.543499 2.77077,1.836405 0.56972,-0.538565 0.84551,-0.77282 4.25692,-3.615803 2.86744,-2.389664 6.8735,-5.367439 9.78628,-7.274307 1.45321,-0.951357 2.78208,-1.837768 2.95305,-1.9698 0.17095,-0.132087 1.22505,-0.787479 2.34241,-1.456574 1.11737,-0.669096 2.30636,-1.38367 2.6422,-1.58797 1.27185,-0.773632 4.054,-2.263378 5.17717,-2.772219 1.37476,-0.622803 1.40328,-0.825901 0.58977,-4.202004 -2.40556,-9.983013 -4.09465,-38.064862 -2.28097,-37.921989 0.2137,0.01592 0.92394,0.05128 1.57829,0.07656 1.18974,0.04597 1.18974,0.04597 1.05282,4.101322 -0.14472,4.284084 0.58803,17.360725 1.33331,23.796897 0.37451,3.234238 0.90156,6.209078 1.91148,10.788951 0.23718,1.075592 0.47592,1.060155 3.3164,-0.214397 5.37858,-2.41343 13.7924,-5.278446 19.79415,-6.740181 1.79514,-0.437211 4.03323,-0.982001 4.97355,-1.210649 0.94032,-0.228631 3.22506,-0.669131 5.0772,-0.978853 3.41943,-0.571826 4.00762,-1.830782 2.80619,-6.006369 -0.25378,-0.882007 0.36157,-0.676045 7.50468,2.511689 7.77339,3.469023 7.4741,3.223771 5.51774,4.52184 -0.81284,0.539325 -3.62677,2.500178 -6.25314,4.357449 -5.7156,4.041856 -5.14784,3.978924 -5.54008,0.613997 -0.17719,-1.519593 -0.41565,-2.855043 -0.53003,-2.967679 -0.82922,-0.816476 -19.45186,3.881178 -26.30082,6.634495 -8.71196,3.502266 -9.07389,3.71187 -8.64691,5.008066 2.71756,8.249766 11.22127,23.935774 14.37178,26.51027 0.35527,0.290307 2.66798,-2.781979 2.66798,-3.544207 0,-0.793278 8.2819,-13.269467 11.14436,-16.788318 4.89866,-6.022 11.49006,-12.801417 15.32541,-15.762572 1.19919,-0.925858 2.34347,-1.82767 2.54281,-2.004014 2.42561,-2.145721 3.26541,-2.321076 4.1332,-0.863053 0.96125,1.615042 1.10622,1.373609 -2.27179,3.783324 -0.82443,0.588112 -1.56891,1.139037 -1.65438,1.224283 -0.0855,0.08523 -1.19269,1.046434 -2.46044,2.136013 -6.1755,5.307531 -12.52033,12.614852 -18.03117,20.766464 -4.00848,5.929292 -8.58554,13.832698 -8.3576,14.431419 0.82883,2.177088 14.86871,14.329536 18.96441,16.414942 1.11759,0.56905 1.13013,0.55883 2.64134,-2.151322 1.5184,-2.72298 1.54701,-2.722715 3.20244,0.03073 0.76935,1.279672 2.12502,3.512742 3.01259,4.962362 0.88758,1.44964 1.99389,3.28993 2.45847,4.08955 0.46456,0.7996 0.93016,1.45383 1.03461,1.45383 0.79069,0 5.80182,-9.74662 7.16,-13.926171 0.38293,-1.178361 0.80255,-2.417938 0.93252,-2.754625 0.46215,-1.197176 0.88682,-2.787709 1.38924,-5.203171 0.28012,-1.346714 0.64833,-3.050821 0.81823,-3.786914 1.81319,-7.855293 -0.0475,-23.600748 -3.93471,-33.297098 -0.7533,-1.879019 -1.36962,-3.566222 -1.36962,-3.749356 0,-0.183135 -0.11482,-0.332974 -0.25543,-0.332974 -0.1405,0 -0.55848,-0.660184 -0.92883,-1.467095 -0.8381,-1.825919 -3.17803,-5.690245 -3.52873,-5.827548 -0.14325,-0.05605 -0.26057,-0.235615 -0.26057,-0.398876 0,-1.262758 -8.15015,-10.459406 -12.12302,-13.67964 -0.4274,-0.346449 -1.26669,-1.024102 -1.86508,-1.505925 -2.42383,-1.95164 -10.6012,-7.115716 -11.2678,-7.115716 -0.0979,0 -1.23938,-0.489355 -2.5365,-1.087457 -39.3401,-18.1399475 -86.338197,8.131861 -91.740727,51.282855 -1.347749,10.764691 0.695128,24.135494 5.104764,33.411061 0.533127,1.12142 0.969324,2.10846 0.969324,2.19343 0,0.94801 6.173811,10.20944 8.909611,13.36543 2.84058,3.27689 10.223388,10.10146 10.927738,10.10146 0.12032,0 0.56689,0.31611 0.99255,0.70243 1.41,1.2797 10.17484,6.33716 10.98262,6.33716 0.104,0 1.10912,0.41492 2.23357,0.92201 9.13538,4.11979 24.30799,5.92897 34.80646,4.15034 z m -18.41328,-4.23063 c -1.00361,-1.51938 -0.90442,-1.38655 -2.79992,-3.74935 -5.80081,-7.23089 -14.26947,-13.29416 -22.20473,-15.89784 -3.66794,-1.20351 -3.53489,-1.2768 -3.86198,2.12742 -0.27964,2.91036 -0.27964,2.91036 -4.78692,-0.003 -2.479008,-1.60249 -5.450208,-3.49751 -6.602668,-4.21115 -2.70125,-1.6727 -3.11339,-1.22686 4.722948,-5.10929 8.24349,-4.08416 7.49003,-4.04486 7.26319,-0.37868 -0.18576,3.00217 -0.18576,3.00217 3.51004,4.16803 5.92051,1.86767 11.88133,5.11239 16.59592,9.03388 1.11128,0.92434 2.19886,1.82294 2.41687,1.99686 1.9907,1.58818 10.10226,11.58588 9.66338,11.91032 -2.23632,1.65317 -2.88641,1.67192 -3.91613,0.11299 z"
       id="path2" /></g></svg>
