<?xml version="1.0" encoding="UTF-8" standalone="no"?>
<!-- Created with Inkscape (http://www.inkscape.org/) -->

<svg
   version="1.1"
   id="svg1"
   width="317.33334"
   height="320"
   viewBox="0 0 317.33334 320"
   sodipodi:docname="equipos.svg"
   inkscape:version="1.3 (0e150ed, 2023-07-21)"
   xmlns:inkscape="http://www.inkscape.org/namespaces/inkscape"
   xmlns:sodipodi="http://sodipodi.sourceforge.net/DTD/sodipodi-0.dtd"
   xmlns="http://www.w3.org/2000/svg"
   xmlns:svg="http://www.w3.org/2000/svg">
  <sodipodi:namedview
     id="namedview1"
     pagecolor="#ffffff"
     bordercolor="#000000"
     borderopacity="0.25"
     inkscape:showpageshadow="2"
     inkscape:pageopacity="0.0"
     inkscape:pagecheckerboard="0"
     inkscape:deskcolor="#d1d1d1"
     inkscape:zoom="1.6165966"
     inkscape:cx="158.97596"
     inkscape:cy="160.21313"
     inkscape:window-width="1392"
     inkscape:window-height="1099"
     inkscape:window-x="412"
     inkscape:window-y="96"
     inkscape:window-maximized="0"
     inkscape:current-layer="svg1" />
  <defs
     id="defs1" />
  <path
     style="fill:#000000;stroke-width:2.86372"
     d="m 154.17843,295.92563 c -20.15347,-6.24038 -21.96079,-32.77758 -2.89044,-42.44095 10.49678,-5.31896 25.84907,0.43961 30.48603,11.43512 7.63156,18.09654 -8.98632,36.76806 -27.59559,31.00583 z m 14.01653,-10.33809 c 8.73928,-5.25689 7.8731,-18.39107 -1.54434,-23.41747 -5.26863,-2.81203 -14.3505,-0.0995 -17.46516,5.21667 -6.99904,11.94567 7.04853,25.39559 19.0095,18.2008 z m -38.21228,-21.111 c -0.83732,-0.45174 -5.46167,-3.10919 -10.27628,-5.90549 -14.76998,-8.57822 -22.973786,-13.23409 -28.730488,-16.30531 -6.336993,-3.38078 -6.145976,-2.99597 -3.485609,-7.02191 2.707493,-4.09722 4.876196,-3.57611 15.987277,3.84156 1.7501,1.16836 3.39533,2.12428 3.65608,2.12428 0.2608,0 3.79576,1.91016 7.85554,4.2448 4.05978,2.33462 8.58031,4.91457 10.04563,5.73323 6.50311,3.63313 11.41811,6.76745 11.41811,7.28131 0,1.4344 -3.18571,6.87217 -4.0141,6.85181 -0.51358,-0.0112 -1.61884,-0.39253 -2.45616,-0.84428 z m 56.9002,-2.11621 c -2.3325,-4.04725 -2.17195,-4.71147 1.54205,-6.38092 1.76852,-0.79491 4.58568,-2.35201 6.26032,-3.46019 1.67466,-1.10822 5.30814,-3.21471 8.07438,-4.68116 2.76626,-1.46645 7.90442,-4.37524 11.4181,-6.46395 18.511,-11.00387 16.72065,-10.34562 19.47472,-7.1598 3.82827,4.42846 5.10682,3.19905 -16.07273,15.45532 -3.38134,1.95673 -10.50485,5.96009 -15.82997,8.89637 -5.32517,2.93629 -9.88408,5.66246 -10.13095,6.05822 -0.98142,1.57339 -3.11116,0.55534 -4.73592,-2.26389 z m -30.63856,-37.78047 c 0,-21.15499 0,-21.15499 4.37694,-20.92881 7.0882,0.3663 7.28878,42.08377 0.20225,42.08377 -4.5793,0 -4.5793,0 -4.5793,-21.15496 z M 54.386311,238.8992 c -21.437495,-10.61372 -14.424694,-42.94098 9.315239,-42.94098 13.543649,0 23.272942,9.42647 23.272942,22.54857 0,16.89365 -17.516173,27.85456 -32.588181,20.39241 z m 17.154451,-9.50382 c 8.647611,-6.93457 8.269113,-17.19859 -0.829022,-22.48135 -12.875134,-7.47576 -26.608484,9.15761 -16.616429,20.12528 5.244778,5.75686 12.057238,6.67692 17.445451,2.35607 z M 251.2704,240.49804 c -16.15074,-3.11654 -22.19499,-26.27628 -9.9676,-38.19278 6.15574,-5.99926 18.5835,-8.3592 25.38528,-4.82048 25.00388,13.00867 12.32982,48.36758 -15.41768,43.01326 z m 11.19375,-9.75627 c 6.09297,-2.74213 9.42837,-9.07856 8.02839,-15.25197 -2.79841,-12.33995 -19.98519,-14.14335 -25.25317,-2.64983 -5.18928,11.32186 6.00174,22.95271 17.22478,17.9018 z M 112.29324,196.3791 c -15.50742,-7.20183 -13.838003,-31.70926 2.57557,-37.81046 4.3901,-1.63185 4.52082,-1.78859 5.12319,-6.14286 3.00964,-21.75541 36.4739,-29.7308 50.17261,-11.95744 2.44563,3.1731 2.44563,3.1731 6.25169,1.83491 11.46602,-4.03144 22.94515,1.69285 25.61681,12.77436 0.91677,3.80241 1.26742,4.30227 3.30906,4.71721 17.22405,3.50063 20.1031,28.2644 4.18661,36.0112 -6.35777,3.09443 -90.73562,3.59174 -97.23554,0.57308 z m -53.967607,-6.62016 c -3.18082,-5.10224 0.09121,-51.49627 3.631882,-51.49627 6.311486,0 6.901975,51.35227 0.595372,51.77716 -2.138852,0.14424 -4.04112,0.0172 -4.227254,-0.28078 z m 197.383027,-0.33701 c -3.23297,-3.20318 -0.0884,-50.64296 3.38744,-51.09975 4.96786,-0.65296 4.4646,-2.83255 4.52806,19.60951 0.10032,35.49972 0.50911,31.99304 -3.72885,31.99304 -2.02355,0 -3.90752,-0.22633 -4.18665,-0.5028 z M 200.204,142.00306 c -4.40925,-4.06153 -4.65081,-3.79595 11.05926,-12.1599 3.2566,-1.73381 8.59612,-4.70618 11.86559,-6.60526 7.1593,-4.15853 6.5051,-4.12516 8.84599,-0.45114 2.8522,4.47652 2.34238,5.37884 -4.9383,8.74067 -1.04664,0.48329 -4.75413,2.62067 -8.23884,4.7497 -3.48471,2.12906 -6.56759,3.87248 -6.85086,3.87424 -0.28339,0.001 -2.05648,1.01848 -3.94045,2.25935 -4.25431,2.80202 -4.32173,2.7985 -7.80239,-0.40766 z m -89.25149,-0.94583 c -2.51199,-1.56618 -8.58646,-5.1498 -13.498806,-7.96365 -10.583095,-6.06208 -10.098266,-5.47742 -8.153769,-9.83275 1.723613,-3.86059 3.048806,-4.29169 6.047823,-1.96747 1.046663,0.81119 2.196214,1.4824 2.554562,1.49163 0.358328,0.008 4.29758,2.18253 8.75387,4.82961 4.4563,2.64707 9.55817,5.53874 11.33748,6.42595 3.82328,1.90636 3.84139,2.00809 1.14181,6.41425 -2.54013,4.14589 -2.50382,4.14321 -8.18297,0.60243 z m 138.78445,-10.20521 c -26.09079,-10.892 -16.40812,-47.60823 11.44944,-43.415825 14.2961,2.151523 22.49973,16.625165 17.49127,30.859945 -3.72552,10.58851 -18.40147,16.95567 -28.94071,12.55588 z m 13.81737,-9.37127 c 1.45426,-0.72528 3.57166,-2.6762 4.70531,-4.3354 9.73782,-14.25215 -9.82738,-28.817573 -21.30771,-15.86273 -9.23178,10.4175 3.98148,26.49242 16.6024,20.19813 z M 56.247346,131.07477 C 41.367917,126.6584 36.604429,104.14359 48.269353,93.366516 63.41998,79.368984 86.990917,89.454818 86.970241,109.92631 c -0.01547,15.42994 -15.071632,25.79396 -30.722895,21.14846 z m 15.23959,-10.20401 C 79.829543,116.0725 79.665688,104.18811 71.176363,98.344176 57.369507,88.83969 42.704275,110.05549 56.089086,120.1705 c 5.036137,3.80586 9.634651,4.01495 15.39785,0.70026 z m 87.992514,5.95665 c -4.81985,-1.69037 -5.19273,-45.269874 -0.3806,-44.481839 1.56998,0.257112 3.62525,0.471214 4.56726,0.475775 1.7127,0.0087 1.7127,0.0087 1.7127,22.634034 0,25.44395 0.50408,23.61778 -5.89936,21.37203 z M 87.490303,93.32065 c -1.121017,-1.696474 -2.038223,-3.348234 -2.038223,-3.670653 0,-0.616277 6.424343,-4.400265 21.80579,-12.843709 5.08523,-2.79148 10.27624,-5.802365 11.53559,-6.690831 1.25937,-0.888493 2.52178,-1.615423 2.80537,-1.615423 0.28359,0 2.56123,-1.187861 5.06141,-2.639669 5.74406,-3.335455 6.24261,-3.307906 8.22188,0.454404 2.04962,3.896028 2.00302,3.9523 -7.80407,9.425768 -4.26375,2.379653 -10.17882,5.796643 -13.14461,7.593352 -2.96578,1.796698 -5.62516,3.266725 -5.90973,3.266725 -0.28457,0 -4.22532,2.206015 -8.757196,4.902229 -9.74174,5.795823 -9.202494,5.712595 -11.776211,1.817807 z m 139.892577,1.285143 c -1.69349,-0.87701 -7.34545,-4.104357 -12.5599,-7.171897 -5.21445,-3.067527 -12.2212,-7.187902 -15.57047,-9.156357 -3.34933,-1.968494 -7.88803,-4.500205 -10.08601,-5.626034 -4.58326,-2.34763 -4.49166,-2.096079 -2.43831,-6.695269 1.84968,-4.142955 1.83302,-4.140274 6.97208,-1.1262 2.21637,1.299936 6.59888,3.791626 9.73887,5.53707 3.13996,1.74543 8.44938,4.850456 11.7987,6.900015 3.3493,2.049558 9.42936,5.581997 13.51121,7.849834 8.40609,4.670294 8.12216,4.231633 5.32867,8.23269 -2.37807,3.40602 -2.49946,3.42879 -6.69484,1.256148 z M 154.71697,76.139474 C 134.52194,69.54491 131.77652,42.86523 150.36489,33.846271 c 22.17905,-10.761188 43.37288,14.577028 28.48474,34.054852 -4.80321,6.283911 -17.1794,10.508871 -24.13266,8.238351 z m 11.80367,-10.470853 c 10.42232,-5.118199 10.47407,-18.95789 0.0884,-23.630778 -13.48192,-6.065966 -25.8404,10.099034 -15.83498,20.712305 4.44688,4.717074 9.99149,5.744695 15.74663,2.918473 z"
     id="path1-9" />
</svg>
