<?xml version="1.0" encoding="UTF-8" standalone="no"?>
<!-- Created with Inkscape (http://www.inkscape.org/) -->

<svg
   width="300mm"
   height="150mm"
   viewBox="0 0 300 150"
   version="1.1"
   id="svg1"
   xml:space="preserve"
   inkscape:version="1.3 (0e150ed, 2023-07-21)"
   sodipodi:docname="ip.svg"
   xmlns:inkscape="http://www.inkscape.org/namespaces/inkscape"
   xmlns:sodipodi="http://sodipodi.sourceforge.net/DTD/sodipodi-0.dtd"
   xmlns="http://www.w3.org/2000/svg"
   xmlns:svg="http://www.w3.org/2000/svg"><sodipodi:namedview
     id="namedview1"
     pagecolor="#ffffff"
     bordercolor="#000000"
     borderopacity="0.25"
     inkscape:showpageshadow="2"
     inkscape:pageopacity="0.0"
     inkscape:pagecheckerboard="0"
     inkscape:deskcolor="#d1d1d1"
     inkscape:document-units="mm"
     inkscape:zoom="0.69925595"
     inkscape:cx="396.85039"
     inkscape:cy="560.59587"
     inkscape:window-width="2048"
     inkscape:window-height="1099"
     inkscape:window-x="0"
     inkscape:window-y="25"
     inkscape:window-maximized="1"
     inkscape:current-layer="layer1" /><defs
     id="defs1" /><g
     inkscape:label="Capa 1"
     inkscape:groupmode="layer"
     id="layer1"><path
       id="path1"
       style="fill:#000000;stroke-width:1.46902"
       d="m 87.457711,10.029362 -2.645834,1.21853 c -3.186042,1.467655 -6.00746,4.156725 -7.511169,7.158736 l -1.076937,2.14974 v 33.838245 c 0,33.067651 0.01852,33.874856 0.805636,35.476904 l 0.805119,1.639693 26.115714,-0.05943 c 18.25138,-0.04142 26.75589,0.07011 28.24221,0.369487 2.93906,0.591978 5.24503,2.311092 6.66574,4.970239 l 1.15807,2.167826 11.28303,-0.09973 11.28303,-0.09974 0.40153,-1.316198 c 0.22066,-0.72375 1.24474,-2.106514 2.27583,-3.073198 3.26421,-3.0603 2.33186,-2.977597 32.71015,-2.915067 l 26.51776,0.05478 0.80512,-1.639177 c 0.7868,-1.601362 0.80512,-2.412402 0.80512,-35.476387 V 20.556368 l -1.08314,-2.162659 c -1.51545,-3.025871 -4.60389,-5.959764 -7.66723,-7.283793 l -2.50011,-1.080554 h -63.69482 z m 9.072831,16.542659 h 54.630258 54.63026 l 1.31361,1.229383 1.31362,1.228865 0.10903,24.898222 c 0.0795,18.156519 -0.0166,25.181818 -0.3545,25.945187 -0.25486,0.575735 -0.94513,1.367396 -1.53375,1.759582 -1.0034,0.668555 -2.14751,0.721256 -18.32963,0.836642 -9.49265,0.06765 -33.95786,0.07959 -54.36723,0.02687 -36.181889,-0.09356 -37.135583,-0.114351 -38.218854,-0.836124 -0.611046,-0.407135 -1.319718,-1.211236 -1.574581,-1.786971 -0.337919,-0.763369 -0.43396,-7.788668 -0.3545,-25.945187 l 0.109037,-24.898222 1.313615,-1.228865 z M 139.7093,37.287646 c -7.70129,0 -8.28945,0.04885 -9.04079,0.751893 -0.56161,0.525501 -0.80357,1.253095 -0.80357,2.41639 0,2.27303 1.25954,3.223059 4.27313,3.223059 h 2.15594 v 10.670149 10.67015 l -2.47065,0.167432 c -1.95857,0.132565 -2.62459,0.345381 -3.21428,1.02681 -1.36886,1.58179 -0.80563,4.596255 0.98961,5.296835 h 5.1e-4 c 0.48336,0.18827 4.37488,0.305355 8.64857,0.260449 7.63297,-0.08012 7.7848,-0.09711 8.5385,-0.968933 0.99138,-1.146641 1.00297,-3.456346 0.0232,-4.588351 -0.5897,-0.681429 -1.25568,-0.89423 -3.21427,-1.02681 L 143.1246,65.019287 V 54.349137 43.678988 h 2.22828 c 1.83001,0 2.40428,-0.165018 3.21428,-0.922941 1.27366,-1.191772 1.36753,-3.608067 0.18293,-4.716508 -0.75135,-0.703063 -1.33953,-0.751893 -9.04079,-0.751893 z m 20.77548,0.0031 c -6.41851,-0.0036 -6.5671,0.01466 -7.53391,0.919324 l -0.9865,0.922941 v 15.268835 c 0,10.084818 0.14514,15.522769 0.42788,16.017111 0.23544,0.411637 0.82306,0.905452 1.30586,1.09709 1.32228,0.524893 3.60028,0.111397 4.39405,-0.797367 0.59912,-0.685949 0.7028,-1.626894 0.7028,-6.361369 v -5.55625 l 4.31963,-0.155029 c 3.68536,-0.132141 4.61949,-0.300048 6.36447,-1.14515 4.03156,-1.952495 6.31432,-5.49143 6.28592,-9.744625 -0.0284,-4.245393 -2.46171,-7.729296 -6.68279,-9.568408 -1.89274,-0.824709 -2.55234,-0.894303 -8.59741,-0.897103 z m -1.68982,6.387724 h 3.65662 c 3.62256,0 3.66894,0.012 5.02244,1.278475 1.05671,0.988809 1.36632,1.590587 1.36632,2.656685 0,1.604094 -0.55221,2.758455 -1.75493,3.67006 -0.6718,0.509206 -1.65994,0.650741 -4.57337,0.657841 l -3.71708,0.0088 v -4.135664 z m -53.93728,55.352694 -25.419635,0.104386 -1.859318,0.857312 c -2.314768,1.067157 -4.500776,3.025177 -5.677689,5.085477 -0.830829,1.45442 -0.911172,2.15862 -1.032496,9.07335 -0.08963,5.10876 0.02488,8.01821 0.359152,9.13536 0.90757,3.03314 3.889418,6.00603 7.104992,7.08432 1.244783,0.41793 14.045221,0.49161 73.430664,0.42581 l 71.92377,-0.0796 1.87482,-1.03094 c 2.44954,-1.3474 4.56869,-3.70191 5.37383,-5.97018 0.52788,-1.48874 0.62216,-3.20547 0.51574,-9.44025 -0.12034,-7.04563 -0.19824,-7.74015 -1.03095,-9.19789 -1.19816,-2.09747 -3.50971,-4.17472 -5.72937,-5.149039 -1.77224,-0.777917 -2.31685,-0.795539 -27.4686,-0.898136 -17.64391,-0.07202 -25.8207,0.01946 -26.1736,0.293522 -0.3394,0.263552 -0.56346,1.771103 -0.66146,4.450373 -0.16041,4.38505 -0.58598,5.46936 -2.64015,6.72879 -0.98623,0.60468 -2.45009,0.66301 -16.58658,0.66301 -14.1365,0 -15.60036,-0.0584 -16.58659,-0.66301 -2.05647,-1.26085 -2.47942,-2.34229 -2.64066,-6.74998 -0.12853,-3.51387 -0.25234,-4.124114 -0.90279,-4.449854 -0.48837,-0.244497 -9.70716,-0.340781 -26.17308,-0.272851 z" /></g></svg>
