<?xml version="1.0" encoding="UTF-8" standalone="no"?>
<!-- Created with Inkscape (http://www.inkscape.org/) -->

<svg
   version="1.1"
   id="svg1"
   width="612"
   height="306"
   viewBox="0 0 611.99998 306"
   sodipodi:docname="OTNWhite.svg"
   inkscape:version="1.3 (0e150ed, 2023-07-21)"
   xmlns:inkscape="http://www.inkscape.org/namespaces/inkscape"
   xmlns:sodipodi="http://sodipodi.sourceforge.net/DTD/sodipodi-0.dtd"
   xmlns="http://www.w3.org/2000/svg"
   xmlns:svg="http://www.w3.org/2000/svg">
  <defs
     id="defs1" />
  <sodipodi:namedview
     id="namedview1"
     pagecolor="#ffffff"
     bordercolor="#000000"
     borderopacity="0.25"
     inkscape:showpageshadow="2"
     inkscape:pageopacity="0.0"
     inkscape:pagecheckerboard="0"
     inkscape:deskcolor="#d1d1d1"
     inkscape:zoom="0.55263154"
     inkscape:cx="631.52385"
     inkscape:cy="28.047621"
     inkscape:window-width="2048"
     inkscape:window-height="1014"
     inkscape:window-x="0"
     inkscape:window-y="25"
     inkscape:window-maximized="1"
     inkscape:current-layer="g1" />
  <g
     inkscape:groupmode="layer"
     inkscape:label="Image"
     id="g1">
    <path
       style="fill:#000000;stroke-width:0.412821"
       d="m 52.581942,213.72361 c -0.759364,-0.67545 -2.46607,-0.88181 -8.394998,-1.01499 l -7.441861,-0.16717 -2.734524,-2.39577 -2.734524,-2.39578 -0.431636,-61.79924 -0.431637,-61.799239 2.518664,-2.282744 2.518664,-2.282745 11.251901,0.04938 c 6.188546,0.02716 11.251902,0.232908 11.251902,0.45722 0,0.224311 0.984853,0.5251 2.188564,0.668421 1.203709,0.14332 31.45298,0.402858 67.220603,0.576751 42.98306,0.208973 65.23401,0.495815 65.62772,0.846022 0.32762,0.291418 1.00275,0.513433 1.50028,0.493365 0.64115,-0.02586 0.56466,-0.166427 -0.26262,-0.482639 -0.75231,-0.287553 0.80367,-0.432935 4.37713,-0.408971 4.11457,0.02759 4.94233,0.133058 3.20988,0.408971 -1.80464,0.287411 -1.14235,0.386708 2.91809,0.43751 3.58036,0.0448 4.97385,-0.09449 4.37713,-0.43751 -0.7079,-0.406929 -0.62415,-0.504748 0.4377,-0.511175 0.72223,-0.0044 1.31315,0.225657 1.31315,0.511175 0,0.29623 1.56615,0.496908 3.6476,0.467379 2.71082,-0.03846 3.27289,-0.15849 2.18856,-0.467379 -1.31057,-0.373335 -1.23983,-0.420898 0.69508,-0.467378 1.18476,-0.02846 2.31643,0.18186 2.51482,0.467378 0.19838,0.285519 0.75463,0.519126 1.23611,0.519126 0.4815,0 0.71312,-0.233607 0.51474,-0.519126 -0.19839,-0.285518 -0.0981,-0.519125 0.22292,-0.519125 0.32099,0 0.74637,0.234238 0.94528,0.520529 0.23947,0.344646 0.75568,0.332968 1.52772,-0.03456 0.64133,-0.3053 1.9047,-0.410781 2.80749,-0.234406 0.9028,0.176376 4.04411,0.391213 6.9807,0.477416 2.93659,0.0862 5.50688,0.305831 5.71174,0.488061 0.20487,0.18223 0.65929,0.133488 1.0098,-0.108316 1.02371,-0.70619 3.19181,-1.040726 3.38603,-0.52246 0.2495,0.6658 31.64845,0.931872 34.80807,0.29496 1.5893,-0.320368 2.68135,-0.328443 2.91809,-0.02158 0.56296,0.729735 8.2527,0.724295 8.27655,-0.0059 0.0418,-1.279281 2.24179,-2.930295 3.90462,-2.930295 1.39681,0 1.83598,0.321227 2.50133,1.829574 l 0.80705,1.829575 18.12353,-0.02904 c 9.96793,-0.01596 23.11344,0.06092 29.21223,0.170852 11.99558,0.216231 15.45507,0.01866 15.48527,-0.884351 0.0378,-1.132396 2.2304,-2.916618 3.58407,-2.916618 1.03536,0 1.61273,0.490723 2.34406,1.992294 l 0.97036,1.992293 88.67727,-0.08503 88.67729,-0.08503 1.61296,-1.128576 c 2.04228,-1.428935 4.95727,-1.532925 4.95727,-0.176846 0,0.523452 -0.14042,1.076657 -0.31209,1.229344 -0.46073,0.409835 -0.21031,82.424133 0.27949,91.521043 0.23916,4.44243 0.46152,-13.51732 0.51772,-41.81555 0.0697,-35.071503 0.28535,-49.76858 0.73619,-50.169633 0.46118,-0.410207 0.46118,-0.860595 0,-1.627073 -0.3507,-0.58292 -0.63766,-1.192016 -0.63766,-1.353546 0,-0.16153 4.93324,-0.293691 10.96273,-0.293691 h 10.96278 l 3.07839,2.772681 3.07843,2.772681 -0.36326,13.969114 c -0.25628,9.854747 -0.97422,98.987737 -0.87774,108.969267 0.005,0.28566 -0.99571,1.49317 -2.21882,2.68339 l -2.22383,2.16401 -9.24218,0.26422 c -5.0832,0.14532 -9.40066,0.4893 -9.5944,0.76442 -0.55768,0.79198 -9.9819,0.76206 -9.98186,-0.0317 5e-5,-0.51915 -7.52034,-0.6322 -36.62193,-0.5505 -20.14213,0.0566 -40.16748,0.0942 -44.50085,0.0838 -31.45708,-0.0761 -52.60475,0.0553 -53.10438,0.32994 -0.3236,0.1779 -0.91666,0.14195 -1.3179,-0.0799 -0.40123,-0.22184 -10.11846,-0.44625 -21.59381,-0.4987 -17.55718,-0.0802 -20.86431,0.02 -20.86431,0.63227 0,0.54909 -0.9263,0.72763 -3.77519,0.72763 -3.10072,0 -3.71572,-0.13787 -3.44229,-0.77168 0.29198,-0.67679 -3.43879,-0.77164 -30.34139,-0.77128 -16.87087,2.2e-4 -30.88253,-0.0614 -31.13702,-0.13679 -0.25449,-0.0755 -0.52883,0.0945 -0.60965,0.37764 -0.095,0.33289 9.28806,0.57618 26.55034,0.68841 14.6835,0.0955 26.80861,0.2726 26.94468,0.39364 0.13607,0.12103 -66.84144,0.22006 -148.83892,0.22006 H 53.53508 Z m 237.912288,-0.75416 c -0.39165,-0.56368 -16.91492,-0.56847 -20.68741,-0.006 -1.64674,0.24552 1.78289,0.40815 9.19543,0.43605 7.00557,0.0263 11.68738,-0.14884 11.49198,-0.43006 z m 134.9228,-2.68082 c 0.25889,-1.21345 0.49109,-2.43988 0.51599,-2.72541 0.0801,-0.91877 1.47352,-2.85518 2.05451,-2.85518 0.3097,0 0.56309,0.46721 0.56309,1.03825 0,0.5768 0.38906,1.03825 0.87541,1.03825 0.69504,0 0.87543,-0.75108 0.87543,-3.64501 v -3.645 l -1.45904,-0.59133 -1.45904,-0.59132 v -27.90962 -27.90961 l 1.47454,-1.55875 1.47455,-1.55875 -0.0475,-25.53369 c -0.0261,-14.043525 0.0982,-25.663284 0.27631,-25.821678 0.17807,-0.158395 0.31542,-0.541064 0.3052,-0.850376 -0.0102,-0.309313 -0.38232,-0.135472 -0.82693,0.386313 l -0.80837,0.9487 -1.52575,-0.889238 c -0.83916,-0.489081 -1.69059,-0.74261 -1.89206,-0.5634 -0.20148,0.179212 -0.31978,1.49569 -0.26288,2.92551 l 0.10344,2.59967 h -7.88954 c -4.87062,0 -7.88955,0.198643 -7.88955,0.519126 0,0.285519 0.26263,0.519125 0.58362,0.519125 0.3537,0 0.58361,2.249544 0.58361,5.71038 v 5.710378 l 1.89676,0.0831 1.89675,0.0831 -1.89675,0.20938 c -1.40597,0.1552 -1.89676,0.46951 -1.89676,1.21474 0,0.58845 0.42353,1.03032 1.02133,1.06557 l 1.02133,0.0602 -1.02133,0.23741 c -1.16322,0.27039 -1.39986,1.69739 -0.29181,1.75964 0.58362,0.0328 0.58362,0.0934 0,0.30282 -1.11621,0.40063 -0.88371,2.24273 0.29181,2.31204 l 1.02133,0.0602 -1.02133,0.2374 -1.02133,0.23741 v 45.3854 c 0,29.91086 -0.19899,45.38541 -0.58361,45.38541 -0.34331,0 -0.58362,1.81693 -0.58362,4.41256 v 4.41256 h 7.53572 7.53572 z m -14.69101,0.61397 c -0.21336,-0.30707 0.18087,-0.68569 0.88432,-0.84932 0.99033,-0.23035 1.19405,-0.56191 0.92693,-1.50861 -0.25314,-0.89713 -0.13196,-1.14153 0.46497,-0.93778 0.44403,0.15156 0.96428,-0.0883 1.15613,-0.53295 0.56861,-1.31805 1.37806,-0.9266 1.81691,0.87863 l 0.41014,1.68716 0.5333,-1.20139 c 0.29331,-0.66076 0.77063,-1.07091 1.0607,-0.91144 0.63078,0.34676 1.3771,-1.15369 0.90896,-1.82746 -0.18048,-0.25976 0.54089,-0.45747 1.60305,-0.43938 1.69897,0.0289 1.77825,0.0877 0.65928,0.48885 -1.04745,0.37546 -1.24337,0.81246 -1.11014,2.47617 l 0.16178,2.02025 -2.54585,0.60567 c -3.1792,0.75635 -6.42403,0.7805 -6.93048,0.0516 z m 3.8261,-5.21776 c -0.7979,-0.28312 -1.91406,-0.40699 -2.48037,-0.27525 -1.40819,0.32755 -1.32929,-1.04151 0.0992,-1.72154 1.57843,-0.75141 11.12708,-0.70879 11.12708,0.0497 0,0.3804 -0.71526,0.4838 -2.03196,0.29375 -1.11757,-0.16132 -2.1729,-0.0905 -2.34516,0.15745 -0.17226,0.24792 -1.22758,0.31877 -2.34516,0.15745 -1.3167,-0.19005 -2.03197,-0.0866 -2.03197,0.29375 0,0.32288 0.67207,0.58706 1.49349,0.58706 0.84704,0 1.33737,0.2247 1.13279,0.51912 -0.43006,0.61895 -0.71958,0.61215 -2.61796,-0.0614 z m -1.8472,-6.16805 c -0.0491,-0.14277 -0.11497,-13.52362 -0.14649,-29.73524 l -0.0573,-29.47568 6.7116,0.14509 6.71159,0.14509 0.1298,29.46037 0.12981,29.46037 -2.17247,0.0792 c -5.42899,0.19777 -11.22535,0.15719 -11.30655,-0.0792 z m 3.59462,-85.91001 c -0.49788,-0.53362 -0.69166,-2.70671 -0.62496,-7.00819 l 0.0967,-6.23475 -1.05145,-0.0118 c -0.67697,-0.007 -0.38019,-0.30619 0.83326,-0.838335 3.40898,-1.494975 3.65965,-1.036044 3.65965,6.699985 0,4.69057 -0.22568,7.12139 -0.70034,7.54361 -0.91577,0.81458 -1.33929,0.78577 -2.21286,-0.1505 z m 4.46952,0.42737 c -0.214,-0.19036 -0.38909,-3.58497 -0.38909,-7.54362 0,-5.94584 0.15353,-7.249933 0.88286,-7.49887 2.01816,-0.68886 2.47784,0.659235 2.46318,7.22368 -0.008,3.49137 -0.24783,6.75676 -0.53341,7.25642 -0.52586,0.92008 -1.71198,1.19532 -2.42354,0.56239 z m -7.50684,-17.367208 c -0.59712,-0.328392 -0.52599,-0.6183 0.33023,-1.345799 0.79549,-0.675902 1.16462,-0.751349 1.36177,-0.278336 0.34809,0.835121 1.22377,0.826835 2.17648,-0.0206 0.46088,-0.409946 1.68914,-0.590063 3.16821,-0.464598 1.90078,0.161238 2.41553,0.414534 2.41553,1.188626 0,1.070353 -1.15593,1.396962 -1.18498,0.334817 -0.01,-0.356898 -0.30977,-0.201416 -0.66669,0.345516 l -0.64895,0.994421 -0.87086,-0.994421 c -0.66672,-0.76131 -0.79315,-0.792576 -0.53932,-0.133379 0.27678,0.718802 -0.0907,0.855363 -2.22439,0.826671 -1.40578,-0.01891 -2.89844,-0.222719 -3.31703,-0.452923 z m 58.47604,113.143438 c 0,-1.76948 0.32925,-3.00813 0.96586,-3.63387 1.08447,-1.06588 2.61336,-1.27781 2.38995,-0.33127 -0.0802,0.33994 0.2558,0.69757 0.74678,0.79471 0.72367,0.1432 0.9244,-0.51366 1.06005,-3.4687 l 0.1673,-3.64536 -1.49772,-0.60701 c -0.82378,-0.33385 -1.52346,-0.86151 -1.55484,-1.17258 -0.0315,-0.31107 -0.009,-12.93704 0.0505,-28.05771 l 0.10763,-27.49214 1.45894,-1.54227 1.45899,-1.54228 -0.1964,-25.8111 c -0.11451,-15.052593 -0.41461,-25.692116 -0.72,-25.525659 -0.28797,0.156987 -1.33848,0.308791 -2.33445,0.337343 l -1.81082,0.05191 v 2.336063 2.336065 L 464.2971,92.66782 c -6.95517,-0.151735 -8.51977,0.07447 -7.40063,1.069924 0.40708,0.362092 0.25031,106.004006 -0.16833,113.436126 l -0.29973,5.32104 h 7.6549 7.6549 z m -13.00431,1.76433 -1.62378,-0.19024 0.31731,-1.65106 c 0.17452,-0.90809 0.42474,-2.51933 0.55604,-3.58056 0.1313,-1.06122 0.40643,-2.17086 0.61139,-2.46584 0.21879,-0.31489 2.58745,-0.50715 5.73668,-0.46565 2.95018,0.0389 4.70742,0.16714 3.90497,0.28501 -0.80246,0.11788 -1.85297,0.34799 -2.33445,0.51135 -0.48151,0.16336 -2.25424,0.25178 -3.93943,0.19648 -1.98607,-0.0651 -3.064,0.10952 -3.064,0.49661 0,0.42081 1.80892,0.55718 6.12533,0.46173 3.36894,-0.0745 6.12654,0.0241 6.12797,0.21915 0,0.19503 -0.0346,0.5298 -0.0799,0.74394 -0.11153,0.52568 -0.27995,2.16031 -0.40116,3.89344 -0.0854,1.22041 -0.35393,1.4276 -1.85069,1.4276 -1.47846,0 -1.75085,-0.20189 -1.75085,-1.29781 0,-0.76914 -0.33432,-1.29782 -0.82076,-1.29782 -0.5318,0 -0.71398,0.36335 -0.51741,1.03194 0.17976,0.61145 -0.0209,1.12225 -0.49236,1.25356 -1.4279,0.39767 -4.8452,0.62261 -6.50483,0.42817 z m 0.21196,-41.34131 0.0986,-29.80251 6.78458,0.0825 6.78457,0.0825 -0.0167,15.83333 c -0.01,8.70832 -0.0748,22.08229 -0.14588,29.71993 l -0.12927,13.88659 h -6.73727 -6.7373 z m 2.45144,-34.98743 -2.46208,-0.15884 0.12761,-7.75776 0.12762,-7.75777 2.48037,-0.039 c 10.16106,-0.15975 10.25486,-0.15209 10.65511,0.86947 0.2125,0.54249 0.33209,2.73839 0.26573,4.87977 -0.0663,2.1414 -0.15425,5.23668 -0.19526,6.87842 l -0.0746,2.98497 h -1.49348 c -0.84701,0 -1.33734,-0.2247 -1.1328,-0.51913 0.20153,-0.29005 -0.24682,-0.51912 -1.01606,-0.51912 -0.75719,0 -1.70283,-0.29006 -2.10141,-0.64457 -0.57708,-0.51334 -0.8353,-0.48692 -1.26823,0.12978 -0.43514,0.61986 -0.1101,0.83733 1.62925,1.09003 1.1951,0.17362 2.04154,0.37191 1.88104,0.44065 -0.50518,0.21635 -4.85819,0.28854 -7.42282,0.12309 z m 1.63939,-19.22073 c -0.31458,-0.52283 -0.56266,-4.36629 -0.55129,-8.54103 0.016,-5.87969 0.20606,-7.727278 0.84323,-8.197649 0.63034,-0.465329 1.02713,-0.456209 1.69798,0.039 0.70779,0.522501 0.87545,2.155009 0.87545,8.525309 0,5.43599 -0.21718,8.07221 -0.70037,8.502 -0.96849,0.86147 -1.49773,0.78138 -2.165,-0.32766 z m 4.64371,0.20141 c -0.42261,-0.45294 -0.5865,-3.49769 -0.4804,-8.92406 l 0.16108,-8.236562 h 1.16725 1.1672 l 0.15973,8.635092 c 0.13241,7.15868 0.0149,8.68451 -0.68686,8.92406 -0.4656,0.15893 -1.13521,-0.0204 -1.488,-0.39853 z m -9.15718,-19.762859 c -0.18633,-0.431915 0.005,-1.153829 0.42533,-1.604253 l 0.7641,-0.818954 0.79394,0.955347 0.79393,0.955346 0.57891,-0.90847 c 0.42429,-0.665817 1.32079,-0.908469 3.35644,-0.908469 2.99521,0 5.20815,0.999297 4.4928,2.028812 -0.32015,0.460755 -0.65114,0.377698 -1.23781,-0.31059 l -0.80084,-0.939534 -0.0184,1.08293 c -0.0157,0.907288 -0.41132,1.096619 -2.4401,1.167329 -1.33184,0.04642 -2.81899,-0.207292 -3.3048,-0.563804 -0.70619,-0.51824 -0.93251,-0.5181 -1.12882,6.68e-4 -0.34201,0.903876 -1.86514,0.812541 -2.27453,-0.136392 z m 36.56144,113.169389 c 0.91499,-3.39266 1.74429,-4.20353 3.46262,-3.38553 l 1.20454,0.57341 v -3.60887 -3.60889 l -3.35581,-0.99491 -3.35577,-0.99491 -0.1515,-25.63456 -0.15149,-25.63455 3.49155,-3.13372 3.4915,-3.13372 0.16169,-26.28879 0.16165,-26.288801 -1.60497,1.016785 -1.60495,1.016785 v -1.116862 c 0,-0.661455 -0.29747,-1.029664 -0.72949,-0.903014 -0.42362,0.124176 -0.80299,1.326339 -0.90472,2.866883 l -0.17516,2.653037 -7.41184,-0.0094 c -9.13419,-0.01157 -8.66246,-0.05353 -7.82039,0.695477 0.91268,0.811814 1.02853,109.95076 0.11674,109.95076 -0.3433,0 -0.58365,1.81693 -0.58365,4.41256 v 4.41257 h 7.49382 7.49381 z m -14.52108,1.87289 c -1.261,-0.70938 -0.16952,-1.64007 1.5696,-1.33833 l 1.56916,0.27226 -1.34046,-0.62008 c -0.86788,-0.40149 -1.27934,-1.00006 -1.1672,-1.69796 0.15378,-0.95697 0.57411,-1.07786 3.74778,-1.07786 2.65036,0 3.5007,-0.17044 3.28889,-0.65923 -0.15709,-0.36257 -0.84645,-0.61825 -1.53191,-0.56816 -2.95395,0.21583 -6.20698,-0.11332 -6.20698,-0.62803 0,-0.33838 1.10212,-0.50558 2.80311,-0.42528 1.54171,0.0728 3.13577,-0.0505 3.54236,-0.27407 0.47397,-0.26056 1.35035,0.20243 2.44218,1.29024 l 1.70292,1.69663 1.61223,-0.70218 1.61218,-0.70217 -2.04263,-0.35401 -2.04267,-0.354 2.43333,-0.0684 2.43334,-0.0684 -0.47996,1.68716 c -0.26394,0.92793 -0.64173,2.32957 -0.83948,3.11475 -0.2699,1.07149 -0.70862,1.42759 -1.75887,1.42759 -0.76959,0 -1.49938,-0.2671 -1.62173,-0.59356 -0.1612,-0.43024 -0.61625,-0.40314 -1.65359,0.0985 -1.71276,0.82824 -6.94032,1.18087 -8.0716,0.54449 z m 37.86399,-1.64091 c 0,-1.44637 0.27186,-3.08161 0.60413,-3.63388 0.71387,-1.18646 2.31392,-1.34234 2.31392,-0.22543 0,0.42829 0.39395,0.77869 0.87543,0.77869 0.69868,0 0.87543,-0.76943 0.87543,-3.81012 v -3.81011 l -1.45904,-0.59132 -1.45902,-0.59132 v -27.95341 -27.95341 l 1.4758,-1.23325 1.47583,-1.23326 -0.0595,-26.09202 -0.0595,-26.092013 -1.07716,0.598374 c -0.82859,0.460278 -1.28858,0.442331 -1.99308,-0.07777 -1.104,-0.814973 -1.38702,-0.328804 -1.63884,2.815106 l -0.16633,2.076502 -7.73294,-0.0028 c -7.16545,-0.0026 -8.65353,0.214099 -7.14929,1.041049 0.32098,0.176461 0.59162,0.832665 0.60137,1.458232 0.0157,1.022167 0.0779,1.04536 0.61262,0.228925 0.69054,-1.054606 2.0752,-1.201562 2.44564,-0.259562 0.19342,0.491953 0.5228,0.455015 1.36177,-0.152714 0.62299,-0.451311 2.06889,-0.76743 3.30867,-0.72338 2.48817,0.0884 2.4735,0.08056 2.99893,1.60342 l 0.38533,1.116669 -2.988,0.181144 c -1.6434,0.09963 -3.11906,0.06434 -3.27926,-0.07842 -0.16016,-0.142759 -1.31997,-0.27411 -2.57734,-0.29189 l -2.28613,-0.03233 v 53.026378 c 0,29.16451 -0.19697,53.20148 -0.43771,53.41548 -0.46678,0.41495 -0.75671,8.08377 -0.33039,8.73885 0.13938,0.21414 3.65206,0.38934 7.80596,0.38934 h 7.55259 z m -14.59045,0.5207 c 0,-0.94481 0.23518,-1.06575 1.51619,-0.77977 0.99987,0.22322 1.44205,0.14075 1.29852,-0.24222 -0.11967,-0.31939 -0.36764,-0.50478 -0.55103,-0.41199 -0.83727,0.42366 -2.07944,-1.23305 -1.82216,-2.4302 l 0.27817,-1.29452 h 3.43368 c 1.88851,0 3.43368,0.2145 3.43368,0.47667 0,0.26217 0.15941,0.84619 0.35424,1.29781 0.25396,0.58867 0.006,0.82115 -0.87543,0.82115 -1.58613,0 -1.59423,0.83235 -0.0118,1.20047 0.78828,0.18336 1.14646,0.61682 1.01532,1.22858 -0.16808,0.78376 -0.87477,0.97149 -4.13608,1.09876 l -3.93341,0.1535 z m 1.61857,-37.47423 c 0.18476,-31.42319 0.19119,-30.48264 -0.21688,-31.66667 l -0.3131,-0.90847 h 7.00966 7.00962 l 0.0471,29.84971 0.0471,29.8497 -6.87144,4e-5 -6.87147,2e-5 z m 4.14917,-59.43987 c -0.0376,-0.49966 -0.15955,-3.74851 -0.27086,-7.21967 -0.16502,-5.14576 -0.0398,-6.431034 0.67679,-6.960228 0.61044,-0.450623 1.06535,-0.483479 1.48805,-0.107483 0.70358,0.625835 0.96691,13.597631 0.29563,14.563741 -0.65696,0.9455 -2.1114,0.76192 -2.18961,-0.27636 z m 4.54285,0.56239 c -0.65772,-0.58503 -0.45164,-14.612908 0.22007,-14.982176 0.33508,-0.184188 0.99165,-0.05256 1.45907,0.292491 1.1111,0.820235 1.24202,13.441025 0.14952,14.412815 -0.79339,0.70572 -1.26607,0.77728 -1.82866,0.27687 z m 27.63095,97.03317 c 0.0193,-4.27278 1.62935,-7.16661 2.93881,-5.28193 0.93548,1.34633 1.32565,-0.0291 1.20729,-4.25541 l -0.0673,-2.39934 -3.06398,-0.75813 -3.064,-0.75809 -0.15122,-25.92512 -0.15118,-25.92512 3.50699,-3.08694 3.50704,-3.08694 v -25.7389 c 0,-19.326991 0.17448,-25.894102 0.70034,-26.361867 0.97387,-0.866265 -0.16913,-0.751142 -1.5105,0.152133 -0.79869,0.537861 -1.40427,0.598139 -2.2006,0.219046 -1.6806,-0.800025 -2.2418,-0.134751 -2.2418,2.657445 v 2.55205 l -7.58739,-0.116841 c -5.75102,-0.08857 -7.58727,0.04021 -7.587,0.532065 1.7e-4,0.356899 0.26652,0.648907 0.59188,0.648907 0.67888,0 0.78442,105.575032 0.10832,108.362852 -0.22441,0.92543 -0.32237,3.5535 -0.21771,5.84016 l 0.19035,4.15757 h 7.54258 7.54258 z m -93.12624,0.24067 c -0.2167,-0.50229 -1.30758,-0.5847 -4.4014,-0.33245 -3.84626,0.31359 -9.20361,0.20359 -9.65537,-0.19825 -0.10998,-0.0978 -0.2591,-1.38662 -0.33137,-2.864 -0.18951,-3.87446 -1.04479,-3.3111 -1.04479,0.68819 v 3.37431 h 7.86051 c 6.16729,0 7.79846,-0.14385 7.57242,-0.6678 z m -209.77735,-2.70651 c 0,-2.07907 0.21855,-2.85519 0.80397,-2.85519 0.44218,0 1.13091,-0.35042 1.5305,-0.77869 0.92423,-0.99056 2.33447,-1.00907 2.33447,-0.0306 0,0.41143 0.26263,0.89243 0.58363,1.06889 0.3691,0.20291 0.58361,-1.09899 0.58361,-3.54208 v -3.86291 l -3.35581,-0.96964 -3.35579,-0.96962 -0.15148,-25.67775 -0.15147,-25.67772 3.52172,-3.16068 3.52173,-3.16065 -0.0449,-26.04071 -0.0449,-26.040723 -1.64964,0.293471 c -0.90731,0.161407 -1.82122,0.04653 -2.03092,-0.255283 -0.2097,-0.301813 -0.76682,-0.417158 -1.23802,-0.25632 -0.59171,0.20197 -0.85674,1.07818 -0.85674,2.832517 0,1.652983 -0.25477,2.561696 -0.72951,2.601964 -0.40124,0.03403 -3.94671,0.0317 -7.87883,-0.0052 -4.47405,-0.04198 -7.14931,0.12913 -7.14931,0.457247 0,0.288371 0.52405,0.524312 1.16457,0.524312 h 1.16457 l 0.14857,54.897495 0.14857,54.89751 6.71159,0.0704 c 5.34783,0.056 6.6718,0.21432 6.51574,0.77869 -0.55705,2.01458 -0.97678,7.71649 -0.56802,7.71649 0.25964,0 0.47206,-1.28483 0.47206,-2.85519 z m 123.72599,-6.09972 c -4.4e-4,-3.2121 -0.41403,-7.82582 -0.91908,-10.25273 -1.83,-8.79357 -1.81899,-11.239 0.0444,-9.86339 1.08092,0.79795 1.47731,0.0395 1.63789,-3.13399 0.0621,-1.22787 0.42081,-2.32329 0.79708,-2.43424 0.49244,-0.14522 0.65596,1.04145 0.58361,4.2354 -0.0711,3.14019 0.11273,4.50977 0.62902,4.68564 0.55256,0.18821 0.72953,2.97513 0.72953,11.48865 v 11.24015 l 7.31487,-0.21661 7.31487,-0.21661 1.575,-1.51088 c 0.86626,-0.83099 1.57963,-1.87133 1.58529,-2.3119 0.009,-0.68041 1.15277,-0.80103 7.5973,-0.80103 h 7.58702 l 0.0347,1.67477 c 0.046,2.21997 0.47574,2.49747 1.42481,0.92008 0.85668,-1.42384 2.33399,-1.75193 2.33399,-0.51835 0,0.43261 0.51877,0.77869 1.16723,0.77869 0.64846,0 1.16724,0.34608 1.16724,0.77869 0,0.42827 0.26262,0.77869 0.58361,0.77869 0.34528,0 0.58362,-1.88291 0.58362,-4.6105 v -4.6105 l -2.76442,-0.61918 c -1.52043,-0.34053 -3.09619,-0.86408 -3.5017,-1.16343 -0.5756,-0.42492 -0.73728,-6.11859 -0.73728,-25.96279 v -25.41851 l 3.5017,-3.24369 3.5017,-3.24369 v -26.10251 -26.1025 l -1.31313,0.368642 c -2.7045,0.759241 -4.39693,0.87306 -4.78017,0.321474 -0.9143,-1.315895 -1.49373,-0.378901 -1.49401,2.415948 l -2.9e-4,2.98497 -7.58673,0.170069 -7.58673,0.170069 v -2.532089 c 0,-1.39265 -0.31077,-2.808524 -0.69061,-3.146387 -0.37984,-0.337865 -0.57681,-0.711175 -0.43772,-0.829577 0.1391,-0.118403 3.8628,-0.297502 8.27489,-0.397996 4.81914,-0.109767 8.02318,-0.389983 8.02501,-0.701844 0.002,-0.333979 -5.91682,-0.519125 -16.59539,-0.519125 h -16.59835 l 0.0829,1.557376 c 0.0455,0.856556 0.0298,3.976835 -0.035,6.933951 -0.101,4.610149 -0.24636,5.332686 -1.01975,5.068705 -0.79711,-0.272075 -0.87426,0.702237 -0.66356,8.380254 0.13112,4.77846 0.4355,9.44733 0.67639,10.37526 0.29247,1.12659 0.22208,1.68716 -0.21186,1.68716 -0.35742,0 -0.66377,-0.0584 -0.68078,-0.12977 -0.72566,-3.04543 -1.81835,-8.76972 -1.85802,-9.7336 -0.0294,-0.71381 0.15953,-6.43716 0.41978,-12.718578 l 0.47317,-11.420758 h -10.83197 -10.83196 l -0.40274,2.855189 c -0.22149,1.570355 -0.20794,29.311117 0.0301,61.646137 l 0.43282,58.79095 h 10.71624 10.71625 z m -18.67494,-9.75721 c 0,-1.08654 1.76447,-2.95609 3.81332,-4.0404 l 1.14742,-0.60726 -1.45904,-1.00187 c -0.80248,-0.55103 -1.95877,-1.33341 -2.56954,-1.73862 -1.24275,-0.8245 -0.81953,-1.93251 0.73815,-1.93251 0.5598,0 2.1261,0.72498 3.48066,1.61106 2.71872,1.77844 2.59981,1.80292 6.40091,-1.31841 1.60779,-1.32026 2.01205,-1.45207 2.47144,-0.80577 0.94693,1.33221 0.6429,1.92291 -2.09173,4.06403 l -2.65883,2.08177 2.65883,1.38599 c 2.86741,1.49473 3.10856,1.86646 1.82532,2.81377 -0.90098,0.66512 -2.71385,0.0198 -5.55167,-1.97618 l -1.42443,-1.00187 -2.94491,1.76406 c -3.43317,2.05655 -3.8359,2.13027 -3.8359,0.70221 z m 25.09552,-9.69905 c -1.37196,-0.46454 -1.48328,-0.87519 -1.16971,-4.31495 l 0.29428,-3.22801 7.96243,0.003 c 4.37933,9e-4 8.25308,0.16214 8.60835,0.35744 0.87035,0.47846 0.82583,6.15564 -0.0544,6.93862 -0.72059,0.64096 -13.86332,0.84647 -15.64093,0.24456 z m -24.47242,-1.63248 c -0.34271,-0.56958 -0.6231,-2.81036 -0.6231,-4.97948 0,-3.06924 0.19896,-4.01177 0.89715,-4.25009 1.12549,-0.38416 3.24678,1.26565 3.04624,2.3692 -0.12632,0.6951 0.69908,0.84828 5.24857,0.97406 l 5.39846,0.14927 v 1.21477 c 0,1.86615 -1.12112,2.31965 -6.14621,2.4862 l -4.63186,0.15351 -0.01,1.29781 c -0.0123,1.68844 -2.26637,2.10296 -3.17982,0.58475 z m 2.42236,-3.0506 c 0.39452,-0.42726 2.30899,-0.6489 5.60516,-0.6489 6.53095,0 5.65722,-0.9377 -1.06688,-1.14499 l -4.95747,-0.15282 -0.18468,-1.4276 c -0.10156,-0.78518 -0.45794,-1.42759 -0.79195,-1.42759 -0.33401,0 -0.44788,0.36952 -0.25305,0.82115 0.19485,0.45162 0.39001,2.26207 0.43373,4.02321 0.0437,1.76114 0.20019,2.61806 0.34773,1.90426 0.14754,-0.71379 0.53787,-1.58981 0.86741,-1.94672 z m 1.14158,-6.52251 c -1.59383,-1.50909 -1.6415,-3.6988 -0.10141,-4.65831 l 1.16754,-0.72742 -1.16754,-0.93986 c -1.66689,-1.34182 -1.57118,-4.41368 0.1832,-5.8797 1.78618,-1.4926 7.87523,-1.63666 9.31023,-0.22028 2.20858,2.17993 1.71682,5.58406 -1.03866,7.19 l -1.5185,0.88502 -1.57153,-1.03627 c -0.86436,-0.56994 -1.88501,-1.83201 -2.26813,-2.80458 -0.61051,-1.54981 -0.69955,-1.60795 -0.72058,-0.4705 -0.0132,0.7138 0.2105,1.62732 0.49711,2.03004 0.31726,0.4458 0.27774,1.0789 -0.10104,1.6184 -1.25398,1.78606 -0.14681,2.58106 3.59461,2.58106 3.76984,0 4.4422,0.40886 3.89009,2.36558 l -0.35787,1.2683 h -4.26427 c -3.7028,0 -4.43137,-0.15819 -5.53325,-1.20148 z m 8.31903,-6.88204 c 1.08271,-0.96307 1.2157,-3.90224 0.21677,-4.79078 -0.38519,-0.34263 -2.07737,-0.62296 -3.76042,-0.62296 -2.5006,0 -3.22618,0.21094 -3.96859,1.15377 -1.03935,1.31989 -1.19673,3.29864 -0.30151,3.79078 0.38944,0.21409 0.4789,-0.12033 0.2496,-0.93299 -0.23364,-0.82801 -0.0252,-1.5622 0.60191,-2.12 1.48037,-1.31677 2.6268,-1.05992 2.6268,0.58855 0,1.66918 1.45233,3.7494 2.61768,3.7494 0.44035,0 1.21335,-0.3671 1.71776,-0.81577 z m 11.78629,7.66841 c -0.55344,-0.79653 -0.49665,-15.7675 0.0618,-16.26415 0.29879,-0.26579 4.06768,-0.41778 8.37529,-0.33777 l 7.83202,0.14546 v 8.30601 8.306 l -7.9803,0.14417 c -4.38916,0.0793 -8.11908,-0.0556 -8.28871,-0.29972 z m -19.94177,-16.43287 c -1.8056,-1.60608 -1.90216,-4.28419 -0.22292,-6.18309 l 1.20959,-1.36782 h 4.62658 c 4.06615,0 4.62658,0.11319 4.62658,0.93443 0,1.57157 -1.2598,2.18032 -4.51218,2.18032 -2.31456,0 -3.20331,0.21285 -3.47001,0.83108 -0.52778,1.2234 0.85298,1.74766 4.62639,1.7566 2.83911,0.007 3.3558,0.15181 3.3558,0.94237 0,1.63662 -1.2728,2.18032 -5.104,2.18032 -3.15376,0 -3.91589,-0.18908 -5.13583,-1.27421 z m 8.78078,-0.28316 c 0.22394,-0.3223 -0.86936,-0.51912 -2.88364,-0.51912 -2.50441,0 -3.52029,-0.24547 -4.45435,-1.0763 -1.08778,-0.96758 -1.12517,-1.19046 -0.37014,-2.20629 0.65773,-0.88493 1.5213,-1.16457 3.98219,-1.2895 4.70998,-0.2391 5.00546,-1.1383 0.37405,-1.1383 -3.34492,0 -4.00184,0.15838 -4.78565,1.15377 -1.2392,1.57371 -1.14051,3.31201 0.25871,4.55662 0.8812,0.78382 1.94539,1.03825 4.34269,1.03825 1.7465,0 3.33777,-0.23361 3.53614,-0.51913 z m 18.96755,-10.88535 -11.96415,-0.27584 v -5.96994 -5.96995 l 12.50597,-0.14037 c 9.61523,-0.10792 12.61472,0.012 12.97654,0.51912 0.25881,0.36273 0.4746,2.92048 0.4795,5.6839 0.007,3.88328 -0.19935,5.20966 -0.90816,5.84015 -0.50442,0.44868 -0.96402,0.76469 -1.02133,0.70228 -0.0573,-0.0625 -5.48809,-0.23764 -12.06837,-0.38935 z m -271.81955,61.20259 c 0.56172,-0.61344 1.02132,-1.7903 1.02132,-2.61521 v -1.49987 l 6.7116,-0.0866 c 3.69137,-0.0476 7.17119,-0.106 7.73292,-0.12979 0.70084,-0.0297 1.08032,0.41434 1.20932,1.41499 0.24008,1.8622 1.55564,2.31232 3.12891,1.07056 0.88864,-0.70141 1.30169,-0.79106 1.48593,-0.32252 0.14035,0.35689 0.59914,0.6489 1.01953,0.6489 0.96985,0 1.54744,1.29958 1.06973,2.4069 -0.25212,0.58439 -0.10979,0.77307 0.45603,0.60459 0.64354,-0.19164 0.77724,-1.19542 0.61445,-4.61318 -0.11444,-2.40254 -0.30465,-4.51141 -0.42269,-4.68638 -0.11803,-0.17499 -1.40995,-0.61583 -2.87095,-0.97968 -1.46099,-0.36385 -2.81636,-0.89186 -3.01194,-1.17333 -0.19557,-0.28148 -0.46969,-11.87136 -0.60915,-25.75528 l -0.25357,-25.24349 3.54228,-3.30136 3.54228,-3.30136 -0.041,-25.5101 c -0.0226,-14.03055 -0.2303,-25.937487 -0.46164,-26.459857 l -0.42061,-0.94976 -1.40683,1.0133 c -1.11386,0.802276 -1.77655,0.918986 -3.18212,0.560417 -2.65206,-0.676552 -2.65842,-0.670883 -2.65842,2.37069 v 2.823573 l -7.99851,-0.09817 -7.99851,-0.09816 -0.0262,-3.76306 -0.0262,-3.76306 -8.900162,-5.83e-4 -8.900159,-5.85e-4 -0.07273,1.946721 c -0.234561,6.279101 0.24982,120.389204 0.512667,120.773184 0.180464,0.26362 3.764727,0.32847 8.256026,0.14937 l 7.937118,-0.31653 z M 91.80367,192.76816 c -1.347546,-1.19865 -1.465738,-2.06509 -0.437712,-3.20883 1.777222,-1.97727 5.690264,-1.0552 5.690264,1.34086 0,1.35357 -1.661483,2.90621 -3.109939,2.90621 -0.536457,0 -1.500632,-0.46721 -2.142613,-1.03824 z m -0.43278,-5.84017 c -0.326791,-0.36834 -0.738938,-7.08339 -0.953236,-15.53103 -0.334159,-13.17246 -0.271444,-14.97649 0.545927,-15.70354 1.376174,-1.2241 25.977439,-1.22919 27.352979,-0.005 0.79117,0.70374 0.91711,2.86372 0.91711,15.72949 0,10.90741 -0.18814,15.08107 -0.70034,15.53668 -1.01942,0.90678 -26.356414,0.88257 -27.16244,-0.026 z m 1.213625,-55.44436 c -1.752913,-0.58924 -2.250959,-2.33896 -1.107597,-3.89113 1.141607,-1.54978 2.602359,-1.62242 4.302023,-0.21392 1.467304,1.21595 1.480743,1.26725 0.680289,2.59764 -0.841468,1.39855 -2.397606,2.00395 -3.874715,1.50741 z m 26.790955,-0.57291 c -0.97666,-0.86873 -0.92028,-3.28138 0.0942,-4.03027 0.95044,-0.70163 3.4962,-0.26652 4.45536,0.76149 1.01126,1.08383 -0.55385,3.5731 -2.36529,3.76195 -0.80236,0.0836 -1.78527,-0.13827 -2.18425,-0.49317 z M 101.7341,95.995548 c 0.0175,-1.105316 1.05552,-2.007372 1.95613,-1.699965 0.5036,0.171894 1.07145,0.08827 1.2619,-0.185823 0.36598,-0.526734 3.05176,-0.13286 4.11131,0.602932 0.35651,0.247573 0.93957,0.160761 1.35243,-0.201362 0.57425,-0.503684 0.90027,-0.426215 1.56188,0.371134 0.45987,0.55423 0.83613,1.182129 0.83613,1.395332 0,0.529623 -2.46107,0.379241 -3.33023,-0.203492 -0.38718,-0.259585 -1.04374,-0.281261 -1.45904,-0.04817 -1.15459,0.648032 -6.30088,0.623008 -6.29051,-0.03059 z M 292.99471,199.90613 c -0.27079,-6.60886 -0.57224,-8.57951 -1.82481,-11.92911 -1.21028,-3.23654 -1.38204,-4.28942 -0.8882,-5.44479 l 0.61223,-1.43234 1.04527,1.23262 c 0.57491,0.67794 1.20304,1.00556 1.39586,0.72805 0.37485,-0.5395 0.66011,-3.70624 0.41152,-4.56836 -0.30742,-1.06611 0.013,-1.81693 0.77527,-1.81693 0.95753,0 1.193,3.80165 1.22994,19.85659 l 0.0259,11.29104 7.70931,-6e-5 7.7093,-5e-5 1.48266,-1.4223 c 0.81546,-0.78225 1.48267,-1.95029 1.48267,-2.59562 v -1.17333 h 7.58701 7.58702 v 2.20097 2.20098 l 1.55541,-1.49207 c 1.32018,-1.26642 1.65116,-1.3756 2.18856,-0.72187 0.34824,0.42361 0.89578,0.79618 1.21677,0.82791 0.32099,0.0318 0.66754,0.53416 0.77011,1.11651 0.10258,0.58235 0.56218,1.05882 1.02133,1.05882 0.65811,0 0.83484,-0.92766 0.83484,-4.38193 0,-4.81465 0.0371,-4.76022 -4.08532,-5.99354 l -2.62627,-0.78573 -0.15138,-25.86635 -0.15138,-25.86635 3.50718,-3.24875 3.50717,-3.24877 v -23.62974 c 0,-12.99636 -0.17082,-25.083471 -0.3796,-26.860251 l -0.37961,-3.230509 -1.13674,1.596982 c -0.83396,1.171589 -1.57869,1.596981 -2.79585,1.596981 -0.9125,0 -1.82141,-0.233606 -2.01979,-0.519125 -0.89434,-1.287166 -1.45904,-0.267833 -1.45904,2.633691 0,2.728118 -0.13759,3.127528 -1.02133,2.965082 -0.56174,-0.103256 -0.98486,-0.587598 -0.94027,-1.076316 0.0516,-0.566546 -0.37135,-0.912591 -1.16724,-0.954832 -0.68656,-0.03643 -1.81773,-0.12043 -2.51372,-0.186647 -0.69598,-0.06622 -1.61518,0.07682 -2.04265,0.317865 -0.53571,0.302069 -0.29332,0.440732 0.77997,0.44621 1.92636,0.0098 3.40353,0.488003 3.40353,1.101741 0,0.254972 -2.59471,0.463585 -5.76602,0.463585 h -5.766 l -0.28169,-3.244533 c -0.15493,-1.784495 -0.17099,-3.419739 -0.0357,-3.633878 0.13529,-0.214139 1.47797,-0.424966 2.98373,-0.468504 l 2.73773,-0.07916 -3.79351,-0.379288 c -2.08635,-0.208608 -7.24967,-0.406593 -11.47397,-0.439965 l -7.68053,-0.06068 -0.3572,4.282785 c -0.19645,2.355531 -0.417,9.952935 -0.4901,16.883136 -0.11473,10.87715 -0.25262,12.58034 -1.00833,12.45403 -0.66523,-0.1112 -0.94549,-1.17834 -1.16724,-4.44443 -0.16049,-2.36397 -0.58987,-4.46418 -0.95417,-4.66715 -0.45857,-0.2555 -0.51417,-1.16767 -0.18069,-2.96467 0.60712,-3.27164 0.70236,-21.427043 0.11354,-21.642845 -0.24075,-0.08823 -5.09936,-0.0916 -10.79691,-0.0075 l -10.35921,0.152929 v 61.493206 61.4932 h 11.17251 11.17252 z m -18.51896,-7.91341 c 0,-0.91582 0.69031,-1.73935 2.35953,-2.81491 l 2.35952,-1.52036 -2.62833,-1.60851 c -1.73269,-1.06039 -2.51545,-1.87016 -2.29708,-2.37634 0.5164,-1.19703 2.17811,-0.91078 4.58349,0.78955 1.21174,0.85656 2.52401,1.55737 2.91617,1.55737 0.39215,0 1.89666,-0.92675 3.34334,-2.05946 2.74797,-2.15156 3.37017,-2.19117 3.37017,-0.21454 0,0.76043 -0.83871,1.78636 -2.33446,2.85555 -1.28396,0.91779 -2.33447,1.85848 -2.33447,2.09041 0,0.23194 1.05051,0.89841 2.33447,1.48104 2.40169,1.08987 3.03076,2.39055 1.42182,2.93973 -1.02611,0.35025 -2.71228,-0.31001 -5.03117,-1.97006 l -1.5667,-1.12157 -2.86152,1.63332 c -1.57385,0.89834 -3.03552,1.63334 -3.24816,1.63334 -0.21263,0 -0.38662,-0.58255 -0.38662,-1.29456 z m 23.59282,-9.78066 c -0.17116,-0.39675 -0.23136,-2.09684 -0.13377,-3.77798 l 0.17744,-3.05662 7.82426,-0.25957 c 4.89878,-0.16251 8.12912,-0.0605 8.6396,0.27292 0.58786,0.38393 0.76591,1.47016 0.63818,3.89344 l -0.17715,3.36096 -8.32869,0.1441 c -6.68141,0.11561 -8.39022,9e-4 -8.63987,-0.57725 z m -22.57148,-0.38807 c -0.85239,-0.44082 -1.02134,-1.29673 -1.02134,-5.17452 0,-4.12815 0.11716,-4.64633 1.05052,-4.64633 1.34458,0 2.45118,0.98433 2.45118,2.18033 0,0.82114 0.56024,0.93442 4.62121,0.93442 5.28904,0 6.46752,0.27498 6.46752,1.50909 0,1.68371 -1.28863,2.12478 -6.20773,2.12478 h -4.80704 l -0.18288,1.64719 c -0.20312,1.82945 -0.84436,2.21478 -2.37144,1.42504 z m 1.31313,-2.5531 v -1.55737 h 5.25255 c 6.77882,0 6.8995,-0.94945 0.14591,-1.14783 l -5.10665,-0.14998 -0.19532,-1.29782 c -0.10743,-0.7138 -0.43571,-1.51974 -0.72952,-1.79098 -0.32495,-0.29998 -0.5342,1.07267 -0.5342,3.5041 0,2.31876 0.24506,3.99726 0.58362,3.99726 0.32099,0 0.58361,-0.70082 0.58361,-1.55738 z m 3.12644,-6.74426 c -1.46951,-0.52749 -3.12644,-2.47424 -3.12644,-3.67329 0,-0.46326 0.51769,-1.25901 1.15042,-1.76835 l 1.15041,-0.92607 -1.15041,-1.3009 c -1.37124,-1.55062 -1.44773,-2.77754 -0.29657,-4.75764 1.05139,-1.80849 1.89781,-2.11362 5.86312,-2.11362 2.67524,0 3.29216,0.1949 4.32939,1.36781 1.67925,1.89891 1.58269,4.57702 -0.22292,6.1831 -0.78788,0.70082 -1.80297,1.27422 -2.25576,1.27422 -1.49495,0 -3.89874,-2.1037 -3.89874,-3.412 0,-0.69307 -0.26263,-1.26013 -0.58362,-1.26013 -0.67945,0 -0.78862,1.71891 -0.14591,2.29751 0.24075,0.21673 0.43772,1.36529 0.43772,2.55237 v 2.15831 l 3.6769,0.15523 c 4.0872,0.17255 5.07309,0.98327 3.30684,2.7193 -0.78285,0.76942 -1.76474,1.01085 -4.01021,0.98601 -1.63544,-0.0181 -3.53634,-0.23494 -4.22422,-0.48186 z m 7.35813,-8.27624 c 1.6704,-2.77627 -0.30981,-5.22994 -4.21069,-5.21743 -2.81084,0.009 -3.48529,0.29861 -4.43566,1.90464 -0.84954,1.43564 -0.84157,1.83424 0.0585,2.93031 0.6328,0.77057 0.72952,0.63723 0.72952,-1.00572 0,-2.11946 1.66137,-3.64938 2.56467,-2.36174 0.40893,0.58293 0.69848,0.58293 1.77225,0 1.14451,-0.62132 1.40481,-0.56508 2.40422,0.51948 0.85874,0.9319 0.98149,1.44769 0.52507,2.20628 -0.80806,1.34302 -2.57019,1.24923 -3.34401,-0.17799 l -0.63331,-1.16803 -0.0394,1.06421 c -0.0833,2.24412 3.44322,3.24339 4.6089,1.30599 z m 11.11286,8.06743 c -0.87222,-0.77584 -0.76993,-15.51827 0.11312,-16.30374 1.0299,-0.9161 14.71111,-0.85674 15.75111,0.0683 1.13936,1.01344 0.98481,15.82786 -0.1721,16.49764 -1.0908,0.6315 -14.94769,0.39993 -15.69213,-0.26224 z m 19.665,-3.75757 c -0.62097,-0.55236 -0.48908,-2.26749 0.17437,-2.26749 0.32099,0 0.55252,0.17521 0.51451,0.38934 -0.2839,1.59932 0.25821,1.67718 1.28155,0.18408 0.84458,-1.23226 1.00935,-1.8719 0.54759,-2.12575 -0.38761,-0.21308 -0.50545,-0.91257 -0.2852,-1.69309 0.42604,-1.50991 -0.63967,-3.70277 -1.55497,-3.1996 -0.41359,0.22738 -0.40432,0.51136 0.0293,0.89706 0.96497,0.85834 0.75739,1.61283 -0.24096,0.87583 -1.1314,-0.83521 -1.12069,-2.02537 0.0217,-2.41532 1.10277,-0.3764 3.337,1.32153 2.94242,2.23616 -0.1578,0.36577 -0.0357,0.80311 0.27122,0.97186 0.30697,0.16876 0.55812,0.78525 0.55812,1.36998 0,0.73175 0.27289,0.97002 0.87543,0.76434 0.48149,-0.16434 0.87543,-0.0726 0.87543,0.20403 0,0.27655 -0.4596,0.50813 -1.02133,0.51462 -0.56215,0.006 -1.43859,0.76502 -1.94942,1.68716 -0.90776,1.63864 -2.22262,2.33365 -3.03978,1.60679 z m -38.12507,-11.86304 c -1.75698,-0.65711 -3.13736,-2.63052 -3.13736,-4.48519 0,-0.57957 0.76768,-1.7366 1.70596,-2.5712 l 1.70596,-1.51745 h 4.14853 c 3.23982,0 4.22591,0.17938 4.50182,0.81894 0.61349,1.42205 -1.23202,2.42858 -4.57325,2.49424 -2.6999,0.0531 -3.11189,0.1986 -3.11189,1.09939 0,0.91196 0.44725,1.05713 3.6769,1.19348 4.0797,0.17224 5.07317,0.98318 3.31796,2.70836 -1.19373,1.17329 -5.434,1.30688 -8.23463,0.25943 z m 7.36775,-1.30608 c 0,-0.28861 -1.56048,-0.51912 -3.51421,-0.51912 h -3.51421 l -0.66371,-1.29571 c -1.07216,-2.0931 0.66585,-3.37642 4.57268,-3.37642 1.7157,0 3.11945,-0.23362 3.11945,-0.51914 0,-0.28551 -1.45639,-0.51912 -3.23642,-0.51912 -2.65805,0 -3.49243,0.22772 -4.66894,1.27422 -1.7444,1.55164 -1.81619,2.83582 -0.24254,4.33828 0.96707,0.92332 1.84161,1.13613 4.66894,1.13613 1.93023,0 3.47896,-0.23109 3.47896,-0.51912 z m 7.12292,-11.07421 c -0.28994,-0.33337 -0.57093,-2.96889 -0.62443,-5.85673 -0.0741,-4.00038 0.1014,-5.39728 0.73707,-5.86655 0.60839,-0.44912 4.12753,-0.55166 12.99476,-0.37863 6.68823,0.13051 12.2344,0.25918 12.32484,0.28595 0.0904,0.0268 0.0904,2.79353 0,6.14838 l -0.16443,6.09972 -12.37033,0.087 c -8.84298,0.0622 -12.52064,-0.0858 -12.89748,-0.51913 z m -143.68994,61.68947 c 0.82871,-0.6671 1.15956,-1.47953 1.04449,-2.56495 l -0.1684,-1.58859 7.70925,-0.11668 7.70924,-0.11669 0.38044,1.80384 c 0.4039,1.91502 1.38989,2.30605 2.585,1.02515 1.06765,-1.14428 2.49284,-1.00206 2.06186,0.20577 -0.28556,0.8003 -0.0747,0.97023 1.12749,0.90846 l 1.47876,-0.0759 4.2e-4,-3.72681 4.1e-4,-3.72683 -3.14665,-0.81367 c -1.73066,-0.44752 -3.28144,-1.1261 -3.44617,-1.50796 -0.16474,-0.38186 -0.33511,-11.98882 -0.3786,-25.79325 l -0.0791,-25.09895 3.57017,-3.20413 3.57016,-3.20414 -0.19083,-25.72931 c -0.10495,-14.151113 -0.37647,-25.894265 -0.60337,-26.095887 -0.2269,-0.201623 -0.88347,-0.179041 -1.45904,0.05018 -1.58186,0.629973 -3.30153,0.692852 -4.05853,0.148401 -0.89434,-0.643224 -1.15415,-0.169621 -1.63015,2.971538 l -0.39851,2.629755 -7.81364,0.128746 -7.81363,0.128746 -0.17112,-4.056313 -0.17113,-4.056314 -9.19196,-0.142962 -9.19196,-0.142964 v 24.066794 c 0,13.23674 0.17477,40.95328 0.38839,61.59233 l 0.38839,37.52554 8.34269,-0.22326 c 7.12553,-0.19068 8.51964,-0.36569 9.55559,-1.19961 z m -12.18828,-13.04727 c -1.65665,-1.03214 -1.66485,-3.58332 -0.014,-4.36918 1.95033,-0.92845 4.61597,0.28492 4.61597,2.10113 0,2.27165 -2.56617,3.53639 -4.60193,2.26805 z m -1.54934,-6.54681 c -0.15762,-0.36539 -0.21686,-7.55302 -0.13165,-15.97254 l 0.15494,-15.30821 13.48887,-0.13917 c 10.94195,-0.1129 13.6159,-0.004 14.16164,0.58189 0.48233,0.51694 0.62895,5.03857 0.51794,15.9725 l -0.15484,15.25144 -13.87515,0.1392 c -10.84812,0.10884 -13.93768,-0.006 -14.16175,-0.52511 z m 0.6282,-55.91828 c -1.40221,-1.37821 -0.7636,-3.52814 1.25028,-4.20921 1.26518,-0.42787 1.76865,-0.31891 2.90178,0.62798 1.72038,1.43762 1.74595,2.74872 0.0739,3.79044 -1.7333,1.07989 -2.97709,1.01832 -4.22598,-0.20921 z m 29.07336,0.47064 c -0.68937,-0.23034 -1.45218,-0.70487 -1.69511,-1.05452 -0.28269,-0.40684 -0.19913,-0.50236 0.23209,-0.2653 0.87461,0.48081 0.87327,-0.34403 -0.002,-1.12241 -0.943,-0.8388 0.40154,-2.20233 2.17167,-2.20233 1.54901,0 2.37205,0.80305 1.27976,1.24868 -0.40324,0.16451 -0.14226,0.16872 0.57997,0.009 1.00129,-0.22094 1.31102,-0.0657 1.3042,0.6537 -0.0125,1.31695 -0.90972,2.43919 -1.63249,2.04186 -0.33259,-0.18283 -0.69023,-0.008 -0.79477,0.38867 -0.13415,0.50893 -0.55888,0.59788 -1.44349,0.3023 z m -17.2486,-34.614715 -2.16075,-0.198841 0.61536,-1.201322 c 0.51896,-1.013133 1.08137,-1.210661 3.59022,-1.260937 1.71451,-0.03436 3.154,0.198191 3.39767,0.548896 0.31933,0.459588 0.64168,0.446934 1.31714,-0.0517 1.10451,-0.815364 2.11271,-0.32762 2.11271,1.022079 0,0.861364 -0.37028,0.997043 -2.48037,0.908887 -1.36421,-0.05699 -2.87432,0.01684 -3.3558,0.164078 -0.48148,0.147238 -1.84777,0.178226 -3.03618,0.06886 z m 71.90297,106.145125 v -3.77035 l -1.31314,-0.51244 -1.31314,-0.51245 -0.15103,-27.9996 -0.15103,-27.99961 1.48639,-1.38001 1.48639,-1.38001 -0.0802,-26.23107 -0.0801,-26.231065 -1.71449,0.760791 c -1.24822,0.553884 -1.92163,0.607884 -2.47611,0.198557 -1.10525,-0.815914 -1.52964,-0.171011 -1.52964,2.324446 v 2.203517 l -6.91439,-0.08375 c -4.88618,-0.05919 -7.1973,-0.292747 -7.87883,-0.796227 -0.85529,-0.631835 -0.96444,-0.558394 -0.96444,0.648908 0,1.015293 0.29673,1.361377 1.16723,1.361377 h 1.16724 l 0.1183,52.820996 c 0.0651,29.05155 0.14817,53.62272 0.18467,54.6026 l 0.0664,1.7816 6.52691,-0.13397 6.52692,-0.13398 v 1.85647 c 0,1.47542 0.22677,1.85648 1.1048,1.85648 0.60763,0 1.25595,-0.35042 1.44072,-0.77869 0.48412,-1.1222 1.93457,-0.95798 2.29251,0.25956 0.60322,2.05179 0.99814,0.97082 0.99814,-2.73208 z m -17.48905,-32.82801 4.4e-4,-29.8497 h 6.70163 6.70163 v 29.8497 29.84972 h -6.70207 -6.7021 z m 1.32021,-42.69806 0.11938,-7.65709 5.98207,-0.14626 5.98208,-0.14625 v 7.80336 7.80334 h -6.10146 -6.10146 z m 2.55111,-13.45399 c -0.6577,-0.58503 -0.45161,-14.612897 0.22011,-14.982175 0.33505,-0.184188 0.99161,-0.05256 1.45904,0.292492 1.1111,0.82024 1.24203,13.441033 0.14952,14.412813 -0.7934,0.70573 -1.26607,0.77729 -1.82867,0.27687 z m 4.06148,-0.44958 c -0.20088,-0.46565 -0.36524,-3.83941 -0.36524,-7.49726 0,-5.28133 0.17146,-6.709157 0.83276,-6.934884 1.73478,-0.59213 2.12242,0.997673 1.95681,8.025474 -0.13926,5.90997 -0.30281,6.95375 -1.11119,7.09162 -0.52134,0.0889 -1.11225,-0.2193 -1.31314,-0.68495 z m 56.12527,89.48768 -0.17148,-3.71229 -3.2099,-0.94522 c -1.76543,-0.51987 -3.27554,-0.9518 -3.35579,-0.95984 -0.0802,-0.008 -0.14591,-11.64451 -0.14591,-25.85883 v -25.84422 l 3.2099,-2.81973 3.2099,-2.81972 V 113.45451 87.315743 l -1.2401,0.350097 c -0.75055,0.211891 -1.41847,0.09337 -1.69195,-0.300224 -0.24852,-0.357679 -0.8723,-0.506812 -1.38618,-0.331408 -0.68866,0.235061 -0.93433,1.019066 -0.93433,2.981768 v 2.662853 l -7.87915,-0.180715 c -4.33353,-0.09939 -7.879,-0.02264 -7.87882,0.170565 1.7e-4,0.193204 0.38161,0.42681 0.84763,0.519124 0.73126,0.144858 0.897,7.632667 1.21012,54.670897 0.19955,29.97668 0.45409,54.58424 0.56562,54.68346 0.11155,0.0992 3.11183,0.21832 6.66727,0.26466 l 6.46445,0.0842 9.6e-4,1.42759 c 8.7e-4,1.05417 0.29043,1.42761 1.10624,1.42761 0.60763,0 1.25596,-0.35043 1.44072,-0.7787 0.49688,-1.15176 2.12341,-0.95294 2.12341,0.25957 0,0.57103 0.27414,1.03825 0.60919,1.03825 0.38236,0 0.54534,-1.38223 0.43771,-3.71229 z m 182.60412,2.91568 c 0.68584,-0.61005 1.08449,-0.65715 1.70225,-0.2011 1.11178,0.82074 1.52246,-0.278 1.29312,-3.45966 l -0.1808,-2.50852 -3.2099,-0.8235 -3.20988,-0.82349 -0.15143,-25.91369 -0.15143,-25.91369 3.59226,-3.22396 3.59226,-3.22396 -0.31552,-25.42735 c -0.22429,-18.074748 -0.13075,-25.591718 0.32348,-25.995764 0.46296,-0.411793 0.45755,-0.568408 -0.0196,-0.568408 -0.36226,0 -1.05259,0.35041 -1.53408,0.778688 -1.12178,0.997816 -2.12604,0.997816 -2.12604,0 0,-0.428278 -0.41044,-0.778688 -0.9121,-0.778688 -0.61092,0 -0.85182,-0.385706 -0.72953,-1.168032 l 0.1826,-1.168032 h -7.73293 c -4.25311,0 -7.73242,0.208808 -7.7318,0.464017 4.4e-4,0.25521 3.1406,0.426573 6.97773,0.380806 l 6.97661,-0.08321 0.60929,1.012662 c 0.3351,0.556962 0.60929,2.19605 0.60929,3.642415 v 2.629755 h -2.80136 c -1.54076,0 -3.07376,-0.242288 -3.40667,-0.538417 -0.41213,-0.366588 -1.09986,-0.371164 -2.15498,-0.01434 -0.85232,0.288244 -2.73349,0.445248 -4.18035,0.348899 -1.92992,-0.128516 -2.63069,0.01359 -2.63069,0.533463 0,0.389753 0.19697,0.708868 0.43772,0.709143 0.24074,2.76e-4 0.52734,24.304113 0.63689,54.008533 0.15591,42.27785 0.0428,54.17565 -0.52088,54.77977 -0.39603,0.42445 -0.5666,0.90823 -0.37905,1.07506 0.18755,0.16682 3.79233,0.26625 8.01063,0.22096 l 7.66961,-0.0824 -0.37977,1.06431 c -0.45418,1.27287 0.55106,1.41872 1.84508,0.2677 z M 79.758769,204.9676 c 0.184762,-0.42828 0.738114,-0.77868 1.229674,-0.77868 0.491556,0 0.89374,0.3504 0.89374,0.77868 0,0.42827 0.328284,0.77921 0.729522,0.77985 0.531493,6.7e-4 0.677693,-0.96788 0.538597,-3.56879 -0.170779,-3.19319 -0.340165,-3.63044 -1.604948,-4.14304 l -1.414022,-0.57308 -0.02989,-8.18735 c -0.01646,-4.50305 -0.168515,-16.96614 -0.337936,-27.69574 l -0.308044,-19.5084 1.505171,-1.59112 1.50517,-1.59113 v -25.46135 c 0,-14.003736 -0.205579,-25.574358 -0.456849,-25.71249 -0.251264,-0.138131 -1.682234,-0.379338 -3.179929,-0.536015 l -2.723083,-0.284867 -0.175869,2.67119 -0.175869,2.671189 -7.441113,-0.126353 c -4.555566,-0.07736 -7.441115,0.07048 -7.441115,0.381214 0,0.279162 0.525255,0.385389 1.167233,0.23606 l 1.167234,-0.271509 0.02195,9.794151 c 0.01206,5.38677 3.16e-4,17.61996 -0.02611,27.18484 -0.02642,9.56488 0.135926,29.92604 0.360794,45.24701 l 0.40885,27.85632 6.706767,-0.29381 6.706766,-0.2938 -0.381277,1.35125 c -0.278946,0.98859 -0.106256,1.49373 0.64342,1.88207 1.39632,0.72332 1.720127,0.69014 2.111175,-0.2163 z M 66.414152,190.12979 c -0.264908,-5.17995 -0.214167,-8.53803 0.133684,-8.84744 0.308356,-0.27428 2.768563,-0.43026 5.467127,-0.34662 l 4.906478,0.1521 0.160014,8.69535 0.160015,8.69534 h -5.200174 -5.200182 z m 4.671121,-11.86757 -4.668935,-0.28914 -0.185104,-8.45573 -0.185103,-8.45573 5.437655,0.14972 5.437655,0.14973 v 8.52231 c 0,5.28689 -0.221566,8.54996 -0.583616,8.59514 -0.320992,0.0401 -2.68464,-0.0573 -5.252552,-0.2163 z M 65.32867,159.1823 c -0.204256,-0.18168 -0.371375,-3.91362 -0.371375,-8.2932 v -7.96285 l 6.56569,0.13271 6.565691,0.13272 0.291805,4.41257 c 0.160496,2.4269 0.160496,6.02605 0,7.99808 l -0.291805,3.58553 -6.194316,0.16239 c -3.406874,0.0893 -6.361435,0.0137 -6.56569,-0.16795 z m -0.371375,-25.78681 v -7.97926 l 6.56569,0.0626 6.565691,0.0626 0.161105,7.91666 0.161104,7.91666 H 71.68409 64.957295 Z m 4.182802,-19.99992 c -0.777493,-0.42742 -1.401888,-13.551724 -0.693252,-14.571616 0.244104,-0.351324 0.937611,-0.554465 1.541127,-0.451427 l 1.097301,0.187347 0.161511,7.330176 c 0.128252,5.82075 -0.0029,7.38629 -0.636542,7.60259 -0.438929,0.14982 -1.100494,0.10613 -1.470145,-0.0971 z m 4.041904,-0.25521 c -0.452867,-0.48537 -0.619144,-2.98384 -0.509174,-7.65069 l 0.163298,-6.929947 1.097297,-0.187267 c 0.603518,-0.103003 1.321721,0.127721 1.596009,0.512712 0.797176,1.118902 0.637087,13.622842 -0.183756,14.352982 -0.904966,0.80496 -1.339715,0.78532 -2.163674,-0.0978 z M 195.10387,204.9676 c 0.39959,-0.42828 1.08832,-0.77868 1.5305,-0.77868 0.44217,0 0.80396,0.3504 0.80396,0.77868 0,0.42827 0.26263,0.77869 0.58361,0.77869 0.33369,0 0.58363,-1.56167 0.58363,-3.64673 v -3.64673 l -1.45906,-0.49343 -1.45903,-0.49342 v -28.14195 -28.14194 l 1.23665,-1.17089 1.23665,-1.17089 -0.0371,-6.90901 c -0.0204,-3.79995 -0.0632,-15.63087 -0.0952,-26.29094 -0.05,-16.646897 -0.17473,-19.295912 -0.88392,-18.772372 -0.49029,0.361936 -1.53372,0.471233 -2.5686,0.269053 l -1.7429,-0.340502 -0.17777,2.726183 -0.17776,2.726182 -7.77685,-0.10917 c -5.19794,-0.07297 -7.65408,0.0675 -7.40667,0.423591 0.20359,0.293019 0.73724,0.532762 1.18586,0.532762 0.67313,0 0.79462,1.655909 0.69508,9.474043 -0.0663,5.21071 -0.055,29.79946 0.0254,54.64164 l 0.14591,45.1676 6.71159,-0.1895 6.71159,-0.18952 v 1.52689 c 0,2.26656 0.99234,2.87883 2.33447,1.44036 z m -14.39307,-35.60007 0.0944,-29.63013 6.25697,5e-5 c 3.44134,3e-5 6.51429,0.14151 6.8288,0.31441 0.36179,0.19889 0.58398,11.08206 0.60492,29.63008 l 0.0331,29.31572 h -6.95634 -6.95636 z m 1.43707,-35.01801 c -0.4097,-0.36444 0.0367,-14.76242 0.47735,-15.39665 0.18741,-0.26973 0.77379,-0.32535 1.30305,-0.1236 0.52926,0.20175 3.08904,0.33739 5.68838,0.30143 l 4.72608,-0.0654 -0.08,7.34588 -0.08,7.34588 -1.14435,0.39803 c -1.30228,0.45297 -10.41683,0.61568 -10.89043,0.19441 z m 2.25634,-21.35363 c -0.21398,-0.19035 -0.38907,-3.58497 -0.38907,-7.54361 0,-6.20019 0.133,-7.242926 0.95982,-7.525147 1.89021,-0.645184 2.4842,1.192204 2.44431,7.561047 -0.0208,3.32028 -0.15636,6.44566 -0.30126,6.94533 -0.25875,0.89229 -1.9491,1.24258 -2.7138,0.56238 z m 4.41363,-0.26171 c -1.12833,-1.00364 -0.99052,-13.598942 0.15805,-14.446844 0.69912,-0.516109 1.05492,-0.513742 1.76676,0.01178 1.30606,0.964156 1.01172,14.694694 -0.31987,14.921804 -0.48816,0.0833 -1.21039,-0.13576 -1.60494,-0.48672 z m -7.57488,-16.376742 c -0.91587,-0.29267 -0.95542,-2.037638 -0.0574,-2.531335 0.36967,-0.20323 0.99167,0.01918 1.38221,0.494245 0.63034,0.766787 0.79221,0.775691 1.44196,0.07931 1.02499,-1.098565 2.5699,-1.028246 2.08535,0.09492 l -0.37936,0.879363 1.0924,-0.879363 c 1.47329,-1.185976 1.6814,-1.118114 1.68124,0.548231 -1.1e-4,1.248659 -0.22566,1.427595 -1.79948,1.427595 -0.98964,0 -2.13914,-0.195317 -2.55444,-0.434036 -0.41894,-0.240814 -1.06847,-0.21407 -1.45904,0.06007 -0.38718,0.271762 -1.03224,0.389208 -1.43348,0.260994 z m 392.00856,82.486042 c 2.39831,-1.57511 3.51163,-3.3207 3.14129,-4.92527 -0.43623,-1.88994 -2.25374,-2.91254 -5.84998,-3.2914 l -2.89245,-0.3047 -2.14213,1.67297 c -2.95316,2.30638 -2.88693,3.96086 0.25983,6.4896 2.03317,1.63388 2.68279,1.88134 4.23119,1.6118 1.00613,-0.17515 2.46962,-0.73899 3.25225,-1.253 z M 41.87545,178.25147 c 4.147322,-0.85542 5.573202,-3.93832 2.97493,-6.43209 -1.23674,-1.187 -1.899997,-1.37362 -4.882038,-1.37362 -2.607434,0 -3.826705,0.26297 -4.98861,1.07593 -2.716963,1.90101 -1.576916,5.30206 2.255762,6.72953 1.519971,0.56611 1.896405,0.56613 4.639956,2.5e-4 z m 532.72598,-58.23529 c 1.96962,-1.84171 2.24839,-2.38178 1.93924,-3.7567 -0.53397,-2.37487 -1.45666,-2.90431 -5.67179,-3.25443 l -3.81335,-0.31674 -1.92901,1.53307 c -1.7245,1.37061 -1.88697,1.73202 -1.53304,3.41029 0.55204,2.61741 3.22795,4.53543 6.32757,4.53543 2.03125,0 2.71715,-0.31522 4.68038,-2.15092 z m -531.698406,0.62335 c 0.228237,-0.0164 0.950464,-0.54106 1.604946,-1.16594 1.55784,-1.48736 1.522386,-3.93302 -0.079,-5.44925 -1.068909,-1.01208 -1.855169,-1.20149 -4.987272,-1.20149 -3.169674,0 -3.92967,0.188 -5.150818,1.27422 -1.773633,1.57764 -1.799931,2.59715 -0.123142,4.77384 1.629151,2.11486 2.22722,2.23595 8.735284,1.76862 z M 465.17526,85.68609 c 3.6126,-0.06452 6.56777,-0.335509 6.56707,-0.602184 0,-0.273162 -3.24708,-0.499822 -7.4351,-0.519125 -6.50144,-0.02996 -7.45741,0.07457 -7.62237,0.833511 -0.13305,0.612195 0.12221,0.799643 0.86671,0.636446 0.58041,-0.12723 4.01108,-0.284121 7.62369,-0.348648 z"
       id="path1" />
  </g>
</svg>
