<?xml version="1.0" encoding="UTF-8" standalone="no"?>
<svg
   viewBox="0 0 612 306"
   version="1.1"
   id="svg1"
   sodipodi:docname="otn.svg"
   inkscape:version="1.3 (0e150ed, 2023-07-21)"
   width="612"
   height="306"
   xmlns:inkscape="http://www.inkscape.org/namespaces/inkscape"
   xmlns:sodipodi="http://sodipodi.sourceforge.net/DTD/sodipodi-0.dtd"
   xmlns="http://www.w3.org/2000/svg"
   xmlns:svg="http://www.w3.org/2000/svg"
   xmlns:rdf="http://www.w3.org/1999/02/22-rdf-syntax-ns#"
   xmlns:cc="http://creativecommons.org/ns#"
   xmlns:dc="http://purl.org/dc/elements/1.1/">
  <sodipodi:namedview
     id="namedview1"
     pagecolor="#ffffff"
     bordercolor="#000000"
     borderopacity="0.25"
     inkscape:showpageshadow="2"
     inkscape:pageopacity="0.0"
     inkscape:pagecheckerboard="0"
     inkscape:deskcolor="#d1d1d1"
     inkscape:zoom="1.1341146"
     inkscape:cx="238.07118"
     inkscape:cy="144.16533"
     inkscape:window-width="1392"
     inkscape:window-height="1014"
     inkscape:window-x="0"
     inkscape:window-y="25"
     inkscape:window-maximized="0"
     inkscape:current-layer="svg1" />
  <defs
     id="defs1">
    <style
       id="style1">.cls-1{fill:none;}</style>
    <clipPath
       clipPathUnits="userSpaceOnUse"
       id="clipPath3">
      <rect
         style="fill:#ff0000"
         id="rect3"
         width="18.70953"
         height="11.269805"
         x="2.7830081"
         y="10.277842" />
    </clipPath>
  </defs>
  <title
     id="title1">Asset 37</title>
  <g
     id="Layer_2"
     data-name="Layer 2"
     clip-path="url(#clipPath3)"
     transform="matrix(24.975017,0,0,24.12533,2.9442593,-242.1753)">
    <g
       id="Layer_1-2"
       data-name="Layer 1">
      <g
         id="hardware">
        <rect
           class="cls-1"
           width="24"
           height="24"
           id="rect1"
           x="0"
           y="0" />
        <path
           id="network_equipment"
           d="m 18.57,17.05 v -0.44 a 0.3,0.3 0 0 0 -0.3,-0.3 H 5.69 a 0.29,0.29 0 0 0 -0.29,0.3 v 0 0.44 H 4.87 a 0.29,0.29 0 0 0 -0.29,0.3 v 0 1.65 a 0.29,0.29 0 0 0 0.29,0.3 h 0.54 v 0.44 a 0.3,0.3 0 0 0 0.3,0.3 h 12.58 a 0.31,0.31 0 0 0 0.3,-0.29 v 0 -0.44 h 0.54 a 0.29,0.29 0 0 0 0.29,-0.29 v 0 -1.67 a 0.29,0.29 0 0 0 -0.29,-0.3 z M 5.41,18.81 H 5 V 17.5 H 5.39 Z M 18,19.54 H 6 A 0.15,0.15 0 0 1 5.85,19.39 v 0 -2.49 A 0.15,0.15 0 0 1 6,16.76 h 12 a 0.14,0.14 0 0 1 0.14,0.14 v 0 2.49 A 0.15,0.15 0 0 1 18,19.54 Z m 1,-0.73 H 18.61 V 17.5 H 19 Z m -5.81,-0.87 v 0.59 a 0.14,0.14 0 0 1 -0.14,0.15 H 7 A 0.15,0.15 0 0 1 6.85,18.54 v 0 -0.59 A 0.15,0.15 0 0 1 7,17.79 h 6 a 0.15,0.15 0 0 1 0.15,0.15 z m 4,0 v 0.59 a 0.14,0.14 0 0 1 -0.14,0.15 h -0.58 a 0.15,0.15 0 0 1 -0.15,-0.14 v 0 -0.59 A 0.15,0.15 0 0 1 16.47,17.8 H 17 a 0.14,0.14 0 0 1 0.13,0.15 z m -1.31,0 v 0.59 a 0.15,0.15 0 0 1 -0.15,0.15 H 15.15 A 0.15,0.15 0 0 1 15,18.54 v 0 -0.59 a 0.15,0.15 0 0 1 0.15,-0.15 h 0.59 a 0.16,0.16 0 0 1 0.14,0.15 z m 2.78,-5.13 v -0.45 a 0.31,0.31 0 0 0 -0.3,-0.3 H 5.69 a 0.3,0.3 0 0 0 -0.29,0.3 v 0 0.45 H 4.87 A 0.29,0.29 0 0 0 4.58,13.1 v 0 1.62 a 0.28,0.28 0 0 0 0.29,0.29 h 0.54 v 0.45 a 0.3,0.3 0 0 0 0.3,0.29 h 12.58 a 0.31,0.31 0 0 0 0.3,-0.29 v 0 V 15 h 0.54 a 0.29,0.29 0 0 0 0.29,-0.29 v 0 -1.61 A 0.28,0.28 0 0 0 19.13,12.81 H 18.57 Z M 5.41,14.57 H 5 V 13.25 H 5.39 Z M 18,15.29 H 6 A 0.15,0.15 0 0 1 5.85,15.15 v 0 -2.48 A 0.15,0.15 0 0 1 6,12.53 h 12 a 0.14,0.14 0 0 1 0.14,0.14 v 0 2.49 A 0.13,0.13 0 0 1 18,15.29 Z m 1,-0.72 H 18.61 V 13.25 H 19 Z m -5.81,-0.86 v 0.59 a 0.14,0.14 0 0 1 -0.14,0.15 H 7 A 0.15,0.15 0 0 1 6.85,14.3 v 0 -0.59 A 0.15,0.15 0 0 1 7,13.56 h 6 a 0.15,0.15 0 0 1 0.15,0.15 z m 4,0 v 0.59 a 0.14,0.14 0 0 1 -0.14,0.15 H 16.47 A 0.15,0.15 0 0 1 16.32,14.3 v 0 -0.59 a 0.15,0.15 0 0 1 0.15,-0.15 H 17 a 0.14,0.14 0 0 1 0.13,0.15 z m -1.31,0 v 0.59 a 0.15,0.15 0 0 1 -0.15,0.15 H 15.15 A 0.15,0.15 0 0 1 15,14.3 v 0 -0.59 a 0.15,0.15 0 0 1 0.15,-0.15 h 0.59 a 0.15,0.15 0 0 1 0.14,0.15 z M 15,7.64 14.55,7.31 a 1,1 0 0 0 0,-0.16 1,1 0 0 0 0,-0.17 L 15,6.64 v 0 a 0.45,0.45 0 0 0 0.11,-0.5 l -0.61,-1 A 0.43,0.43 0 0 0 14,4.9 L 13.44,5.16 A 1.49,1.49 0 0 0 13.14,4.98 L 13.08,4.39 A 0.41,0.41 0 0 0 12.68,4 h -1.15 a 0.39,0.39 0 0 0 -0.4,0.39 v 0 L 11.07,5 A 1.92,1.92 0 0 0 10.76,5.18 L 10.24,4.93 v 0 A 0.43,0.43 0 0 0 9.73,5.11 l -0.6,1 v 0 a 0.43,0.43 0 0 0 0,0.35 0.35,0.35 0 0 0 0.17,0.19 L 9.7,7 a 1,1 0 0 0 0,0.17 0.92,0.92 0 0 0 0,0.16 L 9.23,7.68 v 0 A 0.43,0.43 0 0 0 9.12,8.17 l 0.61,1 a 0.42,0.42 0 0 0 0.51,0.18 l 0.56,-0.25 0.3,0.18 0.06,0.59 a 0.42,0.42 0 0 0 0.4,0.39 h 1.18 a 0.39,0.39 0 0 0 0.4,-0.39 v 0 L 13.2,9.28 A 1.49,1.49 0 0 0 13.5,9.1 l 0.53,0.24 v 0 a 0.42,0.42 0 0 0 0.51,-0.17 l 0.6,-1 v 0 a 0.5,0.5 0 0 0 0,-0.36 A 0.35,0.35 0 0 0 15,7.64 Z M 14.14,8.84 13.4,8.5 13.26,8.61 A 1.86,1.86 0 0 1 12.81,8.88 L 12.66,9 12.58,9.8 H 11.66 L 11.58,9 11.43,8.93 A 1.86,1.86 0 0 1 11,8.61 L 10.86,8.5 10.13,8.84 9.64,8 10.15,7.62 10.31,7.5 10.25,7.31 a 1.34,1.34 0 0 1 0,-0.2 0.78,0.78 0 0 1 0,-0.22 V 6.71 L 9.59,6.22 10.06,5.42 10.79,5.75 11,5.68 a 1.86,1.86 0 0 1 0.45,-0.27 l 0.15,-0.06 0.08,-0.8 h 0.92 l 0.08,0.8 0.15,0.06 a 1.62,1.62 0 0 1 0.45,0.28 l 0.14,0.11 0.73,-0.34 0.47,0.8 -0.51,0.38 -0.16,0.12 0.06,0.18 a 1.48,1.48 0 0 1 0,0.21 0.82,0.82 0 0 1 0,0.22 V 7.55 L 14.6,8 Z m -2,-2.75 A 1.06,1.06 0 1 0 13.2,7.15 1.06,1.06 0 0 0 12.14,6.09 Z m 0,1.57 a 0.51,0.51 0 1 1 0.51,-0.51 v 0 a 0.51,0.51 0 0 1 -0.49,0.51 z" />
      </g>
    </g>
  </g>
  <metadata
     id="metadata3">
    <rdf:RDF>
      <cc:Work
         rdf:about="">
        <dc:title>Asset 37</dc:title>
      </cc:Work>
    </rdf:RDF>
  </metadata>
</svg>
