<?xml version="1.0" encoding="UTF-8" standalone="no"?>
<!-- Created with Inkscape (http://www.inkscape.org/) -->

<svg
   width="300mm"
   height="150mm"
   viewBox="0 0 300 150"
   version="1.1"
   id="svg1"
   xml:space="preserve"
   inkscape:version="1.3 (0e150ed, 2023-07-21)"
   sodipodi:docname="rdo.svg"
   xmlns:inkscape="http://www.inkscape.org/namespaces/inkscape"
   xmlns:sodipodi="http://sodipodi.sourceforge.net/DTD/sodipodi-0.dtd"
   xmlns="http://www.w3.org/2000/svg"
   xmlns:svg="http://www.w3.org/2000/svg"><sodipodi:namedview
     id="namedview1"
     pagecolor="#ffffff"
     bordercolor="#000000"
     borderopacity="0.25"
     inkscape:showpageshadow="2"
     inkscape:pageopacity="0.0"
     inkscape:pagecheckerboard="0"
     inkscape:deskcolor="#d1d1d1"
     inkscape:document-units="mm"
     inkscape:zoom="0.81138889"
     inkscape:cx="612.52996"
     inkscape:cy="264.97775"
     inkscape:window-width="2048"
     inkscape:window-height="1099"
     inkscape:window-x="0"
     inkscape:window-y="25"
     inkscape:window-maximized="1"
     inkscape:current-layer="layer1" /><defs
     id="defs1" /><g
     inkscape:label="Capa 1"
     inkscape:groupmode="layer"
     id="layer1"><path
       d="m 149.64332,147.39526 c -11.41931,-3.41251 -12.44375,-17.92451 -1.63778,-23.20869 5.94792,-2.90866 14.64683,0.24042 17.27429,6.2532 4.32428,9.89627 -5.09192,20.10641 -15.63671,16.95549 z m 7.94246,-5.65328 c 4.95196,-2.87472 4.46114,-10.05705 -0.87504,-12.8055 -2.98536,-1.53772 -8.13115,-0.0543 -9.89621,2.85274 -3.96582,6.53262 3.99389,13.88768 10.77164,9.95314 z m -21.65207,-11.54447 c -0.47445,-0.24704 -3.09477,-1.70025 -5.8227,-3.22938 -8.36912,-4.69096 -13.01777,-7.23697 -16.27929,-8.91634 -3.59072,-1.84876 -3.4825,-1.63836 -1.97505,-3.83988 1.53415,-2.24054 2.76301,-1.95559 9.05872,2.10075 0.99166,0.63893 1.92388,1.16165 2.07166,1.16165 0.14777,0 2.15081,1.04459 4.45117,2.32126 2.3004,1.27667 4.86185,2.68754 5.69235,3.13517 3.68488,1.98676 6.46981,3.70074 6.46981,3.98176 0,0.78441 -1.80514,3.75804 -2.27453,3.74689 -0.29101,-0.006 -0.91725,-0.21467 -1.39175,-0.46169 z m 32.24125,-1.15724 c -1.32165,-2.21319 -1.23071,-2.57645 0.87375,-3.48937 1.00209,-0.43469 2.59841,-1.28619 3.54728,-1.8922 0.94893,-0.60601 3.00775,-1.75794 4.57519,-2.5599 1.56748,-0.80187 4.47888,-2.39254 6.46978,-3.53478 10.48892,-6.01752 9.47462,-5.65767 11.03511,-3.91532 2.16927,2.4217 2.89369,1.74935 -9.10741,8.45151 -1.91596,1.07002 -5.95246,3.25925 -8.96977,4.86495 -3.01742,1.6057 -5.60063,3.09652 -5.74053,3.31292 -0.55611,0.86039 -1.76289,0.30367 -2.6835,-1.23801 z m -17.36098,-20.65984 c 0,-11.568507 0,-11.568507 2.4801,-11.444914 4.01639,0.20028 4.13003,23.013434 0.11453,23.013434 -2.59478,0 -2.59478,0 -2.59478,-11.56852 z m -57.716956,7.83029 C 80.95017,110.4065 84.923383,92.728637 98.375299,92.728637 c 7.674441,0 13.187181,5.154834 13.187181,12.330823 0,9.23841 -9.9251,15.23239 -18.465343,11.15126 z m 9.719976,-5.1971 c 4.9,-3.79216 4.68552,-9.40519 -0.46974,-12.293631 -7.295374,-4.088108 -15.076908,5.007781 -9.415138,11.005271 2.971865,3.14813 6.831855,3.6512 9.884868,1.2884 z m 101.84045,6.07161 c -9.15165,-1.70423 -12.57636,-14.3689 -5.64793,-20.885665 3.48799,-3.280676 10.53026,-4.571188 14.38391,-2.636057 14.16802,7.113902 6.98655,26.449832 -8.73631,23.521452 z m 6.34288,-5.33519 c 3.45246,-1.49948 5.34239,-4.96459 4.54912,-8.34048 -1.58565,-6.748054 -11.32409,-7.73404 -14.30912,-1.44903 -2.94041,6.19138 3.40073,12.55173 9.76022,9.78963 z M 125.90945,92.958796 c -8.78674,-3.938263 -7.84102,-17.33993 1.45942,-20.67623 2.48756,-0.89235 2.56161,-0.978103 2.90295,-3.359223 1.70534,-11.89663 20.66727,-16.25828 28.42954,-6.538651 1.38577,1.735199 1.38577,1.735199 3.54242,1.003422 6.49697,-2.204554 13.00131,0.925706 14.51535,6.985413 0.51947,2.079323 0.71815,2.35268 1.87505,2.579576 9.75963,1.914288 11.39096,15.456044 2.37225,19.692462 -3.60252,1.692165 -51.41376,1.964095 -55.09687,0.3134 z m -30.579902,-3.62022 c -1.802338,-2.790124 0.05168,-28.160389 2.057943,-28.160389 3.576289,0 3.910889,28.081642 0.337357,28.314056 -1.211966,0.07895 -2.289811,0.0103 -2.395318,-0.153565 z M 207.17103,89.154214 c -1.83192,-1.75167 -0.0501,-27.693926 1.9194,-27.943826 2.81496,-0.357063 2.52978,-1.548997 2.56577,10.72365 0.0568,19.413031 0.28847,17.495229 -2.11286,17.495229 -1.14663,0 -2.21411,-0.123802 -2.37225,-0.274949 z M 175.72021,63.223326 c -2.49838,-2.221005 -2.63528,-2.075811 6.26638,-6.649639 1.84527,-0.948112 4.87082,-2.573562 6.72364,-3.612076 4.05667,-2.274059 3.68598,-2.255851 5.0124,-0.246716 1.61616,2.44796 1.32727,2.941372 -2.79819,4.779829 -0.59303,0.264284 -2.69382,1.433111 -4.66835,2.59735 -1.97454,1.164281 -3.72141,2.117663 -3.88193,2.118593 -0.16061,5.37e-4 -1.16528,0.556966 -2.23277,1.235543 -2.41061,1.532258 -2.4488,1.530337 -4.42105,-0.222926 z m -50.57232,-0.517159 c -1.42336,-0.85647 -4.86535,-2.816145 -7.64893,-4.35485 -5.99666,-3.315034 -5.72183,-2.995296 -4.62018,-5.377037 0.97664,-2.111152 1.72752,-2.346893 3.42686,-1.075923 0.59309,0.443601 1.24442,0.810648 1.4475,0.81569 0.20304,0.0041 2.43515,1.193486 4.96023,2.641043 2.52509,1.44756 5.41597,3.02882 6.42389,3.514027 2.16638,1.042503 2.17665,1.098121 0.64698,3.507577 -1.4393,2.267177 -1.41873,2.265689 -4.63674,0.32943 z m 78.63696,-5.580556 c -14.78395,-5.956243 -9.29727,-26.03423 6.48736,-23.741861 8.10054,1.176538 12.74916,9.091318 9.91091,16.87566 -2.11097,5.790545 -10.42654,9.272328 -16.39883,6.866201 z m 7.82913,-5.124657 c 0.82405,-0.396623 2.02383,-1.463474 2.66615,-2.370787 5.51774,-7.793663 -5.56847,-15.759018 -12.07375,-8.674625 -5.23101,5.697041 2.25605,14.487037 9.40719,11.045184 z M 94.145856,57.247388 C 85.714965,54.832309 83.01554,42.520288 89.62528,36.62692 c 8.585011,-7.654733 21.94106,-2.139095 21.92917,9.055768 -0.008,8.43783 -8.54026,14.105357 -17.408594,11.5647 z m 8.635444,-5.580019 c 4.72716,-2.623931 4.63435,-9.123022 -0.17597,-12.318779 -7.823468,-5.197512 -16.133098,6.4041 -8.548752,11.935445 2.8536,2.081246 5.459311,2.195583 8.724972,0.382941 z m 49.85951,3.257348 c -2.73105,-0.924385 -2.94234,-24.755716 -0.21567,-24.324785 0.88962,0.140544 2.05416,0.25767 2.58797,0.26017 0.97047,0.0041 0.97047,0.0041 0.97047,12.377311 0,13.91395 0.28561,12.915408 -3.34277,11.687179 z M 111.84965,36.60156 c -0.63519,-0.927732 -1.1549,-1.830953 -1.1549,-2.007315 0,-0.337015 3.6402,-2.406273 12.35594,-7.023691 2.88142,-1.526512 5.82268,-3.173023 6.53664,-3.658827 0.71361,-0.485869 1.42894,-0.88338 1.58962,-0.88338 0.16061,0 1.45126,-0.649601 2.86796,-1.443507 3.25478,-1.824009 3.53723,-1.808902 4.65876,0.248494 1.16137,2.130497 1.13496,2.161292 -4.42203,5.15446 -2.41599,1.301331 -5.76773,3.169839 -7.44835,4.152404 -1.68051,0.982525 -3.18741,1.786393 -3.34862,1.786393 -0.1612,0 -2.39419,1.20634 -4.9621,2.680746 -5.51994,3.169406 -5.2144,3.123915 -6.67264,0.994057 z m 79.2659,0.702741 c -0.95958,-0.479585 -4.16212,-2.244464 -7.11687,-3.921914 -2.95464,-1.677452 -6.92479,-3.930677 -8.82244,-5.007138 -1.8978,-1.076462 -4.46956,-2.460921 -5.71502,-3.076563 -2.59704,-1.283764 -2.54513,-1.146238 -1.38162,-3.661288 1.0481,-2.265585 1.03863,-2.264116 3.95059,-0.615869 1.25591,0.71084 3.73916,2.073432 5.51836,3.027951 1.77924,0.954457 4.78769,2.652472 6.68568,3.773226 1.89781,1.120815 5.343,3.052506 7.65575,4.292638 4.76314,2.553927 4.60229,2.314031 3.01939,4.502008 -1.3475,1.862556 -1.41628,1.875038 -3.79347,0.686906 z M 149.94082,27.206257 c -11.4431,-3.606228 -12.9985,-18.1957576 -2.46604,-23.1277668 12.56729,-5.8846049 24.57645,7.9713898 16.14046,18.6228448 -2.72164,3.436334 -9.73414,5.746811 -13.6745,4.505128 z m 6.68848,-5.726019 c 5.90545,-2.798867 5.9349,-10.367123 0.0501,-12.9225168 -7.63931,-3.3171824 -14.64172,5.5225818 -8.97259,11.3262718 2.51976,2.579513 5.6615,3.141462 8.92274,1.595955 z"
       stroke-width="1.59409"
       id="path1" /></g></svg>
