<?xml version="1.0" encoding="UTF-8"?>
<!-- Created with Inkscape (http://www.inkscape.org/) -->
<svg width="317.33" height="320" version="1.1" viewBox="0 0 317.33 320" xmlns="http://www.w3.org/2000/svg">
 <path d="m154.18 295.93c-20.153-6.2404-21.961-32.778-2.8904-42.441 10.497-5.319 25.849 0.43961 30.486 11.435 7.6316 18.097-8.9863 36.768-27.596 31.006zm14.017-10.338c8.7393-5.2569 7.8731-18.391-1.5443-23.417-5.2686-2.812-14.35-0.0995-17.465 5.2167-6.999 11.946 7.0485 25.396 19.01 18.201zm-38.212-21.111c-0.83732-0.45174-5.4617-3.1092-10.276-5.9055-14.77-8.5782-22.974-13.234-28.73-16.305-6.337-3.3808-6.146-2.996-3.4856-7.0219 2.7075-4.0972 4.8762-3.5761 15.987 3.8416 1.7501 1.1684 3.3953 2.1243 3.6561 2.1243 0.2608 0 3.7958 1.9102 7.8555 4.2448 4.0598 2.3346 8.5803 4.9146 10.046 5.7332 6.5031 3.6331 11.418 6.7674 11.418 7.2813 0 1.4344-3.1857 6.8722-4.0141 6.8518-0.51358-0.0112-1.6188-0.39253-2.4562-0.84428zm56.9-2.1162c-2.3325-4.0472-2.172-4.7115 1.542-6.3809 1.7685-0.79491 4.5857-2.352 6.2603-3.4602 1.6747-1.1082 5.3081-3.2147 8.0744-4.6812 2.7663-1.4664 7.9044-4.3752 11.418-6.464 18.511-11.004 16.721-10.346 19.475-7.1598 3.8283 4.4285 5.1068 3.199-16.073 15.455-3.3813 1.9567-10.505 5.9601-15.83 8.8964-5.3252 2.9363-9.8841 5.6625-10.131 6.0582-0.98142 1.5734-3.1112 0.55534-4.7359-2.2639zm-30.639-37.78c0-21.155 0-21.155 4.3769-20.929 7.0882 0.3663 7.2888 42.084 0.20225 42.084-4.5793 0-4.5793 0-4.5793-21.155zm-101.86 14.319c-21.437-10.614-14.425-42.941 9.3152-42.941 13.544 0 23.273 9.4265 23.273 22.549 0 16.894-17.516 27.855-32.588 20.392zm17.154-9.5038c8.6476-6.9346 8.2691-17.199-0.82902-22.481-12.875-7.4758-26.608 9.1576-16.616 20.125 5.2448 5.7569 12.057 6.6769 17.445 2.3561zm179.73 11.103c-16.151-3.1165-22.195-26.276-9.9676-38.193 6.1557-5.9993 18.584-8.3592 25.385-4.8205 25.004 13.009 12.33 48.368-15.418 43.013zm11.194-9.7563c6.093-2.7421 9.4284-9.0786 8.0284-15.252-2.7984-12.34-19.985-14.143-25.253-2.6498-5.1893 11.322 6.0017 22.953 17.225 17.902zm-150.17-34.363c-15.507-7.2018-13.838-31.709 2.5756-37.81 4.3901-1.6318 4.5208-1.7886 5.1232-6.1429 3.0096-21.755 36.474-29.731 50.173-11.957 2.4456 3.1731 2.4456 3.1731 6.2517 1.8349 11.466-4.0314 22.945 1.6928 25.617 12.774 0.91677 3.8024 1.2674 4.3023 3.3091 4.7172 17.224 3.5006 20.103 28.264 4.1866 36.011-6.3578 3.0944-90.736 3.5917-97.236 0.57308zm-53.968-6.6202c-3.1808-5.1022 0.09121-51.496 3.6319-51.496 6.3115 0 6.902 51.352 0.59537 51.777-2.1389 0.14424-4.0411 0.0172-4.2273-0.28078zm197.38-0.33701c-3.233-3.2032-0.0884-50.643 3.3874-51.1 4.9679-0.65296 4.4646-2.8326 4.5281 19.61 0.10032 35.5 0.50911 31.993-3.7288 31.993-2.0236 0-3.9075-0.22633-4.1866-0.5028zm-55.505-47.419c-4.4092-4.0615-4.6508-3.796 11.059-12.16 3.2566-1.7338 8.5961-4.7062 11.866-6.6053 7.1593-4.1585 6.5051-4.1252 8.846-0.45114 2.8522 4.4765 2.3424 5.3788-4.9383 8.7407-1.0466 0.48329-4.7541 2.6207-8.2388 4.7497-3.4847 2.1291-6.5676 3.8725-6.8509 3.8742-0.28339 1e-3 -2.0565 1.0185-3.9404 2.2594-4.2543 2.802-4.3217 2.7985-7.8024-0.40766zm-89.251-0.94583c-2.512-1.5662-8.5865-5.1498-13.499-7.9636-10.583-6.0621-10.098-5.4774-8.1538-9.8328 1.7236-3.8606 3.0488-4.2917 6.0478-1.9675 1.0467 0.81119 2.1962 1.4824 2.5546 1.4916 0.35833 8e-3 4.2976 2.1825 8.7539 4.8296 4.4563 2.6471 9.5582 5.5387 11.337 6.426 3.8233 1.9064 3.8414 2.0081 1.1418 6.4142-2.5401 4.1459-2.5038 4.1432-8.183 0.60243zm138.78-10.205c-26.091-10.892-16.408-47.608 11.449-43.416 14.296 2.1515 22.5 16.625 17.491 30.86-3.7255 10.589-18.401 16.956-28.941 12.556zm13.817-9.3713c1.4543-0.72528 3.5717-2.6762 4.7053-4.3354 9.7378-14.252-9.8274-28.818-21.308-15.863-9.2318 10.418 3.9815 26.492 16.602 20.198zm-207.31 9.594c-14.879-4.4164-19.643-26.931-7.978-37.708 15.151-13.998 38.722-3.9117 38.701 16.56-0.01547 15.43-15.072 25.794-30.723 21.148zm15.24-10.204c8.3426-4.7983 8.1788-16.683-0.31057-22.527-13.807-9.5045-28.472 11.711-15.087 21.826 5.0361 3.8059 9.6347 4.015 15.398 0.70026zm87.993 5.9566c-4.8198-1.6904-5.1927-45.27-0.3806-44.482 1.57 0.25711 3.6252 0.47121 4.5673 0.47578 1.7127 0.0087 1.7127 0.0087 1.7127 22.634 0 25.444 0.50408 23.618-5.8994 21.372zm-71.989-33.507c-1.121-1.6965-2.0382-3.3482-2.0382-3.6707 0-0.61628 6.4243-4.4003 21.806-12.844 5.0852-2.7915 10.276-5.8024 11.536-6.6908 1.2594-0.88849 2.5218-1.6154 2.8054-1.6154s2.5612-1.1879 5.0614-2.6397c5.7441-3.3355 6.2426-3.3079 8.2219 0.4544 2.0496 3.896 2.003 3.9523-7.8041 9.4258-4.2638 2.3797-10.179 5.7966-13.145 7.5934-2.9658 1.7967-5.6252 3.2667-5.9097 3.2667s-4.2253 2.206-8.7572 4.9022c-9.7417 5.7958-9.2025 5.7126-11.776 1.8178zm139.89 1.2851c-1.6935-0.87701-7.3454-4.1044-12.56-7.1719-5.2144-3.0675-12.221-7.1879-15.57-9.1564-3.3493-1.9685-7.888-4.5002-10.086-5.626-4.5833-2.3476-4.4917-2.0961-2.4383-6.6953 1.8497-4.143 1.833-4.1403 6.9721-1.1262 2.2164 1.2999 6.5989 3.7916 9.7389 5.5371 3.14 1.7454 8.4494 4.8505 11.799 6.9 3.3493 2.0496 9.4294 5.582 13.511 7.8498 8.4061 4.6703 8.1222 4.2316 5.3287 8.2327-2.3781 3.406-2.4995 3.4288-6.6948 1.2561zm-72.666-18.466c-20.195-6.5946-22.94-33.274-4.3521-42.293 22.179-10.761 43.373 14.577 28.485 34.055-4.8032 6.2839-17.179 10.509-24.133 8.2384zm11.804-10.471c10.422-5.1182 10.474-18.958 0.0884-23.631-13.482-6.066-25.84 10.099-15.835 20.712 4.4469 4.7171 9.9915 5.7447 15.747 2.9185z" stroke-width="2.8637"/>
</svg>
