<?xml version="1.0" encoding="UTF-8" standalone="no"?>
<!-- Created with Inkscape (http://www.inkscape.org/) -->

<svg
   width="300mm"
   height="150mm"
   viewBox="0 0 300 150"
   version="1.1"
   id="svg1"
   xml:space="preserve"
   inkscape:version="1.3 (0e150ed, 2023-07-21)"
   sodipodi:docname="teteet.svg"
   xmlns:inkscape="http://www.inkscape.org/namespaces/inkscape"
   xmlns:sodipodi="http://sodipodi.sourceforge.net/DTD/sodipodi-0.dtd"
   xmlns="http://www.w3.org/2000/svg"
   xmlns:svg="http://www.w3.org/2000/svg"><sodipodi:namedview
     id="namedview1"
     pagecolor="#ffffff"
     bordercolor="#000000"
     borderopacity="0.25"
     inkscape:showpageshadow="2"
     inkscape:pageopacity="0.0"
     inkscape:pagecheckerboard="0"
     inkscape:deskcolor="#d1d1d1"
     inkscape:document-units="mm"
     inkscape:zoom="0.81138889"
     inkscape:cx="472.03013"
     inkscape:cy="329.06539"
     inkscape:window-width="1392"
     inkscape:window-height="1099"
     inkscape:window-x="177"
     inkscape:window-y="65"
     inkscape:window-maximized="0"
     inkscape:current-layer="layer1" /><defs
     id="defs1" /><g
     inkscape:label="Capa 1"
     inkscape:groupmode="layer"
     id="layer1"><path
       style="fill:#000000;stroke-width:1.43042"
       d="m 26.265914,133.64719 v -4.19813 l 0.442997,-0.15903 c 0.243649,-0.0875 0.569294,-1.05532 0.723655,-2.15077 l 0.280656,-1.99172 -0.723655,-1.74081 -0.723653,-1.7408 V 97.066771 72.467622 l 0.643007,-1.813338 0.643008,-1.813352 h 6.039188 6.039188 v -0.610026 c 0,-0.335508 -0.176883,-0.727759 -0.39307,-0.871658 -0.216188,-0.1439 -0.393071,-0.719952 -0.393071,-1.280111 v -1.018466 l 0.744132,-0.428918 0.744131,-0.42892 0.988416,0.837372 c 0.543629,0.460536 1.181619,0.837358 1.417756,0.837358 h 0.429337 v -1.270018 -1.270019 h 0.982677 0.982676 v -2.303389 -2.303388 l -0.39307,-0.261632 c -0.216188,-0.1439 -0.393071,-0.719952 -0.393071,-1.28011 v -1.018466 l 0.797263,-0.459549 0.797261,-0.459535 1.024563,0.867989 c 0.56351,0.477389 1.266033,0.867988 1.561161,0.867988 h 0.536596 v -1.481699 -1.481683 h 1.179211 1.179211 V 51.535844 49.04765 l -0.589606,-0.527017 c -1.275264,-1.139881 -0.455575,-3.386712 1.235537,-3.386712 h 0.881774 l 0.513626,0.759614 c 0.282494,0.417798 1.574916,1.389783 2.872048,2.159955 1.297132,0.770187 3.259057,2.344731 4.359834,3.498981 l 2.001411,2.098654 0.25965,-6.05779 c 0.142802,-3.331792 0.373693,-13.01115 0.513077,-21.509695 0.139381,-8.498544 0.393087,-15.832902 0.563783,-16.2985769 l 0.310355,-0.8466735 0.04288,7.1967664 c 0.02358,3.958233 0.274091,14.926199 0.556689,24.373256 l 0.513814,17.176489 1.518948,3.113167 1.51895,3.113153 2.142735,2.492641 c 1.178506,1.370953 2.845617,2.878833 3.704695,3.350845 l 1.56196,0.858221 0.877643,-0.505874 0.877647,-0.505873 0.835272,0.481455 0.835275,0.481454 v 1.220815 c 0,0.671439 0.300189,1.784135 0.667086,2.472654 l 0.667084,1.251825 1.194471,-0.05336 1.194471,-0.05335 0.02248,1.062489 0.02246,1.062489 1.358804,1.531453 c 1.579221,1.779886 3.127622,3.753018 3.127622,3.985544 0,0.08892 0.604345,0.812475 1.34299,1.607997 l 1.34299,1.446411 0.427442,-0.460353 c 0.235094,-0.253204 1.020933,-0.417317 1.746313,-0.364698 l 1.318871,0.0957 0.413549,-0.538422 c 0.227452,-0.296142 0.47342,-1.109943 0.546597,-1.808455 l 0.133047,-1.270019 1.080943,-0.133949 1.080942,-0.133948 v 0.45146 c 0,0.248293 0.353763,0.451447 0.786142,0.451447 h 0.78614 v -0.899591 -0.899591 l 1.12549,0.242422 1.125485,0.242435 0.44679,-1.05611 c 0.24574,-0.580865 0.44679,-1.500075 0.44679,-2.042703 0,-0.542628 0.27057,-1.228437 0.60125,-1.524014 l 0.60125,-0.53742 0.98953,0.485591 c 0.54424,0.267066 1.40685,0.485576 1.91691,0.485576 h 0.92738 l -0.22166,-0.912901 -0.22166,-0.912887 1.36771,0.239034 1.3677,0.239048 0.67812,-1.356161 0.67812,-1.356162 -0.23228,-0.651919 -0.23228,-0.651932 0.77356,-1.022277 0.77355,-1.02229 1.30727,0.70945 c 0.71898,0.390203 2.19167,0.835609 3.27261,0.989799 l 1.96534,0.280333 2.16189,1.2421 c 3.48376,2.001587 6.93772,5.911632 9.23137,10.450321 l 1.07458,2.126404 1.34987,0.272739 c 1.73549,0.350653 2.78281,-0.01948 3.0999,-1.095447 l 0.25232,-0.856244 -0.47351,-1.231203 c -0.85999,-2.236076 0.50858,-3.453926 1.91141,-1.700929 l 0.65262,0.815509 3.08835,0.666175 c 1.69859,0.366405 3.51161,0.666189 4.02897,0.666189 h 0.94063 v -1.820353 c 0,-1.001203 -0.18269,-2.017114 -0.40596,-2.257587 l -0.40596,-0.437219 0.25148,-0.705795 0.25148,-0.705795 h 0.84607 0.84607 l 0.45042,0.776778 0.45043,0.776792 3.08349,0.702689 c 5.53213,1.260704 13.65177,1.951791 15.23652,1.296837 l 0.62175,-0.256973 6.4e-4,-7.468985 6.4e-4,-7.468986 h -1.83202 -1.83199 l -0.15217,-0.48216 c -0.0836,-0.26516 1.04996,-1.789174 2.51923,-3.386712 l 2.67142,-2.904607 7.07527,-4.091872 7.07526,-4.091871 0.10656,-8.554172 0.10654,-8.554184 -0.46331,-0.601262 -0.46332,-0.601246 0.45503,-0.490065 c 0.25025,-0.269535 0.47554,-0.975852 0.50063,-1.569591 l 0.0456,-1.079511 0.19323,0.846689 c 0.10625,0.46566 0.38289,1.097959 0.6147,1.405097 l 0.42143,0.558436 1.99295,-0.266332 c 20.52122,-2.742358 56.17499,-16.286975 60.05545,-22.8146173 l 0.28113,-0.4729153 1.09461,0.7630872 c 3.6216,2.5246934 11.3811,5.5307294 16.49405,6.3898114 l 3.46795,0.5827 -1.81668,0.04813 -1.81668,0.04814 -3.70077,-1.011082 c -3.6781,-1.004859 -9.90916,-3.552758 -11.66562,-4.770087 -1.25565,-0.8702319 -1.23061,-1.3748487 -0.42314,8.532872 0.39848,4.889568 0.73072,9.060341 0.73829,9.268378 l 0.0144,0.378248 3.63589,-0.293333 c 1.99974,-0.161318 4.00822,-0.392871 4.46328,-0.514554 l 0.8274,-0.221235 -0.0706,7.333088 c -0.0897,9.317526 0.0253,9.503037 7.06341,11.379778 l 2.75149,0.7337 -0.98266,0.03895 c -1.5106,0.05999 -4.96787,-1.04263 -7.36455,-2.348627 l -2.16139,-1.177779 -2.27664,2.740227 -2.27663,2.740242 5.07311,0.11814 5.07312,0.118141 -0.006,1.363572 c -0.003,0.749959 0.0494,3.601975 0.11756,6.337812 l 0.12365,4.974243 h -0.31291 c -0.46453,0 -0.37939,2.445807 0.0961,2.762345 l 0.40905,0.272288 -0.22139,0.751287 -0.22141,0.751272 0.57596,0.514823 c 0.31679,0.283142 1.42628,0.889921 2.46558,1.34837 l 1.88958,0.833576 -1.3693,-0.239472 c -0.75312,-0.131691 -2.04155,-0.718582 -2.86317,-1.304176 l -1.49386,-1.064705 -3.42595,1.471845 c -1.88429,0.80951 -3.9566,1.699263 -4.60517,1.977226 l -1.17921,0.505379 2.7413,0.569178 c 1.50771,0.313052 4.75987,0.757991 7.22702,0.988754 2.46713,0.230776 4.5943,0.547214 4.72703,0.703197 0.36905,0.433747 -6.76957,-0.17539 -10.89476,-0.929641 -2.01726,-0.368833 -3.77678,-0.553144 -3.91008,-0.409596 -0.13322,0.14356 0.66452,11.999134 1.77292,26.34571 l 2.0153,26.084726 0.51041,0.33975 c 0.28073,0.18685 1.70825,0.57029 3.17228,0.85207 l 2.66189,0.51234 v 2.04891 2.04889 h 2.35841 2.35842 v 4.23339 4.23341 H 146.54543 26.265914 Z m 23.588546,-4.79785 c 0.0023,-0.29105 0.113969,-1.24357 0.247964,-2.11671 l 0.243641,-1.58752 h -8.447936 -8.447934 l 0.165877,1.16419 c 0.09124,0.6403 0.246955,1.59281 0.346052,2.11669 l 0.180174,0.95253 h 7.853918 7.853916 z m 9.822431,-0.95253 v -1.48168 h 0.537671 0.537673 l 0.254717,-9.20765 c 0.317268,-11.46887 0.555581,-19.39782 0.865226,-28.787092 l 0.240829,-7.302614 h -0.401809 c -0.220996,0 -1.211326,-0.665498 -2.200734,-1.478889 l -1.798925,-1.478889 v 21.60439 21.604404 l -0.810431,1.71091 -0.810433,1.71091 0.266117,2.29394 0.266118,2.29397 h 1.526991 1.52699 z m 13.806807,-6.13841 c 0.81096,-4.07465 1.485378,-7.74182 1.498705,-8.14929 l 0.02423,-0.74084 -1.277477,-0.0113 -1.27748,-0.0113 -0.884408,-1.88865 -0.884408,-1.88866 v -1.49423 -1.49422 l 1.011824,-2.08409 c 0.556504,-1.14626 1.210771,-2.15553 1.453928,-2.24282 l 0.442103,-0.15872 -0.873859,-1.32174 -0.873857,-1.32172 0.773994,-0.776609 0.773997,-0.776623 -0.144774,-0.836964 c -0.07963,-0.460339 -0.180423,-0.8846 -0.223987,-0.94281 -0.04356,-0.05815 -0.10403,-0.248702 -0.134366,-0.42333 -0.03034,-0.174627 -0.161554,-0.508019 -0.2916,-0.740842 -0.130046,-0.232837 -0.546217,-1.471111 -0.924824,-2.751716 l -0.688377,-2.328373 -0.837973,-0.746134 -0.837973,-0.746135 0.728057,-0.602193 0.728058,-0.602207 -0.608145,-0.935103 C 69.373313,84.539697 67.544298,83.241505 66.627403,83.23792 l -0.714362,-0.0028 0.191857,0.740841 c 0.105517,0.407465 0.413627,10.123112 0.684681,21.590329 l 0.492822,20.84948 h 0.52102 0.521018 v 1.50488 1.50488 l 1.842393,-0.129 1.842393,-0.12902 z m 27.236852,6.57436 c -0.13403,-0.57514 -0.45096,-2.05154 -0.70429,-3.28088 l -0.460598,-2.23514 -8.129992,-0.11433 -8.129992,-0.11433 -0.394418,1.59606 c -0.21693,0.87782 -0.512638,2.40569 -0.657127,3.39524 l -0.262709,1.7992 h 9.491415 9.491411 z m 22.79812,0.78878 0.62176,-0.25696 v -8.63317 -8.63316 h -0.5896 c -0.32429,0 -0.58962,-0.1769 -0.58962,-0.3931 0,-0.2162 0.26533,-0.67886 0.58962,-1.02812 l 0.5896,-0.63501 v -4.89863 -4.898664 h -0.59494 c -0.32722,0 -0.96941,0.23813 -1.4271,0.529184 l -0.83216,0.52917 -0.17058,-0.50538 c -0.0938,-0.27795 -0.82244,-0.735834 -1.61919,-1.017507 -3.23321,-1.143042 -6.02268,-3.678959 -9.55957,-8.690647 -0.9652,-1.367664 -2.00346,-2.48667 -2.30725,-2.48667 h -0.55234 l -0.25365,1.058355 -0.25365,1.058353 0.72465,0.635009 0.72466,0.63501 -1.54015,2.751702 -1.54015,2.751717 2.03411,0.211665 2.03409,0.211665 0.0105,0.423344 c 0.005,0.232837 0.51499,1.339421 1.13184,2.459074 l 1.12155,2.03576 0.19151,1.82996 0.19151,1.82995 -0.4935,1.63772 c -0.27142,0.90075 -0.82271,2.14338 -1.22508,2.76142 -0.40237,0.61804 -0.73158,1.42767 -0.73158,1.79919 v 0.6755 h -0.78614 c -0.43238,0 -0.78614,0.0972 -0.78614,0.2158 0,0.17536 2.22903,11.70336 2.96649,15.34192 l 0.19306,0.95253 h 6.05295 c 3.32912,0 6.33274,-0.11561 6.67471,-0.25698 z m 9.43369,0 0.62176,-0.25696 v -9.26818 -9.26817 h -0.61695 -0.61694 l 0.13494,-0.95251 0.13493,-0.95252 0.482,0.10586 0.48202,0.10587 v -5.50343 -5.503413 h -0.70754 c -0.38913,0 -0.90847,0.216422 -1.15409,0.480961 l -0.44657,0.480961 -1.69566,-0.906903 -1.69567,-0.906901 -0.19653,1.378448 c -0.10809,0.758147 -0.14221,3.712117 -0.0758,6.564387 l 0.12074,5.18591 h 0.56713 0.56714 v 0.80137 c 0,0.44076 -0.26532,0.91106 -0.5896,1.04507 l -0.5896,0.24368 v 8.18374 8.18373 l 0.47168,0.50801 0.47168,0.50802 h 1.8546 c 1.02002,0 2.13437,-0.1156 2.47634,-0.25698 z m 10.21984,0 0.62174,-0.25696 v -9.90319 -9.90318 h -0.61694 -0.61695 l 0.13497,-0.95251 0.13496,-0.95252 0.482,0.10587 0.48201,0.10586 v -5.92676 -5.926769 h -0.3984 c -0.21912,0 -0.7287,0.222152 -1.13237,0.493677 l -0.73397,0.493664 -1.85885,-0.941046 c -2.45247,-1.241563 -2.32149,-1.681195 -2.22481,7.467994 l 0.0592,5.60926 h 0.55279 0.55282 l -0.20558,0.84667 c -0.11308,0.46568 -0.36183,0.84669 -0.55282,0.84669 h -0.34721 v 9.27819 9.27819 l 0.49134,0.21352 c 0.7105,0.30877 4.44471,0.32565 5.17604,0.0234 z m 13.05785,-0.37803 0.22625,-0.63501 h 1.12308 c 0.61769,0 2.89822,-0.21742 5.06785,-0.48312 l 3.94479,-0.48311 V 104.74585 82.349428 l -1.47401,0.280377 c -0.8107,0.154203 -3.06135,0.835354 -5.00142,1.513653 -1.94008,0.6783 -5.03552,1.523986 -6.87873,1.879311 -1.84324,0.355325 -3.79353,0.782791 -4.334,0.949938 l -0.98268,0.303891 -0.0193,9.514936 c -0.0196,9.613326 0.0464,10.736036 0.60893,10.361646 0.17088,-0.11376 0.42729,0.12041 0.5698,0.52043 l 0.25912,0.72725 -0.611,0.48117 -0.611,0.48119 v 9.7607 9.76069 l 0.49133,0.21353 c 0.27024,0.11744 2.04462,0.22855 3.94305,0.24695 l 3.4517,0.0334 z m 74.03937,-1.4817 v -2.1167 h 0.61028 c 0.33565,0 1.80071,-0.2916 3.25569,-0.64802 l 2.64541,-0.64803 1.88272,-24.646527 c 1.03551,-13.555583 1.91413,-24.932271 1.95249,-25.281527 0.0384,-0.349256 -0.10973,-0.602305 -0.32916,-0.562346 -9.88875,1.801115 -18.65336,2.668777 -27.01772,2.674677 l -6.19085,0.0043 -0.0105,6.244262 c -0.0342,21.352131 0.0358,44.725391 0.13408,44.831311 0.0635,0.0683 2.64514,0.35759 5.73709,0.6428 l 5.62171,0.51856 0.19666,0.55194 0.19664,0.55194 h 5.65747 5.65748 z m -56.91879,-5.60926 c 0.0662,-3.08507 -0.0237,-5.95249 -0.1994,-6.37202 l -0.31954,-0.76278 0.66332,-1.8706 0.66329,-1.87061 -0.16584,-6.28748 -0.16584,-6.287489 0.94496,0.194557 0.94497,0.194558 -0.14019,-2.703868 -0.14017,-2.703853 0.90211,-0.13776 0.90211,-0.13776 1.36194,-1.978919 c 1.96132,-2.849828 3.61964,-6.733535 3.91832,-9.176463 l 0.25869,-2.11593 -1.01621,-1.024139 -1.01622,-1.024154 -4.03112,1.35019 c -2.2171,0.742606 -4.34065,1.346351 -4.71899,1.341651 l -0.68787,-0.0085 v 23.495369 23.49534 h 0.96083 0.96083 z m 7.85253,-1.90503 c -0.006,-4.13284 0.0403,-10.94332 0.10248,-15.13438 l 0.11307,-7.620118 1.03766,-0.13395 1.03768,-0.133949 v -1.157227 c 0,-0.636477 -0.1993,-1.3719 -0.44289,-1.634251 l -0.44292,-0.477008 0.25386,-1.08935 0.25386,-1.089349 h 0.94068 0.94068 l 1.81844,-2.744533 c 1.74927,-2.640154 3.75355,-7.465498 3.75355,-9.036727 v -0.755097 l -3.2538,0.470007 c -3.76325,0.543603 -4.21454,0.764824 -4.21454,2.066022 0,0.5261 -0.27387,1.949786 -0.6086,3.163769 l -0.60861,2.207253 -2.15188,3.403579 -2.15187,3.403593 -0.24355,2.509465 -0.24353,2.50945 h 1.03868 1.03867 v 0.846675 c 0,0.465672 -0.17688,0.846696 -0.39306,0.846696 h -0.39308 v 5.67981 5.67981 l 0.49133,0.17644 0.49135,0.17646 -0.13265,7.69061 -0.13249,7.6906 h 1.05599 1.05599 z m 7.7263,-0.31127 -0.16364,-7.82555 0.4104,-0.14782 0.41042,-0.14783 v -7.90203 -7.902035 l 0.9404,1.69e-4 0.94041,1.69e-4 -0.24236,-2.497297 -0.24235,-2.497298 0.56221,-0.502514 c 0.30922,-0.276396 0.73854,-0.385164 0.95403,-0.241715 l 0.39183,0.260813 1.58,-2.152771 c 1.64013,-2.234692 4.11683,-7.383407 4.52588,-9.408637 l 0.23515,-1.164186 -1.08844,0.04051 c -0.59862,0.0223 -2.41065,0.355664 -4.02671,0.740841 l -2.93826,0.700318 -0.29781,1.885847 c -0.37828,2.395671 -1.85252,5.646232 -3.93123,8.668048 -0.89471,1.300634 -1.67922,2.791874 -1.74337,3.313881 -0.0643,0.522005 -0.22666,1.636155 -0.36113,2.47587 l -0.24446,1.526753 1.21562,0.261857 1.21564,0.261843 v 0.857261 c 0,0.471504 -0.17688,0.857274 -0.39308,0.857274 h -0.39307 v 5.891479 5.89147 l 0.48696,0.17483 0.48694,0.17481 -0.12365,8.11558 -0.12365,8.11558 h 1.06047 1.06045 z m 12.25276,-17.5352 V 76.540312 l -0.72555,0.204354 -0.72557,0.20434 -0.45137,2.106008 c -0.57983,2.705391 -2.10261,6.041982 -3.97069,8.700216 -1.47454,2.098217 -1.86911,3.176289 -2.25771,6.168578 l -0.20617,1.587515 h 1.22049 1.22052 v 1.058354 c 0,0.582093 -0.17689,1.058353 -0.39308,1.058353 h -0.39307 v 6.13843 6.13842 h 0.39307 c 0.21619,0 0.39308,0.28834 0.39308,0.64076 0,0.35242 0.21942,1.01917 0.48762,1.48168 l 0.48763,0.84095 -0.48763,0.84093 -0.48762,0.84093 v 6.35583 6.35585 h 2.94801 2.94804 z m -136.834393,3.70744 -1.722908,-5.43973 -0.238685,1.79885 c -0.131277,0.98936 -0.339836,6.56142 -0.463467,12.38234 l -0.224784,10.5835 2.186376,-6.94262 2.186375,-6.9426 z m 58.169353,-7.163158 c 0.43198,0.248984 0.97394,0.452717 1.20433,0.452717 h 0.41892 v -2.15469 -2.15469 l -1.9882,-2.396222 c -1.0935,-1.31791 -2.63067,-3.443975 -3.41591,-4.72458 -1.81083,-2.953134 -5.47933,-6.864026 -7.12887,-7.599914 l -1.26822,-0.565762 -0.28847,0.378615 c -0.15866,0.208249 -0.71922,1.765856 -1.24569,3.46135 l -0.95722,3.082736 0.38315,0.571762 c 4.1178,6.144935 8.25333,10.42377 11.09352,11.477946 l 1.4748,0.547399 0.46622,-0.414692 0.46621,-0.414691 z m 11.05694,-4.688658 v -2.466881 l -2.17761,-2.923196 -2.17761,-2.923197 -1.06298,-0.21885 c -1.43157,-0.29473 -1.65707,-0.0724 -1.65707,1.633305 v 1.456701 h 0.5896 0.58961 v 3.577345 3.57736 l 0.56796,0.342326 c 0.3124,0.188277 1.639,0.357993 2.94804,0.377147 l 2.38006,0.03486 z m -8.6756,-5.425957 0.71722,-0.413408 -0.34086,-1.965001 c -0.43664,-2.517228 0.539,-3.908718 1.49924,-2.138274 0.17288,0.318753 0.73908,0.721744 1.2582,0.895525 l 0.94387,0.315987 -0.25554,-0.717228 c -0.57138,-1.603649 -3.32279,-5.645385 -5.16904,-7.593166 l -1.96614,-2.074264 -2.14347,-1.065355 c -1.17892,-0.585946 -2.95459,-1.149295 -3.94596,-1.251881 l -1.80249,-0.186541 -0.52421,0.680275 c -0.28831,0.374155 -0.74002,0.68029 -1.00379,0.68029 -0.26377,0 -0.81698,0.678921 -1.22935,1.508728 l -0.74977,1.508727 0.68787,0.417332 c 0.37833,0.229534 0.68788,0.684467 0.68788,1.01097 0,0.326503 0.75174,1.157552 1.67055,1.84679 2.11014,1.582902 4.83703,4.674614 6.7717,7.677644 0.82501,1.280605 2.04889,2.99514 2.71974,3.810056 l 1.21972,1.481698 0.11871,-2.007756 0.11871,-2.007754 z m -47.968111,1.61257 c -0.269024,-1.012226 -0.611996,-2.030903 -0.762158,-2.263741 -0.150164,-0.232837 -0.486675,-1.137721 -0.747805,-2.01086 l -0.474779,-1.587531 h -0.559123 c -0.732956,0 -0.716987,-1.025239 0.02632,-1.689636 L 74.9983,81.868242 74.328112,80.646327 c -0.368605,-0.672047 -0.895876,-1.221902 -1.171714,-1.221902 -0.275839,0 -0.722455,-0.381014 -0.99248,-0.846688 -0.270023,-0.46566 -0.784206,-0.846674 -1.142627,-0.846674 -0.35842,0 -1.642485,-0.561331 -2.853475,-1.247408 l -2.201803,-1.247392 v 3.335559 3.335589 l 0.83298,0.284722 0.832978,0.284738 0.909322,-0.524124 0.909322,-0.524123 0.616121,0.25463 0.616122,0.25463 v 1.099471 c 0,0.604705 0.183104,1.467949 0.406899,1.918309 l 0.406901,0.818855 h 0.968845 0.968847 v 0.758485 c 0,0.417162 0.619086,1.465367 1.375746,2.329346 0.75666,0.863979 1.375746,1.673715 1.375746,1.799421 0,0.324301 0.95704,1.403545 1.108188,1.249679 0.06902,-0.07029 -0.0946,-0.955936 -0.363623,-1.968163 z m 4.861383,-3.851271 c -0.119071,-0.523884 -0.346488,-1.143014 -0.505354,-1.375851 -0.158865,-0.232837 -0.586081,-1.53954 -0.949365,-2.903776 l -0.660519,-2.480444 -0.76268,-0.214812 -0.762678,-0.214799 v -0.77627 c 0,-0.426943 0.283761,-0.947298 0.630578,-1.156338 l 0.630578,-0.380054 -0.664256,-1.383445 c -0.36534,-0.760899 -0.990629,-1.475375 -1.389528,-1.587714 -0.3989,-0.112354 -0.81319,-0.451023 -0.920646,-0.752614 -0.107461,-0.30159 -1.048321,-0.997208 -2.09081,-1.545807 -2.436205,-1.282045 -5.430292,-4.564773 -7.300152,-8.003921 l -1.474014,-2.711094 0.04266,4.012095 c 0.02347,2.206646 0.156126,5.146992 0.294804,6.534107 l 0.252142,2.522013 1.562471,1.140417 c 0.85936,0.627231 2.161136,1.338306 2.892838,1.580163 l 1.330363,0.439745 0.744423,-0.500708 0.744422,-0.500693 0.686515,0.463488 c 0.377583,0.254912 0.738962,0.920282 0.803063,1.478592 0.0641,0.558309 0.303329,1.530337 0.531618,2.160039 l 0.41507,1.14492 1.173121,-0.252683 1.17312,-0.252697 -0.132452,0.865264 -0.132451,0.865249 1.080943,1.308058 c 0.594518,0.719431 1.080943,1.42205 1.080943,1.561376 0,0.200119 1.575441,1.798235 1.830285,1.856629 0.0338,0.0071 -0.03597,-0.414551 -0.15504,-0.938435 z m 77.135358,-2.846765 c 1.51333,-0.212541 3.45902,-0.723043 4.32378,-1.134446 l 1.57228,-0.748027 -4.63911,-0.309932 c -3.8062,-0.254277 -7.6239,-0.885377 -12.86451,-2.12663 l -0.57762,-0.136772 -0.1164,1.922248 -0.11641,1.922262 1.09912,0.466916 1.09912,0.466903 3.73417,0.0319 c 2.05379,0.01764 4.97233,-0.141938 6.48565,-0.354465 z M 60.619474,68.821199 C 59.627183,67.2571 57.947876,65.057185 56.887678,63.93252 l -1.927631,-2.044863 v 2.206619 2.206618 h 0.589606 0.589605 l 0.01334,1.375851 c 0.0074,0.756722 0.355096,2.137865 0.772803,3.069214 l 0.759465,1.693363 0.01334,1.97803 0.01334,1.978044 2.063619,1.946497 2.063619,1.946497 0.29243,-4.311681 0.292431,-4.311695 z m 114.667556,4.041468 c 0.37932,-0.465674 0.79938,-1.304868 0.93351,-1.864871 l 0.24383,-1.018198 -0.34466,-0.251822 -0.34466,-0.251835 0.0503,-4.037177 c 0.0277,-2.220451 0.18293,-4.268348 0.34506,-4.550898 l 0.2948,-0.513722 h -0.40756 c -0.22417,0 -1.38433,0.515938 -2.57816,1.146543 l -2.1706,1.14653 v 7.194508 7.194496 l 1.64425,-1.673447 c 0.90436,-0.920382 1.95462,-2.054433 2.33392,-2.520107 z m 19.99914,3.323026 c 1.83759,-0.384642 3.40711,-0.757526 3.4878,-0.828622 0.0807,-0.07114 -0.58526,-1.024845 -1.47988,-2.119446 l -1.62656,-1.990182 -0.65809,-1.995602 -0.65812,-1.995617 -2.97193,2.757362 c -1.63458,1.516548 -3.14026,2.921164 -3.34595,3.121355 l -0.37402,0.363991 1.53473,1.692728 c 1.75928,1.940414 1.65334,1.923123 6.09202,0.994033 z m 33.21442,-1.626417 c 3.02665,-0.349213 7.0507,-0.941244 8.94236,-1.315595 l 3.43937,-0.680657 0.0491,-1.861047 c 0.027,-1.023574 0.0712,-2.179433 0.0983,-2.568576 l 0.0492,-0.707532 -2.58949,-1.142985 c -3.28705,-1.4509 -2.96903,-1.500725 -10.25694,1.606684 -5.79141,2.469308 -18.658,6.878126 -20.07302,6.878126 -0.35292,0 -0.7689,0.221701 -0.92438,0.492662 l -0.28271,0.492677 8.02265,-0.279402 c 4.41246,-0.153668 10.499,-0.565128 13.52563,-0.914355 z m -27.94013,0.374789 0.62176,-0.256959 V 60.928587 47.180054 l -0.29995,0.141147 c -0.16496,0.07763 -1.58125,0.789058 -3.14726,1.580982 l -2.84734,1.439876 0.22637,1.523506 c 0.12452,0.837937 0.27759,3.857171 0.34021,6.709427 l 0.11379,5.185907 h -0.31833 -0.31834 l 0.15335,2.564541 0.15338,2.56454 1.01752,1.869953 c 0.78855,1.449219 3.21226,4.417188 3.61694,4.429172 0.0364,0.001 0.3459,-0.113624 0.68786,-0.254997 z m -18.71968,-2.516621 2.41141,-2.350236 0.26904,-1.544636 0.26907,-1.544649 -0.45403,-0.162998 c -0.24972,-0.08963 -0.34569,-0.35181 -0.21327,-0.582586 0.30574,-0.532791 0.4377,-3.318156 0.15719,-3.318156 -0.21673,0 -0.17694,-1.155859 0.17021,-4.943219 l 0.20086,-2.191515 -3.6249,1.809951 -3.62489,1.809951 0.0312,5.038295 0.0312,5.038295 -0.35952,0.258949 -0.35952,0.258949 0.40772,1.590311 c 0.38821,1.51429 1.44298,3.183544 2.01162,3.183544 0.14583,0 1.3503,-1.057619 2.67657,-2.35025 z m 31.87168,0.18808 c 8.25001,-2.525866 18.97986,-6.876109 20.58593,-8.346232 2.29938,-2.104766 0.57957,-2.570074 -2.7748,-0.750765 -4.92249,2.669823 -11.23773,5.418744 -18.05254,7.857974 -3.72629,1.333747 -6.65958,2.549396 -6.51841,2.701426 0.41388,0.445758 0.80059,0.3621 6.75982,-1.462403 z m 1.20227,-2.32459 c 4.97502,-1.816824 12.38438,-5.119752 16.57232,-7.387557 l 3.04323,-1.647941 0.12974,-3.231153 c 0.0713,-1.777135 0.0145,-3.430525 -0.1264,-3.674188 l -0.25618,-0.443033 4.48169,-5.960301 c 2.46491,-3.278169 4.48179,-6.25002 4.48191,-6.604103 1.5e-4,-0.354097 0.53068,-7.406654 1.17897,-15.672361 0.64829,-8.265708 1.17883,-15.259957 1.17895,-15.542774 l 2.6e-4,-0.5142159 -3.6359,2.3903359 c -12.89024,8.474395 -32.81489,15.893131 -50.97562,18.980243 -3.58101,0.608727 -6.77624,1.254422 -7.10053,1.434893 l -0.5896,0.328126 -0.1064,8.537742 -0.1064,8.537741 1.57264,-1.069222 c 0.86495,-0.588064 1.64308,-1.069208 1.72916,-1.069208 0.0862,0 1.6373,-0.882723 3.44717,-1.9616 1.80987,-1.078876 5.22181,-3.079151 7.58207,-4.445065 l 4.29142,-2.483465 h 4.00368 c 2.20201,0 5.0909,0.122375 6.41974,0.271977 l 2.41609,0.271978 -0.008,0.468864 c -0.004,0.257877 -1.68501,1.308665 -3.73415,2.335091 l -3.72571,1.866227 -0.0286,3.002182 c -0.0157,1.651203 -0.0215,5.669211 -0.0131,8.928933 0.008,3.259706 0.0215,8.432275 0.0286,11.494573 l 0.0131,5.567811 1.84211,-0.597083 c 1.01319,-0.328409 3.71062,-1.279447 5.99434,-2.113447 z m -25.57729,0.922259 c 1.00182,-0.796285 2.38287,-2.082168 3.06901,-2.857535 l 1.24754,-1.409755 0.27023,-1.587516 0.27022,-1.587531 h -0.35757 -0.35759 l 0.0768,-4.974242 c 0.0422,-2.735823 0.20557,-5.593372 0.36295,-6.350093 l 0.28617,-1.375851 -0.34393,0.0056 c -0.18917,0.0028 -2.17761,0.955767 -4.41877,2.116481 l -4.07482,2.110398 0.26974,1.164398 c 0.14836,0.640429 0.31219,3.21231 0.36407,5.71531 l 0.0943,4.550897 h -0.34229 -0.34232 l 0.2783,2.010861 c 0.5496,3.971049 1.20184,4.412347 3.64791,2.468095 z m 66.28501,-3.085912 c 1.51332,-0.589729 3.23791,-1.339816 3.83244,-1.666855 l 1.08094,-0.594613 V 65.04499 c 0,-0.445956 0.17441,-0.926916 0.38758,-1.068813 0.40322,-0.268378 0.36445,-1.37808 -0.0745,-2.134139 -0.13959,-0.240431 -0.2179,-2.764588 -0.174,-5.609251 0.044,-2.844662 0.0416,-5.172117 -0.004,-5.172117 -0.0467,0 -2.32853,1.461739 -5.07086,3.248303 l -4.98608,3.248302 0.25021,3.207624 c 0.13756,1.764204 0.35992,4.504064 0.49404,6.088588 l 0.24387,2.880966 0.63494,-0.272472 c 0.34922,-0.149856 1.87312,-0.754971 3.38643,-1.3447 z m -193.068504,-5.838108 0.231963,-6.773438 -2.438917,-2.540037 -2.438918,-2.540037 -2.239098,-1.203185 -2.239099,-1.203171 -0.414126,0.275647 -0.414127,0.275647 v 2.726733 2.72672 h 1.151862 1.15186 l -0.02275,3.100055 -0.02275,3.100055 2.146337,2.186237 c 1.180485,1.202422 2.839182,3.212605 3.685993,4.46707 0.846811,1.254463 1.559937,2.25705 1.584724,2.227987 0.02479,-0.02907 0.149452,-3.100901 0.277031,-6.826283 z m 191.034914,-16.328741 2.173,-2.586164 0.26195,-1.669848 0.26195,-1.669862 -0.35258,-0.514526 -0.35258,-0.514539 0.0816,-4.102472 c 0.0449,-2.256358 0.21157,-4.328985 0.37044,-4.605818 l 0.28885,-0.503347 -0.39747,0.160753 c -0.2186,0.08835 -1.85741,1.644836 -3.6418,3.458697 l -3.24434,3.297958 0.26046,3.898824 c 0.14322,2.144357 0.3646,4.988117 0.49188,6.319478 l 0.23141,2.420655 0.69711,-0.40182 c 0.3834,-0.220994 1.67496,-1.565581 2.87011,-2.987969 z"
       id="path1" /></g></svg>
