<?xml version="1.0" encoding="UTF-8" standalone="no"?>
<!-- Created with Inkscape (http://www.inkscape.org/) -->

<svg
   width="300mm"
   height="150mm"
   viewBox="0 0 300 150"
   version="1.1"
   id="svg1"
   xml:space="preserve"
   inkscape:version="1.3 (0e150ed, 2023-07-21)"
   sodipodi:docname="torrres.svg"
   xmlns:inkscape="http://www.inkscape.org/namespaces/inkscape"
   xmlns:sodipodi="http://sodipodi.sourceforge.net/DTD/sodipodi-0.dtd"
   xmlns="http://www.w3.org/2000/svg"
   xmlns:svg="http://www.w3.org/2000/svg"><sodipodi:namedview
     id="namedview1"
     pagecolor="#ffffff"
     bordercolor="#000000"
     borderopacity="0.25"
     inkscape:showpageshadow="2"
     inkscape:pageopacity="0.0"
     inkscape:pagecheckerboard="0"
     inkscape:deskcolor="#d1d1d1"
     inkscape:document-units="mm"
     inkscape:zoom="0.81138889"
     inkscape:cx="643.34132"
     inkscape:cy="363.57412"
     inkscape:window-width="2048"
     inkscape:window-height="1099"
     inkscape:window-x="0"
     inkscape:window-y="25"
     inkscape:window-maximized="1"
     inkscape:current-layer="layer1" /><defs
     id="defs1" /><g
     inkscape:label="Capa 1"
     inkscape:groupmode="layer"
     id="layer1"><path
       style="fill:#000000;stroke-width:5.27486"
       d="M 89.307256,117.23884 V 89.384238 H 82.755267 76.203281 V 87.55771 85.731183 h 6.551986 6.551989 v -1.141566 -1.141585 h -6.551989 -6.551986 v -1.826528 c 0,-1.783052 0.03612,-1.826527 1.52878,-1.826527 1.386598,0 1.52878,-0.120005 1.52878,-1.290703 0,-1.268497 0.04128,-1.290429 2.511629,-1.276517 1.381386,0.0078 3.641822,-0.0281 5.023155,-0.07922 l 2.511631,-0.09328 v -2.511468 -2.511471 h 1.747161 1.747213 v 2.054829 c 0,1.913381 0.07894,2.054849 1.14633,2.054849 2.162777,0 12.04432,-2.306995 16.8767,-3.94013 9.08977,-3.071941 19.97901,-9.882287 19.31226,-12.078292 -0.20174,-0.664806 -0.0551,-0.876951 0.60511,-0.876951 0.82167,0 2.68193,-1.943137 2.68193,-2.801374 0,-0.217296 -0.80916,-0.395059 -1.79816,-0.395059 -1.65156,0 -1.77666,-0.08371 -1.53474,-1.027434 0.14491,-0.565075 0.26621,-1.695245 0.26929,-2.511471 0.004,-1.453538 0.0465,-1.484056 1.97154,-1.484056 h 1.96558 v -1.777316 -1.777297 l 5.78764,0.0603 c 3.18317,0.03336 6.51685,-0.09951 7.40817,-0.294802 l 1.62062,-0.355154 0.12633,-3.749938 0.12632,-3.749918 2.51163,-0.13698 2.51158,-0.136981 v 3.219205 c 0,3.775929 -0.18251,3.697428 4.7878,2.055941 6.53445,-2.157955 12.6284,-5.47053 17.59817,-9.566021 2.30625,-1.90056 2.51158,-2.218543 2.51158,-3.889611 0,-1.771795 0.0412,-1.819855 1.51303,-1.819855 1.25891,0 1.70036,-0.287621 2.62844,-1.712357 l 1.11538,-1.712377 -2.62842,-0.136005 -2.62843,-0.136006 v -3.610403 -3.6104 l 2.94839,-0.13503 2.9484,-0.13503 0.13202,-2.39732 0.13203,-2.39732 h 2.81637 2.81639 v 2.511471 2.511471 h 6.98878 6.98876 V 10.386763 2.6240097 h 3.48384 3.48386 l 0.11977,7.6485833 0.11978,7.648583 7.09802,0.125468 7.09796,0.125468 v -2.522788 -2.522788 h 2.83919 2.83922 v 2.51147 2.511491 h 2.83917 2.83919 v 3.653056 3.653055 h -5.16069 -5.16064 l -0.73615,1.613701 c -0.40499,0.887546 -0.7361,1.709488 -0.7361,1.826527 0,0.117078 2.65357,0.212827 5.89679,0.212827 h 5.89679 v 3.653056 3.653056 h -8.76861 -8.76866 l -3.48604,3.306643 c -1.91724,1.818644 -3.76986,3.472736 -4.1169,3.675729 -0.54408,0.318314 -0.6309,7.339674 -0.6309,51.032609 v 50.663434 h -3.49438 -3.49443 V 97.146855 c 0,-26.370504 -0.11703,-47.946385 -0.26054,-47.946385 -0.14279,0 -1.68116,0.704885 -3.41781,1.5664 -8.77657,4.353942 -18.23009,5.92366 -25.25975,4.194325 -2.37244,-0.583631 -2.51163,-0.570597 -2.51163,0.235463 0,0.765122 -0.37662,0.85332 -3.64265,0.85332 -3.47962,0 -3.66539,0.0523 -4.14963,1.163069 -0.27858,0.639672 -0.50713,1.358881 -0.50713,1.598207 0,0.245395 1.81898,0.435138 4.1714,0.435138 h 4.17133 l -0.13096,2.604489 -0.13097,2.604509 -6.04681,-0.06556 -6.04687,-0.06556 -1.4108,1.456582 c -0.77592,0.801103 -2.33002,2.334098 -3.4535,3.406646 l -2.04279,1.950103 v 36.977819 36.97776 h -2.62079 -2.6208 V 110.1608 c 0,-19.212768 -0.0702,-34.932331 -0.1559,-34.932331 -0.0856,0 -2.002,1.015082 -4.25878,2.255754 -7.78408,4.279323 -15.9343,6.425161 -24.36237,6.414253 -4.15498,-0.0058 -10.87421,-1.045152 -13.26518,-2.052721 -0.58178,-0.245181 -0.76436,-0.09523 -0.76436,0.628082 0,0.915508 -0.2435,0.954845 -6.661219,1.076274 -6.329781,0.11981 -6.661197,0.171519 -6.661197,1.039318 0,0.867994 0.331726,0.919527 6.686907,1.039474 l 6.686839,0.126248 -0.13457,1.700319 -0.1352,1.700337 -6.661149,0.126053 -6.661202,0.126054 V 117.2506 145.09325 H 91.053242 89.306081 Z M 126.33413,81.607689 c 1.97386,-0.258703 5.3102,-0.989422 7.41411,-1.623769 3.91665,-1.180883 11.76666,-4.852262 14.11898,-6.603294 1.30807,-0.973735 1.31369,-0.997111 1.18869,-4.930607 l -0.12526,-3.952227 -9.58357,-0.07512 -9.58354,-0.07512 -2.64684,1.962963 c -5.17162,3.835422 -13.89822,7.701521 -21.69218,9.610159 -3.15311,0.772166 -3.28228,0.853144 -2.56173,1.606442 1.32447,1.384579 8.01134,3.586614 12.87111,4.23854 2.70596,0.363039 7.12979,0.297182 10.60053,-0.157859 z M 89.307256,79.34417 c 0,-0.410807 -6.476512,-0.144201 -6.95238,0.286215 -0.100091,0.09054 1.423225,0.164689 3.385158,0.164689 2.056239,0 3.567222,-0.191032 3.567222,-0.450827 z M 100.2272,78.473619 c 0,-1.28678 -0.0412,-1.311894 -1.637999,-0.959724 -0.900874,0.198896 -2.571621,0.497853 -3.71276,0.664376 -1.379571,0.201335 -2.074811,0.522869 -2.074811,0.959724 0,0.52002 0.774013,0.656982 3.712815,0.656982 H 100.2272 Z M 157.88468,64.68654 c 0,-0.170933 -0.63878,-0.245141 -1.41956,-0.164689 -0.78075,0.08039 -1.567,0.159226 -1.74721,0.175226 -0.17999,0.01561 -0.3276,0.892775 -0.3276,1.948347 v 1.919195 l 1.74721,-1.78356 c 0.96094,-0.980955 1.74716,-1.923449 1.74716,-2.094421 z m -8.73596,-7.038238 v -1.598207 h -6.50173 c -6.42848,0 -6.50975,0.01366 -7.2072,1.125526 -0.38796,0.619029 -0.70544,1.338216 -0.70544,1.598206 0,0.306763 2.53029,0.472721 7.20719,0.472721 h 7.20718 z m 14.10178,0.272049 c 0.41221,-0.729413 0.74942,-1.4486 0.74942,-1.598206 0,-0.149665 -2.16217,-0.27205 -4.80483,-0.27205 h -4.80478 v 1.598207 1.598226 h 4.05544 c 4.0131,0 4.0632,-0.01366 4.80475,-1.326196 z m 28.26776,-5.480734 c 3.78137,-1.051454 8.97178,-3.218113 11.67149,-4.872087 l 1.86924,-1.145195 v -5.003702 -5.003702 h -12.84916 c -7.31847,0 -12.91185,-0.178738 -12.99477,-0.41545 -0.0801,-0.228497 -1.61977,0.702642 -3.42158,2.069152 -4.88792,3.707067 -13.0534,7.595274 -19.54678,9.307709 -1.73624,0.457891 -1.85639,0.591847 -1.85639,2.070186 v 1.580606 h 5.24159 5.24159 v -1.826528 -1.826528 h 2.18399 2.18403 v 1.549367 c 0,1.721391 0.52245,2.103689 2.87492,2.103689 1.0026,0 1.49303,0.214233 1.49303,0.652201 0,0.427001 0.86739,0.838646 2.51162,1.192065 1.38139,0.296967 2.70815,0.618403 2.9484,0.714348 1.11137,0.44392 9.51183,-0.329514 12.44878,-1.146151 z m -42.36954,-2.364675 c 0,-0.907606 -0.15843,-0.938982 -3.38521,-0.669821 -5.40731,0.451159 -7.09797,0.735384 -7.09797,1.193392 0,0.243287 2.26647,0.42866 5.24159,0.42866 5.02187,0 5.24159,-0.04 5.24159,-0.952231 z m 65.94646,-11.388139 2.39221,-2.271872 h -2.71981 -2.71977 v 2.28315 c 0,1.255735 0.14765,2.278077 0.32759,2.271872 0.17998,-0.0058 1.40407,-1.03362 2.71978,-2.28317 z M 205.05899,27.282292 v -1.826528 h -9.13714 -9.13718 l -0.90917,1.537951 c -0.49991,0.845866 -0.90924,1.667809 -0.90924,1.826528 0,0.158641 4.52087,0.288597 10.04638,0.288597 h 10.04635 z m 19.18354,0.288596 c 0.49993,-0.845885 0.90923,-1.667809 0.90923,-1.826528 0,-0.15864 -2.9484,-0.288596 -6.55198,-0.288596 h -6.55197 v 1.826528 1.826528 h 5.64274 5.64276 z"
       id="path1" /></g></svg>
