<?xml version="1.0" encoding="UTF-8" standalone="no"?>
<!-- Created with Inkscape (http://www.inkscape.org/) -->

<svg
   width="300mm"
   height="150mm"
   viewBox="0 0 300 150"
   version="1.1"
   id="svg1"
   xml:space="preserve"
   inkscape:version="1.3 (0e150ed, 2023-07-21)"
   sodipodi:docname="utr.svg"
   xmlns:inkscape="http://www.inkscape.org/namespaces/inkscape"
   xmlns:sodipodi="http://sodipodi.sourceforge.net/DTD/sodipodi-0.dtd"
   xmlns="http://www.w3.org/2000/svg"
   xmlns:svg="http://www.w3.org/2000/svg"><sodipodi:namedview
     id="namedview1"
     pagecolor="#ffffff"
     bordercolor="#000000"
     borderopacity="0.25"
     inkscape:showpageshadow="2"
     inkscape:pageopacity="0.0"
     inkscape:pagecheckerboard="0"
     inkscape:deskcolor="#d1d1d1"
     inkscape:document-units="mm"
     inkscape:zoom="0.81138889"
     inkscape:cx="780.14379"
     inkscape:cy="388.22321"
     inkscape:window-width="2048"
     inkscape:window-height="1099"
     inkscape:window-x="0"
     inkscape:window-y="25"
     inkscape:window-maximized="1"
     inkscape:current-layer="layer1" /><defs
     id="defs1" /><g
     inkscape:label="Capa 1"
     inkscape:groupmode="layer"
     id="layer1"><path
       style="fill:#000000;stroke-width:0.972736"
       d="m 74.216603,119.80064 -0.178423,-0.64559 -3.906829,-0.19502 -3.906828,-0.19501 -0.240653,-0.36845 C 65.754811,118.04588 65.274148,61.825671 65.274148,35.384705 V 22.922339 h 3.859736 c 2.122854,0 3.935597,0.116145 4.028316,0.258099 0.09272,0.141954 0.264899,11.370282 0.382621,24.951827 0.117722,13.581544 0.304631,26.233394 0.415354,28.115208 l 0.201313,3.421485 h 0.461329 c 0.253731,0 1.468767,-0.543695 2.70008,-1.208222 1.231314,-0.664527 6.128128,-3.056615 10.881808,-5.315751 23.658855,-11.243636 52.167335,-21.793337 82.020845,-30.352193 4.26861,-1.223796 7.95955,-2.285071 8.20209,-2.358393 l 0.44097,-0.133312 v -3.849222 -3.849212 h 19.22639 19.22639 v 6.644483 6.644492 l 1.2626,1.429958 c 2.47857,2.807088 4.00449,6.424686 4.93788,11.706505 l 0.60485,3.422744 -0.21872,5.521382 c -0.37105,9.36627 -2.23979,18.439081 -5.95004,28.887632 -2.63892,7.431531 -7.26915,17.657671 -9.23383,20.393451 -0.51026,0.71053 -0.92774,1.42547 -0.92774,1.58877 v 0.2969 l 5.49149,-0.13961 c 3.02032,-0.0768 5.20313,-0.0395 4.85069,0.0828 -0.35243,0.12233 -15.16642,0.31788 -32.91996,0.43456 -17.75354,0.11667 -38.8673,0.28713 -46.91946,0.3788 -8.05215,0.0917 -25.72465,0.25308 -39.272195,0.35869 l -24.631928,0.19201 z m 11.905962,-4.78115 0.74008,-0.70028 -0.16199,-0.80185 c -0.0891,-0.44101 -0.0253,-0.80183 0.14186,-0.80183 0.3852,0 0.38356,-0.69943 -0.003,-1.27634 -0.16283,-0.243 -0.96301,-0.58361 -1.77819,-0.75692 l -1.48214,-0.31511 -0.612781,0.42313 -0.612781,0.42313 0.01512,0.8345 c 0.0083,0.45898 -0.143628,0.9434 -0.337656,1.07648 l -0.352777,0.24198 0.546657,0.92634 0.546657,0.92634 0.952651,-0.0678 c 0.52395,-0.0373 0.95265,0.0754 0.95265,0.25036 0,0.53264 0.66446,0.35697 1.44563,-0.38218 z m -2.27552,-1.89772 c 0.065,-0.0978 -0.0586,-0.3795 -0.27471,-0.62588 l -0.392911,-0.44797 h 0.375151 c 0.55011,0 0.90374,0.68328 0.51174,0.98878 -0.18561,0.14463 -0.28428,0.18293 -0.21927,0.0851 z m 1.05509,-0.90695 c 0.11168,-0.27538 0.26545,-0.50071 0.3417,-0.50071 0.0763,0 0.13865,0.22533 0.13865,0.50071 0,0.27539 -0.15377,0.50071 -0.34171,0.50071 -0.18794,0 -0.25033,-0.22532 -0.13864,-0.50071 z m 18.133125,0.84264 c -0.28015,-0.16383 -0.62504,-0.23024 -0.76642,-0.14756 -0.14138,0.0827 -0.36724,-0.0183 -0.50191,-0.22456 l -0.24487,-0.37489 -0.30328,0.45289 c -0.1668,0.2491 -0.30571,0.55557 -0.30868,0.68107 -0.008,0.34605 1.8855,0.50042 2.28471,0.18624 l 0.34983,-0.27532 z m 14.09722,0.38628 v -0.60701 l -3.35139,-0.0269 -3.35139,-0.0269 v 0.44808 0.44808 l 2.12681,-0.0285 c 1.16974,-0.0157 2.20178,-0.14332 2.29341,-0.2836 0.21651,-0.33149 1.577,0.004 1.577,0.38879 0,0.16218 0.15875,0.29488 0.35278,0.29488 0.19403,0 0.35278,-0.27316 0.35278,-0.60701 z m 2.57365,0.14926 c 0.34186,0.32348 2.71802,-0.20117 2.71802,-0.60013 v -0.36001 l -1.93087,0.15151 -1.93086,0.15151 -0.14473,-0.36053 -0.14473,-0.36053 -0.26887,0.61784 -0.26887,0.61785 0.48055,0.28102 0.48055,0.28103 0.39707,-0.31182 c 0.21838,-0.17149 0.49412,-0.21998 0.61274,-0.10774 z m -24.446335,-0.49929 -4.6e-4,-0.54508 h -1.67523 c -0.92138,0 -1.86391,0.11582 -2.09452,0.25737 l -0.41929,0.25737 -0.36801,-0.59118 -0.368,-0.59117 -0.35383,0.50071 -0.35383,0.5007 -0.0302,-0.5007 -0.0302,-0.50071 -0.30319,0.66761 c -0.16676,0.36718 -0.31435,0.772 -0.32798,0.89958 -0.0136,0.12759 1.40395,0.22267 3.1502,0.21128 l 3.175,-0.0207 z m 1.43426,0.30976 -0.50648,-0.30325 0.48716,-0.6096 0.48716,-0.6096 -0.63978,0.55212 -0.63978,0.55213 0.23895,0.36583 c 0.13142,0.20122 0.42802,0.36354 0.6591,0.36073 l 0.42015,-0.005 z m 1.31354,-0.58975 0.079,-0.90322 -0.40168,0.38008 c -0.22092,0.20904 -0.3062,0.61549 -0.18951,0.90322 0.30117,0.74263 0.42182,0.6531 0.51219,-0.38008 z m 1.83878,0.56941 -0.42811,-0.25035 0.39044,-0.22833 c 0.214745,-0.12558 0.388005,-0.40722 0.385035,-0.62588 l -0.005,-0.39755 -0.347365,0.50071 -0.34738,0.5007 -0.38338,-0.5007 -0.38338,-0.50071 0.16954,0.73506 0.16954,0.73504 -0.40352,0.1346 c -0.22194,0.074 0.05,0.13755 0.60428,0.14118 l 1.007795,0.007 z m 8.714795,-0.20367 0.11959,-0.33944 -1.68317,0.031 c -0.92574,0.0171 -2.00067,0.2093 -2.38872,0.42716 l -0.70556,0.39611 2.26914,-0.0877 2.26914,-0.0877 z m 1.15757,-0.21358 -0.005,-0.75106 -0.34197,0.50071 c -0.442,0.64717 -0.442,1.00141 0,1.00141 0.19403,0 0.35035,-0.33798 0.34738,-0.75106 z m -5.10987,-0.25035 c 0.11991,-0.18359 0.0499,-0.3338 -0.15557,-0.3338 -0.20548,0 -0.3736,0.15021 -0.3736,0.3338 0,0.18359 0.07,0.3338 0.15557,0.3338 0.0856,0 0.25368,-0.15021 0.3736,-0.3338 z m 75.31807,-5.05217 v -0.9957 l -0.35278,0.2063 c -0.49058,0.28689 -0.41989,-0.18133 0.17639,-1.16831 0.27729,-0.45898 0.50979,-1.3227 0.51667,-1.91938 l 0.0125,-1.08486 h -3.175 -3.175 v 2.94861 c 0,1.62173 0.0654,3.01119 0.14539,3.08768 0.08,0.0764 1.42934,0.0901 2.99861,0.0302 l 2.85322,-0.10886 z m -4.00655,-0.12179 c -0.29104,-0.27539 -0.69925,-0.50071 -0.90714,-0.50071 -0.48275,0 -0.47953,-0.62612 0.0101,-1.95502 l 0.38803,-1.05324 0.82665,-0.19631 c 0.45465,-0.10797 1.00371,-0.0927 1.22012,0.0338 l 0.39348,0.2301 -0.19704,0.96964 c -0.10837,0.5333 -0.28903,1.42027 -0.40146,1.97104 -0.22823,1.11806 -0.55178,1.23962 -1.33269,0.50071 z m 13.17877,-2.00283 v -3.17114 h -2.99861 -2.99861 v 3.17114 3.17114 h 2.99861 2.99861 z m -4.52481,1.75097 -0.82064,-0.37358 0.22806,-1.18939 c 0.12543,-0.65418 0.52119,-1.47315 0.87946,-1.81995 l 0.6514,-0.63054 0.58664,0.21302 0.58664,0.213 -0.20448,1.00169 c -0.11247,0.55093 -0.29648,1.45232 -0.40891,2.0031 -0.22426,1.09864 -0.29998,1.12809 -1.49817,0.58265 z m 3.87496,-0.91645 c 0,-0.45898 0.0801,-0.64675 0.17794,-0.41725 0.0979,0.22948 0.0979,0.60502 0,0.8345 -0.0979,0.2295 -0.17794,0.0417 -0.17794,-0.41725 z m 9.4639,0.89253 -0.005,-1.05943 -0.34198,0.5007 -0.34197,0.5007 -0.005,-0.50987 c -0.003,-0.28044 0.24268,-0.84503 0.54589,-1.25464 l 0.55129,-0.74475 -0.11032,-1.082 -0.11032,-1.08199 -3.08681,-0.0965 -3.0868,-0.0964 v 2.96159 c 0,1.62888 0.0654,3.02419 0.14539,3.10068 0.08,0.0765 1.42934,0.0901 2.99861,0.0302 l 2.85322,-0.10887 z m -4.36315,-0.096 -1.01716,-0.84108 0.44068,-0.8957 c 0.24238,-0.49263 0.55736,-1.12101 0.69997,-1.39641 0.1426,-0.27539 0.70221,-0.55028 1.24358,-0.61087 l 0.9843,-0.11017 -0.22613,1.06986 c -0.12438,0.58842 -0.22613,1.3979 -0.22613,1.79884 0,0.40093 -0.19844,0.97595 -0.44098,1.2778 l -0.44097,0.54883 z m -120.298758,0.36134 c 0.821449,-1.18626 0.478079,-1.26237 -0.507458,-0.11249 -0.45132,0.52658 -0.653417,0.95741 -0.449105,0.95741 0.204313,0 0.634766,-0.3802 0.956563,-0.84492 z m -0.245233,-1.7739 0.348413,-0.61599 -0.532393,-0.71922 -0.532393,-0.71921 h -1.320552 c -1.492438,0 -2.167218,0.47116 -2.167218,1.51325 0,1.01666 0.26266,1.15718 2.163051,1.15718 h 1.69268 z M 186.75296,99.540968 c 0.1093,-0.269511 0.0469,-0.5788 -0.13865,-0.687303 l -0.33737,-0.197295 v 0.687302 c 0,0.805998 0.19619,0.887308 0.47602,0.197296 z m -10.00102,-0.177595 c 0,-0.183585 -0.15875,-0.333797 -0.35278,-0.333797 -0.19402,0 -0.35277,0.150212 -0.35277,0.333797 0,0.183594 0.15875,0.333805 0.35277,0.333805 0.19403,0 0.35278,-0.150211 0.35278,-0.333805 z m 8.98077,0.02309 c 0.11163,-0.170905 0.0416,-0.405084 -0.15557,-0.520409 l -0.35853,-0.209662 v 0.520409 c 0,0.586331 0.21168,0.672664 0.5141,0.209662 z m 9.63561,-0.294282 0.13964,-0.396389 h -0.92525 -0.92525 l 0.45488,0.487074 c 0.50933,0.545389 1.04555,0.50667 1.25598,-0.09065 z m 1.13918,0.10432 c 0,-0.275396 -0.13229,-0.500709 -0.29398,-0.500709 -0.16169,0 -0.29398,0.225313 -0.29398,0.500709 0,0.275386 0.13229,0.500699 0.29398,0.500699 0.16169,0 0.29398,-0.225313 0.29398,-0.500699 z M 69.638356,98.296667 c 0.207822,-0.127711 0.282293,-0.322631 0.165489,-0.433149 -0.116803,-0.110528 -0.470852,0.04362 -0.786776,0.342558 l -0.574406,0.543515 0.244219,0.373907 0.24422,0.373896 0.164698,-0.484263 c 0.09058,-0.266341 0.334734,-0.588754 0.542556,-0.716464 z m 145.560704,-4.510049 0.7511,-0.903522 -0.21137,-0.848953 c -0.2546,-1.022566 -1.41488,-2.017265 -2.35307,-2.017265 -0.90611,0 -2.41433,1.459679 -2.41433,2.336622 0,0.383879 0.38966,1.066658 0.86591,1.517293 l 0.86591,0.819337 h 0.87237 0.87238 z m -34.74295,-3.017262 v -3.253125 l -3.23222,-0.05753 -3.23223,-0.05753 -0.11916,1.875654 c -0.0656,1.03162 -0.0635,2.521417 0.005,3.310664 l 0.12371,1.435001 3.22768,-2.8e-5 3.22767,-1.9e-5 z m 15.27642,-2.507025 3.06802,-0.110991 -3.43958,-0.0687 -3.43958,-0.0686 v 1.446479 c 0,1.975082 0.50353,2.317952 0.63614,0.433187 l 0.10697,-1.520388 z m -2.03526,1.587645 c -0.14852,-0.183595 -0.35643,-0.559128 -0.46201,-0.834515 -0.10559,-0.275386 -0.18121,0.04637 -0.16804,0.71497 l 0.024,1.215659 0.43806,-0.381154 0.43807,-0.381155 z m 2.63384,-0.166903 c 0.35119,-0.367188 0.57423,-0.686224 0.49565,-0.70898 -0.5213,-0.15094 -2.78871,-0.170707 -2.78871,-0.02432 0,0.274421 1.13469,1.40089 1.41112,1.40089 0.13388,0 0.53075,-0.300423 0.88194,-0.667602 z m 20.46308,-2.338684 0.57682,-0.603099 -0.113,-1.083085 -0.11301,-1.083085 -0.90126,-0.63367 -0.90126,-0.633681 -0.95516,0.343618 c -0.52534,0.188988 -1.14035,0.728217 -1.3667,1.198278 l -0.41155,0.854659 0.33355,0.897418 c 0.61236,1.647588 2.61647,2.034013 3.85157,0.742647 z m -10.98689,-0.16485 -0.20307,-0.500699 1.27247,-0.04173 c 2.04516,-0.06709 2.1389,-0.09644 2.26364,-0.70933 l 0.11889,-0.584155 h -1.78975 -1.78976 v -0.322064 c 0,-0.177131 0.32815,-0.488228 0.72921,-0.691333 l 0.72922,-0.369269 0.85828,0.532122 0.85829,0.532123 v -0.348651 c 0,-0.546506 -1.62264,-1.107867 -2.55934,-0.885412 l -0.84748,0.20126 -0.43207,0.897296 -0.43208,0.897296 0.4144,0.946631 c 0.41756,0.95386 1.18714,1.377982 0.80915,0.445913 z m -29.6246,-1.731725 -0.74563,-0.138686 0.0401,-2.135825 0.0401,-2.135816 0.43546,-0.41201 c 0.47978,-0.453937 1.85759,-0.653333 1.85759,-0.268839 0,0.133275 -0.24732,0.332112 -0.5496,0.441873 l -0.54961,0.199557 0.10863,1.421716 0.10864,1.421726 0.35278,-0.07759 c 0.19403,-0.04268 0.40177,-0.684483 0.46165,-1.426277 l 0.10887,-1.348716 0.32806,0.191854 0.32806,0.191845 -0.2323,-0.5728 -0.2323,-0.572801 0.3826,0.223742 c 0.21043,0.123055 0.45569,0.03501 0.54502,-0.195602 l 0.16242,-0.419334 0.46743,0.417262 c 0.7103,0.634049 1.03188,0.504011 1.03188,-0.417262 v -0.834505 h -3.35139 -3.35139 v 3.338039 3.338029 l 1.4993,-0.04542 c 0.82462,-0.02498 1.16378,-0.107868 0.75368,-0.184152 z m 4.4498,-0.03719 c 0,-0.146729 -0.59532,-0.213182 -1.32292,-0.147666 -2.26876,0.204278 -2.45354,0.33548 -0.52917,0.375713 1.01865,0.02129 1.85209,-0.08128 1.85209,-0.228047 z m 11.99444,-1.533436 v -1.1326 l 0.57388,-0.208376 c 0.31564,-0.114605 0.79552,-0.03435 1.06641,0.178409 l 0.49253,0.386775 -0.20125,-0.496243 -0.20125,-0.496242 1.5281,0.051 c 0.84046,0.02801 1.7045,0.154129 1.9201,0.280203 l 0.392,0.229239 0.20228,-0.498788 0.20228,-0.498787 h -3.34032 -3.34031 v 1.669019 1.669019 h 0.35277 c 0.19403,0 0.35278,-0.509669 0.35278,-1.132601 z m 3.43562,0.255582 c 0.43438,-0.110158 0.7096,-0.323047 0.61161,-0.473079 -0.098,-0.150032 -0.0168,-0.367141 0.18035,-0.482456 0.19719,-0.115315 0.35371,-0.388573 0.34781,-0.607224 -0.006,-0.218651 -0.17441,-0.131524 -0.37446,0.193624 -0.20006,0.325148 -0.52968,0.494132 -0.73249,0.375524 l -0.36876,-0.215642 0.47863,-0.286968 0.47864,-0.286968 -0.3934,-0.0047 c -0.21637,-0.0028 -0.82506,0.316177 -1.35265,0.708857 l -0.95926,0.713966 0.47071,0.282332 c 0.56184,0.336994 0.60379,0.339152 1.61327,0.08317 z m -15.25367,-7.801874 c -0.11992,-0.183594 -0.44679,-0.333805 -0.72638,-0.333805 -0.27959,0 -0.50835,0.150211 -0.50835,0.333805 0,0.183585 0.32687,0.333797 0.72638,0.333797 h 0.72637 z m 2.29305,0.202613 c 0,-0.0722 -0.23812,-0.217648 -0.52916,-0.323331 -0.29105,-0.105673 -0.52917,-0.04665 -0.52917,0.131193 0,0.177832 0.23812,0.323322 0.52917,0.323322 0.29104,0 0.52916,-0.05904 0.52916,-0.131184 z m 15.65236,-0.465604 c 0.0945,-0.144647 -0.21365,-0.293175 -0.68473,-0.330068 -0.47109,-0.0369 -0.85652,0.08147 -0.85652,0.262991 0,0.390957 1.29295,0.447219 1.54125,0.06709 z m 1.63375,-0.07078 c 0,-0.183595 -0.14938,-0.333806 -0.33195,-0.333806 -0.18258,0 -0.43007,0.150211 -0.54999,0.333806 l -0.21803,0.333805 h 0.54999 c 0.30249,0 0.54998,-0.150211 0.54998,-0.333805 z m 16.22778,-0.09415 v -0.427897 l -0.88194,-0.06907 -0.88195,-0.06907 v 0.496962 0.496971 h 0.88195 0.88194 z m 2.46945,-0.09497 v -0.522879 l -0.94294,0.105626 c -0.51861,0.0581 -1.00809,0.293384 -1.08773,0.522869 l -0.1448,0.417262 h 1.08774 1.08773 z m -38.32165,-2.412063 c 0.095,-0.145481 -0.13374,-0.286363 -0.50835,-0.313056 -0.37461,-0.02668 -0.68112,0.09235 -0.68112,0.264505 0,0.379991 0.94771,0.418672 1.18947,0.04854 z m 1.80915,-0.06926 c -0.11992,-0.183594 -0.37678,-0.333806 -0.57081,-0.333806 -0.19403,0 -0.25467,0.150212 -0.13475,0.333806 0.11992,0.183584 0.37678,0.333796 0.57081,0.333796 0.19402,0 0.25466,-0.150212 0.13475,-0.333796 z m 18.16805,-0.397335 c 0,-0.43875 -0.80178,-0.164007 -0.97757,0.33497 l -0.13972,0.396615 0.55865,-0.20284 c 0.30725,-0.111559 0.55864,-0.349494 0.55864,-0.528745 z m -2.11666,0.06349 c -0.69023,-0.422069 -1.41112,-0.422069 -1.41112,0 0,0.183594 0.43657,0.331507 0.97014,0.328687 l 0.97014,-0.0047 z m 17.99166,-0.166903 v -0.500708 h -0.88194 -0.88195 v 0.500708 0.500709 h 0.88195 0.88194 z m 2.38125,0.08346 c -0.0808,-0.229485 -0.5174,-0.417252 -0.97014,-0.417252 -0.45273,0 -0.88929,0.187767 -0.97013,0.417252 l -0.147,0.417262 h 1.11713 1.11713 z m -38.36458,-2.58697 c -0.68395,-0.418237 -1.05834,-0.418237 -1.05834,0 0,0.183584 0.35719,0.331497 0.79375,0.328686 l 0.79375,-0.0047 z m 20.10833,-0.238437 c 0,-0.236043 -0.3175,-0.429175 -0.70555,-0.429175 -0.38806,0 -0.70556,0.193132 -0.70556,0.429175 0,0.236052 0.3175,0.429175 0.70556,0.429175 0.38805,0 0.70555,-0.193123 0.70555,-0.429175 z m -2.46944,-0.09537 c -0.68395,-0.418227 -1.05834,-0.418227 -1.05834,0 0,0.183594 0.35719,0.331506 0.79375,0.328687 l 0.79375,-0.0047 z m 17.99167,-0.09587 c 0,-0.236317 -0.3175,-0.4523 -0.70556,-0.479958 l -0.70556,-0.05034 v 0.479958 0.479967 h 0.70556 c 0.38806,0 0.70556,-0.193359 0.70556,-0.429676 z m 2.82222,-0.07106 v -0.500709 h -0.90277 -0.90276 l 0.19941,0.305296 c 0.10967,0.167916 -2e-5,0.381372 -0.24377,0.474357 -0.24374,0.09301 0.0728,0.180916 0.70336,0.195412 l 1.14653,0.02631 z m -38.32165,-2.434233 c 0.095,-0.145481 -0.13374,-0.286362 -0.50835,-0.313065 -0.37461,-0.02668 -0.68112,0.09235 -0.68112,0.264515 0,0.37999 0.94771,0.418671 1.18947,0.04854 z m 19.9772,-0.25157 c 0.097,-0.175135 -0.1808,-0.366431 -0.61736,-0.425097 l -0.79375,-0.106667 v 0.46814 0.468131 l 0.61736,-0.04305 c 0.33955,-0.02365 0.69674,-0.186329 0.79375,-0.361473 z m -2.46944,-0.151527 c 0,-0.183594 -0.23813,-0.333806 -0.52917,-0.333806 -0.29104,0 -0.52917,0.150212 -0.52917,0.333806 0,0.183594 0.23813,0.333806 0.52917,0.333806 0.29104,0 0.52917,-0.150212 0.52917,-0.333806 z m 17.99167,0.03567 c 0,-0.16395 -0.25111,-0.389263 -0.55802,-0.500708 -0.78849,-0.286287 -0.8531,-0.26371 -0.8531,0.298095 v 0.500709 h 0.70556 c 0.38806,0 0.70556,-0.134145 0.70556,-0.298096 z m 3.08857,-0.119166 c -0.0799,-0.229486 -0.48998,-0.465254 -0.91135,-0.523919 l -0.76611,-0.106667 v 0.376716 c 0,0.207203 -0.15875,0.283893 -0.35278,0.170423 -0.19403,-0.11347 -0.35278,-0.04722 -0.35278,0.147203 v 0.353506 h 1.26412 1.26412 z M 178.86861,64.29314 c 0,-0.172183 -0.3175,-0.313055 -0.70556,-0.313055 -0.38805,0 -0.70555,0.118248 -0.70555,0.262763 0,0.144525 0.3175,0.285407 0.70555,0.313065 0.38806,0.02763 0.70556,-0.09055 0.70556,-0.262773 z m 2.82222,0.207344 c 0,-0.081 -0.15875,-0.240036 -0.35278,-0.353497 -0.19402,-0.11347 -0.35277,-0.04722 -0.35277,0.147203 0,0.194419 0.15875,0.353497 0.35277,0.353497 0.19403,0 0.35278,-0.06624 0.35278,-0.147203 z m 3.04231,-0.25351 0.19039,-0.291482 -1.28834,0.08213 c -1.68049,0.107083 -2.00537,0.60448 -0.35652,0.545833 0.69525,-0.0247 1.34976,-0.176137 1.45447,-0.336455 z m 17.507,0.09827 c 0.14552,-0.01722 0.26458,-0.159788 0.26458,-0.316755 0,-0.156958 -1.0194,-0.311929 -2.26534,-0.344356 l -2.26534,-0.05895 -0.25861,0.395934 -0.25861,0.395934 0.33593,-0.196453 c 0.18477,-0.108048 0.51159,-0.09367 0.72627,0.03189 0.31587,0.184768 2.48815,0.238939 3.72112,0.09282 z m 17.38762,-0.678578 c -0.25506,-0.390503 -3.49268,-0.157819 -3.64045,0.261638 l -0.12076,0.342813 1.34478,0.110698 c 1.44252,0.11875 2.71511,-0.257872 2.41643,-0.715149 z m -22.76748,0.313415 c 0,-0.183595 -0.27782,-0.331507 -0.61736,-0.328697 l -0.61737,0.0047 0.52917,0.323587 c 0.66577,0.407109 0.70556,0.407109 0.70556,0 z m 18.69722,-0.222533 c 0,-0.244786 -0.23812,-0.445071 -0.52917,-0.445071 -0.29104,0 -0.52916,0.200285 -0.52916,0.445071 0,0.244796 0.23812,0.445071 0.52916,0.445071 0.29105,0 0.52917,-0.200275 0.52917,-0.445071 z m -45.30762,-2.024351 c -0.0377,-0.243045 -0.17766,-0.437766 -0.31102,-0.432714 -0.13336,0.0047 -0.55997,0.0095 -0.94803,0.0095 h -0.70556 v 0.506007 0.506007 l 1.01658,-0.07333 1.01657,-0.07333 z m -7.10614,-7.544683 c -0.0993,-0.244786 -0.43279,-0.445071 -0.74116,-0.445071 h -0.56066 l 0.64327,0.445071 c 0.3538,0.244786 0.68732,0.445071 0.74116,0.445071 0.0538,0 0.0167,-0.200285 -0.0826,-0.445071 z m 1.61376,-0.166903 c 0,-0.152994 -0.23813,-0.278168 -0.52917,-0.278168 -0.29104,0 -0.52917,0.125174 -0.52917,0.278168 0,0.152993 0.23813,0.278168 0.52917,0.278168 0.29104,0 0.52917,-0.125175 0.52917,-0.278168 z m 30.11215,-1.227733 -0.2046,-0.504493 0.56845,0.206407 0.56844,0.206398 v -0.349816 c 0,-0.192403 -0.16134,-0.444172 -0.35853,-0.559487 -0.19719,-0.115316 -0.29329,-0.311948 -0.21354,-0.436953 0.0797,-0.125004 -1.02892,-0.240585 -2.46369,-0.256831 l -2.60868,-0.02952 v 0.593996 c 0,0.3267 0.15875,0.686838 0.35278,0.800299 0.19402,0.11347 0.3552,0.0097 0.35818,-0.230649 l 0.005,-0.436953 0.25918,0.333806 c 0.14255,0.183584 0.89418,0.379612 1.67029,0.435609 0.77611,0.05602 1.56193,0.243754 1.74625,0.417252 0.47153,0.443822 0.5564,0.393701 0.32007,-0.189044 z m 1.98531,0.08724 c -0.003,-0.229495 -0.2252,-1.018108 -0.49396,-1.752475 l -0.48865,-1.335214 -1.09354,-0.104594 -1.09353,-0.104604 v 0.391137 0.391146 l 0.88758,-0.210788 0.88758,-0.210789 0.35979,0.895413 c 0.19788,0.492486 0.33581,1.134341 0.30652,1.426362 -0.0819,0.816726 -0.003,1.031659 0.38075,1.031659 0.19403,0 0.35039,-0.187767 0.34746,-0.417253 z m -7.7558,-1.165491 c 0,-0.414631 -0.17573,-0.753887 -0.39052,-0.753887 h -0.39052 l 0.20306,0.500708 c 0.11169,0.275387 0.0493,0.500709 -0.13864,0.500709 -0.18794,0 -0.34171,-0.150212 -0.34171,-0.333806 0,-0.385194 -1.6313,-0.458658 -1.85306,-0.08346 -0.0814,0.137693 -0.0996,0.06255 -0.0405,-0.166903 0.0591,-0.229495 -0.0992,-0.417262 -0.3518,-0.417262 -0.67514,0 -0.87463,0.293942 -0.67927,1.00084 l 0.17367,0.628372 1.90463,-0.06075 1.90463,-0.06075 z m 9.62722,-0.08629 0.18451,-0.667611 h -0.49614 -0.49614 v 0.667611 c 0,0.367189 0.14023,0.667612 0.31163,0.667612 0.1714,0 0.39466,-0.300423 0.49614,-0.667612 z m 1.22168,0.253132 c -0.0588,-0.166761 -0.25762,-0.303205 -0.44195,-0.303205 -0.18433,0 -0.38321,0.136444 -0.44195,0.303205 -0.0587,0.166761 0.14013,0.303205 0.44195,0.303205 0.30182,0 0.5007,-0.136444 0.44195,-0.303205 z m 2.8644,-0.03491 0.39412,-0.449349 h -1.40926 c -1.34861,0 -1.68434,0.19335 -1.17408,0.676166 0.40623,0.384381 1.77777,0.242278 2.18922,-0.226817 z m 4.63115,-0.0085 v -0.468121 l -1.05833,-0.146976 -1.05834,-0.146976 v 0.538794 0.538794 l 1.05834,0.07626 1.05833,0.07626 z m 1.05833,0.143417 c 0,-0.17276 -0.15875,-0.406938 -0.35277,-0.520408 l -0.35278,-0.206304 v 0.520384 c 0,0.286221 0.15875,0.520409 0.35278,0.520409 0.19402,0 0.35277,-0.141355 0.35277,-0.314106 z m 1.05834,-0.42027 v -0.734367 l -0.3926,0.371484 c -0.21592,0.204316 -0.28593,0.534781 -0.15557,0.734367 0.36491,0.558683 0.54817,0.434492 0.54817,-0.371484 z M 166.51431,51.1202 c -0.24543,-0.279824 -0.53809,-0.42187 -0.65034,-0.315657 -0.11225,0.106212 0.0294,0.332859 0.31485,0.503661 0.74682,0.446906 0.8444,0.392215 0.33549,-0.188004 z m 24.19125,-3.089553 c -0.11797,-0.111634 -0.87059,-0.166335 -1.67249,-0.121569 l -1.45798,0.08137 -0.25686,-0.393247 c -0.14126,-0.216286 -0.43335,-0.290024 -0.64907,-0.163875 -0.48793,0.285341 -0.51999,1.525185 -0.0394,1.525185 0.19403,0 0.35521,-0.187767 0.35818,-0.417252 l 0.005,-0.417262 0.34738,0.500708 0.34737,0.500709 0.34738,-0.500709 0.34737,-0.500708 0.005,0.456189 0.005,0.456189 0.69258,-0.171378 0.69259,-0.171369 0.45394,0.521326 0.45394,0.521327 0.1167,-0.751351 c 0.0642,-0.413241 0.0202,-0.84269 -0.0978,-0.954315 z m 2.97972,0.257891 v -0.920364 l -1.19548,0.03018 -1.19548,0.03018 0.13715,0.431228 c 0.0754,0.237188 0.20392,0.637778 0.28553,0.890218 l 0.1484,0.458981 h 0.90994 0.90994 z m 2.11666,0.684975 c 0,-0.15254 0.26512,-0.373613 0.58916,-0.491266 l 0.58916,-0.213929 0.24792,0.379574 0.24792,0.379574 0.75042,-0.38001 0.75042,-0.380009 v 0.345548 c 0,0.190048 0.21167,0.345549 0.47037,0.345549 0.25871,0 0.47037,-0.204222 0.47037,-0.453824 v -0.453824 l -2.27242,-0.05914 -2.27243,-0.05914 -0.5162,-0.488426 c -0.28391,-0.26864 -0.54961,-0.488436 -0.59044,-0.488436 -0.15169,0 -0.22059,1.744328 -0.0776,1.96332 0.21748,0.332964 1.6133,0.380085 1.6133,0.0545 z M 182.39639,46.101514 V 43.61768 h 0.52916 0.52917 v -1.335238 -1.335214 h -0.57285 -0.57285 l 0.1609,-1.835922 0.1609,-1.835922 h -0.58721 -0.58722 l 0.16091,1.835922 0.1609,1.835922 h -0.74924 -0.74924 v 1.335214 1.335213 h 0.72859 0.72859 l -0.0488,2.420078 c -0.0614,3.043027 -0.0669,3.000902 0.35556,2.753883 l 0.35278,-0.206304 z m 18.88811,2.501016 c 0.32468,-0.497084 -0.0518,-0.767342 -0.7272,-0.522093 -0.31171,0.113177 -0.46794,0.357054 -0.34717,0.541945 0.28595,0.437795 0.78144,0.428635 1.07437,-0.01987 z m 4.33289,-0.422712 0.11407,-0.556488 h -0.55504 -0.55503 v 0.695421 0.695421 l 0.44097,-0.138924 c 0.24254,-0.07645 0.4923,-0.389358 0.55503,-0.69543 z m 4.29567,0.09264 v -0.540895 l -1.5875,-0.05687 -1.58751,-0.05677 v 0.663079 0.663079 l 1.58751,-0.06538 1.5875,-0.06538 z m 3.0868,0.268829 c -0.17633,-0.834259 -2.02847,-0.99469 -2.02847,-0.175712 v 0.337022 l 0.70604,-0.174699 0.70604,-0.174709 -0.19769,0.302675 c -0.10873,0.166467 0.0498,0.302675 0.35229,0.302675 0.30249,0 0.5103,-0.187767 0.46179,-0.417252 z m -9.43681,-0.249839 c 0,-0.183594 -0.23812,-0.333806 -0.52916,-0.333806 -0.29104,0 -0.52917,0.150212 -0.52917,0.333806 0,0.183594 0.23813,0.333806 0.52917,0.333806 0.29104,0 0.52916,-0.150212 0.52916,-0.333806 z m -8.03681,-1.818625 c 0.1037,0.09812 0.27159,-0.0264 0.3731,-0.276683 l 0.18456,-0.455082 -1.40255,-0.354225 -1.40255,-0.354235 -0.30791,0.711469 -0.30792,0.711459 -0.23555,-0.751058 c -0.31347,-0.999515 -0.85881,-0.958715 -0.85881,0.06425 v 0.815316 l 1.4993,0.102645 c 0.82462,0.05649 1.67267,-0.0085 1.88455,-0.144809 0.21188,-0.136103 0.47008,-0.167177 0.57378,-0.06907 z m 5.82085,-0.615172 -0.16585,-0.408954 -1.8224,0.07674 -1.8224,0.07674 0.2119,-0.324429 c 0.11655,-0.178437 0.0438,-0.324429 -0.16169,-0.324429 -0.20548,0 -0.3736,0.280723 -0.3736,0.623821 v 0.62383 l 1.04289,-0.114899 c 0.57358,-0.06321 1.13429,0.02508 1.24602,0.196112 0.11172,0.171048 0.42012,0.232211 0.68532,0.135924 0.2652,-0.0963 0.60668,0.01552 0.75885,0.248486 l 0.27666,0.423573 0.14507,-0.411831 c 0.0798,-0.226505 0.0704,-0.59585 -0.0208,-0.820775 z m 4.05623,-0.631693 -0.34952,-0.330712 -0.24747,0.378874 c -0.1361,0.208375 -0.14335,0.634551 -0.0161,0.947038 l 0.23137,0.568174 0.36561,-0.616327 0.36561,-0.616326 z m 4.33335,0.561966 v -0.622903 l -1.34986,-0.03264 c -1.39928,-0.03388 -1.83054,0.226562 -1.54422,0.932589 l 0.16706,0.411926 1.36351,-0.03302 1.36351,-0.03302 z m 3.25439,0.166903 c 0.0292,-0.367188 -0.0957,-0.667612 -0.27771,-0.667612 -0.18197,0 -0.34201,0.262868 -0.35565,0.584156 l -0.0248,0.584155 -0.23979,-0.500699 c -0.32762,-0.684123 -1.12173,-0.78833 -1.12173,-0.147203 0,0.286221 0.14778,0.433982 0.3284,0.328356 0.18062,-0.105626 0.42811,-0.03936 0.54999,0.147202 0.37727,0.577608 1.08537,0.373878 1.14128,-0.328355 z m -9.75432,-0.09178 c -0.0436,-0.399123 -0.52751,-0.321827 -0.6791,0.108493 l -0.14111,0.400561 0.42333,-0.13352 c 0.23283,-0.07343 0.41143,-0.24243 0.39688,-0.375534 z m -33.54035,-0.57581 c 0,-0.183594 -0.23813,-0.333805 -0.52917,-0.333805 -0.29104,0 -0.52917,0.150211 -0.52917,0.333805 0,0.183594 0.23813,0.333806 0.52917,0.333806 0.29104,0 0.52917,-0.150212 0.52917,-0.333806 z m 3.14714,-0.436952 -0.0279,-0.397552 -0.17867,0.419334 c -0.0983,0.23063 -0.34838,0.320085 -0.55582,0.198771 l -0.37715,-0.220553 0.25527,0.390824 c 0.30016,0.459549 0.92447,0.183613 0.88422,-0.390824 z M 193.3325,44.28583 c 0,-0.183594 -0.16812,-0.333806 -0.3736,-0.333806 -0.20548,0 -0.27548,0.150212 -0.15557,0.333806 0.11992,0.183594 0.28804,0.333805 0.3736,0.333805 0.0856,0 0.15557,-0.150211 0.15557,-0.333805 z m -124.424523,-1.682891 0.191217,-0.691891 -0.501412,0.393758 c -0.275777,0.21656 -0.501412,0.609542 -0.501412,0.87328 0,0.671472 0.580835,0.259859 0.811607,-0.575147 z m 119.336563,0.238626 c 0.0477,-0.307208 -0.0451,-0.55856 -0.20607,-0.55856 -0.16099,0 -0.54382,-0.09122 -0.85073,-0.202613 l -0.55802,-0.202613 v 0.814435 0.814436 l 0.76409,-0.05327 0.76409,-0.05327 z m 5.44074,0.459312 c 0,-0.128638 -0.39274,-0.583001 -0.87274,-1.009687 l -0.87274,-0.775793 -0.22334,0.550707 c -0.35478,0.874823 0.0734,1.468668 1.05888,1.468668 0.50046,0 0.90994,-0.105257 0.90994,-0.233895 z m 19.40278,-0.687539 V 42.02008 l -1.5875,0.02375 -1.5875,0.02375 v 0.585215 0.585206 l 0.79375,0.113016 c 0.43656,0.06217 1.15093,0.05507 1.5875,-0.01571 l 0.79375,-0.128713 z m -22.30585,0.06605 0.13964,-0.396398 h -0.73495 c -0.73284,0 -0.95248,0.350516 -0.49242,0.785831 0.32684,0.309261 0.91589,0.09836 1.08773,-0.389433 z m 6.07807,-0.02545 v -0.630511 l -1.38206,0.04636 c -2.4101,0.08081 -2.41779,1.214656 -0.008,1.214656 h 1.3903 z m 1.76389,0.149501 c 0,-0.264552 -0.15875,-0.573841 -0.35278,-0.687311 l -0.35278,-0.206303 v 0.687311 c 0,0.378023 0.15875,0.687302 0.35278,0.687302 0.19403,0 0.35278,-0.216446 0.35278,-0.480999 z m 1.4361,-0.630273 -0.40715,-0.385261 -0.32517,0.497841 -0.32517,0.497832 0.60444,0.205651 c 0.72844,0.247842 1.02082,-0.278831 0.45305,-0.816063 z m 1.84215,0.447427 c -0.10091,-0.365126 -0.31724,-0.585631 -0.48073,-0.490016 -0.34723,0.203057 -0.0323,1.153861 0.38219,1.153861 0.15511,0 0.19945,-0.298729 0.0985,-0.663845 z m 1.19026,0.163146 c 0,-0.275386 -0.21166,-0.500708 -0.47037,-0.500708 -0.50074,0 -0.62465,0.410354 -0.23518,0.778877 0.39393,0.372742 0.70555,0.249886 0.70555,-0.278169 z m 1.46109,0.141866 c -0.0695,-0.197361 -0.27722,-0.358842 -0.46155,-0.358842 -0.18433,0 -0.39202,0.161481 -0.46155,0.358842 -0.0695,0.197362 0.13817,0.358833 0.46155,0.358833 0.32338,0 0.53108,-0.161471 0.46155,-0.358833 z m 4.35773,-0.350497 c -0.3115,-0.344233 -0.68983,-0.625883 -0.84074,-0.625883 -0.1509,0 -0.27437,0.28165 -0.27437,0.625883 v 0.625884 h 0.84073 0.84074 z m 5.93504,0.458981 c -0.003,-0.137693 -0.15929,-0.475672 -0.34737,-0.751058 l -0.34198,-0.500709 -0.005,0.751058 c -0.003,0.413089 0.15335,0.751058 0.34738,0.751058 0.19402,0 0.35034,-0.112656 0.34737,-0.250349 z m 1.39172,-0.687302 -0.0248,-0.564465 -0.30319,0.667612 -0.30319,0.667611 -0.0248,-0.639793 c -0.0136,-0.351888 -0.12379,-0.546127 -0.24477,-0.431654 -0.12098,0.114483 -0.12211,0.449462 -0.002,0.744397 0.26755,0.659749 0.93724,0.330759 0.90322,-0.443708 z m -9.67659,0.270049 c -0.11992,-0.183594 -0.36741,-0.333805 -0.54999,-0.333805 -0.18258,0 -0.33196,0.150211 -0.33196,0.333805 0,0.183595 0.2475,0.333806 0.54999,0.333806 h 0.54998 z M 188.5845,40.591804 c 0.1279,-0.19581 -0.0531,-0.553649 -0.40224,-0.795209 -0.64675,-0.447484 -1.5798,-0.495031 -1.56224,-0.07958 0.005,0.126187 0.01,0.454751 0.01,0.730137 v 0.500709 h 0.86112 c 0.47362,0 0.96577,-0.160204 1.09366,-0.356014 z m 4.748,0.0739 c 0,-0.44649 -1.26665,-1.412377 -1.52794,-1.16514 -0.12977,0.12279 -0.23595,0.498645 -0.23595,0.835233 v 0.611974 h 0.88194 c 0.48507,0 0.88195,-0.126935 0.88195,-0.282067 z m 3.52778,-0.436896 v -0.61625 l -0.61736,-0.02782 c -0.33955,-0.01533 -0.98128,-0.06576 -1.42605,-0.112155 -0.89184,-0.09301 -1.28857,0.272841 -1.01836,0.939109 l 0.17575,0.433366 h 1.44301 1.44301 z m 1.61868,-0.53111 c -0.38537,-0.364643 -0.64963,0.215254 -0.37295,0.818419 l 0.27457,0.598557 0.15298,-0.61028 c 0.0841,-0.335661 0.0596,-0.698667 -0.0546,-0.806696 z m 4.52399,0.832821 -0.24896,-0.417253 0.47509,0.417253 c 0.2613,0.229485 0.60209,0.417252 0.75731,0.417252 0.64385,0 0.0391,-0.852966 -0.76192,-1.074721 l -0.86775,-0.240206 -0.27337,0.407109 -0.27338,0.407109 -0.005,-0.417252 c -0.003,-0.229486 -0.16415,-0.417252 -0.35818,-0.417252 -0.66137,0 -0.35512,0.688229 0.44097,0.991008 1.11969,0.425854 1.40224,0.407355 1.11559,-0.07305 z m 6.30468,0.125174 c -0.18039,-0.114747 -0.43435,-0.481018 -0.56434,-0.813943 -0.28401,-0.727337 -0.9469,-0.435836 -0.9469,0.416391 v 0.606183 h 0.91961 c 0.50578,0 0.77201,-0.09386 0.59163,-0.208631 z m 2.19293,-0.123944 c 0.19402,-0.0019 0.5909,0.05393 0.88194,0.123216 l 0.52917,0.125903 v -0.65573 -0.65568 l -1.41111,-9.46e-4 -1.41112,-9.46e-4 -0.11923,0.787364 -0.11924,0.787365 0.6484,-0.253643 c 0.35663,-0.13951 0.80716,-0.254863 1.00119,-0.256348 z m 3.06916,-0.652151 -0.42333,-0.400561 v 0.801122 0.801132 l 0.42333,-0.400561 0.42334,-0.400571 z m 1.68793,0.130512 -0.005,-0.564455 -0.34197,0.500708 -0.34198,0.500699 -0.005,-0.47288 c -0.003,-0.260096 -0.10439,-0.379234 -0.22537,-0.264751 -0.12098,0.114473 -0.12211,0.449452 -0.002,0.744397 0.2657,0.655169 0.93007,0.335651 0.92261,-0.443718 z m -25.48279,0.186603 c -0.0808,-0.229486 -0.35866,-0.417253 -0.61736,-0.417253 -0.25871,0 -0.53652,0.187767 -0.61736,0.417253 l -0.14699,0.417252 h 0.76435 0.76435 z m 9.53235,0.02091 c -0.21804,-0.618947 -0.97749,-0.721602 -0.97749,-0.132129 0,0.290686 0.25136,0.528518 0.55857,0.528518 0.30721,0 0.49572,-0.178371 0.41892,-0.396389 z m 6.25446,0.06255 0.21802,-0.333796 h -0.54998 c -0.30249,0 -0.54999,0.150211 -0.54999,0.333796 0,0.183594 0.14938,0.333806 0.33196,0.333806 0.18258,0 0.43007,-0.150212 0.54999,-0.333806 z M 73.035259,37.870714 c 0,-0.178673 -0.32831,-0.761125 -0.729577,-1.294346 l -0.729578,-0.969482 h -1.551066 -1.551066 l -0.377602,0.667602 -0.377602,0.667611 0.377602,0.667602 0.377602,0.667612 h 1.733947 1.733948 l 0.35958,-0.584156 0.359579,-0.584155 0.01073,0.51739 c 0.0059,0.284565 -0.18771,0.727961 -0.430245,0.985313 l -0.440972,0.467913 0.617361,-0.442025 c 0.339549,-0.243111 0.617361,-0.588214 0.617361,-0.766879 z m 115.517891,0.432383 c 0.0807,-0.12351 -0.0137,-0.442706 -0.20968,-0.70933 l -0.35635,-0.484765 -0.17893,0.417252 c -0.25682,0.598879 -0.84411,0.517258 -0.60049,-0.08346 l 0.20306,-0.500699 h -0.39052 c -0.21479,0 -0.39052,0.356752 -0.39052,0.792777 v 0.792786 h 0.88838 c 0.48861,0 0.95438,-0.101056 1.03505,-0.224565 z m 3.93268,-0.893672 -0.2348,-0.57896 -0.38805,0.367178 -0.38806,0.367189 0.2348,0.57896 0.2348,0.578961 0.38805,-0.367188 0.38806,-0.367179 z m 4.30672,0.311892 0.10866,-0.720439 -1.4255,0.07617 c -1.59138,0.08497 -1.96294,0.293478 -1.696,0.951684 l 0.1816,0.447778 1.36129,-0.01732 1.36129,-0.01732 z m 7.65245,0.215841 v -0.492836 l -1.71136,-0.102012 -1.71136,-0.102002 0.16183,0.435051 c 0.089,0.239279 0.42255,0.414187 0.74122,0.388686 0.31866,-0.02545 0.57939,0.07816 0.57939,0.230356 0,0.152189 0.43656,0.244966 0.97014,0.206161 l 0.97014,-0.07059 z m 4.13332,-0.722511 -0.34952,-0.330721 -0.24747,0.378874 c -0.1361,0.208375 -0.14334,0.63455 -0.0161,0.947047 l 0.23137,0.568165 0.36561,-0.616327 0.36561,-0.616327 z m 0.98196,1.062666 c 0,-0.183595 -0.16812,-0.333806 -0.3736,-0.333806 -0.20548,0 -0.27549,0.150211 -0.15557,0.333806 0.11992,0.183594 0.28804,0.333805 0.3736,0.333805 0.0856,0 0.15557,-0.150211 0.15557,-0.333805 z m 3.35139,-0.500709 v -0.622893 l -1.34986,-0.03264 c -1.39928,-0.03387 -1.83054,0.226562 -1.54422,0.93259 l 0.16706,0.411934 1.36351,-0.03302 1.36351,-0.03302 z m -22.29457,0.0047 c 0.0383,-0.181077 -0.20825,-0.379858 -0.5478,-0.441731 l -0.61736,-0.112495 v 0.549656 0.549656 l 0.5478,-0.107925 c 0.30129,-0.05933 0.57911,-0.256084 0.61736,-0.437161 z m 8.00707,-0.0047 c 0,-0.275386 -0.15875,-0.500709 -0.35278,-0.500709 -0.19403,0 -0.35278,0.225323 -0.35278,0.500709 0,0.275386 0.15875,0.500709 0.35278,0.500709 0.19403,0 0.35278,-0.225323 0.35278,-0.500709 z m 1.76388,0.01968 c 0,-0.685665 -0.73033,-1.022565 -1.07449,-0.495656 -0.15954,0.244247 -0.21179,0.563916 -0.11613,0.710371 0.29648,0.453919 1.19062,0.292674 1.19062,-0.214715 z m 6.05014,-0.01968 c 0,-0.174416 -0.17065,-0.370935 -0.37923,-0.436726 -0.20858,-0.06576 -0.37924,0.130739 -0.37924,0.436726 0,0.305987 0.17066,0.502516 0.37924,0.436725 0.20858,-0.06576 0.37923,-0.262309 0.37923,-0.436725 z m 8.41375,0.186603 c 0,-0.17276 -0.15875,-0.406939 -0.35277,-0.520409 l -0.35278,-0.206303 v 0.520409 c 0,0.28622 0.15875,0.520409 0.35278,0.520409 0.19402,0 0.35277,-0.141346 0.35277,-0.314106 z m 1.40571,-0.27005 -0.005,-0.584155 -0.34197,0.500699 -0.34198,0.500709 -0.005,-0.47289 c -0.003,-0.260086 -0.10067,-0.382744 -0.21711,-0.272557 -0.27103,0.256443 0.14976,0.91235 0.58531,0.91235 0.18257,0 0.32952,-0.262868 0.32655,-0.584156 z m -32.52349,-2.700781 -0.10795,-0.530411 -1.93783,-0.01173 -1.93783,-0.01173 v 0.500709 0.500709 l 1.23473,0.174775 c 0.67909,0.09613 1.59969,0.114757 2.04578,0.04144 l 0.81106,-0.133369 z m 3.68391,0.151139 c 0.44271,-0.633955 0.31697,-0.705858 -1.31752,-0.753367 l -1.5875,-0.04618 v 0.575801 c 0,0.316688 0.0785,0.650049 0.17438,0.740801 0.29865,0.282587 2.45772,-0.126282 2.73064,-0.517097 z m 3.85421,0.0546 0.28553,-0.425711 0.0108,0.500708 0.0108,0.500699 0.34198,-0.500699 c 0.18808,-0.275386 0.3444,-0.337571 0.34737,-0.138175 l 0.005,0.362532 1.4347,0.05318 1.43469,0.05318 -0.50848,-0.481141 -0.50849,-0.481141 -2.86649,-0.161131 -2.86648,-0.161131 v 0.588168 c 0,0.323482 0.0926,0.675777 0.20578,0.782869 0.34916,0.330381 2.37087,-0.04192 2.67289,-0.49224 z m 7.63597,-0.140815 c -0.0592,-0.267883 -0.22676,-0.479126 -0.37228,-0.469427 -0.14552,0.0097 -0.74083,0.0176 -1.32292,0.0176 h -1.05833 l 3.3e-4,0.417253 3.4e-4,0.417262 1.43028,0.05214 1.43028,0.05214 z m 3.95465,0.06131 c 0.003,-0.190435 0.15929,-0.120926 0.34738,0.15446 l 0.34197,0.5007 0.005,-0.584156 0.005,-0.584155 h -1.76388 c -1.64939,0 -2.32536,0.398413 -1.32292,0.77971 0.74403,0.283003 2.38093,0.100185 2.38665,-0.266559 z m 2.33455,0.07097 -0.26492,0.417262 h 0.72637 0.72638 v -0.464194 -0.464185 l -1.23473,-0.136387 -1.23472,-0.136397 v 0.378041 c 0,0.65481 0.44406,0.832783 1.0054,0.402965 l 0.54115,-0.414357 z m 2.24616,0.01665 v -0.400561 l 0.42333,0.400561 c 0.5018,0.474801 1.69334,0.535643 1.69334,0.08648 0,-0.431578 -0.35533,-0.600288 -1.55267,-0.737187 l -1.0235,-0.117028 -0.0918,0.584156 c -0.0505,0.321287 0.0529,0.584164 0.22975,0.584164 0.17686,0 0.32156,-0.180254 0.32156,-0.40057 z m 3.88056,0.137797 c 0,-0.144525 0.3175,-0.285397 0.70555,-0.313055 0.38806,-0.02763 0.70556,0.09055 0.70556,0.262764 0,0.172183 0.15377,0.313064 0.3417,0.313064 0.18794,0 0.25033,-0.225322 0.13865,-0.500708 l -0.20306,-0.500709 h -1.19698 -1.19698 v 0.500709 c 0,0.275386 0.15875,0.500708 0.35278,0.500708 0.19403,0 0.35278,-0.118248 0.35278,-0.262773 z m 4.93889,-0.293573 c 0,-0.244785 -0.23813,-0.445071 -0.52917,-0.445071 -0.29104,0 -0.52917,0.160942 -0.52917,0.357651 v 0.357641 l -0.55761,-0.52761 -0.5576,-0.527619 -0.39516,0.231085 -0.39515,0.231084 0.42579,0.134297 c 0.23419,0.0739 0.35241,0.24664 0.26273,0.383955 -0.0897,0.137314 0.38557,0.249659 1.05613,0.249659 h 1.21921 z m 5.36442,83.760056 c 1.3012,-0.0641 3.5237,-0.0644 4.93889,-9.5e-4 1.41519,0.0635 0.35058,0.11592 -2.36581,0.11644 -2.71639,5.2e-4 -3.87428,-0.0515 -2.57308,-0.11549 z m 7.80903,-32.33222 c 0.28701,-37.885663 0.54415,-57.228383 0.80386,-60.468356 l 0.194,-2.420072 h 4.07703 4.07704 l -0.22535,12.601094 c -0.12395,6.930599 -0.4071,27.997773 -0.62923,46.815955 -0.22213,18.818179 -0.45307,34.270139 -0.5132,34.337689 -0.0601,0.0676 -1.88959,0.20267 -4.06546,0.30025 l -3.95614,0.17742 z m 4.95666,18.14241 0.38711,-0.58416 -0.3869,-0.58416 -0.3869,-0.58415 -1.48945,-0.10385 -1.48945,-0.10385 -0.5031,0.39508 c -0.62007,0.48694 -0.64954,1.37645 -0.064,1.93053 l 0.43913,0.41553 1.5532,-0.0984 1.5532,-0.0984 z m -0.66761,-62.337832 c 0.11991,-0.183594 0.0499,-0.333806 -0.15557,-0.333806 -0.20548,0 -0.3736,0.150212 -0.3736,0.333806 0,0.183594 0.07,0.333805 0.15557,0.333805 0.0856,0 0.25368,-0.150211 0.3736,-0.333805 z m 0.68259,-3.99738 0.90491,-0.325545 V 37.12892 36.297897 l -0.68237,-0.345548 c -0.95066,-0.481425 -2.58685,-0.431143 -3.35917,0.103213 l -0.64861,0.448771 0.22864,0.862011 c 0.30503,1.149964 1.82389,1.542482 3.5566,0.919144 z m -13.91176,72.278522 v -1.52041 l 0.44097,-0.0248 c 0.24254,-0.0136 0.78919,-0.0865 1.21478,-0.16193 l 0.77381,-0.13712 0.50925,0.48185 0.50924,0.48186 -0.0897,1.09874 -0.0897,1.09873 -1.63435,0.10175 -1.63435,0.10174 z"
       id="path1" /><rect
       style="opacity:1;fill:#000000;fill-opacity:1;stroke:#0000ff;stroke-width:0.287452;stroke-dasharray:2.07825, 0.346374;paint-order:stroke fill markers"
       id="rect2"
       width="172.97231"
       height="5.3199406"
       x="65.410683"
       y="22.122633" /></g></svg>
