<?xml version="1.0" encoding="UTF-8" standalone="no"?>
<!-- Created with Inkscape (http://www.inkscape.org/) -->

<svg
   width="125mm"
   height="116mm"
   viewBox="0 0 125 116"
   version="1.1"
   id="svg1"
   xml:space="preserve"
   inkscape:version="1.3 (0e150ed, 2023-07-21)"
   sodipodi:docname="casetarei.svg"
   xmlns:inkscape="http://www.inkscape.org/namespaces/inkscape"
   xmlns:sodipodi="http://sodipodi.sourceforge.net/DTD/sodipodi-0.dtd"
   xmlns="http://www.w3.org/2000/svg"
   xmlns:svg="http://www.w3.org/2000/svg"><sodipodi:namedview
     id="namedview1"
     pagecolor="#ffffff"
     bordercolor="#000000"
     borderopacity="0.25"
     inkscape:showpageshadow="2"
     inkscape:pageopacity="0.0"
     inkscape:pagecheckerboard="0"
     inkscape:deskcolor="#d1d1d1"
     inkscape:document-units="mm"
     inkscape:zoom="1.1893651"
     inkscape:cx="259.80248"
     inkscape:cy="234.15855"
     inkscape:window-width="1392"
     inkscape:window-height="892"
     inkscape:window-x="0"
     inkscape:window-y="25"
     inkscape:window-maximized="0"
     inkscape:current-layer="layer1" /><defs
     id="defs1" /><g
     inkscape:label="Capa 1"
     inkscape:groupmode="layer"
     id="layer1"><path
       id="path1"
       style="fill:#000000"
       d="m 61.236295,1.4289645 c -1.12313,0 -1.08682,-0.02181 -4.37337,2.591573 -1.34122,1.066508 -3.23789,2.5722793 -4.21525,3.3460493 -0.97735,0.773768 -1.88404,1.4931024 -2.01435,1.5983524 -0.83998,0.678398 -18.406876,14.5683138 -18.810216,14.8729938 -0.274815,0.207588 -0.633286,0.488828 -0.796334,0.624768 -0.163048,0.13595 -0.802785,0.648517 -1.421619,1.139465 -0.618833,0.49096 -1.23136,0.977768 -1.361674,1.081588 -0.130314,0.10382 -4.629118,3.662629 -9.997323,7.908561 -5.368204,4.245942 -10.832555,8.568844 -12.142928,9.606132 -2.529673,2.002476 -3.230207,2.726534 -3.899503,4.032312 -0.8041,1.568766 -0.971,2.269727 -0.971,4.075203 0,1.800958 0.167932,2.507532 0.964282,4.061768 1.179965,2.302946 3.305952,3.940334 6.084383,4.685502 1.055279,0.28324 3.411864,0.28862 4.560962,0.01034 1.511598,-0.366088 3.081093,-1.216841 4.502051,-2.440677 0.195471,-0.16835 0.701993,-0.561287 1.125512,-0.872815 0.42352,-0.31153 1.190688,-0.887526 1.704806,-1.280026 0.514115,-0.392488 0.980166,-0.670116 1.035596,-0.617016 0.05542,0.05313 0.114388,11.337706 0.131258,25.076506 0.02825,23.009316 0.04603,25.006486 0.226859,25.322476 0.288189,0.50359 0.805543,0.96746 1.343588,1.20406 0.456512,0.20039 1.860321,0.20826 38.32427,0.20826 37.256554,0 37.858564,-0.003 38.358904,-0.22118 0.27958,-0.12164 0.574581,-0.2869 0.655781,-0.3669 0.45342,-0.44695 0.77956,-1.01087 0.89813,-1.55288 0.0975,-0.44566 0.13161,-7.30089 0.12661,-25.140566 -0.004,-13.49019 0.0185,-24.55272 0.0506,-24.58352 0.0558,-0.05349 3.4614,2.48645 4.57027,3.408578 2.73585,2.275124 7.41169,2.65228 10.74611,0.866614 2.00889,-1.075808 3.45414,-2.806435 4.25865,-5.099431 0.31368,-0.893888 0.3389,-1.09164 0.3359,-2.669088 -0.003,-1.906036 -0.16934,-2.628844 -0.93999,-4.102592 -0.86507,-1.654336 0.0269,-0.895142 -15.1567,-12.904638 -1.36161,-1.076968 -2.53424,-2.010392 -2.60604,-2.074292 -0.0718,-0.06386 -0.55724,-0.445144 -1.07849,-0.847494 -0.52126,-0.402348 -0.97457,-0.762668 -1.00717,-0.800468 -0.0326,-0.03785 -1.898101,-1.518764 -4.146001,-3.291272 -2.24791,-1.772516 -6.06001,-4.783568 -8.47081,-6.691064 -2.41079,-1.907496 -4.46326,-3.529431 -4.56096,-3.604431 -0.0977,-0.07495 -0.73747,-0.580144 -1.42162,-1.122412 -0.68413,-0.54227 -1.45709,-1.15309 -1.71772,-1.35754 -0.53888,-0.42272 -4.25936,-3.378827 -4.61987,-3.670577 -2.27221,-1.838816 -12.479774,-9.8457495 -12.855554,-10.0841395 -0.45339,-0.28763 -0.62099,-0.326078 -1.42007,-0.326078 z m -0.002,6.1339923 c 0.17245,-0.0041 0.41612,0.175225 1.13946,0.758093 0.57993,0.4673104 4.27972,3.3970732 8.22172,6.5101972 10.284114,8.121724 9.655664,7.623662 14.216194,11.257194 0.94478,0.75274 5.23601,4.145718 9.53637,7.539592 4.30034,3.393872 8.565251,6.76394 9.477451,7.488948 0.9122,0.72501 2.48494,1.973253 3.49488,2.773991 1.00993,0.800738 1.94295,1.540891 2.07326,1.644861 0.13032,0.10398 1.44029,1.141486 2.91145,2.305802 1.47116,1.164308 2.76166,2.243922 2.86752,2.39882 0.39693,0.58074 0.70502,1.696255 0.63252,2.289783 -0.23425,1.919106 -1.6074,3.255296 -3.52174,3.426664 -0.93016,0.08327 -1.86955,-0.144662 -2.512,-0.609782 -0.39238,-0.284078 -3.55153,-2.670352 -7.18974,-5.430676 -0.74931,-0.568498 -6.240511,-4.704493 -12.202351,-9.190653 -5.96186,-4.486162 -11.13293,-8.379132 -11.49129,-8.651152 -1.03939,-0.788978 -3.15897,-2.387167 -4.79661,-3.616833 -0.83185,-0.62461 -1.78556,-1.345266 -2.11925,-1.600936 -3.185504,-2.440756 -9.442934,-7.068143 -9.704834,-7.176823 -0.18224,-0.07562 -0.63964,-0.137459 -1.01648,-0.137459 -0.88272,0 -1.39345,0.249991 -2.91662,1.426269 -1.09005,0.841798 -9.7158,7.349442 -11.130577,8.39742 -0.33728,0.24985 -2.07025,1.55304 -3.85145,2.895948 -1.78121,1.342906 -4.291711,3.233662 -5.578468,4.20181 -2.300804,1.731098 -5.89406,4.441801 -10.586434,7.986593 -1.308727,0.988658 -2.600262,1.959908 -2.870109,2.158008 -0.269848,0.19809 -1.811216,1.356532 -3.425114,2.57452 -1.6139,1.217986 -3.950656,2.97688 -5.192965,3.908288 -1.242309,0.931398 -2.414954,1.833329 -2.606042,2.004529 -0.19109,0.17119 -0.592223,0.428543 -0.890902,0.571541 -0.775311,0.37119 -2.21114,0.417892 -3.04891,0.09974 -1.671532,-0.634808 -2.656263,-2.316444 -2.384867,-4.07262 0.197142,-1.275696 0.348956,-1.430278 5.060673,-5.15214 2.381791,-1.881426 4.917038,-3.886846 5.633765,-4.456576 0.716725,-0.569728 2.529053,-2.003762 4.027661,-3.186368 1.498607,-1.182618 2.831779,-2.23627 2.962093,-2.34146 0.472525,-0.381428 1.91375,-1.522834 2.412773,-1.910994 0.281052,-0.21861 0.652462,-0.515698 0.825789,-0.659908 0.173327,-0.14421 0.82175,-0.652932 1.440739,-1.13068 0.61899,-0.47775 1.151844,-0.899061 1.184424,-0.935861 0.03258,-0.03686 2.031819,-1.624947 4.442623,-3.528983 7.838321,-6.190638 14.565038,-11.509535 14.867818,-11.756905 0.5485,-0.44809 1.8333,-1.460784 2.42931,-1.914612 0.32534,-0.24772 0.61801,-0.480048 0.65061,-0.516248 0.13467,-0.149458 8.13524,-6.4475942 8.36383,-6.5840942 0.0569,-0.03396 0.10633,-0.05549 0.16382,-0.05684 z M 126.24531,25.542738 c -0.0165,-15.32362 -0.03,-2.820414 -0.03,27.785384 0,30.605802 0.0134,43.143508 0.03,27.861352 0.0165,-15.282187 0.0165,-40.323106 0,-55.646736 z m -64.950555,18.64279 c 19.236614,0.0028 19.509124,0.0059 19.965194,0.228926 0.58592,0.28655 1.02716,0.725852 1.31051,1.30483 0.2076,0.4242 0.22276,0.811459 0.22376,5.848739 l 0.001,5.394503 -0.35656,0.596346 c -0.3618,0.60477 -0.89333,1.011326 -1.64331,1.258321 -0.54461,0.178728 -38.615701,0.169229 -39.198651,-0.0098 -0.54847,-0.168468 -1.44081,-0.95672 -1.69808,-1.49965 -0.20084,-0.423778 -0.21815,-0.864895 -0.22015,-5.798095 -0.003,-5.20918 0.004,-5.350335 0.2465,-5.791895 0.35473,-0.644588 0.80074,-1.07379 1.37201,-1.32085 0.4793,-0.207428 1.13465,-0.214356 19.997747,-0.211356 z m -0.0584,23.010996 c 2.2168,-0.002 2.68858,0.0301 3.63802,0.24702 3.62767,0.82883 6.24056,2.20678 8.749344,4.61418 2.94998,2.8308 4.57351,5.98494 5.09065,9.88932 0.15144,1.14443 0.17559,2.89155 0.14779,10.90218 l -0.0331,9.539466 -17.550354,0.0289 c -15.926787,0.0261 -17.556267,0.012 -17.621667,-0.15141 -0.0396,-0.099 -0.0718,-4.37926 -0.0713,-9.511566 10e-4,-10.66924 0.0405,-11.29383 0.88212,-13.90303 1.47162,-4.56238 5.462057,-8.69489 10.134257,-10.49496 1.23383,-0.47536 1.41268,-0.52996 2.78433,-0.85215 1.20781,-0.28373 1.48919,-0.30599 3.84989,-0.30799 z"
       inkscape:label="path1" /><path
       style="fill:#000000;fill-opacity:1;stroke:#ffffff;stroke-width:0.682625;stroke-opacity:1;paint-order:stroke fill markers"
       id="path37"
       d="m 70.08983,49.149679 c 0.10338,-0.09322 0.19293,-0.20456 0.31013,-0.279662 0.68161,-0.436761 1.46268,-0.723823 2.22939,-0.959228 1.76942,-0.543272 3.58873,-0.836785 5.41458,-1.104765 0.33389,-0.02148 1.23071,0.179445 1.00167,-0.06446 -0.90524,-0.96402 -2.04028,-1.724859 -3.22797,-2.306394 -0.3471,-0.169955 -0.76263,0.132037 -1.14779,0.163867 -0.71065,0.05872 -1.4237,0.08806 -2.13651,0.107524 -2.34207,0.06394 -3.23356,0.01447 -5.59751,-0.03752 -1.52285,-0.06663 -3.13445,-0.115334 -4.6598,-0.255484 -0.41469,-0.0381 -1.56459,-0.420502 -1.23887,-0.161039 0.95243,0.758698 2.14683,1.149898 3.21473,1.734998 0.20577,0.112741 0.37506,0.316163 0.60588,0.358312 0.4449,0.08124 0.90451,5.2e-5 1.35677,7.9e-5 1.68882,0.03428 3.39034,0.113083 4.99825,0.664824 0,0 -3.01904,-2.323008 -3.01904,-2.323008 v 0 c -1.56659,-0.337071 -3.17615,-0.30032 -4.7693,-0.383002 -0.49839,-0.03128 -0.99743,-0.134218 -1.49517,-0.09385 -0.46768,0.03793 -1.68721,-0.01894 -1.36934,0.326181 0.86428,0.938368 2.18049,1.345856 3.35908,1.83415 0.30239,0.12528 0.654,-0.03245 0.98129,-0.03593 1.35464,-0.01437 3.06475,0.02556 4.3826,0.04752 2.73844,0.06954 5.49477,0.07519 8.22763,0.281668 0.47408,0.03582 1.69315,0.559167 1.41575,0.173048 -1.92785,-2.683479 -1.97305,-2.443864 -3.66517,-1.978398 -2.99781,0.649552 0.0893,-0.01333 -3.43159,0.720407 -1.54873,0.322744 -3.20805,0.567944 -4.65479,1.25077 -0.16632,0.0785 -0.30847,0.200356 -0.4627,0.300532 z" /><circle
       id="path38"
       style="fill:#000000;stroke:#ffffff;stroke-width:0.264583"
       cx="151.93855"
       cy="91.207626"
       r="0.076448344" /><path
       style="fill:#000000;fill-opacity:1;stroke:#ffffff;stroke-width:0.682625;stroke-opacity:1;paint-order:stroke fill markers"
       id="path39"
       d="m 66.298253,39.964548 c -0.38639,0.07758 -0.77139,0.16242 -1.15916,0.232736 -1.6732,0.303403 -1.18617,0.183573 -2.83434,0.435578 -0.33017,0.05048 -0.66339,0.08847 -0.98793,0.167421 -0.14424,0.03508 -0.52467,0.07793 -0.41045,0.172733 1.09511,0.909018 2.34904,1.607582 3.52357,2.411375 1.50906,0.131604 3.01208,0.335106 4.50434,0.594979 0.99847,0.173879 0.67359,0.08574 1.40325,0.348623 -1.1211,-0.725707 -2.17266,-1.572225 -3.36329,-2.177126 -0.22655,-0.115099 -0.50453,0.06224 -0.75775,0.08344 -0.4499,0.03766 -0.90028,0.0712 -1.35122,0.09308 -1.58284,0.07682 -3.16641,0.0642 -4.75039,0.05735 -0.28149,0.0046 -0.56409,-0.0114 -0.84448,0.01384 -1.36517,0.122872 2.14192,1.740445 3.35702,2.374728 0.21297,0.11117 0.48018,-0.01765 0.72038,-0.02188 0.58453,-0.01032 1.05324,-0.0046 1.63528,-0.0016 1.85922,0.04621 2.28453,0.590217 -2.71294,-2.265994 -0.15293,-0.08741 -0.35169,0.02204 -0.5278,0.02585 -0.65787,0.01421 -0.45411,0.03207 -0.96748,-0.07911 1.12527,0.711803 2.18377,1.542166 3.37582,2.135407 0.18793,0.09353 0.40537,-0.110675 0.61136,-0.151114 0.36643,-0.07193 0.73537,-0.131075 1.10477,-0.185775 1.39579,-0.206687 2.79613,-0.326554 4.20209,-0.435276 0.34378,-0.02021 0.68714,-0.04935 1.03133,-0.06064 1.6952,-0.05562 3.5023,0.868219 -2.81441,-2.160646 -0.20668,-0.0991 -0.44595,0.106791 -0.67091,0.150707 -0.26404,0.05154 -0.53041,0.09038 -0.79561,0.135575 -0.42446,0.126534 -0.88187,0.08419 -1.31009,0.190852 -1.30935,0.32613 2.11795,1.702302 3.31855,2.318197 0.16827,0.08632 0.37007,-0.07889 0.55665,-0.109842 0.24051,-0.0399 0.48278,-0.06843 0.72417,-0.102645 0.64594,-0.06994 1.28182,-0.249402 1.93319,-0.276027 0.068,-0.0028 0.25867,0.06109 0.20288,0.02215 -3.4175,-2.385632 -2.08327,-2.430825 -3.94762,-2.207051 -0.93959,0.103949 -1.87631,0.07994 -2.8115,-0.0384 0,0 3.12309,2.305646 3.12309,2.305646 v 0 c 0.91911,0.02016 1.83611,-0.06401 2.75529,-0.05903 1.84855,0.03872 1.01598,0.147177 -2.33292,-2.27923 -0.0348,-0.02519 -0.0731,0.04766 -0.11439,0.05933 -0.14435,0.04075 -0.29241,0.06709 -0.43939,0.09699 -0.21089,0.0429 -0.42168,0.08697 -0.63413,0.121364 -0.25341,0.04102 -0.50864,0.06987 -0.76296,0.104807 -0.257,0.02122 -0.51344,0.0507 -0.77098,0.06367 -0.20737,0.01045 -0.77356,-0.1363 -0.62286,0.0065 0.88922,0.842713 1.95753,1.473763 2.94703,2.196102 0.0127,0.0092 -0.0178,-0.04155 -0.003,-0.04695 0.33802,-0.124007 0.88537,-0.191484 1.20619,-0.244798 0.27401,-0.03882 0.54721,-0.08387 0.82202,-0.116448 0.25857,-0.03065 0.94731,0.124359 0.77768,-0.07317 -0.7909,-0.920982 -1.87287,-1.545195 -2.8198,-2.304833 -0.0132,-0.01058 0.0251,0.04494 0.009,0.04994 -0.27407,0.08478 -1.30375,0.210788 -1.40939,0.225581 -1.22659,0.136175 -1.47032,0.168325 -2.74693,0.287342 -0.91805,0.08559 -1.83955,0.135279 -2.75581,0.238279 -0.28297,0.03181 -1.03338,-0.0839 -0.84445,0.129146 0.84254,0.950031 2.01278,1.548693 3.01916,2.323041 0.40734,-0.01945 0.38606,-0.02506 0.91191,-0.0011 0.20356,0.0093 0.755,0.186357 0.60977,0.04341 -2.97757,-2.93079 -1.70805,-2.335861 -3.42399,-2.208234 -0.58041,0.0069 -1.04631,0.02302 -1.63133,-0.01683 -0.26505,-0.01807 -0.97588,-0.279207 -0.79221,-0.08725 0.80685,0.843261 1.83684,1.4404 2.76453,2.148562 0.0191,0.01455 -0.0222,-0.04246 -0.0334,-0.0637 0.2197,-0.03975 0.4394,-0.07949 0.6591,-0.119235 2.08179,-0.122917 4.15519,-0.0585 6.23874,-0.06825 0.34192,-0.0016 1.23904,0.237267 1.02534,-0.02965 -0.77958,-0.973749 -1.94757,-1.559068 -2.92135,-2.338605 -1.6338,-0.197141 -3.29764,-0.376232 -4.90584,-0.729379 -0.3267,-0.07174 -0.64462,-0.17888 -0.96693,-0.268317 0.9146,0.688256 1.78362,1.44167 2.74379,2.064766 0.0669,0.04341 0.0736,-0.156795 0.14652,-0.189121 0.26427,-0.11719 0.54921,-0.184804 0.832,-0.244801 1.38237,-0.293277 2.80378,-0.390059 4.20734,-0.518964 z" /><path
       style="fill:#000000;fill-opacity:1;stroke:#ffffff;stroke-width:0.682625;stroke-opacity:1;paint-order:stroke fill markers"
       id="path40"
       d="m 82.353391,50.957972 c -1.90298,0.433091 -3.89584,0.423437 -5.83937,0.466667 -0.21416,-2.14e-4 -1.70154,0.01402 -2.07449,-0.03355 -0.0831,-0.01061 -0.3007,-0.146849 -0.22948,-0.102687 1.22416,0.759058 2.37804,1.654159 3.6901,2.248498 0.32425,0.146883 0.70842,-0.0724 1.06367,-0.09512 0.46574,-0.02979 0.93246,-0.04157 1.39868,-0.06236 2.01152,-0.02878 0.74069,-0.02111 2.55289,-0.01037 0.24435,0.0013 0.49055,0.03151 0.73307,0.0016 0.0895,-0.01103 0.31515,-0.06979 0.2415,-0.121782 -3.4895,-2.463649 -2.38144,-2.203543 -4.73645,-2.429682 -1.77341,-0.278305 -3.61391,-0.26579 -5.35913,-0.721291 -0.18558,-0.04843 -0.69468,-0.316839 -0.53607,-0.20901 1.07598,0.731485 2.19896,1.391311 3.29844,2.086969 2.19372,-0.221355 4.39715,-0.272131 6.59851,-0.368384 0.15312,-0.429453 0.95453,0.203239 1.22133,-0.106297 0.10884,-0.126285 0.20689,-0.404582 0.0672,-0.495617 -1.24832,-0.813649 -2.60992,-1.446869 -3.97255,-2.049849 -0.30576,-0.135308 -0.66152,-0.09789 -0.99224,-0.147151 -0.37934,-0.0565 -0.75862,-0.113411 -1.13793,-0.170119 -0.48326,-0.07402 -1.41227,-0.189817 -1.91459,-0.355102 -0.15621,-0.0514 -0.57625,-0.316339 -0.4374,-0.228219 3.51093,2.22818 2.19956,2.204953 4.63586,1.89322 0.3553,-0.02548 0.71022,-0.05704 1.06591,-0.07647 0.89138,-0.04869 1.79262,-0.07111 2.68545,-0.04419 0.12645,0.0038 0.47743,0.105667 0.37857,0.02673 -1.05563,-0.842873 -2.19785,-1.571189 -3.29678,-2.356782 -2.40214,-0.0016 -4.8093,-0.221212 -7.18752,-0.553844 -0.24435,-0.06459 -0.94643,-0.329279 -0.73307,-0.193773 1.0145,0.644319 2.11154,1.148511 3.16033,1.735355 0.0855,0.04781 0.14317,0.166576 0.24108,0.167878 0.30869,0.0041 0.6072,-0.113877 0.91348,-0.152543 1.06286,-0.134178 1.58945,-0.141724 2.66883,-0.198879 0.83558,-0.02056 1.42291,-0.04189 2.24293,-0.03821 0.22935,0.0011 0.45881,0.0042 0.68789,0.01553 0.0847,0.0042 0.32167,0.08017 0.25251,0.03109 -3.47721,-2.467626 -2.13896,-2.274068 -4.28596,-2.363727 -1.30141,-0.04316 -2.59814,-0.17852 -3.89099,-0.327652 -0.46875,-0.05407 -1.39338,-0.14995 -1.89338,-0.297257 -0.12785,-0.03767 -0.23835,-0.119361 -0.35753,-0.179043 1.10614,0.721839 2.16426,1.523262 3.31843,2.165522 0.14627,0.0814 0.33349,-0.03002 0.50057,-0.04036 0.30015,-0.01857 0.60036,-0.03842 0.90098,-0.04641 0.95531,-0.0254 1.90788,0.01193 2.8614,0.06335 1.93962,0.193193 1.56512,0.23735 -2.93001,-2.278094 -0.21108,-0.118121 -0.48105,-0.05148 -0.72105,-0.0816 -0.91601,-0.114941 -0.83766,-0.111451 -1.72624,-0.263316 -0.19258,-0.04996 -0.74713,-0.254233 -0.57774,-0.149873 1.03558,0.638029 2.17592,1.098703 3.19518,1.7625 0.093,0.06055 -0.0771,0.280665 0.0211,0.33215 0.15098,0.0791 0.33855,-0.04058 0.50842,-0.05469 0.70678,-0.05873 0.94177,-0.05748 1.67772,-0.08348 0.57346,-0.03992 1.14895,-0.03825 1.72267,-0.07235 0.19223,-0.01143 0.38834,-0.0048 0.57554,-0.0499 0.0912,-0.02199 0.31484,-0.09013 0.24007,-0.146749 -3.18717,-2.41333 -2.24724,-2.163781 -4.29895,-2.472833 -0.75647,-0.192669 -1.79306,-0.201027 -2.51563,-0.509243 -0.10367,-0.04422 -0.35475,-0.277275 -0.26027,-0.215834 3.53673,2.299883 1.99977,2.330151 3.81161,2.178381 1.01493,-0.07426 2.03809,-0.101153 3.05503,-0.04479 0.11877,0.0066 0.44648,0.11158 0.35508,0.03545 -1.02151,-0.850821 -2.12578,-1.597046 -3.18867,-2.395569 -0.14761,0.0096 -0.29494,0.03148 -0.44284,0.02886 -0.63819,-0.01132 -1.27407,-0.08003 -1.91103,-0.121343 -1.21004,-0.07849 -2.41999,-0.157994 -3.63016,-0.234389 -1.64657,-0.14527 -3.28888,-0.169569 -4.93441,-0.02141 -1.50294,0.15662 -3.01244,0.228161 -4.52215,0.27578 -1.54522,0.04189 -3.0912,0.03992 -4.63682,0.02883 -1.38358,-0.05113 -2.76263,0.08402 -4.14362,0.145735 -1.44695,0.0648 -2.87897,0.27128 -4.31162,0.469969 -1.35161,0.182089 -2.71544,0.22153 -4.07698,0.254884 -1.45864,0.06944 -2.91248,0.01177 -4.36681,-0.09976 -1.16954,-0.131429 -2.343151,-0.01249 -3.51447,0.02553 -0.761436,-0.03258 -1.485156,0.08034 -2.205296,0.3155 -0.376571,0.141047 -0.757688,0.260022 -1.127136,0.419478 -0.09709,0.0419 -0.201321,0.0714 -0.289433,0.129863 -0.05917,0.03926 -0.202001,0.11712 -0.143536,0.157427 1.152895,0.794824 2.382752,1.471785 3.574129,2.207675 2.579542,-0.13214 5.168912,-0.02888 7.749242,0.05833 1.99204,0.0933 3.9854,0.04547 5.97585,0.167616 1.95352,0.163044 3.91241,0.23767 5.86826,0.359275 1.92306,0.12409 3.85137,0.12678 5.7747,0.238133 1.86512,0.140372 3.73529,0.151535 5.60442,0.172773 1.94687,0.04133 3.895,0.0059 5.84135,0.06288 1.83612,0.07102 3.6723,0.141087 5.50927,0.185725 1.57862,-0.003 3.15393,0.06018 4.7307,0.12751 0.68715,0.06778 1.3831,0.102817 2.06435,0.22338 0.11335,0.02006 0.43139,0.146582 0.33509,0.08352 -2.66868,-1.747491 -2.1864,-1.513824 -3.54507,-2.141778 -2.24339,0.24389 -4.50656,0.284316 -6.76118,0.357899 -1.95341,0.0837 -3.89526,0.311126 -5.84589,0.436192 -2.03697,0.113006 -4.07772,0.113218 -6.11712,0.109562 -1.5174,0.0067 -3.03463,-0.01333 -4.55187,-0.03168 -1.05981,-0.02671 -2.11989,-0.01352 -3.1797,0.004 -1.39177,0.02556 -2.78367,0.0016 -4.17548,-0.0042 -1.46543,0.08178 -2.91584,0.323805 -4.37469,0.478414 -1.52776,0.08541 -3.02593,0.399563 -4.51685,0.724165 -1.78072,0.398608 -3.53245,0.916072 -5.259953,1.50147 -0.600636,0.252958 -1.239099,0.42485 -1.832425,0.696484 -0.09606,0.04398 -0.219702,0.0675 -0.275069,0.157478 -0.07138,0.116009 -0.185372,0.330927 -0.06958,0.402658 1.221012,0.756431 2.565609,1.292247 3.848417,1.938367 2.31251,-0.09329 4.61385,-0.353285 6.91299,-0.607261 2.90141,-0.366093 5.81359,-0.625655 8.73316,-0.786924 3.3971,-0.230164 6.79971,-0.140599 10.1995,-0.04241 2.35703,0.119618 4.71324,0.250407 7.06835,0.401902 1.74755,0.116637 3.49772,0.17924 5.24854,0.216602 1.33654,-0.02215 2.66792,0.06837 4.0018,0.128135 0.62492,0.111791 1.29055,0.05438 1.91012,0.2018 0.10241,0.02437 0.37355,0.192791 0.28538,0.135279 -3.59718,-2.346349 -2.09101,-2.376715 -4.3174,-2.027068 -4.69296,0.489802 -9.42526,0.31451 -14.13554,0.280556 -3.01177,-0.03812 -6.02082,0.122846 -9.03088,0.198305 -2.11683,0.04252 -4.23419,0.03617 -6.35126,0.05636 -2.16766,0.02437 -4.33545,0.0094 -6.50306,-0.01132 -1.46944,0.01431 -2.93781,0.12451 -4.39365,0.322726 -0.49915,0.13371 -1.032503,0.152495 -1.528629,0.298802 -0.07181,0.02117 -0.262461,0.05593 -0.201453,0.09933 3.439052,2.44652 2.196582,2.386028 4.381632,2.175851 4.21008,-0.273539 8.43339,-0.222411 12.6497,-0.180604 3.28051,0.03823 6.56121,0.0087 9.84183,0.01468 2.69574,0.05601 5.38976,-0.02037 8.08411,-0.09741 2.35946,-0.08493 4.71973,-0.07649 7.0798,-0.0361 0.6933,0.02225 1.38687,0.03306 2.08036,0.0458 0.37424,0.0069 0.28932,-0.093 0.38205,0.128886 -1.15481,-0.759407 -2.24018,-1.636728 -3.46442,-2.278218 -0.20304,-0.106389 -0.45178,0.07916 -0.67931,0.106944 -0.37017,0.04521 -0.74143,0.08197 -1.11315,0.111967 -1.68361,0.135884 -3.36481,0.139991 -5.05272,0.149055 -3.39013,-0.01884 -6.77983,-0.08222 -10.16982,-0.118221 -2.58662,-0.05144 -5.17502,-0.01622 -7.75874,0.115779 -2.39339,0.153347 -4.78302,0.334381 -7.1803,0.420619 -1.96518,0.10949 -3.93174,0.24194 -5.89145,0.427709 -1.388,0.112951 -2.783286,0.246867 -4.177643,0.205328 1.126691,0.768678 2.171923,1.673045 3.380073,2.306037 0.25524,0.133728 0.57291,-0.0639 0.86033,-0.08434 0.59161,-0.04208 1.18378,-0.07728 1.77632,-0.103177 2.91236,-0.12727 5.82415,-0.128844 8.73858,-0.128945 4.38043,0.08023 8.76312,0.07534 13.14296,0.18155 2.69035,0.0981 5.38012,0.197469 8.07228,0.222554 2.22031,0.0042 4.44033,0.04292 6.66048,0.06302 1.57506,-0.02016 3.14565,0.01871 4.71619,0.136014 -0.54011,-0.355425 1.0474,0.273098 0.82486,0.107693 -1.06488,-0.791453 -2.13383,-1.585534 -3.27564,-2.261274 -0.12802,-0.07576 -0.29427,0.04429 -0.44208,0.06108 -1.02396,0.116253 -1.16204,0.110088 -2.32123,0.18918 -3.8151,0.188978 -7.63788,0.06527 -11.4545,-0.01781 -2.6262,-0.06464 -5.25301,-0.09259 -7.87974,-0.123893 -1.901,-0.03343 -3.80222,-0.02053 -5.70331,-0.0067 -2.29056,-0.02217 -4.57871,0.05378 -6.86776,0.120735 -2.17275,0.08582 -4.34796,0.05572 -6.5209,0.121348 -1.27454,-0.01561 -2.560169,0.188825 -3.834127,0.09779 1.180867,0.763535 2.283837,1.663748 3.542597,2.290606 0.27539,0.137145 0.61313,-0.05342 0.92042,-0.06803 0.55911,-0.02659 1.1186,-0.04845 1.67829,-0.05557 2.44008,-0.03104 4.88038,0.05698 7.31862,0.135355 4.02968,0.195064 8.05998,0.361196 12.09285,0.472684 2.68628,0.106489 5.37508,0.06459 8.06199,0.120314 2.49891,0.06452 4.99757,0.140271 7.49673,0.194463 1.48601,0.102722 3.00435,-0.07894 4.48153,0.140131 0.026,0.0419 0.11964,0.152212 0.0781,0.125709 -1.16414,-0.741727 -2.23573,-1.636689 -3.45756,-2.278957 -0.20406,-0.107264 -0.45504,0.07542 -0.68406,0.101873 -0.40337,0.04659 -0.80761,0.0867 -1.21252,0.117186 -1.36404,0.102704 -2.24942,0.121275 -3.645,0.173647 -4.24953,0.07815 -8.49836,-0.0706 -12.74748,-0.09405 -2.75053,-0.0173 -5.49799,0.137072 -8.24617,0.229047 -2.2125,0.02772 -4.423,0.079 -6.63416,0.160205 -1.84504,0.137369 -3.6921,0.233828 -5.54157,0.281406 -1.00024,-0.006 -2.012194,0.09598 -3.011253,7.93e-4 -0.03802,-0.0036 -0.07247,-0.0241 -0.108704,-0.03618 1.241092,0.757346 2.482177,1.514692 3.723277,2.272038 4.24719,-0.298239 8.51073,-0.233088 12.76521,-0.188381 3.37395,0.04359 6.74595,0.03903 10.11284,0.279374 2.66265,0.252275 5.33425,0.368342 8.00283,0.53367 3.08977,0.211838 6.18163,0.3918 9.27378,0.564877 1.43932,0.117163 2.88246,0.12959 4.32523,0.151053 -0.55579,-0.510336 0.80667,0.209593 0.63079,0.09049 -1.13471,-0.768411 -2.216,-1.630373 -3.42899,-2.26808 -0.21546,-0.113271 -0.48296,0.06227 -0.72541,0.08399 -1.60851,0.144132 -1.70875,0.118393 -3.53023,0.181393 -5.09218,0.03848 -10.18234,-0.156178 -15.27115,-0.315105 -3.02693,-0.115951 -6.05703,-0.114152 -9.08311,0.01797 -2.43833,0.134972 -4.87896,0.207335 -7.32055,0.242596 -1.96442,0.0186 -3.92893,0.0016 -5.8933,-0.01339 -0.90577,-0.0275 -1.81064,0.03527 -2.714659,0.08167 0,0 3.077649,2.205228 3.077649,2.205228 v 0 c 0.87277,-0.07097 1.7473,-0.132573 2.62374,-0.11711 1.92645,-0.0168 3.85284,-0.04007 5.77902,-0.07682 2.43429,-0.04686 4.86798,-0.120767 7.29842,-0.270828 2.94382,-0.136755 5.89032,-0.199684 8.83742,-0.170347 5.07483,0.006 10.14964,0.07133 15.22096,0.272069 1.13414,0.03567 2.779,0.09129 3.96816,0.116528 0.30605,0.0065 1.11685,0.243879 0.91827,0.01093 -2.34816,-2.754805 -1.79846,-2.357813 -3.45554,-2.301849 -1.36953,0.01349 -2.73916,-0.0098 -4.10873,-0.0094 -3.07663,-0.06372 -6.1501,-0.223856 -9.21269,-0.533037 -2.65363,-0.201073 -5.31293,-0.305523 -7.96674,-0.506 -3.29975,-0.202697 -6.60071,-0.192305 -9.90504,-0.100288 -4.42593,0.04936 -8.85833,0.09537 -13.278141,-0.185253 0.860729,0.756608 1.721431,1.513242 2.582181,2.269826 0.0156,0.01373 -0.0672,-0.03739 -0.0468,-0.04124 0.14537,-0.02738 0.29478,-0.02625 0.44254,-0.03328 0.81957,-0.03905 1.64085,-0.03229 2.46083,-0.05605 1.8362,-0.07232 3.66922,-0.19299 5.50279,-0.313426 2.18415,-0.101475 4.36834,-0.17559 6.55465,-0.213786 2.68771,-0.08789 5.36939,-0.297608 8.05815,-0.353179 4.22874,-0.06547 8.45737,0.03274 12.68627,0.04323 1.75305,-0.0086 3.5091,0.0082 5.26188,-0.03036 0.28271,-0.0062 1.02559,0.182033 0.84751,-0.03762 -2.27483,-2.80579 -1.80801,-3.074879 -2.90886,-2.354583 -1.42622,0.01151 -2.85246,0.0707 -4.27919,0.0359 -2.47418,-0.0145 -4.94777,-0.05569 -7.42061,-0.14207 -2.65085,-0.05622 -5.30205,-0.02757 -7.95332,-0.04031 -3.94663,-0.0423 -7.89147,-0.163822 -11.83622,-0.288939 -2.51403,-0.06229 -5.02386,-0.14868 -7.53494,-0.28879 -0.64069,-0.03575 -1.28117,-0.07517 -1.921488,-0.117102 -0.370993,-0.02429 -1.338445,-0.37674 -1.112372,-0.08159 0.728769,0.951462 1.85896,1.513212 2.78844,2.269818 0.21545,-0.125847 0.0521,-0.04553 0.56034,-0.08024 0.99866,-0.06819 1.99828,-0.121822 2.99747,-0.181181 2.15409,-0.08292 4.31095,-0.06996 6.46501,-0.160777 2.30007,-0.08118 4.59996,-0.122211 6.90155,-0.08206 1.89692,0.01302 3.7939,0.0249 5.69078,-0.0011 2.56002,-0.0177 5.12014,-0.01714 7.68021,-0.01733 3.84499,0.0065 7.68969,0.05218 11.53464,0.05834 0.27943,0.0013 2.15707,0.01217 2.62223,0.0057 0.20963,-0.0029 0.782,0.120256 0.62855,-0.02262 -2.53939,-2.364346 -2.02447,-2.272054 -3.84778,-2.315658 -1.5506,-0.06152 -3.10074,-0.09628 -4.65271,-0.0635 -2.18426,0.01752 -4.36868,0.04995 -6.55296,0.01 -2.64228,-0.04064 -5.28454,-0.08347 -7.92692,-0.117941 -4.24005,-0.02723 -8.47839,0.09808 -12.71808,0.133533 -3.03496,-3.5e-5 -6.06662,-0.0087 -9.09962,-0.134229 -0.68978,-0.02854 -1.379285,-0.06534 -2.068122,-0.11136 -0.360913,-0.0241 -1.315395,-0.374171 -1.080622,-0.099 0.805712,0.944356 1.962044,1.521285 2.943064,2.281928 0.47706,-0.09776 0.97145,-0.107826 1.45599,-0.142849 0.85033,-0.06147 1.70061,-0.123764 2.5501,-0.196204 1.92056,-0.172297 3.83685,-0.40199 5.76332,-0.495769 2.40116,-0.09834 4.79793,-0.257953 7.19572,-0.414679 2.54776,-0.126116 5.09777,-0.1954 7.64892,-0.171031 3.35309,0.0033 6.70619,0.01278 10.05921,0.03548 1.75843,0.01005 3.51572,0.01804 5.27399,-0.01466 0.41732,-0.0078 0.83467,-0.01548 1.25181,-0.02975 0.27968,-0.0096 1.0153,0.175114 0.8385,-0.0418 -0.78272,-0.960284 -1.88881,-1.603618 -2.83321,-2.405427 -0.15762,0.147568 -0.56865,0.07628 -0.76571,0.08041 -0.52048,0.0109 -1.04087,0.02896 -1.56105,0.04931 -2.31874,0.06736 -4.63764,0.108627 -6.95725,0.134337 -2.65572,0.06543 -5.31012,0.197892 -7.96752,0.170696 -3.25061,0.0086 -6.50163,-0.01744 -9.75176,0.05254 -4.31205,0.08734 -8.62988,0.181033 -12.93967,-0.03449 -0.34779,-0.03121 -1.275671,-0.354357 -1.04338,-0.09363 0.80976,0.908881 1.93133,1.482776 2.9172,2.196809 0.0184,0.01333 0.0231,-0.04413 0.0446,-0.05167 0.46626,-0.163732 0.9731,-0.210272 1.4535,-0.310081 1.41081,-0.193585 2.82912,-0.343572 4.25451,-0.36027 2.15735,-0.01918 4.31481,-0.02998 6.47223,-0.01257 2.09924,0.0076 4.19831,-0.02326 6.29598,-0.108992 2.91825,-0.111562 5.83285,-0.298556 8.75183,-0.390641 4.82655,-0.120643 9.65412,-0.06087 14.48165,-0.06776 0.41107,-0.02019 1.46838,0.27718 1.23319,-0.06056 -1.82677,-2.623293 -2.74166,-2.356784 -5.04888,-2.546463 -1.32991,-0.08481 -2.6588,-0.120092 -3.99166,-0.102968 -1.71935,-0.01791 -3.43864,-0.06015 -5.15498,-0.169 -2.29886,-0.137666 -4.6006,-0.217877 -6.90318,-0.261552 -3.4213,-0.01976 -6.84681,-0.117316 -10.26574,0.02728 -2.92874,0.190121 -5.84966,0.476229 -8.76852,0.780732 -2.36447,0.235453 -4.74866,0.566542 -7.126929,0.360918 0.950786,0.613757 1.963963,1.140241 2.852359,1.84127 0.0889,0.07012 -0.17775,0.148505 -0.28505,0.184576 -0.069,0.0232 0.10187,-0.106405 0.16423,-0.14396 0.52819,-0.318069 1.13529,-0.501851 1.69407,-0.752091 1.713,-0.602697 3.46406,-1.093452 5.24418,-1.456018 1.49455,-0.299757 2.99724,-0.553725 4.5177,-0.680564 1.46235,-0.170598 2.92499,-0.383302 4.39924,-0.409808 1.38803,-0.0058 2.77615,-0.02985 4.16414,-0.0039 1.0651,0.01725 2.13048,0.03242 3.19562,0.0079 1.48755,-0.01545 2.97507,-0.03119 4.46269,-0.03631 2.0284,-0.02835 4.05688,-0.06977 6.0837,-0.157273 1.94154,-0.103955 3.87287,-0.314045 5.81189,-0.453792 2.33588,-0.126484 4.67127,-0.205248 7.0104,-0.232148 0.19677,-0.07794 0.74861,-0.09334 0.59031,-0.233818 -0.98276,-0.872149 -2.17241,-1.480614 -3.29381,-2.1654 -0.0779,-0.04758 -0.18249,-0.007 -0.27359,-0.01304 -0.66346,-0.04437 -1.32573,-0.107355 -1.99,-0.140314 -1.58115,-0.07621 -3.16184,-0.139002 -4.74536,-0.126018 -1.82032,-0.02358 -3.63988,-0.07267 -5.45865,-0.152948 -1.93891,-0.05154 -3.87847,-0.01106 -5.81778,-0.03977 -1.88317,-0.03406 -3.76463,-0.111808 -5.64515,-0.217302 -1.92398,-0.07131 -3.85057,-0.08743 -5.771,-0.240242 -1.93998,-0.105254 -3.88286,-0.160999 -5.81948,-0.324866 -1.96967,-0.121436 -3.94098,-0.129328 -5.91397,-0.102955 -2.67381,-0.0016 -5.358534,-0.02048 -8.018062,-0.319677 3.755644,2.681843 1.790086,2.342375 4.274859,1.595948 0.688193,-0.167897 1.385793,-0.264726 2.095083,-0.284861 1.15632,-0.07042 2.31423,-0.09878 3.47061,-0.0075 1.45669,0.06418 2.91366,0.09555 4.37186,0.0641 1.36744,-0.03237 2.73446,-0.113252 4.09088,-0.296338 1.41806,-0.191247 2.83595,-0.399066 4.2676,-0.458582 1.38478,-0.05518 2.76924,-0.126526 4.15557,-0.118067 1.54421,-0.0136 3.08861,-0.01551 4.63262,-0.04569 1.51239,-0.0456 3.01948,-0.159853 4.52648,-0.294187 1.59628,-0.10545 3.19392,-0.09978 4.79194,-0.02217 1.2082,0.05632 2.41484,0.119478 3.61861,0.242017 0.4699,0.04783 1.59465,0.178437 2.10824,0.283786 0.17225,0.03533 0.33735,0.0993 0.50603,0.148956 -1.02459,-0.782807 -2.01413,-1.613742 -3.07375,-2.348416 -0.0738,-0.05115 -0.17781,0.02625 -0.2674,0.03188 -0.19178,0.01209 -0.38402,0.01535 -0.57609,0.02125 -0.83642,0.02572 -1.67314,0.03271 -2.50982,0.04494 -1.89626,0.198289 -0.97934,-0.05442 2.30357,2.460908 0.0597,0.04575 0.14665,0.03382 0.22064,0.0474 0.19138,0.03512 0.38368,0.06506 0.57533,0.09867 0.29408,0.05158 0.58883,0.09967 0.88185,0.156925 0.33418,0.06529 0.66635,0.140449 0.99952,0.210674 0.28425,0.08299 1.06849,0.451827 0.85276,0.248976 -0.85562,-0.804553 -1.87586,-1.413973 -2.82597,-2.104401 -0.0132,-0.0096 0.0129,0.04447 -0.003,0.04882 -0.15662,0.0434 -0.3186,0.06684 -0.48011,0.08498 -0.44709,0.05022 -1.24175,0.0756 -1.67183,0.09406 -0.21637,0.0021 -1.54042,0.0141 -1.79915,0.02349 -0.21646,0.0079 -0.45097,-0.04823 -0.64852,0.0406 -0.20251,0.09106 -0.65032,0.327007 -0.47664,0.465341 2.29375,1.826903 2.34904,1.774008 3.99983,2.012329 0.75116,0.109971 0.96487,0.136808 1.74076,0.270377 0.27954,0.04812 1.02846,0.362056 0.83714,0.152657 -2.54612,-2.786639 -1.67929,-2.247874 -3.13676,-2.195751 -0.93908,0.0074 -1.87739,-0.0036 -2.81645,-0.0092 -0.34031,-0.0021 -0.68106,-0.01937 -1.02093,-0.0021 -0.25293,0.01291 -0.92842,-0.09113 -0.75411,0.09258 0.88343,0.931037 2.03986,1.558238 3.05979,2.337356 2.00603,0.221374 4.02396,0.331229 6.02387,0.611995 0.31987,0.05125 1.17354,0.397012 0.95961,0.153744 -0.79483,-0.903862 -1.854,-1.53669 -2.81408,-2.262606 -0.0311,-0.02355 -0.0633,0.05133 -0.10173,0.05796 -0.19261,0.03322 -0.38844,0.04458 -0.58327,0.06017 -0.31119,0.0249 -1.90976,0.121005 -2.12004,0.133874 -0.93161,0.04785 -1.86409,0.07969 -2.79509,0.138266 -0.37225,0.02342 -0.75802,-0.01574 -1.11519,0.09173 -2.49089,0.749499 1.84966,2.56367 3.35711,2.578941 2.48707,0.209453 4.99228,0.335868 7.44929,0.794531 -0.99536,-0.763934 -1.95279,-1.580004 -2.98608,-2.291802 -0.0752,-0.0518 -0.17865,0.03981 -0.26948,0.04914 -0.21275,0.02185 -0.42663,0.03084 -0.64007,0.04432 -1.01262,0.06392 -2.02635,0.105897 -3.03961,0.157676 -0.33724,0.02212 -0.67732,0.01749 -1.01173,0.06638 -0.24968,0.03651 -0.90546,0.0044 -0.73311,0.188759 2.26739,2.424589 2.77261,2.339284 5.26733,2.681668 0.38823,0.06758 0.77832,0.125185 1.16467,0.202748 0.36462,0.0732 1.35774,0.504822 1.08745,0.249388 -0.75744,-0.715801 -1.83117,-1.023675 -2.62333,-1.700845 -0.11061,-0.09455 0.26964,-0.121374 0.37778,-0.218731 0.24366,-0.219355 -2.032,1.185212 -0.96241,0.202846 -1.22471,0.108757 -2.44751,0.174913 -3.67663,0.215368 -0.85181,0.02804 -1.70654,-0.01032 -2.55622,0.05627 -0.26941,0.02111 -0.53314,0.08874 -0.79971,0.133112 1.02826,0.766423 2.02155,1.58216 3.08479,2.299268 0.11414,0.07698 0.2724,0.04031 0.40904,0.05716 0.31128,0.03839 0.62289,0.07417 0.93464,0.10854 1.46771,0.161814 2.93839,0.309258 4.39017,0.588327 0.38996,0.08441 1.42304,0.561631 1.16989,0.253233 -0.71089,-0.866042 -1.77444,-1.368613 -2.65459,-2.061964 -0.02,-0.0158 0.0966,0.02164 0.0716,0.02719 -0.19172,0.04251 -0.38709,0.06988 -0.58279,0.08616 -0.62261,0.05181 -1.88329,0.07104 -2.45189,0.0847 -0.49624,1.37e-4 -0.99251,0.0054 -1.48873,5.29e-4 -0.41649,-0.0042 -1.45529,-0.390022 -1.2492,-0.02808 0.56698,0.995736 1.69829,1.538706 2.54743,2.308059 0.0236,-0.02413 0.0376,-0.06624 0.0708,-0.07235 0.22703,-0.04181 0.45886,-0.05271 0.68922,-0.06764 0.39053,-0.02532 0.7819,-0.03541 1.17285,-0.05311 2.10005,-0.05833 4.21242,-0.01855 6.30267,-0.239255 z" /><path
       style="fill:#000000;fill-opacity:1;stroke:#000000;stroke-width:0.683;stroke-dasharray:none;stroke-opacity:1;paint-order:stroke fill markers"
       id="path41"
       d="m 37.669971,54.938014 c 3.203742,-0.494716 6.452322,-0.429602 9.682562,-0.376161 3.89288,0.07262 7.77094,0.434641 11.65278,0.704265 5.71932,0.367308 11.44819,0.5427 17.17657,0.691896 3.80952,0.02559 7.63079,0.150082 11.4328,-0.151556 1.21978,-0.06366 2.39094,-0.272042 3.51628,-0.74291 0.0215,-0.0099 0.53505,-0.233551 0.58742,-0.294516 0.0679,-0.0791 0.2068,-0.22824 0.12153,-0.288258 -1.16103,-0.817168 -2.37604,-1.568577 -3.65004,-2.195211 -0.26109,-0.128421 -0.58158,-0.02005 -0.8724,-0.02921 -0.46068,-0.0145 -0.92138,-0.02783 -1.38207,-0.04174 -3.66724,-0.135544 -7.33354,-0.296098 -10.99954,-0.461434 -0.39423,-0.01828 -0.78846,-0.03658 -1.18269,-0.05487 0,0 2.88085,2.102334 2.88085,2.102334 v 0 c 0.36519,-0.0024 0.73037,-0.0046 1.09556,-0.0069 3.66302,0.01474 7.32966,0.115456 10.97766,0.466193 0.50934,0.05781 1.02119,0.09666 1.52803,0.173429 0.33739,0.0511 1.25318,0.440746 1.00199,0.20978 -0.86205,-0.79263 -1.95781,-1.286515 -2.91176,-1.965756 -0.0318,-0.02262 0.13732,-0.05759 0.114,-0.02633 -0.0558,0.07479 -0.4631,0.266203 -0.49365,0.28172 -1.04297,0.413523 -2.13226,0.65105 -3.24361,0.803797 -3.60967,0.477819 -7.2608,0.478586 -10.89606,0.488032 -5.78061,-0.08415 -11.56541,-0.247537 -17.3216,-0.821574 -3.87873,-0.36517 -7.75793,-0.785918 -11.6618,-0.684474 -3.44272,-0.03829 -6.886493,-0.09793 -10.329204,-0.04027 z" /><path
       style="fill:#000000;fill-opacity:1;stroke:#000000;stroke-width:0.683001;stroke-dasharray:none;stroke-opacity:1;paint-order:stroke fill markers"
       id="path44"
       d="m 95.28345,62.459222 c -0.0469,0.0016 -0.0944,-0.0032 -0.1407,0.0045 -0.14584,0.02437 -0.35699,0.106735 -0.49112,0.140827 -0.51252,0.13027 -0.99106,0.158781 -1.51875,0.159673 -0.34639,-0.01709 -0.8939,-0.02365 -1.23948,-0.116787 -0.16247,-0.04379 -0.60989,-0.282623 -0.46414,-0.19853 7.20262,3.986739 3.32567,2.194962 2.70923,1.390552 -0.0662,-0.08635 -0.1068,-0.189553 -0.1602,-0.284329 -0.15985,-0.355063 -0.22577,-0.767059 -0.46785,-1.083493 -0.11792,-0.154141 -0.24226,-0.314407 -0.40806,-0.415284 -3.592,-2.185551 -2.57459,-1.814881 -4.7798,-2.457786 -0.90677,-0.282229 -1.87022,-0.350362 -2.77497,-0.638689 -0.17655,-0.05627 -0.669,-0.316836 -0.50929,-0.222861 3.29521,1.938938 2.73927,0.664117 3.2699,1.982764 0.69079,-0.127918 1.39438,-0.176935 2.09625,-0.181608 0.0828,-5.29e-4 0.31373,0.05659 0.24838,0.0057 -1.05326,-0.819869 -2.1657,-1.560729 -3.24855,-2.341094 -1.00106,-0.03019 -2.00196,-0.07791 -3.00397,-0.09862 -1.31183,-0.01796 -2.62367,-0.03159 -3.93558,-0.04275 -1.1653,-0.09205 -2.33528,-0.117764 -3.49968,-0.217414 -1.27617,-0.123007 -2.55745,-0.168695 -3.83863,-0.196702 -1.11835,-0.03469 -2.23692,-0.03562 -3.35565,-0.03675 -1.03648,0.0045 -2.07297,-0.0011 -3.10945,-0.0041 -1.17505,0.0019 -2.34998,0.01955 -3.525,0.02524 -1.6122,0.01196 -3.22447,0.02098 -4.8367,0.01191 -1.33183,-0.0682 -2.66148,-0.161716 -3.99425,-0.211971 -1.04496,-0.0097 -2.07446,0.176443 -3.110249,0.28561 -1.221234,0.181819 -2.448928,0.318119 -3.659888,0.561959 -0.870916,0.150733 -1.700514,0.453311 -2.446909,0.923692 -0.560176,0.341289 -1.085247,0.702755 -1.566016,1.149292 -0.523817,0.51725 -0.898721,1.171554 -1.293789,1.789171 -1.351359,2.033383 -1.237512,0.77429 2.812047,3.225839 0.944372,-0.179189 1.902651,-0.28694 2.841173,-0.498144 0.733777,-0.165129 0.937532,-0.251828 1.654876,-0.48827 2.021007,-0.846048 4.042395,-1.696289 6.043415,-2.589591 0.84197,-0.413776 1.70426,-0.782598 2.58053,-1.116856 0.1371,-0.0523 0.76035,-0.311283 0.99171,-0.306803 0.0481,0.0011 0.0726,0.06328 0.10885,0.09493 -1.13001,-0.690248 -2.20696,-1.476026 -3.39004,-2.070738 -0.10241,-0.05148 -0.16174,0.162473 -0.24051,0.245735 -0.54892,0.58026 -1.04732,1.202692 -1.55806,1.816073 0,0 3.24038,1.937512 3.24038,1.937512 v 0 c 0.47951,-0.619881 0.97548,-1.218866 1.5894,-1.71256 0.10769,-0.0866 0.43742,-0.151757 0.33487,-0.244377 -0.97035,-0.876396 -2.11161,-1.542614 -3.16741,-2.313922 -0.27329,0.213866 -0.67651,0.362075 -0.98126,0.505577 -0.83403,0.392726 -1.67369,0.773715 -2.50127,1.180189 -1.991396,0.919798 -4.009995,1.791402 -6.083669,2.509928 -1.477812,0.446468 -3.028852,0.842208 -4.584459,0.690091 1.031158,0.684888 2.063189,1.368465 3.093474,2.054665 0.01537,0.01024 -0.05239,-0.0086 -0.04861,-0.02669 0.01167,-0.05588 0.05445,-0.100444 0.08518,-0.148543 0.169926,-0.265951 0.339344,-0.530939 0.49648,-0.805304 0.387946,-0.586129 0.765368,-1.198621 1.280396,-1.682594 0.464722,-0.416375 0.977,-0.768797 1.505103,-1.100484 0.706626,-0.418605 1.491491,-0.691462 2.292501,-0.86704 1.215705,-0.248345 2.450734,-0.359079 3.681914,-0.504197 1.01309,-0.114547 2.02195,-0.298456 3.04632,-0.264187 1.31197,0.04362 2.62219,0.132313 3.93495,0.152326 1.62314,-0.0093 3.24632,2.65e-4 4.86943,0.01188 1.19782,0.0057 2.39556,0.0231 3.59341,0.02421 1.031,-0.0039 2.06202,-0.01154 3.09304,-0.0074 1.10367,1.66e-4 2.20749,0.0024 3.31105,0.01572 1.28371,0.03646 2.56629,0.09984 3.8447,0.226184 1.17316,0.08491 2.34891,0.144722 3.52372,0.199052 1.30115,-0.0063 2.60289,-0.01119 3.90349,0.03232 1.05488,0.04081 2.12039,0.07337 3.15943,0.27174 -1.04061,-0.773961 -2.05572,-1.583457 -3.12184,-2.321885 -0.0486,-0.03365 -0.11424,0.03153 -0.17273,0.03997 -0.13959,0.02016 -0.28027,0.03201 -0.42063,0.0457 -0.60433,0.05895 -1.21534,0.07707 -1.80863,0.218202 -0.14412,0.137089 -0.58449,0.28312 -0.43236,0.41126 1.02089,0.85992 2.25345,1.433021 3.41099,2.097691 0.13345,0.07663 0.29641,0.08341 0.44652,0.117338 0.9035,0.204186 1.82479,0.335441 2.70604,0.632401 1.79923,0.674275 1.37741,0.582102 -1.60818,-1.194813 -0.14347,-0.08539 0.29471,0.164611 0.4152,0.280194 0.2751,0.263885 0.36079,0.688305 0.46474,1.034253 0.78637,2.169573 3.55567,3.029056 5.70547,3.01743 0.22826,-0.0045 0.4569,5.3e-4 0.68477,-0.01344 0.54741,-0.03366 1.08211,-0.200213 1.63227,-0.165505 z" /><path
       style="fill:#000000;fill-opacity:1;stroke:#000000;stroke-width:0.683001;stroke-dasharray:none;stroke-opacity:1;paint-order:stroke fill markers"
       id="path45"
       d="m 33.817907,53.303942 c -0.261858,0.344384 -0.75388,0.563494 -1.03587,0.861819 -0.975043,1.031521 2.314929,1.650426 3.543041,2.362097 0.927766,-0.134929 1.863866,-0.202078 2.798916,-0.261784 0.52176,-0.03332 1.08204,-0.09152 1.60893,-0.06731 -1.18562,-0.740932 -2.31148,-1.587434 -3.55688,-2.222794 -0.18982,-0.09684 -0.422246,0.05788 -0.633617,0.08494 -0.275857,0.03532 -0.551688,0.07104 -0.828045,0.102211 -0.811294,0.09153 -1.62129,0.181954 -2.431269,0.285343 -2.094257,0.296947 -0.870151,0.574916 2.930771,2.392939 0.262498,0.125558 0.580361,-0.04452 0.87107,-0.05712 0.7926,-0.03437 1.16387,-0.02514 1.93838,-0.02307 2.17408,0.07775 0.40829,-0.514409 -2.749186,-2.385317 -0.164431,-0.09743 -0.380468,-0.03852 -0.569447,-0.06711 -0.427032,-0.06462 -1.008073,-0.185703 -1.431113,-0.270105 -2.070597,-0.869432 1.423705,0.96852 2.215801,1.289052 0.144664,0.05854 -0.174702,-0.283596 -0.162261,-0.43916 0.02005,-0.250603 0.11725,-0.499243 0.254172,-0.710089 0.447424,-0.688988 1.145314,-1.150236 1.771424,-1.647568 0.55495,-0.470305 1.2353,-0.744432 1.82998,-1.151631 0.13292,-0.09101 0.31271,-0.164386 0.36499,-0.316757 0.0499,-0.145377 0.0325,-0.375377 -0.10204,-0.449654 -3.713758,-2.050049 -2.72187,-1.978638 -5.073711,-1.731015 -1.112936,0.08431 -2.218193,0.243337 -3.327715,0.359442 -0.209873,0.02196 -0.789596,-0.0858 -0.63082,0.0532 3.03403,2.655985 2.183085,2.530038 4.542798,1.947778 2.361108,-0.403069 4.750378,-0.610627 7.137218,-0.787652 0.59174,-0.04389 1.18395,-0.08205 1.77653,-0.112638 1.12266,-0.05795 0.70137,0.167735 1.24369,-0.2173 -1.31814,-0.683723 -2.57181,-1.509535 -3.95442,-2.051171 -0.33816,-0.132475 -0.72423,0.05657 -1.08688,0.07624 -0.43288,0.02349 -0.86602,0.04451 -1.29945,0.05321 -0.49206,0.0099 -1.7465,0.04038 -2.27819,-0.128656 -0.20024,-0.06366 -0.34464,-0.240477 -0.51696,-0.360715 1.14854,0.559748 2.20118,1.389732 3.44563,1.679245 0.39833,0.09266 0.68525,-0.449975 1.05089,-0.633167 1.07318,-0.537683 3.07523,-1.371041 4.30187,-1.454816 -1.28688,-0.652545 -2.48999,-1.506845 -3.86063,-1.957637 -0.33765,-0.111051 -0.66668,0.247328 -1.00462,0.357497 -0.41318,0.134702 -1.84818,0.555789 -2.2899,0.657511 -0.85831,0.197652 -0.60475,0.256384 -1.11157,-0.0108 1.15492,0.658141 2.2409,1.455619 3.46477,1.974419 0.16866,0.0715 0.29641,-0.215718 0.45057,-0.314693 0.16069,-0.103174 0.32744,-0.196659 0.4933,-0.291317 1.38298,-0.789299 1.38601,-0.07232 -3.07492,-2.31826 -0.14198,-0.07148 -0.26245,0.179414 -0.39367,0.269123 -1.28349,0.720228 -2.422974,1.662875 -3.672106,2.434733 -1.340414,-0.807611 2.490506,1.50241 3.342066,1.853176 0.14785,0.06091 0.19406,-0.25436 0.29711,-0.37664 0.27386,-0.324977 0.58125,-0.603054 0.80369,-0.965729 -1.17061,-0.684117 -2.27513,-1.496544 -3.511827,-2.052351 -0.148283,-0.06664 -0.262376,0.192944 -0.383058,0.301871 -0.75932,0.685363 -1.390309,1.513932 -2.025904,2.310161 -0.12714,0.161909 -0.523042,0.713719 -0.751411,0.859137 -0.04963,0.0316 -0.117674,-7.94e-4 -0.176509,-0.0013 1.125505,0.563689 2.180645,1.298122 3.376514,1.691071 0.177639,0.05837 0.03573,-0.373597 0.08049,-0.555143 0.06696,-0.271545 0.169067,-0.533194 0.253598,-0.799791 0.623205,-1.800492 1.387867,-3.543504 2.448197,-5.130316 1.02859,-1.230048 2.11446,-0.247184 -3.225889,-2.120524 -0.180081,-0.06317 -0.219459,0.313066 -0.344173,0.45752 -0.438761,0.508201 -0.764968,0.780296 -1.266177,1.242621 -0.595735,0.508614 -0.767389,0.667909 -1.368007,1.134343 -0.154971,0.120348 -0.32872,0.217466 -0.472765,0.3507 -1.06721,0.987086 2.466033,1.705118 3.897955,1.955871 0.564047,0.09877 1.032537,-0.495466 1.548806,-0.743198 2.74781,-1.272403 5.57224,-2.369222 8.40817,-3.426685 0.98541,-0.36744 3.51931,-1.295845 4.6379,-1.640607 0.47315,-0.145833 0.958,-0.250593 1.437,-0.375889 0.22842,0.0086 0.88028,0.145093 0.68527,0.02582 -1.09944,-0.672397 -2.20163,-1.449396 -3.46092,-1.723364 -0.38943,-0.08472 -0.59217,0.535543 -0.91316,0.771755 -1.61402,1.18777 -3.38952,2.134897 -5.14312,3.093059 -0.92517,0.498594 -2.0593,1.120994 -3.01293,1.595668 -0.35969,0.17904 -0.71186,0.378991 -1.09029,0.514011 -0.22181,0.07914 -0.88963,-0.01042 -0.69571,0.123224 3.1821,2.193018 2.58311,2.461406 3.80401,0.85398 0.50405,-0.446802 0.98019,-0.92723 1.51216,-1.340408 1.25093,-0.971603 2.65401,-1.803977 4.02238,-2.59402 1.19073,-0.687486 2.40042,-1.350624 3.65778,-1.908427 -1.15124,-0.682463 -2.18867,-1.610648 -3.45374,-2.04739 -0.31866,-0.110014 -0.55442,0.383966 -0.83845,0.565578 -3.47116,2.219574 0.97993,-0.70771 -3.05764,1.925963 -1.55141,1.011971 -1.84419,1.228373 -3.33859,2.260743 -0.80587,0.556374 -1.57908,1.158195 -2.37834,1.723731 -0.22684,0.160505 -0.4521,0.32426 -0.69027,0.467424 -0.0626,0.03763 -0.27353,0.04184 -0.20698,0.07194 4.19241,1.896099 2.86559,2.453595 4.99157,0.689337 2.27307,-1.867627 4.71164,-3.542945 6.92549,-5.482434 -0.008,-0.135958 0.0987,-0.349385 -0.0243,-0.407879 -1.34872,-0.641395 -2.7224,-1.302353 -4.18695,-1.594813 -0.45004,-0.08987 -0.85876,0.324612 -1.2817,0.502767 -1.77497,0.747683 -3.44248,1.64819 -5.11616,2.59629 -2.034775,1.256453 -3.947086,2.692601 -5.812205,4.184917 0,0 2.893052,1.808938 2.893052,1.808938 v 0 c 1.774833,-1.544601 3.620363,-3.007498 5.642283,-4.221954 0.56985,-0.321606 1.12699,-0.666826 1.70953,-0.964821 1.1636,-0.595226 2.29563,-1.072732 3.54349,-1.456156 0.46763,-0.143685 1.62642,0.09454 1.42495,-0.35125 -1.1014,-2.436948 -3.65216,-1.565444 -2.0294,-2.04107 -0.0915,0.159721 -0.15506,0.33905 -0.27442,0.479166 -0.23671,0.27787 -1.68146,1.596017 -1.84788,1.742395 -1.40031,1.231693 -2.87063,2.386097 -4.46831,3.353961 -2.32578,1.334156 -1.74066,0.442839 1.31336,3.175992 0.0348,0.03118 -0.0898,-0.08717 -0.0628,-0.125373 0.14913,-0.211489 0.35502,-0.376975 0.5427,-0.555148 0.29648,-0.281459 0.59868,-0.55716 0.90912,-0.823138 0.40655,-0.348323 0.82748,-0.679492 1.24122,-1.019241 1.65642,-1.212926 3.24531,-2.315929 5.08523,-3.247652 0.5095,-0.258005 1.03031,-0.494884 1.55999,-0.708408 0.34049,-0.137255 1.26699,-0.04871 1.04675,-0.342419 -0.73316,-0.977696 -1.96198,-1.457507 -2.94296,-2.186262 -0.11949,0.137771 -0.2186,0.296296 -0.35847,0.413316 -0.6952,0.581588 -2.03526,1.408787 -2.71999,1.839259 -1.98927,1.25059 -4.01643,2.442588 -5.95672,3.770021 -1.92135,1.701308 -1.94704,1.106197 2.31973,3.099266 0.1926,0.08996 0.38539,-0.180486 0.57043,-0.285107 0.18329,-0.103632 2.25898,-1.37051 2.26318,-1.373026 0.51845,-0.311232 1.0402,-0.616921 1.5603,-0.92538 1.79187,-1.004324 3.59387,-1.984772 5.39995,-2.96291 0.42075,-0.227873 1.48203,-0.273603 1.25587,-0.69528 -1.67724,-3.127193 -1.95115,-2.841239 -3.3874,-2.208178 -4.69132,2.079016 -9.41879,4.111905 -14.358724,5.535924 -0.616202,0.170122 -1.996678,-0.111501 -1.848602,0.510368 0.255593,1.073404 1.669942,1.44295 2.489613,2.181643 0.03509,0.03163 -0.153728,-0.01442 -0.130403,-0.05551 0.09146,-0.161078 0.253344,-0.270616 0.387885,-0.397941 0.300323,-0.284223 1.035844,-0.916159 1.32702,-1.168921 0.532871,-0.452096 0.883531,-0.747083 1.404751,-1.198542 0.15661,-0.135649 0.61751,-0.267001 0.46737,-0.409781 -3.690187,-3.509243 -2.721711,-3.253332 -3.376915,-1.768758 -0.858147,1.715426 -1.642806,3.463216 -2.406023,5.222335 -0.118043,0.2613 -0.240262,0.52075 -0.354131,0.783894 -0.08486,0.196099 -0.400907,0.450819 -0.241948,0.593601 3.237129,2.907662 2.866794,3.051699 4.204975,1.112158 0.478172,-0.622007 0.964452,-1.236634 1.564072,-1.749613 0.15626,-0.133686 0.31762,-0.264692 0.49639,-0.366345 0.11681,-0.06643 0.48482,-0.04742 0.38076,-0.132448 -0.97384,-0.795745 -2.08449,-1.407554 -3.126744,-2.111332 -0.0019,0.05303 0.01799,0.111614 -0.0057,0.159088 -0.112977,0.226288 -0.463511,0.577194 -0.621787,0.730795 -0.128394,0.124603 -0.527566,0.233749 -0.399399,0.358587 0.93449,0.910233 2.0695,1.591546 3.15078,2.321373 0.0448,0.03021 0.068,-0.08386 0.10208,-0.125786 1.07041,-0.974373 2.26799,-1.826964 3.61697,-2.369897 0.14986,-0.03667 0.56705,-0.01 0.44958,-0.110008 -0.97638,-0.831422 -2.05942,-1.535827 -3.15844,-2.196685 -0.0749,-0.04505 -0.11325,0.135541 -0.18407,0.186778 -0.15467,0.111897 -0.32304,0.203697 -0.48814,0.299532 -0.18562,0.107741 -0.70503,0.149481 -0.56374,0.311033 0.83585,0.955763 1.96445,1.609175 2.94668,2.413762 1.00935,-0.418539 2.1652,-0.705257 3.22306,-0.964604 0.37876,-0.09286 1.33552,0.08791 1.14269,-0.251061 -0.56846,-0.999268 -1.72307,-1.522418 -2.5846,-2.283627 0.31137,0.270907 0.18431,0.105582 -0.6713,0.468837 -0.47851,0.203155 -0.96694,0.38223 -1.45372,0.564658 -0.57294,0.214712 -1.15682,0.400301 -1.72525,0.626689 -0.47314,0.188444 -1.59595,0.147987 -1.3977,0.617109 0.49359,1.168022 1.84221,1.742953 2.76332,2.61443 0.15804,0.04878 0.31014,0.124817 0.47413,0.146336 1.10921,0.145542 2.42247,-0.0013 3.54883,0.0088 0.40722,0.0037 1.44853,0.373738 1.22116,0.0359 -0.60864,-0.904319 -1.70901,-1.353595 -2.56351,-2.030394 0.0778,-0.01654 0.3091,-0.07372 0.23333,-0.04962 -0.23684,0.0753 -0.47359,0.15462 -0.71726,0.203488 -0.51922,0.104135 -1.04296,0.186706 -1.56812,0.254855 -2.45758,0.31891 -4.935996,0.490871 -7.410856,0.594272 -2.521762,-0.04067 -2.940481,-0.36944 1.354995,2.221373 0.150291,0.09065 0.338172,-0.09551 0.51036,-0.129503 0.592415,-0.116961 1.455108,-0.23274 2.037411,-0.284226 0.41084,-0.03632 0.82335,-0.05034 1.23502,-0.07551 0.36994,-0.0011 1.34585,0.281892 1.10982,-0.003 -0.6635,-0.800817 -1.79263,-1.076917 -2.57358,-1.763707 -0.1112,-0.09779 0.30769,-0.21305 0.42644,-0.124566 0.0964,0.0718 -0.0774,0.235831 -0.16017,0.322977 -0.340074,0.358172 -1.376809,1.039389 -1.692626,1.25912 -0.882566,0.666975 -2.160265,1.399527 -2.474714,2.563569 -0.05886,0.217893 -0.133557,0.537086 0.04462,0.675638 2.480498,1.928902 2.491531,1.873374 4.27417,2.376815 0.44758,0.0859 1.02491,0.193797 1.46721,0.290899 0.21616,0.04746 0.80936,0.302675 0.64596,0.153424 -2.933966,-2.679827 -1.73775,-2.316078 -3.303065,-2.11795 -0.787413,0.03166 -1.089382,0.05627 -1.916065,0.03005 -0.333351,-0.01058 -1.208805,-0.320439 -0.998665,-0.06145 0.730682,0.900528 1.809637,1.450718 2.714456,2.176079 0.0082,-0.01738 0.0063,-0.04617 0.02453,-0.05215 0.148817,-0.04875 0.305149,-0.07055 0.457724,-0.105828 1.076155,-0.182356 2.155585,-0.313082 3.246975,-0.361897 0.24628,-0.01101 0.90648,0.167616 0.73944,-0.01368 -0.82489,-0.895252 -1.9019,-1.52001 -2.85285,-2.280015 -0.0103,0.195154 0.0112,0.07394 -0.44858,0.138234 -0.274614,0.0384 -0.551045,0.06316 -0.827342,0.08652 -0.980905,0.08296 -1.97036,0.144704 -2.953514,0.06104 0.962033,0.678329 1.92655,1.353146 2.886093,2.03499 0.02323,0.01651 -0.09399,-0.01601 -0.07641,-0.03845 0.0742,-0.09473 0.187084,-0.151447 0.28254,-0.224721 0.267224,-0.205131 0.542103,-0.40082 0.824033,-0.585219 z" /><path
       style="fill:#000000;fill-opacity:1;stroke:#000000;stroke-width:0.683001;stroke-dasharray:none;stroke-opacity:1;paint-order:stroke fill markers"
       id="path46"
       d="m 33.582983,62.270252 c 0.517819,-1.206664 1.917626,-2.077191 2.973409,-2.709135 1.655307,-0.990796 2.405597,-1.231924 4.175617,-1.97466 1.19144,-0.352414 2.15475,-0.76323 3.40615,-0.719486 0.34372,0.01201 1.29273,0.428955 1.00238,0.244596 -5.12451,-3.253867 -2.38656,-1.993934 -2.66412,-0.774342 -0.0604,0.265266 -0.22937,0.493387 -0.34406,0.740079 -1.25453,1.703681 -3.14651,2.707709 -5.031217,3.56888 -0.109058,0.06595 -0.244766,0.100631 -0.327175,0.197853 -0.07145,0.08429 -0.197835,0.251523 -0.106617,0.313891 1.137609,0.777838 2.361389,1.424813 3.582839,2.062972 0.0581,0.03033 0.63631,-0.08962 0.74283,-0.112303 0.18029,-0.08522 0.15347,-0.04184 0.23707,-0.321058 0.13061,-0.4362 -0.11857,-0.14841 0.19226,-0.713383 0.54872,-0.997363 2.07765,-2.974158 2.48834,-3.534937 2.9554,-3.73662 6.33486,-7.102996 9.77423,-10.38766 2.06468,-1.97181 4.16402,-3.879178 6.38408,-5.672217 0.13587,-0.107077 0.55238,-0.226518 0.40761,-0.321225 -1.15658,-0.756664 -2.3767,-1.495394 -3.71457,-1.84226 -0.34894,-0.09047 -0.56793,0.444339 -0.85946,0.656368 -1.17531,0.854824 -2.40067,1.611956 -3.65008,2.351648 -0.2143,0.119407 -1.36169,0.842563 -1.78894,0.831885 -0.11191,-0.0028 -0.29941,-0.31478 -0.19553,-0.27305 1.21466,0.487968 2.28517,1.394494 3.57285,1.629825 0.3722,0.06802 0.49571,-0.572995 0.76706,-0.836681 0.30911,-0.300384 0.64784,-0.568706 0.97176,-0.853059 0.57258,-0.459756 1.0162,-0.841706 1.61308,-1.241586 1.18487,-0.793795 3.83401,0.09016 -3.29074,-1.999504 -0.2744,-0.08048 -0.37473,0.432228 -0.57002,0.641122 -0.28442,0.304239 -0.57919,0.598636 -0.86879,0.897951 -1.0181,1.04307 -2.00927,2.113994 -3.05084,3.134087 -0.55294,0.541542 -1.13763,1.03641 -1.70489,1.560558 1.23562,0.639186 2.39263,1.461341 3.70686,1.917557 0.24711,0.08578 0.44833,-0.26992 0.67781,-0.395483 0.22385,-0.122484 0.45975,-0.222383 0.68164,-0.348369 0.13367,-0.07589 0.49941,-0.155509 0.38335,-0.256297 -3.05521,-2.653292 -2.17001,-2.767367 -4.03078,-2.105393 -1.71883,0.512993 -3.35994,1.269458 -4.9516,2.090973 1.14204,0.762545 2.1291,1.836555 3.42611,2.287636 0.5548,0.19295 1.12382,-0.342313 1.68695,-0.509397 1.16714,-0.3463 2.32954,-0.709555 3.50384,-1.030743 4.25461,-1.16369 8.56056,-2.107398 12.86701,-3.053726 0.4867,-0.108386 3.64672,-0.795993 4.55547,-1.042662 0.18621,-0.05055 0.69954,-0.08803 0.54292,-0.200723 -1.15907,-0.833999 -2.38643,-1.62914 -3.73569,-2.096588 -0.38064,-0.131873 -0.76072,0.265626 -1.13745,0.408292 -0.50528,0.191352 -1.00551,0.395769 -1.50827,0.593651 -0.54472,0.23109 -1.09325,0.453403 -1.63417,0.693267 -1.08792,0.482433 -1.75584,0.823216 -2.80686,1.330081 -0.28698,0.138404 -0.59094,0.245301 -0.86255,0.411872 -0.10693,0.06558 -0.3628,0.207253 -0.2571,0.274793 1.224,0.782074 2.57195,1.350648 3.85793,2.025973 0.0333,-0.0074 1.69549,-0.377936 1.73239,-0.384468 0.20107,-0.03559 0.77789,0.04469 0.60863,-0.06954 -1.05325,-0.710854 -2.23833,-1.203682 -3.36521,-1.790899 -0.0783,-0.04083 -0.16477,-0.120459 -0.24849,-0.09221 -0.32388,0.109268 -0.60357,0.320995 -0.90536,0.481494 -2.61173,1.395743 -5.04884,3.093141 -7.65714,4.492876 -0.0794,0.04004 -0.32,0.08559 -0.2381,0.120127 1.38014,0.581996 2.72807,1.377783 4.21514,1.556967 0.60929,0.07342 1.08189,-0.580121 1.63185,-0.852435 1.7839,-0.883298 3.61478,-1.662753 5.44574,-2.441384 0.30301,-0.156658 0.66153,-0.235231 0.90903,-0.469972 0.11928,-0.113133 0.23661,-0.397785 0.0964,-0.483679 -1.31792,-0.80757 -2.70375,-1.54473 -4.17581,-2.016006 -0.50344,-0.161174 -1.05154,0.109995 -1.5762,0.174522 -1.50329,0.184885 -2.38918,0.324029 -3.8903,0.544462 -2.7093,0.466034 -7.78182,0.479091 0.78323,2.804578 1.01276,0.274971 2.09531,-0.126111 3.14416,-0.160856 1.49553,-0.04954 2.99207,-0.06132 4.4881,-0.09198 4.17136,0.01254 8.3473,-0.0046 12.51527,0.198821 0.75043,0.03661 1.50292,0.06555 2.24831,0.159777 0.32815,0.04148 1.23275,0.434933 0.96131,0.245943 -1.12137,-0.780732 -2.36702,-1.365758 -3.55053,-2.048639 -0.44316,0.09431 -0.88358,0.202586 -1.32949,0.282919 -1.10502,0.19908 -3.3599,0.517281 -4.41316,0.663466 -2.11278,0.293235 -4.22774,0.572895 -6.34223,0.853599 -0.43802,0.03785 -0.87442,0.116099 -1.31406,0.113535 -0.17906,-0.0011 -0.34842,-0.08283 -0.52263,-0.124245 1.20987,0.673036 2.33276,1.534393 3.62961,2.019112 0.32662,0.122081 0.66678,-0.206113 1.00609,-0.286433 0.95941,-0.227108 1.68343,-0.321408 2.65613,-0.473863 -1.26282,-0.903449 2.14423,0.2794 1.69306,-0.06022 -1.04235,-0.784625 -2.13365,-1.524273 -3.30941,-2.089701 -0.22445,-0.107939 -0.48774,0.101436 -0.73282,0.145775 -1.61416,0.292015 -1.45821,0.249246 -3.21893,0.487146 -1.60508,0.180078 -3.20715,0.428291 -4.82267,0.502586 -0.20705,0.0095 -0.78313,-0.138252 -0.62176,-0.0082 3.06507,2.470716 2.22909,2.295109 4.40149,2.308465 1.35291,0.08768 2.71208,0.158539 4.0574,0.335381 0.32283,0.04244 0.65536,0.05683 0.96307,0.163311 0.12369,0.04281 0.39844,0.336153 0.2861,0.268973 -1.17542,-0.702926 -2.32162,-1.453623 -3.48243,-2.180434 -0.95683,0.181687 -1.92563,0.289621 -2.89589,0.367247 -0.42903,0.03432 -1.57174,0.120436 -2.05248,0.07958 -0.1544,-0.01312 -0.29915,-0.08099 -0.44872,-0.121484 1.26552,0.694402 2.40621,1.695077 3.79657,2.083208 0.73097,0.204057 1.48926,-0.299244 2.24178,-0.39755 1.21007,-0.158073 2.42566,-0.274728 3.6422,-0.371084 3.78398,-0.299712 7.57999,-0.374414 11.37318,-0.447053 1.43824,-0.0086 2.88376,-0.03469 4.32266,0.0093 0.27084,0.0083 1.01461,0.232119 0.81115,0.05316 -1.01453,-0.892413 -2.15013,-1.660131 -3.34822,-2.284839 -0.26218,-0.136707 -0.58815,0.06617 -0.88358,0.07828 -0.456,0.01871 -0.91272,0.0094 -1.36908,0.0141 -3.44817,-0.03625 -6.89637,-0.0088 -10.34343,0.08067 -2.91516,0.05616 -5.82881,0.177414 -8.74041,0.330195 -2.38596,0.157986 -4.77247,0.30153 -7.15187,0.541615 -1.16818,0.112525 -2.33734,0.223621 -3.51014,0.274125 -0.23079,0.01032 -0.46181,0.0084 -0.69274,0.008 0,0 3.18344,2.299999 3.18344,2.299999 v 0 c 0.22216,-0.01244 0.44381,-0.02996 0.66534,-0.05114 1.10323,-0.121108 2.19669,-0.317749 3.30036,-0.436655 2.32921,-0.249341 4.66257,-0.463563 6.99944,-0.627158 2.89641,-0.135326 5.79408,-0.24326 8.69137,-0.357735 3.46008,-0.125505 6.92602,-0.197395 10.38609,-0.02598 0.50367,0.02882 1.00803,0.04759 1.51103,0.08645 0.36191,0.02796 1.31425,0.393718 1.08298,0.113945 -0.76411,-0.924385 -1.80908,-1.591662 -2.82773,-2.224667 -0.15149,-0.09414 -0.33804,0.120089 -0.5142,0.147955 -0.96676,0.152924 -3.02471,0.288608 -3.82069,0.351369 -5.07627,0.336908 -10.14875,0.590513 -15.23622,0.674786 -0.93975,0.01556 -2.63355,-0.892942 -2.81949,0.02836 -0.21853,1.08272 1.5602,1.563942 2.34029,2.345913 1.82742,-0.193821 3.66698,-0.255016 5.49308,-0.46232 -0.91101,-0.810771 -1.79671,-1.650913 -2.73304,-2.432309 -0.0463,-0.03862 -0.12069,0.0048 -0.18081,5.29e-4 -0.28929,-0.02024 -0.57775,-0.05106 -0.86685,-0.07388 -1.3783,-0.108808 -2.75851,-0.202105 -4.12955,-0.387311 -0.37454,-0.05686 -1.35864,-0.467677 -1.12361,-0.170577 0.72551,0.917094 1.75418,1.559013 2.73078,2.202175 0.11629,0.07658 0.25524,-0.116726 0.39136,-0.146031 1.5226,-0.327782 3.09467,-0.412925 4.63222,-0.636474 1.171,-0.108365 2.34482,-0.184798 3.51569,-0.294484 0.36455,-0.03415 1.32734,0.144079 1.09013,-0.134837 -2.27966,-2.680499 -2.42123,-2.370632 -4.58,-1.965042 -1.91094,0.321226 -0.75418,0.131509 -2.73067,0.443942 -0.4074,0.0644 -1.41942,-0.168032 -1.22205,0.194143 2.48366,4.557631 1.53349,2.588403 2.91837,2.264029 0.38325,-0.08977 0.77189,-0.154694 1.15784,-0.232042 4.12748,-0.786223 8.29508,-1.363901 12.49602,-1.559258 -0.85215,-0.771988 -1.62057,-1.647944 -2.55645,-2.315964 -0.16044,-0.11452 -0.39033,0.05789 -0.58693,0.07227 -0.6278,0.04591 -1.25644,0.08103 -1.88533,0.108503 -4.02293,0.175715 -8.05049,0.186912 -12.07625,0.1178 -1.62076,-0.06154 -3.24308,-0.09068 -4.86229,-0.184607 -1.25544,-0.07283 -2.75953,-1.078162 -3.75945,-0.315532 -0.67105,0.511802 0.98617,1.381503 1.59357,1.967426 0.0744,0.07176 0.10612,-0.198022 0.2028,-0.234588 0.385,-0.1456 0.79624,-0.210365 1.19894,-0.295531 0.55167,-0.116674 1.10867,-0.206494 1.66301,-0.30974 1.49432,-0.216334 2.44634,-0.394086 3.96483,-0.450284 0.58491,-0.02164 1.91452,0.592466 1.75568,0.02913 -0.25934,-0.919763 -1.52428,-1.155038 -2.24883,-1.778137 -0.0955,-0.08214 0.39782,0.02828 0.3492,0.144494 -0.11176,0.26711 -0.43367,0.38377 -0.65051,0.575654 -1.74737,0.915056 -3.51745,1.769189 -5.35728,2.487001 -0.62347,0.243245 -1.95947,0.0065 -1.89181,0.67228 0.0767,0.754102 3.16867,3.136574 2.07311,2.288341 2.33514,-1.781042 4.86317,-3.344669 7.57811,-4.475567 0.35404,-0.124285 0.72489,-0.208343 1.06212,-0.372853 0.28973,-0.141341 1.04308,-0.321239 0.80399,-0.537486 -0.96409,-0.872021 -2.24213,-1.330618 -3.43656,-1.843672 -0.16593,-0.07127 -0.34688,0.10114 -0.52253,0.143105 -0.96574,0.230744 -0.74873,0.173255 -1.77073,0.274783 0.87095,0.689621 1.72428,1.40211 2.61287,2.068862 0.0538,0.04039 -0.13846,-0.128317 -0.0939,-0.178718 0.18902,-0.213672 0.45174,-0.35029 0.69447,-0.500189 1.35958,-0.839613 2.83251,-1.495235 4.33313,-2.034683 0.53793,-0.161462 1.06691,-0.356447 1.61378,-0.484386 0.42986,-0.100566 1.52006,0.188426 1.30928,-0.199462 -0.53534,-0.985149 -1.65621,-1.524471 -2.58632,-2.150575 -0.0974,-0.06555 -0.0174,0.265374 -0.11297,0.333539 -0.94688,0.675381 -2.91525,1.216829 -3.80083,1.521153 -4.25412,1.160013 -8.51957,2.280819 -12.86751,3.043647 -1.3626,0.239062 -2.73233,0.447321 -4.10906,0.583116 -0.69738,0.06879 -2.33532,-0.631283 -2.10208,0.02952 0.39742,1.125959 1.91291,1.429565 2.86937,2.144348 1.05681,-0.808622 2.56115,-1.479066 3.84042,-1.811785 0.31806,-0.08272 0.64541,-0.124346 0.96811,-0.18652 1.72267,0.118369 1.61601,0.226782 -2.29791,-2.091653 -0.0974,-0.05772 -0.12819,0.193653 -0.22182,0.25737 -0.2057,0.13997 -0.4343,0.244592 -0.66227,0.344237 -0.24635,0.107674 -0.93261,0.07225 -0.75769,0.27642 0.77869,0.908934 1.9049,1.449626 2.85735,2.174439 -0.006,-0.07139 -0.0535,-0.151842 -0.0182,-0.214186 0.1778,-0.313875 1.13963,-1.325441 1.27848,-1.474324 0.99279,-1.064512 2.00329,-2.114775 3.08802,-3.086923 0.33098,-0.270843 0.65335,-0.552556 0.99293,-0.812535 0.23597,-0.180661 0.92393,-0.281123 0.73242,-0.508387 -0.81375,-0.965724 -1.99228,-1.55784 -3.05213,-2.244521 -0.065,-0.04211 -0.0225,0.160544 -0.0705,0.221387 -0.33677,0.427641 -1.08884,1.029809 -1.44984,1.341009 -0.34082,0.280932 -0.68154,0.561989 -1.02246,0.842801 -0.31741,0.261454 -1.13701,0.416465 -0.95254,0.783998 1.93067,3.846594 2.46874,2.933139 4.52997,1.607883 1.23307,-0.781028 2.4587,-1.600414 3.74927,-2.285261 0.32785,-0.173969 1.21322,-0.164037 1.00787,-0.473197 -0.65161,-0.981046 -1.77728,-1.561129 -2.77486,-2.187136 -0.12812,-0.08039 0.008,0.302392 0.0123,0.453589 -0.28291,0.423523 -0.535,0.869346 -0.84873,1.270571 -1.23484,1.5792 -3.1901,3.643395 -4.50354,5.017826 -3.3195,3.473651 -6.74318,6.849178 -10.30004,10.080066 -0.41624,0.369184 -2.66105,2.277303 -3.394,3.118522 -0.0487,0.05593 -0.34112,0.502849 -0.35621,0.695447 -0.001,0.01225 0.13198,-0.10083 0.009,-0.03577 -0.13724,0.02469 -0.22119,0.04555 -0.37015,0.04002 -0.0886,-0.0033 -0.337118,-0.08209 -0.263931,-0.0321 1.014211,0.692655 2.102751,1.272992 3.109961,1.975792 0.0538,0.03754 -0.18631,0.130111 -0.18592,0.06452 5.3e-4,-0.09364 0.12453,-0.13988 0.18678,-0.20982 1.77661,-1.146207 3.71015,-2.128914 5.06567,-3.802893 0.0591,-0.101796 0.94501,-1.358763 0.57978,-1.677186 -1.082,-0.943338 -2.37258,-1.631021 -3.65133,-2.283264 -0.27215,-0.138814 -0.61181,-0.08051 -0.91536,-0.04604 -1.14421,0.129926 -2.10929,0.573384 -3.18546,0.967465 -1.988279,0.861203 -2.32372,0.971015 -4.275845,1.962285 -0.639789,0.324881 -1.278824,0.652915 -1.898518,1.014656 -0.691462,0.403635 -1.369694,0.80614 -1.813988,1.481679 z" /><path
       style="fill:#000000;fill-opacity:1;stroke:#000000;stroke-width:0.683001;stroke-dasharray:none;stroke-opacity:1;paint-order:stroke fill markers"
       id="path47"
       d="m 84.492912,56.690204 c -2.04581,0.09476 -4.09161,0.154696 -6.13432,0.312634 -1.55719,0.02212 -3.01656,0.448897 -4.41726,1.093991 -0.0772,0.02487 -0.2993,0.02976 -0.23168,0.07459 1.11596,0.739953 2.21671,1.535605 3.44924,2.058848 0.21814,0.09261 0.41558,-0.228976 0.63162,-0.326398 1.28291,-0.578522 2.61658,-0.953228 3.96848,-1.329825 0.55328,-0.139952 1.46126,-0.413729 2.08029,-0.433057 0.13757,-0.0043 0.2691,0.05806 0.40364,0.0871 -1.14798,-0.67029 -2.21565,-1.502529 -3.44396,-2.010868 -0.23046,-0.09538 -0.45159,0.212998 -0.68447,0.302311 -0.37979,0.145655 -0.7681,0.268038 -1.15215,0.402055 -2.61648,0.863277 -5.3328,1.361954 -7.98255,2.101795 -0.12499,0.07274 -0.48544,0.124862 -0.37499,0.218225 1.08255,0.915104 2.2726,1.705301 3.49649,2.42044 0.21815,0.127471 0.50365,0.04126 0.7553,0.06395 0.90672,0.08173 1.8059,0.170606 2.71567,0.209878 1.02945,-0.06053 2.06788,-0.288433 3.0392,-0.639313 0.80858,-0.267526 1.61271,-0.54505 2.41777,-0.824603 2.21783,-0.75156 1.73761,-0.560882 -2.27322,-2.757763 -0.18563,-0.101674 -0.41771,0.0692 -0.62768,0.09579 -0.33878,0.04291 -0.67884,0.07511 -1.01826,0.11267 -2.17543,0.260673 -4.36743,0.348205 -6.53673,0.660572 -1.32274,0.213029 -2.62978,0.514413 -3.94385,0.777885 0,0 3.03698,2.118765 3.03698,2.118765 v 0 c 1.31771,-0.24725 2.63709,-0.477827 3.94805,-0.760299 2.11828,-0.378087 4.26091,-0.610724 6.41103,-0.702791 0.37839,-0.0013 0.75722,-0.02281 1.13515,-0.0044 0.23436,0.01143 0.87115,0.251709 0.69764,0.09376 -0.91483,-0.832774 -1.99863,-1.458495 -2.99795,-2.187739 -0.0344,0.03276 -0.0612,0.07598 -0.10313,0.09828 -0.13154,0.06997 -0.74835,0.297389 -0.85055,0.336053 -0.83546,0.264766 -1.68923,0.471411 -2.5113,0.776264 -0.89549,0.33679 -1.83503,0.60094 -2.79586,0.628882 -0.89698,-0.03261 -1.81095,-0.06963 -2.69146,-0.262744 -0.27391,-0.06007 -1.01286,-0.431353 -0.80554,-0.242522 2.63845,2.403191 2.14627,2.970625 2.9261,1.839039 2.52206,-1.003271 5.22588,-1.469652 7.83481,-2.187927 0.43256,-0.109 0.86704,-0.210637 1.29768,-0.326998 0.30792,-0.0832 1.11376,-0.02008 0.91756,-0.271574 -2.45113,-3.14175 -2.62354,-2.459831 -5.16364,-1.678175 -2.06753,0.61273 -0.72868,0.221239 -2.88433,0.837752 -0.43683,0.124937 -0.87328,0.251199 -1.31009,0.376233 -0.28227,0.0808 -1.04449,0.02384 -0.84715,0.241271 2.49716,2.751388 2.09481,2.951524 3.27767,2.122379 1.25448,-0.716135 2.64657,-1.045679 4.08359,-1.148155 2.13677,-0.187978 4.27926,-0.221202 6.42047,-0.06875 z" /><path
       style="fill:#000000;fill-opacity:1;stroke:#000000;stroke-width:0.683001;stroke-dasharray:none;stroke-opacity:1;paint-order:stroke fill markers"
       id="path48"
       d="m 41.385619,52.661872 c 1.825588,-1.314077 3.287617,-3.046724 4.641324,-4.824058 0.229698,-0.338478 0.728776,-1.005258 0.885444,-1.445334 0.475802,-1.336505 -3.293338,-1.920785 -3.819486,-2.027605 -0.352517,-0.07157 -0.537509,0.47825 -0.801155,0.722961 -0.35723,0.33157 -0.707557,0.670499 -1.061337,1.00575 -1.077235,1.013851 -2.131441,2.051669 -3.193206,3.081602 -0.231253,0.224319 -0.479184,0.432639 -0.693742,0.672975 -0.115092,0.128921 -0.4254,0.321512 -0.290447,0.429467 1.095095,0.875996 2.388817,1.469681 3.583223,2.204521 1.636969,-0.677193 3.428323,-0.989946 5.009833,-1.799883 0.671451,-1.585386 0.226655,-0.252217 -3.498297,-2.353416 0,0 3.115093,2.33572 3.115093,2.33572 v 0 c -3.139303,-2.003716 -4.153461,-1.400881 -2.872124,-2.068385 -0.467331,0.420931 -1.067657,0.638781 -1.653677,0.849678 -1.015291,0.365381 -2.064478,0.712917 -3.156117,0.697473 0.935971,0.668777 1.801217,1.449676 2.807917,2.006333 0.122933,0.06798 1.51e-4,-0.293085 0.06847,-0.415827 0.150469,-0.270323 0.369467,-0.496936 0.570495,-0.732102 0.95154,-1.113153 2.013839,-2.131746 3.121366,-3.087328 0.39275,-0.300739 0.770657,-0.621916 1.178248,-0.902211 0.292285,-0.201001 1.127165,-0.252867 0.917562,-0.539046 -0.692629,-0.945674 -1.890345,-1.386623 -2.835635,-2.079776 -0.07738,-0.05674 0.225539,0.0748 0.231902,0.17054 0.0263,0.395621 -0.526304,1.248376 -0.652793,1.47769 -0.230135,0.335317 -0.442622,0.683456 -0.690399,1.005954 -1.088503,1.416775 -2.468919,2.772553 -4.16947,3.40446 z" /><path
       style="fill:#000000;fill-opacity:1;stroke:#000000;stroke-width:0.683001;stroke-dasharray:none;stroke-opacity:1;paint-order:stroke fill markers"
       id="path49"
       d="m 39.568217,56.097564 c 0.01326,-0.142256 -0.0021,-0.29015 0.03978,-0.426771 0.536964,-1.754589 2.729045,-3.573367 4.108394,-4.705003 0.523582,-0.281453 1.058738,-0.943766 1.714728,-0.978501 0.361794,-0.01916 -0.02371,0.167995 0.377711,0.224232 0.538805,-0.168966 0.550196,-0.161422 1.195993,-0.441418 1.147837,-0.497665 2.269041,-1.055089 3.414522,-1.558152 2.230528,-0.979583 2.508438,-1.057566 4.763402,-1.927392 0.870226,-0.315161 2.732207,-1.036664 3.72717,-1.239049 0.389289,-0.07919 0.796724,-0.156154 1.1884,-0.08978 0.253166,0.04291 0.899525,0.48632 0.65682,0.402484 -3.421258,-1.181793 -2.725274,-2.328526 -3.296478,-0.0488 -0.727964,1.612934 -1.820598,3.000094 -3.004132,4.299521 -0.311071,0.341532 -1.233414,1.411174 -1.842945,1.562479 -0.180377,0.04477 -0.349964,-0.12526 -0.524944,-0.187892 0.978914,0.422175 1.87207,1.211916 2.93674,1.266521 0.376862,0.01931 -0.151548,-0.74594 -0.141708,-1.123167 0.01304,-0.499491 0.08988,-0.999162 0.209727,-1.484236 0.277763,-1.124235 0.752158,-2.145551 1.379866,-3.115159 0.291658,-0.450522 0.652986,-0.851908 0.97948,-1.277863 0.816512,-0.916892 1.754883,-1.7199 2.769118,-2.410389 0.205679,-0.140025 0.410684,-0.285853 0.637209,-0.388797 0.137658,-0.06256 0.569897,-0.0209 0.442074,-0.101677 -1.007224,-0.636481 -2.120963,-1.086254 -3.181442,-1.629381 0.04411,0.102643 0.125629,0.196409 0.132326,0.307928 0.03779,0.629407 -0.245179,1.556231 -0.46631,2.141389 -0.184954,0.489426 -0.141142,0.510022 -0.248618,0.292497 1.161563,0.530175 2.241423,1.299647 3.484686,1.590524 0.245277,0.05739 0.128125,-0.487563 0.206902,-0.726829 0.370197,-1.124394 0.90012,-2.155071 1.528429,-3.153735 0.175752,-0.201404 0.468979,-0.591844 0.738174,-0.725051 0.08402,-0.04158 0.186127,-0.0226 0.279189,-0.03391 -1.049637,-0.539591 -2.067039,-1.147128 -3.14891,-1.618776 -0.148013,-0.06453 0.235649,0.231227 0.302885,0.378031 0.108749,0.23744 0.143518,0.502214 0.215275,0.753319 0.232185,1.420773 -0.03084,2.819829 -0.342185,4.202475 0,0 3.184847,1.704409 3.184847,1.704409 v 0 c 0.26057,-1.416513 0.548347,-2.840376 0.484717,-4.289648 -0.02671,-0.26584 -0.03616,-0.533984 -0.08012,-0.797522 -0.03144,-0.188474 0.01468,-0.450202 -0.145428,-0.554482 -3.141824,-2.046227 -3.263588,-2.922128 -4.700442,-0.875835 -0.570003,1.047552 -1.050952,2.126824 -1.557721,3.205152 -0.109636,0.233288 -0.521798,0.506315 -0.343742,0.692698 0.928722,0.97215 2.177492,1.577633 3.266237,2.366452 0.163634,-1.173409 0.752242,-2.262654 0.845314,-3.450794 -1.211283,-0.636445 -2.370129,-1.384663 -3.633848,-1.909334 -0.142682,-0.05924 -0.274183,0.144563 -0.399648,0.234704 -1.195938,0.859211 -2.202701,1.983002 -3.176283,3.073186 -0.321133,0.446529 -0.669687,0.874564 -0.963401,1.33959 -0.894056,1.415521 -1.598956,2.992136 -1.876004,4.652984 -0.06492,0.389168 -0.34639,0.891667 -0.0782,1.181055 0.982792,1.06049 2.347145,1.689076 3.520718,2.533613 0.17817,-0.04245 0.38028,-0.02856 0.534514,-0.127352 0.491344,-0.314711 1.344001,-1.428795 1.632206,-1.780077 1.138981,-1.38825 2.285733,-2.779054 3.223009,-4.316124 0.181798,-0.412086 0.799658,-0.864481 0.545399,-1.23626 -0.799087,-1.168424 -2.115437,-1.887784 -3.255635,-2.726653 -0.177731,-0.13076 -0.425947,-0.158599 -0.646112,-0.143952 -0.361241,0.02402 -0.712058,0.141819 -1.055235,0.257148 -0.542944,0.182465 -3.133029,1.290683 -3.46619,1.431399 -2.10407,0.847193 -2.670461,1.096946 -4.838158,1.878653 -1.254445,0.452374 -3.345217,1.273931 -4.738362,1.379251 -0.128942,0.0097 -0.255841,-0.0378 -0.383762,-0.0567 -0.04593,-0.02604 -0.08532,-0.07234 -0.1378,-0.07808 -0.415444,-0.04539 -1.568641,1.220478 -1.817643,1.40023 -0.826513,0.761789 -1.226002,1.120424 -2.052629,1.925154 -0.878681,0.855408 -1.847099,1.725848 -2.449661,2.813679 -0.07939,0.143315 -0.115401,0.306671 -0.173101,0.460008 z" /><path
       style="fill:#000000;fill-opacity:1;stroke:#000000;stroke-width:0.683001;stroke-dasharray:none;stroke-opacity:1;paint-order:stroke fill markers"
       id="path50"
       d="m 64.07645,43.302533 c 0.51853,-1.150823 1.427551,-2.129321 2.452727,-2.851716 0.05491,0.02093 0.216387,0.09086 0.164735,0.06282 -1.148911,-0.623633 -2.224307,-1.417478 -3.457821,-1.850326 -0.20373,-0.07149 -0.271775,0.336957 -0.426877,0.487159 -0.773345,0.748921 -1.678828,1.358495 -2.547016,1.988531 -1.93388,1.405192 -2.782507,0.957355 1.949537,3.208504 0.243004,0.115602 0.464283,-0.272457 0.701212,-0.400052 0.717402,-0.38635 1.445421,-0.75269 2.165009,-1.134957 1.023972,-0.499541 1.96918,-1.148151 2.994099,-1.645473 0.208732,-0.101282 0.414276,-0.224837 0.64213,-0.268541 0.137065,-0.0263 0.535488,0.133765 0.413438,0.06608 -1.022244,-0.566875 -2.08893,-1.04961 -3.133397,-1.574414 -0.01341,0.262319 0.01868,0.530987 -0.04023,0.786959 -0.183248,0.796234 -0.693118,1.85838 -1.057622,2.563338 -0.548923,1.06163 -1.193183,2.037215 -1.902997,2.994462 -0.138647,0.110487 -0.242152,0.296439 -0.415946,0.331465 -0.08972,0.01807 -0.256669,-0.251373 -0.173749,-0.212622 1.093557,0.511048 2.152324,1.093454 3.228488,1.640181 0,0 -3.47028,-1.681533 -3.47028,-1.681533 v 0 c 1.126257,0.793536 2.201637,1.664711 3.378774,2.380605 0.09105,0.05537 0.204756,-0.07964 0.279014,-0.15607 0.130439,-0.134255 0.213717,-0.307375 0.320577,-0.461063 0.59862,-1.035222 1.175842,-2.081366 1.740315,-3.135691 0.246872,-0.461108 1.075145,-2.012098 1.300358,-2.531478 0.133356,-0.307541 0.222952,-0.632256 0.334428,-0.948385 -1.169855,-0.744937 -2.288939,-1.576359 -3.509565,-2.234814 -0.154657,-0.08343 -0.768874,0.318172 -0.993738,0.458195 -0.940194,0.58547 -1.850131,1.223163 -2.849586,1.709152 -0.650439,0.300607 -1.605714,0.785181 -2.324595,0.962473 -0.228412,0.05633 -0.872583,-0.115605 -0.704096,0.04859 2.972154,2.896301 2.076505,2.852055 3.428293,1.727332 0.237435,-0.197551 0.484286,-0.383503 0.726427,-0.575257 0.885285,-0.667091 1.803466,-1.285446 2.692453,-1.946751 0.210889,-0.156877 0.794626,-0.293224 0.618855,-0.488646 -2.666328,-2.964412 -2.298062,-3.264394 -3.294673,-2.183598 -0.927222,0.928145 -1.877116,1.8528 -2.645656,2.919968 z" /><path
       style="fill:#000000;fill-opacity:1;stroke:#000000;stroke-width:0.683001;stroke-dasharray:none;stroke-opacity:1;paint-order:stroke fill markers"
       id="path51"
       d="m 66.121493,37.808262 c 0.56805,1.256252 0.962467,2.624905 0.91349,4.016801 -0.01064,0.302051 -0.06982,0.600429 -0.104727,0.900644 -0.153027,0.738534 -0.485212,1.403199 -0.927187,2.009286 -0.09706,0.133106 -0.195427,0.268573 -0.319143,0.377351 -0.06382,0.05611 -0.305062,0.06424 -0.231503,0.106799 1.092195,0.63186 2.250639,1.141558 3.375956,1.712336 -0.0021,-0.111109 -0.02725,-0.224123 -0.0067,-0.33333 0.08254,-0.437814 0.405331,-1.322785 0.548735,-1.695498 0.346491,-0.900554 0.748461,-1.772081 1.182542,-2.632826 0.106082,-0.159332 0.173998,-0.352168 0.318246,-0.477996 0.05355,-0.04671 0.141777,0.0099 0.212667,0.0149 -1.077889,-0.510662 -2.076511,-1.242836 -3.233669,-1.531983 -0.259217,-0.06477 0.161452,0.511345 0.204454,0.775047 0.140812,0.86347 0.105172,1.456999 0.106929,2.33436 -0.01939,0.37973 -0.03109,0.759934 -0.0582,1.139193 -0.03875,0.541951 -0.100116,1.036111 -0.169966,1.56931 -0.01206,0.09219 -0.121393,0.231979 -0.03956,0.27613 3.744436,2.020313 3.163495,2.826459 3.8741,0.883695 0.380886,-1.027745 0.788705,-2.044981 1.222746,-3.051384 0.118192,-0.274048 0.219188,-0.556739 0.360989,-0.819351 0.0819,-0.151689 0.134337,-0.405914 0.306393,-0.416632 0.133988,-0.0084 0.06241,0.261139 0.09362,0.39171 -3.682293,-1.612008 -3.111772,-2.304822 -2.695496,-0.126095 0.08277,0.433219 0.126937,0.87293 0.190405,1.309392 0,0 3.137572,1.549561 3.137572,1.549561 v 0 c -0.04592,-0.433695 -0.09315,-0.867254 -0.13775,-1.301086 -0.03942,-0.383447 0.145598,-0.866063 -0.114295,-1.150739 -0.984281,-1.078143 -2.284311,-1.818444 -3.426465,-2.727666 -0.113038,0.05477 -0.260858,0.06606 -0.339114,0.164311 -0.117186,0.147135 -0.143396,0.347874 -0.209179,0.524095 -0.105087,0.281506 -0.198102,0.567425 -0.303356,0.848868 -0.37937,1.014391 -0.792154,2.018723 -1.314158,2.969495 -1.071851,1.634908 -0.68861,0.62034 2.850057,2.666643 0.08691,0.05026 -0.108882,-0.175212 -0.124021,-0.274458 -0.05023,-0.329271 -0.0029,-1.419653 0.0046,-1.654921 0.01217,-0.38632 0.02706,-0.772554 0.04058,-1.15883 0.03286,-0.943035 0.05609,-1.385035 0.05934,-2.312146 0.0011,-0.268933 0.194733,-0.632759 -0.01035,-0.806735 -1.079326,-0.915628 -3.04655,-3.186835 -3.763389,-1.966405 -0.101798,0.17331 -0.165129,0.366509 -0.247692,0.549762 -0.678907,1.637546 -1.394415,3.258391 -2.126681,4.872289 1.174819,0.653745 2.303388,1.398584 3.524456,1.961234 0.09679,0.0446 0.148326,-0.153926 0.211463,-0.239778 0.575953,-0.783143 0.981335,-1.691916 1.199671,-2.636208 0.03676,-0.319093 0.09576,-0.636405 0.110292,-0.957281 0.06123,-1.352135 -0.250023,-2.679806 -0.584089,-3.978717 z" /><path
       style="fill:#000000;fill-opacity:1;stroke:#000000;stroke-width:0.683001;stroke-dasharray:none;stroke-opacity:1;paint-order:stroke fill markers"
       id="path52"
       d="m 70.799562,40.266821 c 1.126112,1.816171 1.885627,3.82724 2.566575,5.843645 0.574019,1.681922 0.408265,2.054307 3.842176,1.900145 0.400881,-0.01799 -0.07932,-0.798642 -0.121079,-1.197747 -0.246147,-2.352874 -0.07763,-0.583311 -0.289277,-2.9184 -0.0063,-0.08478 -0.150624,-1.960525 -0.153709,-2.19303 -0.0021,-0.15526 0.176284,-0.384929 0.04257,-0.46387 -1.089462,-0.6432 -2.25135,-1.18866 -3.462293,-1.555073 -0.215365,-0.06517 0.228598,0.390128 0.308052,0.600644 0.131016,0.347125 0.21395,0.710541 0.320926,1.06581 0.305062,1.173605 0.574011,2.356117 0.820862,3.543205 0.05782,0.278045 0.112525,0.556731 0.16809,0.835237 0.03233,0.162028 -0.03695,0.387717 0.09559,0.486365 1.051063,0.782264 2.227146,1.380765 3.340719,2.071147 0.04304,-0.283667 0.135549,-0.564163 0.129106,-0.851005 -0.0069,-0.308058 -0.112212,-0.60597 -0.168637,-0.908897 -0.22515,-1.208707 -0.501124,-2.413619 -0.650883,-3.634208 0.895069,-0.847688 0.819332,-0.7278 -3.103161,-1.401599 -0.372308,-0.06395 0.470991,0.590963 0.695556,0.894728 0.912974,1.234978 1.75701,2.517119 2.591371,3.805622 1.462114,2.333574 1.425147,2.695564 4.944848,3.589239 0.21141,0.05368 -0.03418,-0.434898 -0.05126,-0.652346 0,0 -3.421605,-1.677384 -3.421605,-1.677384 v 0 c 0.475134,1.545423 0.02103,0.337873 3.433027,2.220952 0.154615,0.08533 -0.316904,-0.168291 -0.440351,-0.294576 -0.312579,-0.31976 -1.121029,-1.522495 -1.318652,-1.806795 -0.36083,-0.542073 -1.351719,-2.026563 -1.695595,-2.560145 -0.25209,-0.39116 -0.503603,-0.782887 -0.742675,-1.182138 -0.166349,-0.277804 -0.204621,-0.667477 -0.473191,-0.84836 -3.879943,-2.613167 -3.79154,-3.421676 -3.794178,-1.729324 0.214236,0.870156 0.451207,1.73337 0.598231,2.618713 0.05692,0.342776 0.102412,0.687597 0.137821,1.033256 0.02766,0.269955 -0.01077,0.548299 0.05126,0.812486 0.01487,0.06334 0.109485,0.0703 0.164225,0.105457 1.07025,0.671338 2.081088,1.448332 3.210748,2.014016 0.169087,0.08467 -0.16569,-0.341021 -0.227024,-0.519898 -0.489682,-1.42817 -0.733448,-2.937375 -1.055504,-4.407069 -0.05675,-0.337892 -0.124709,-0.67409 -0.170249,-1.013674 -0.256408,-1.911938 0.724302,-0.917425 -3.636836,-2.359229 -0.180252,-0.05959 0.07859,0.371567 0.110662,0.558686 0.162835,0.949939 0.189045,1.257586 0.316434,2.265627 0.09594,1.068176 0.182819,1.774412 0.187367,2.844782 0.0016,0.351136 -0.302535,0.811125 -0.04737,1.052351 0.981983,0.928346 2.310831,1.40309 3.436126,2.151311 0.286601,0.190563 -2.33684,-0.778074 -0.675273,-0.7811 -0.747805,-1.915732 -1.483172,-3.837745 -2.21063,-5.760696 z" /><path
       style="fill:#000000;fill-opacity:1;stroke:#000000;stroke-width:0.683001;stroke-dasharray:none;stroke-opacity:1;paint-order:stroke fill markers"
       id="path53"
       d="m 77.047086,43.406636 c 1.02343,1.028391 1.943439,2.148488 2.888599,3.246594 1.16849,0.669962 2.241201,1.545301 3.50547,2.009891 0.213937,0.07862 0.185481,-0.443359 0.146413,-0.667911 -0.06561,-0.377082 -0.954172,-1.59507 -1.087488,-1.776315 -0.250402,-0.340426 -1.347838,-1.719289 -1.628346,-2.073219 -0.221443,-0.272616 -0.43964,-0.547902 -0.664327,-0.817851 -0.170235,-0.204523 -0.345482,-0.404834 -0.520327,-0.60543 -0.09342,-0.107175 -0.158332,-0.252164 -0.284427,-0.317839 -0.991039,-0.516165 -4.656518,-3.124626 -3.174992,-0.891379 0.210146,0.31677 0.494353,0.57761 0.741532,0.866413 0.794912,0.896964 1.592191,1.791721 2.404369,2.673117 0.175991,0.190987 0.348885,0.384961 0.530215,0.570886 0.08217,0.08426 0.15258,0.190537 0.259773,0.239131 1.174059,0.532204 2.377588,0.996849 3.566382,1.495274 -0.104576,-0.244451 -0.1763,-0.505743 -0.313724,-0.733351 -0.196287,-0.325091 -0.449244,-0.612476 -0.680662,-0.913569 -0.83901,-1.091608 -0.723638,-0.898917 -1.549987,-1.937801 -0.443442,-0.557493 -0.357196,-0.339132 -0.467823,-0.68095 -5.837651,-2.718956 -3.418401,-1.424681 -2.058075,-0.390893 0.623964,0.474187 1.240999,0.955321 1.873001,1.418884 1.333831,0.935133 2.735636,1.97671 4.230211,2.542246 0.203364,0.07695 0.162756,-0.437742 0.09713,-0.645038 -0.05156,-0.162875 -0.26898,-0.210722 -0.401994,-0.317929 -0.141854,-0.114329 -0.281718,-0.231103 -0.422577,-0.346654 -1.52137,-1.236967 -1.23357,-1.070547 -4.254442,-1.987823 -0.253516,-0.07698 0.436563,0.30085 0.645623,0.463609 0.307176,0.239143 0.601525,0.494323 0.90229,0.741484 0.918874,0.762275 1.763231,1.604206 2.594711,2.458614 0,0 3.315213,1.376307 3.315213,1.376307 v 0 c -0.84474,-0.849244 -1.700713,-1.686573 -2.591927,-2.487528 -0.252873,-0.234344 -0.503444,-0.471199 -0.758621,-0.70303 -0.15598,-0.141708 -0.2838,-0.32835 -0.474755,-0.417499 -6.41708,-2.99584 -4.310372,-2.028764 -2.898881,-0.864817 0.133053,0.112234 0.267393,0.222959 0.399161,0.336701 0.106709,0.09211 0.175993,0.295338 0.316211,0.280823 0.187328,-0.01939 0.262591,-0.431077 0.436475,-0.358743 1.154518,0.48028 2.157302,1.265116 3.241178,1.888646 0.313015,0.180073 -1.404289,-0.864666 -0.908346,-0.59038 -0.655381,-0.454774 -1.286889,-0.931961 -1.915864,-1.422617 -0.20932,-0.163285 -0.421426,-0.323078 -0.627573,-0.490347 -0.157197,-0.127551 -0.279252,-0.307301 -0.462219,-0.39392 -1.266328,-0.599496 -2.576005,-1.102781 -3.864004,-1.654172 0.521755,0.598183 1.068453,1.15271 1.566264,1.775547 1.237554,1.548371 0.271894,0.38635 1.286179,1.787618 0.09224,0.127433 0.202237,0.241019 0.303358,0.361526 1.151573,0.603774 2.303145,1.207545 3.454718,1.811319 -0.143717,-0.07553 -0.303559,-0.126201 -0.431155,-0.226597 -0.226689,-0.178371 -0.417597,-0.398105 -0.621752,-0.601885 -0.845068,-0.84351 -1.647423,-1.727663 -2.408954,-2.647413 -0.201385,-0.25741 -0.381201,-0.533257 -0.604153,-0.772228 -0.103304,-0.110726 -0.233486,-0.196112 -0.366612,-0.268288 -1.135425,-0.615598 -2.270786,-1.233548 -3.434982,-1.792835 -0.163039,-0.07832 0.287848,0.220155 0.4195,0.344183 0.501795,0.47275 0.891,0.945007 1.349346,1.466676 0.465134,0.574143 1.166026,1.420032 1.592826,2.024028 0.206115,0.29169 0.399581,0.592804 0.578289,0.902046 0.111382,0.192741 0.136062,0.441008 0.290496,0.601337 0.05937,0.06164 0.169498,-0.02387 0.254247,-0.0358 1.021947,0.617879 2.043898,1.235758 3.065848,1.853639 -0.99369,-0.982713 -1.847559,-2.099294 -2.757334,-3.15844 z" /><path
       style="fill:#000000;fill-opacity:1;stroke:#000000;stroke-width:0.683001;stroke-dasharray:none;stroke-opacity:1;paint-order:stroke fill markers"
       id="path54"
       d="m 89.340694,48.455778 c -0.973127,-1.234427 -2.396691,-1.999935 -3.741187,-2.75876 -4.183237,-2.360999 -3.207925,-1.8361 -5.993744,-3.278696 -1.127786,-0.563747 -2.247024,-1.145749 -3.383499,-1.692084 -0.191649,-0.09213 -0.366631,-0.259718 -0.579131,-0.267512 -0.125725,-0.0046 -0.318167,0.111799 -0.294981,0.235455 0.06101,0.325371 0.333354,0.572045 0.500031,0.858067 1.443992,1.232869 3.016689,2.29988 4.585813,3.363659 0.497743,0.337439 2.070799,1.360802 2.611189,1.819264 0.228653,0.19399 0.410689,0.437028 0.616032,0.655543 0.05624,0.172566 0.163708,0.336266 0.168722,0.517696 0.01387,0.501719 -0.956587,1.220013 -1.382561,1.331627 -0.106667,0.02795 -0.219594,-0.02037 -0.329388,-0.03057 7.279574,3.778536 3.109796,2.557036 3.051019,1.287288 -0.02233,-0.482389 0.240109,-1.03782 0.570468,-1.376008 0.101616,-0.104026 0.232209,-0.175123 0.348313,-0.262681 0.680995,-0.174416 1.427703,-0.136414 2.105134,0.05146 0.148534,0.04119 0.567134,0.23704 0.434255,0.158919 -0.977032,-0.574426 -1.98156,-1.100754 -2.97234,-1.651132 0.07539,0.08428 0.175594,0.151704 0.226171,0.252841 0.381292,0.762434 -0.723712,2.320724 -1.098391,2.960741 -0.320574,0.632065 -0.779759,1.202608 -1.035716,1.868545 -0.122206,0.317947 -0.136055,0.500354 -0.197544,0.843704 -0.123642,0.713192 -0.06164,0.352329 -0.185938,1.082603 0,0 3.344743,1.77845 3.344743,1.77845 v 0 c 0.130553,-0.714767 0.05885,-0.362982 0.214133,-1.05555 0.222813,-0.952849 0.564922,-1.818624 1.066972,-2.666606 0.421465,-0.741997 1.247402,-1.923679 1.409372,-2.733302 0.08535,-0.426622 -0.01892,-0.558265 -0.157906,-0.935119 -1.829467,-1.045853 -2.781242,-2.123258 -4.61839,-2.244453 -0.347324,-0.02291 -0.904658,-0.03124 -1.245412,0.05141 -0.18478,0.04482 -0.352047,0.14378 -0.528069,0.21567 -0.126926,0.118293 -0.268509,0.222594 -0.380777,0.35488 -0.37687,0.444074 -0.617051,1.023366 -0.717701,1.593115 -0.03314,0.187587 -0.203198,0.454647 -0.051,0.569193 1.103,0.830106 2.385401,1.390184 3.578103,2.085276 0.121298,-0.04244 0.249397,-0.06897 0.363892,-0.127317 0.592754,-0.302099 1.581574,-1.064387 1.581825,-1.801432 8.7e-5,-0.252523 -0.146166,-0.483436 -0.21925,-0.725157 -0.251648,-0.261146 -0.475988,-0.551688 -0.754941,-0.783439 -0.392104,-0.325757 -0.827476,-0.595834 -1.249471,-0.881808 -1.948918,-1.320726 -3.99235,-2.529208 -5.722265,-4.14464 -0.187378,-0.0721 -0.3674,-0.167428 -0.562131,-0.216297 -0.03796,-0.0095 -0.139472,0.02656 -0.106987,0.04838 0.140068,0.09411 0.313476,0.125275 0.467625,0.193935 1.060841,0.472506 2.097754,0.998069 3.139463,1.510421 0.505487,0.260639 0.950199,0.8348 1.516462,0.781921 0.500198,-0.04671 -1.776613,-0.8181 -1.274423,-0.804524 0.533614,0.01442 0.929407,0.525962 1.382961,0.807458 0.705998,0.438166 1.422992,0.890016 1.902783,1.585463 z" /><path
       style="fill:#000000;fill-opacity:1;stroke:#000000;stroke-width:0.683001;stroke-dasharray:none;stroke-opacity:1;paint-order:stroke fill markers"
       id="path55"
       d="m 86.497754,56.262206 c -0.113702,-1.427718 -0.17314,-2.861085 -0.183068,-4.293412 0.18927,-1.446221 0.205153,-0.9978 -3.475064,-1.769208 -0.268337,-0.05625 0.05437,0.545856 0.06813,0.819682 0.06687,1.33078 0.02212,2.661607 -0.01558,3.992297 -0.01945,0.415431 -0.03569,0.83102 -0.05832,1.246288 -0.02852,0.523452 -0.07536,1.241801 -0.130688,1.781575 -0.01384,0.135054 -0.164547,0.325183 -0.0538,0.403714 3.499728,2.481779 3.075789,3.186073 3.602511,1.34933 0.20665,-1.491175 0.320342,-2.994376 0.525931,-4.485494 -1.152287,-0.656942 -2.217243,-1.498918 -3.456855,-1.97082 -0.190654,-0.07258 -0.155038,0.377745 -0.219282,0.571367 -0.312597,0.942155 -0.567547,1.90463 -0.880499,2.847578 -0.06771,0.200171 -0.134284,0.40073 -0.203136,0.600512 -0.09796,0.284242 -0.173697,0.578189 -0.303705,0.849273 -0.02265,0.04721 -0.14551,0.09461 -0.100245,0.120935 3.529359,2.052532 2.880217,2.999047 3.672329,1.504022 0.403323,-0.65581 0.191519,-0.330351 0.636323,-0.975784 0,0 -3.252158,-1.915162 -3.252158,-1.915162 v 0 c -0.45412,0.641503 -0.220398,0.329168 -0.700479,0.937522 -1.129326,1.264134 -0.540901,0.404011 3.061176,2.389005 0.06487,0.03575 0.04308,-0.141796 0.06141,-0.213564 0.128293,-0.502357 0.236045,-1.010335 0.393329,-1.505125 0.21839,-0.724389 0.422011,-1.452591 0.70014,-2.157232 0.07923,-0.200732 0.16097,-0.400902 0.256212,-0.594548 0.0366,-0.07442 0.205558,-0.15888 0.138018,-0.207005 -1.041083,-0.741817 -2.173989,-1.345499 -3.260985,-2.018247 0.150551,0.622456 0.07979,1.241433 0.01712,1.875679 -0.08344,0.844338 -0.193323,1.69246 -0.445135,2.50561 -0.525772,1.383257 -0.276461,0.521456 3.182263,2.225542 0.135649,0.06683 -0.06436,-0.296452 -0.07625,-0.447201 -0.02413,-0.305983 -0.0311,-1.657469 -0.03065,-1.86395 0.0011,-0.422942 0.0089,-0.845839 0.01331,-1.268759 0.04137,-1.299107 0.08497,-2.593692 0.230064,-3.886367 0.0264,-0.23527 0.283204,-0.555 0.0987,-0.703355 -1.039135,-0.835546 -2.277372,-1.392211 -3.463184,-2.001959 -0.08233,-0.04233 0.05627,0.17639 0.0844,0.264586 0.153696,1.398868 0.250843,2.815532 0.08493,4.218101 z" /><path
       style="fill:#000000;fill-opacity:1;stroke:#000000;stroke-width:0.683001;stroke-dasharray:none;stroke-opacity:1;paint-order:stroke fill markers"
       id="path56"
       d="m 86.088478,62.188028 c 0.174884,-1.893556 0.369816,-3.804203 0.203227,-5.706631 -0.04579,-0.522951 -0.140902,-1.04041 -0.211355,-1.560613 -0.307274,-1.430181 -0.756848,-2.845829 -1.645983,-4.031996 -0.229309,-0.305914 -0.463114,-0.628959 -0.783402,-0.837716 -1.267164,-0.825899 -2.562479,-1.628203 -3.944186,-2.243582 -0.296696,-0.13214 -0.648595,0.03576 -0.972892,0.05364 -0.302474,0.145367 -0.638143,0.235828 -0.90742,0.436107 -1.688412,1.255789 -1.853211,3.651277 -1.97358,5.561306 0.01685,2.351331 0.390578,2.164811 3.693752,3.585676 0.211408,0.09094 0.40141,-0.232241 0.57177,-0.386969 0.537163,-0.487878 0.692664,-0.860631 1.067136,-1.48562 0.545746,-1.389448 1.055923,-3.109211 0.33333,-4.545695 -0.100692,-0.20017 -0.260627,-0.364553 -0.390943,-0.54683 -1.241941,-0.735229 -2.43781,-1.554525 -3.725817,-2.205686 -0.198448,-0.100327 -0.446069,-0.04095 -0.666925,-0.01511 -0.759253,0.08887 -1.475121,0.529357 -2.017276,1.048086 -0.224755,0.215045 -0.410353,0.467603 -0.615529,0.701407 -0.767146,1.074331 -0.401354,0.525505 -1.097433,1.646439 0,0 3.136643,1.824876 3.136643,1.824876 v 0 c 0.676931,-1.084466 0.314777,-0.560363 1.085792,-1.572765 0.203642,-0.207661 0.389432,-0.434478 0.610928,-0.622977 0.5158,-0.43896 1.211299,-0.814944 1.912228,-0.778958 0.200004,0.01027 0.748361,0.251265 0.585505,0.13471 -0.844688,-0.604533 -1.774431,-1.080386 -2.661645,-1.620578 0.155961,0.14986 0.34232,0.273471 0.467886,0.449583 0.899446,1.261509 0.442127,2.982047 -0.102073,4.268594 -0.348975,0.510109 -0.530522,0.91758 -1.082725,1.22877 -0.125916,0.07096 -0.539875,-0.0098 -0.426242,0.07955 5.631082,4.425927 2.908975,2.446589 2.622617,1.313953 -0.07074,-0.279781 -0.06887,-0.573045 -0.103302,-0.859568 -0.0098,-1.790295 0.08252,-4.110376 1.804506,-5.183256 0.251211,-0.15652 0.55549,-0.204573 0.833237,-0.306858 1.313873,0.0933 2.280269,0.297015 -1.324856,-1.31699 -0.359559,-0.160973 0.616815,0.496956 0.874709,0.794758 0.968405,1.118248 1.461577,2.509469 1.784903,3.928361 0.07136,0.507487 0.170757,1.011812 0.214072,1.522455 0.152117,1.793425 -0.03793,3.63997 -0.596294,5.351351 z" /></g></svg>
