<?xml version="1.0" encoding="UTF-8" standalone="no"?>
<!-- Created with Inkscape (http://www.inkscape.org/) -->

<svg
   version="1.1"
   id="svg1"
   width="60"
   height="60"
   viewBox="0 0 60 60"
   sodipodi:docname="caseta.svg"
   inkscape:version="1.3 (0e150ed, 2023-07-21)"
   xmlns:inkscape="http://www.inkscape.org/namespaces/inkscape"
   xmlns:sodipodi="http://sodipodi.sourceforge.net/DTD/sodipodi-0.dtd"
   xmlns="http://www.w3.org/2000/svg"
   xmlns:svg="http://www.w3.org/2000/svg">
  <defs
     id="defs1" />
  <sodipodi:namedview
     id="namedview1"
     pagecolor="#ffffff"
     bordercolor="#000000"
     borderopacity="0.25"
     inkscape:showpageshadow="2"
     inkscape:pageopacity="0.0"
     inkscape:pagecheckerboard="0"
     inkscape:deskcolor="#d1d1d1"
     inkscape:zoom="10.9375"
     inkscape:cx="42.742857"
     inkscape:cy="32"
     inkscape:window-width="2048"
     inkscape:window-height="1029"
     inkscape:window-x="0"
     inkscape:window-y="25"
     inkscape:window-maximized="1"
     inkscape:current-layer="g1" />
  <g
     inkscape:groupmode="layer"
     inkscape:label="Image"
     id="g1">
    <path
       style="fill:#000000;stroke-width:0.115423"
       d="M 1.0914343,57.992711 V 56.523185 H 3.2769206 5.462407 L 7.8686844,42.210007 C 9.1921366,34.337759 10.273962,27.857152 10.272742,27.808658 l -0.0022,-0.08817 H 7.0975027 3.9244848 v 1.763431 1.763431 H 2.9591962 1.9939075 l 0.030382,-2.783038 0.030382,-2.783036 4.2212471,-3.530239 4.2212474,-3.530238 v -2.15119 -2.151191 H 7.2108249 3.9244848 v 1.76343 1.763429 H 2.9612473 1.9980098 V 15.109852 12.374426 L 6.2475873,8.8164292 10.497165,5.2584322 V 4.3431258 3.4278194 l 0.170461,-0.5954838 0.170463,-0.5954839 0.463423,-0.4953934 0.463426,-0.495394 0.527664,-0.25303294 0.527664,-0.25303296 h 4.646205 4.646206 l 0.527664,0.25303296 0.527666,0.25303294 0.463423,0.495394 0.463425,0.4953934 0.170462,0.5954839 0.170462,0.5954838 0.007,0.9485499 0.007,0.9485486 4.242619,3.5215325 4.242619,3.5215336 v 2.738647 2.738643 h -0.963292 -0.963237 v -1.763429 -1.76343 h -3.28634 -3.28634 v 2.155303 2.155303 l 4.221247,3.518787 4.221247,3.518787 0.03128,1.7911 0.03128,1.791098 h -0.96619 -0.966187 v -0.764155 -0.764153 h -3.18563 -3.18563 l 0.07314,0.440858 c 0.04023,0.242472 0.100952,0.586342 0.134937,0.764153 l 0.06179,0.323297 h -2.583808 -2.583808 l 0.730047,-0.764155 0.730046,-0.764153 h -3.735056 -3.735066 l 1.865946,1.938432 1.865947,1.938433 0.555076,-0.557078 0.555078,-0.557079 -0.06167,0.293906 c -0.03392,0.161647 -0.150063,0.875837 -0.258104,1.587087 -0.108047,0.711251 -0.213865,1.314901 -0.235164,1.341446 -0.0213,0.02654 -0.138286,-0.04521 -0.259973,-0.159456 l -0.221249,-0.20772 -0.317726,0.239793 C 17.04286,33.710136 15.862771,34.89796 14.59519,36.21786 l -2.304694,2.399819 2.512712,3.073936 c 1.381992,1.690664 2.557285,3.102513 2.611761,3.137439 l 0.09904,0.0635 0.769493,-0.944195 0.769493,-0.944194 0.198313,-3.52e-4 0.198314,-3.52e-4 v 0.714654 0.714654 l -0.56661,0.675821 c -0.311636,0.3717 -0.56661,0.716871 -0.56661,0.767047 0,0.05018 0.254974,0.407792 0.56661,0.794704 l 0.56661,0.703475 v 0.935122 0.935122 l -0.970256,-1.180526 c -0.53364,-0.649289 -0.989329,-1.180527 -1.01264,-1.180527 -0.02332,0 -1.710953,2.049989 -3.750311,4.55553 -2.039359,2.505541 -3.8108396,4.67456 -3.9366226,4.820043 l -0.2286887,0.264518 h 5.6291953 5.629197 V 49.762905 43.00271 l 17.253284,0.02977 17.253286,0.02976 0.02926,6.730427 0.02926,6.730426 h 1.755561 1.755563 v 1.469526 1.469525 H 29.988561 1.0914343 Z m 31.5035347,-6.8186 v -5.349072 h -2.889712 -2.889714 v 5.349072 5.349074 h 2.889714 2.889712 z m -19.661379,-0.65367 3.626307,-4.462 v -0.167712 -0.167714 l -2.365637,-2.896816 -2.365635,-2.896819 -0.08207,0.09695 c -0.04514,0.05332 -0.554077,2.927256 -1.130983,6.386519 -0.576905,3.459263 -1.1387475,6.805373 -1.2485395,7.435799 -0.1097916,0.630425 -0.168153,1.143432 -0.1296892,1.14001 0.038464,-0.0034 1.7017727,-2.014118 3.6962407,-4.468218 z m 33.713315,-1.16854 V 45.825039 H 43.757193 40.86748 v 3.526862 3.52686 h 2.889713 2.889712 z M 14.493128,34.684654 16.617041,32.478983 15.090889,30.898989 c -0.839383,-0.868996 -1.547358,-1.556112 -1.57328,-1.526924 -0.02592,0.02919 -0.154894,0.714356 -0.286608,1.522595 -0.131713,0.808239 -0.411404,2.487907 -0.621538,3.732596 -0.210132,1.244687 -0.350152,2.263069 -0.311153,2.263069 0.03899,0 1.026667,-0.992552 2.194818,-2.205671 z M 10.497166,23.369231 v -2.352703 l -2.7763907,2.306086 c -1.5270148,1.268346 -2.7763907,2.327062 -2.7763907,2.3527 0,0.02564 1.2493759,0.04662 2.7763907,0.04662 h 2.7763907 z m 10.125553,2.205748 c -0.04774,-0.08082 -0.769805,-1.14415 -1.604578,-2.362946 l -1.517771,-2.215992 -0.0829,0.09987 c -0.200627,0.241723 -3.067357,4.506161 -3.067357,4.562883 0,0.03473 1.430867,0.06313 3.179704,0.06313 h 3.179707 z m 9.139198,-0.107494 c -1.065701,-0.927729 -5.193086,-4.330471 -5.252681,-4.330471 h -0.07346 v 2.292461 2.292458 l 2.804721,-0.004 2.804721,-0.004 z M 15.370015,22.006569 c 0.716762,-1.067634 1.318573,-1.985944 1.337359,-2.040688 0.03212,-0.0936 -2.311705,-3.625543 -2.652692,-3.997399 l -0.157854,-0.172144 v 4.081081 4.081082 l 0.085,-0.0054 c 0.04674,-0.0029 0.671434,-0.87891 1.388196,-1.946544 z m 5.666103,-2.052116 v -4.004045 l -0.107504,0.06893 c -0.190158,0.121914 -2.670009,3.848297 -2.637982,3.963992 0.03741,0.135134 2.652389,3.975172 2.707002,3.975172 0.02117,0 0.03848,-1.801822 0.03848,-4.004047 z m -2.06343,-3.233858 c 0.76609,-1.130616 1.421732,-2.133631 1.45698,-2.228923 l 0.06409,-0.173257 H 17.4786 c -1.658338,0 -3.015159,0.02482 -3.015159,0.05514 0,0.107673 2.972871,4.412127 3.044006,4.40745 0.03979,-0.0027 0.699152,-0.929806 1.465244,-2.06042 z M 10.497166,10.08618 c 0,-1.2931817 -0.02175,-2.3512403 -0.04834,-2.3512403 -0.08911,0 -5.4472863,4.4903613 -5.4855541,4.5971123 l -0.037775,0.105375 h 2.785835 2.7858341 z m 10.085664,2.264592 c 0,-0.04765 -0.70051,-0.814762 -1.556686,-1.704677 l -1.556686,-1.618026 -1.559672,1.614929 c -0.857819,0.888213 -1.55967,1.655316 -1.55967,1.704677 v 0.08974 h 3.116357 3.116357 z m 9.401359,-0.0015 c -0.0024,-0.0485 -1.239032,-1.113261 -2.74806,-2.3661479 l -2.743688,-2.2779755 -0.03092,2.2155748 c -0.01701,1.2185656 -0.0059,2.2833326 0.02477,2.3661476 l 0.05569,0.150573 h 2.723286 2.723287 z M 15.370648,9.5564915 16.67079,8.2038674 15.283808,6.7649931 13.896828,5.3261176 v 2.7914984 2.791498 h 0.08684 c 0.04777,0 0.671903,-0.608681 1.386981,-1.3526225 z m 5.607176,-4.0373308 c -0.03445,-0.035733 -0.647398,0.539944 -1.362109,1.2792929 l -1.299474,1.3442689 1.331608,1.3851657 1.331607,1.3851658 0.0305,-2.6644574 c 0.01677,-1.4654522 0.0023,-2.6936974 -0.03213,-2.7294359 z m -2.011471,0.3071602 c 0.764408,-0.7911036 1.389833,-1.478842 1.389833,-1.5283072 v -0.089933 h -2.833052 -2.833051 v 0.086475 c 0,0.095421 2.738809,2.9701385 2.829713,2.9701385 0.0312,0 0.68215,-0.6472666 1.446557,-1.4383702 z M 18.42971,40.705309 v -0.887496 l 0.678659,-4.314624 c 0.373263,-2.373043 0.705701,-4.433655 0.738752,-4.579138 l 0.06009,-0.264514 H 32.2005 44.493786 v 0.822933 0.822935 h 0.396627 0.396628 v -2.35493 -2.354931 l -0.169983,-0.06766 -0.169983,-0.06766 V 26.70864 25.957065 h 2.379763 2.379763 v 0.751575 0.751576 l -0.169983,0.06766 -0.169982,0.06766 v 1.531996 1.531997 h 3.456322 3.456321 v 0.08817 c 0,0.0485 0.306287,2.017975 0.679933,4.376622 l 0.679366,4.28845 v 1.090013 1.090013 H 38.033862 18.429145 Z"
       id="path1" />
  </g>
</svg>
