<?xml version="1.0" encoding="UTF-8" standalone="no"?>
<!-- Created with Inkscape (http://www.inkscape.org/) -->

<svg
   version="1.1"
   id="svg1"
   width="50.292"
   height="58.896175"
   viewBox="0 0 50.291999 58.896175"
   sodipodi:docname="poste.svg"
   inkscape:version="1.3 (0e150ed, 2023-07-21)"
   xml:space="preserve"
   xmlns:inkscape="http://www.inkscape.org/namespaces/inkscape"
   xmlns:sodipodi="http://sodipodi.sourceforge.net/DTD/sodipodi-0.dtd"
   xmlns="http://www.w3.org/2000/svg"
   xmlns:svg="http://www.w3.org/2000/svg"><defs
     id="defs1" /><sodipodi:namedview
     id="namedview1"
     pagecolor="#ffffff"
     bordercolor="#000000"
     borderopacity="0.25"
     inkscape:showpageshadow="2"
     inkscape:pageopacity="0.0"
     inkscape:pagecheckerboard="0"
     inkscape:deskcolor="#d1d1d1"
     inkscape:zoom="4.5774934"
     inkscape:cx="25.996761"
     inkscape:cy="-5.4615044"
     inkscape:window-width="1392"
     inkscape:window-height="1029"
     inkscape:window-x="0"
     inkscape:window-y="25"
     inkscape:window-maximized="0"
     inkscape:current-layer="g1" /><g
     inkscape:groupmode="layer"
     inkscape:label="Image"
     id="g1"><path
       style="fill:#000000;stroke-width:0.91295"
       d="m 21.435995,56.394504 c -0.0401,-0.02983 -0.0729,-2.485958 -0.0729,-5.458001 0,-6.005642 -0.0022,-5.98083 0.705433,-6.778314 0.206086,-0.232136 0.564578,-0.519808 0.796642,-0.639272 l 0.421924,-0.217214 0.0044,-14.82351 0.0044,-14.823516 -4.439101,-3.303933 -4.439101,-3.3039249 -4.2287,0.011625 C 7.4922611,7.0660936 5.763646,7.0386351 5.4176635,6.9833354 3.4728393,6.6723805 3.5436158,4.7343169 5.5097438,4.4629129 5.899696,4.4090667 5.9165211,4.3939223 5.8854317,4.1244841 5.8554647,3.8646372 5.8141648,3.8340427 5.3616306,3.7362473 5.0914375,3.6778883 4.7820584,3.5574454 4.6741119,3.4686524 4.4840015,3.3122609 4.4840015,3.302157 4.6741119,3.1457732 4.7821021,3.0569803 5.0914375,2.9349387 5.3616306,2.8745604 5.6425684,2.8117653 5.7839581,2.7478227 5.6918886,2.7251522 4.5101217,2.4342595 4.2925832,2.2792065 4.7091352,2.0246984 5.0995123,1.7861988 5.7688656,1.6886634 6.7652949,1.7251015 7.6983908,1.7592148 8.2146399,1.8840324 8.4146781,2.1238704 8.5780249,2.3197366 8.224971,2.5784896 7.7108789,2.639694 7.1552471,2.7058546 7.1089344,2.7983189 7.5981264,2.864862 c 0.5228854,0.071132 0.8846368,0.248764 0.8846368,0.4344039 0,0.2014954 -0.1854357,0.3009964 -0.7824326,0.4198638 -0.4899987,0.097565 -0.5056687,0.1100714 -0.5056687,0.4037482 v 0.3030616 h 4.6693461 4.669345 V 4.1228779 c 0,-0.2936768 -0.01569,-0.3061823 -0.505668,-0.4037482 -0.595013,-0.1184696 -0.782432,-0.218399 -0.782432,-0.4171715 0,-0.1917435 0.385844,-0.3865693 0.883612,-0.4461905 0.410514,-0.049181 0.458876,-0.1878273 0.06549,-0.1878273 -0.418852,0 -0.949126,-0.2455516 -0.949126,-0.4395055 0,-0.2800775 0.628369,-0.4627803 1.732451,-0.5037234 1.043156,-0.038703 1.946252,0.1257129 2.135317,0.3887033 0.152591,0.2122571 -0.200758,0.4578775 -0.75336,0.5236557 -0.530633,0.063178 -0.553495,0.155772 -0.05558,0.2253057 0.206402,0.028835 0.508305,0.1407042 0.67089,0.2486264 l 0.295606,0.1962102 -0.300727,0.1994839 c -0.165396,0.1097196 -0.491448,0.2221926 -0.724548,0.2499419 -0.408902,0.048645 -0.423831,0.061342 -0.423831,0.3598756 v 0.3094253 h 2.727355 2.727366 l 0.03803,-1.1786613 c 0.04369,-1.3539681 0.173722,-1.6588118 0.849471,-1.9917183 1.122181,-0.55284296 2.521879,-0.1574089 2.877974,0.8130568 0.06451,0.1758038 0.117558,0.778118 0.117885,1.3384795 l 5.99e-4,1.0188433 h 2.737206 2.737195 V 4.1165142 c 0,-0.2985259 -0.01493,-0.3111998 -0.423821,-0.3598756 C 31.977599,3.7288746 31.654621,3.6214949 31.492963,3.5179784 L 31.19904,3.3297686 31.48011,3.1205327 c 0.165798,-0.1234336 0.459333,-0.2304608 0.715795,-0.2609866 0.519475,-0.061801 0.489378,-0.1523606 -0.0729,-0.2193014 -0.53606,-0.06379 -0.925194,-0.3249291 -0.781691,-0.5245354 0.190296,-0.2647037 0.744161,-0.3667288 1.99094,-0.3667288 0.983985,0 1.23889,0.026158 1.529613,0.1570723 0.472497,0.2127313 0.46609,0.4625356 -0.01623,0.6329164 -0.200789,0.070902 -0.463606,0.1289712 -0.58404,0.1289712 -0.393177,0 -0.347007,0.1409412 0.06451,0.1969216 1.16383,0.1583113 1.163209,0.7546061 -9.37e-4,0.8940253 -0.384701,0.046045 -0.402527,0.061953 -0.402527,0.3576269 v 0.3094253 h 4.669334 4.669346 V 4.1228779 c 0,-0.2936768 -0.01569,-0.3061823 -0.505669,-0.4037482 -0.596986,-0.1188674 -0.782422,-0.2183684 -0.782422,-0.4198638 0,-0.1856399 0.361752,-0.3632793 0.884626,-0.4344039 C 43.34705,2.798319 43.300748,2.7058317 42.745105,2.639694 42.231013,2.578505 41.877958,2.3197366 42.041316,2.1238704 42.279559,1.8382171 42.736017,1.7489805 43.95904,1.7489805 c 1.234618,0 1.803446,0.1210549 1.955569,0.4161696 0.09121,0.1768975 -0.327218,0.4124294 -0.841353,0.4736337 -0.517459,0.061571 -0.534633,0.1546859 -0.04119,0.2235924 0.206402,0.028835 0.507848,0.1373082 0.669877,0.2410619 0.291856,0.1868865 0.292685,0.1902289 0.08913,0.3576498 -0.113007,0.092954 -0.426522,0.2167775 -0.696715,0.2751594 -0.452556,0.097795 -0.493823,0.1283899 -0.5238,0.3882368 -0.03106,0.2696371 -0.01449,0.2845061 0.375698,0.3370904 1.321806,0.1781442 1.929198,1.2041007 1.190997,2.0117733 -0.502204,0.5494775 -0.482088,0.5474124 -5.558625,0.5693487 l -4.56117,0.019734 -4.45549,3.3161465 -4.45549,3.31614 0.03138,14.803531 0.03138,14.803531 0.421499,0.217214 c 0.231836,0.119464 0.590382,0.407136 0.796784,0.639272 0.712267,0.801087 0.70951,0.77343 0.67879,6.818944 l -0.02757,5.429677 -3.764539,0.02096 c -2.070489,0.01155 -3.797351,-0.0038 -3.837452,-0.03327 z M 23.295223,9.2603939 v -2.197505 h -2.977988 -2.977977 l 2.950418,2.197505 c 1.622728,1.2086281 2.962819,2.1975041 2.977988,2.1975041 0.01515,0 0.02757,-0.988876 0.02757,-2.1975041 z m 6.870577,-7.652e-4 2.951149,-2.1985525 -2.976756,0.021034 -2.976757,0.021034 -0.02877,2.1775644 c -0.0158,1.1976694 -0.0044,2.1775504 0.0256,2.1775274 0.02997,-2.3e-5 1.382426,-0.989388 3.005558,-2.1985917 z"
       id="path1" /></g></svg>
