<?xml version="1.0" encoding="UTF-8" standalone="no"?>
<!-- Created with Inkscape (http://www.inkscape.org/) -->

<svg
   version="1.1"
   id="svg1"
   width="50.292"
   height="58.896175"
   viewBox="0 0 50.291999 58.896175"
   sodipodi:docname="torre.svg"
   inkscape:version="1.3 (0e150ed, 2023-07-21)"
   xmlns:inkscape="http://www.inkscape.org/namespaces/inkscape"
   xmlns:sodipodi="http://sodipodi.sourceforge.net/DTD/sodipodi-0.dtd"
   xmlns="http://www.w3.org/2000/svg"
   xmlns:svg="http://www.w3.org/2000/svg">
  <defs
     id="defs1" />
  <sodipodi:namedview
     id="namedview1"
     pagecolor="#ffffff"
     bordercolor="#000000"
     borderopacity="0.25"
     inkscape:showpageshadow="2"
     inkscape:pageopacity="0.0"
     inkscape:pagecheckerboard="0"
     inkscape:deskcolor="#d1d1d1"
     inkscape:zoom="6.4735532"
     inkscape:cx="34.756801"
     inkscape:cy="40.00894"
     inkscape:window-width="1392"
     inkscape:window-height="1029"
     inkscape:window-x="0"
     inkscape:window-y="25"
     inkscape:window-maximized="0"
     inkscape:current-layer="g1" />
  <g
     inkscape:groupmode="layer"
     inkscape:label="Image"
     id="g1">
    <path
       style="fill:#000000;stroke-width:0.124162"
       d="M 1.2717131,56.348798 C 0.84530255,56.210482 0.74390382,55.730602 1.0863603,55.471593 l 0.212753,-0.16091 5.6663796,-0.01913 5.6663811,-0.01917 0.380734,-1.893892 c 0.346809,-1.725123 0.882058,-4.412594 1.885993,-9.46948 0.202739,-1.021219 0.535304,-2.709013 0.739027,-3.750652 0.20373,-1.041643 0.533772,-2.696019 0.733436,-3.676387 0.627446,-3.08082 0.934052,-4.791007 0.873178,-4.870309 -0.03234,-0.04213 -0.272927,-0.154676 -0.534639,-0.250118 -0.261716,-0.09544 -3.249104,-1.280122 -6.638632,-2.632633 -3.3895329,-1.352516 -6.191722,-2.45916 -6.2270893,-2.459213 -0.035362,-5.5e-5 -0.051984,0.551403 -0.036935,1.225462 l 0.027369,1.225562 0.3877732,0.0074 c 0.5702945,0.0109 0.8103212,0.08372 1.0196117,0.309407 0.1788061,0.192805 0.1803339,0.213471 0.034025,0.460471 -0.094812,0.160066 -0.2420702,0.276568 -0.3864601,0.305744 -0.2230223,0.04506 -0.2332802,0.0711 -0.2332802,0.592059 0,0.520778 0.011214,0.549249 0.2528554,0.64249 0.13907,0.05366 0.3073914,0.189173 0.3740459,0.301135 0.1559689,0.261986 -0.0064,0.566401 -0.3786994,0.710063 -0.2505102,0.09667 -0.2570139,0.114375 -0.2393441,0.65186 0.01693,0.514952 0.033136,0.555521 0.2385066,0.597015 0.2998359,0.06059 0.5167283,0.407873 0.4039178,0.646749 -0.182467,0.386376 -0.3629101,0.420154 -2.2443052,0.420154 -1.732304,0 -1.7370353,-4.17e-4 -1.9686467,-0.186914 -0.32963064,-0.265372 -0.27767715,-0.613229 0.121686,-0.814766 0.2902045,-0.146451 0.2963416,-0.160958 0.299822,-0.708823 0.00353,-0.552377 1.382e-4,-0.56034 -0.2690421,-0.642148 -0.4975431,-0.151193 -0.4975431,-0.78805 0,-0.939244 0.2697866,-0.08199 0.2725957,-0.08879 0.2725957,-0.660717 0,-0.352489 -0.037617,-0.577883 -0.096447,-0.577883 -0.1820565,0 -0.5493247,-0.364661 -0.5493247,-0.545423 0,-0.09946 0.075686,-0.256073 0.168191,-0.348041 0.1399658,-0.139159 0.2676938,-0.169199 0.7610885,-0.179005 l 0.5928975,-0.01177 0.048873,-2.855744 c 0.026882,-1.570659 0.058017,-2.863239 0.069189,-2.872402 0.011166,-0.0092 0.1437701,-0.06806 0.2946616,-0.130877 0.2411613,-0.100399 1.1394976,-0.11186 7.4263869,-0.09475 l 7.15204,0.01948 -7e-6,-4.571495 -1.1e-5,-4.571495 -5.313144,-2.112891 C 9.1515444,10.398331 6.7229807,9.4364116 6.6769652,9.4227943 6.6298427,9.4088513 6.5932994,9.7883484 6.5932994,10.291591 v 0.893552 l 0.4749883,0.02245 c 0.388685,0.01838 0.5079945,0.05816 0.6566462,0.218995 0.2438836,0.263873 0.123178,0.578156 -0.2810697,0.731834 -0.2665346,0.101329 -0.2932333,0.142513 -0.2950493,0.45518 -0.00179,0.310354 0.02414,0.35249 0.2668491,0.433425 0.5759987,0.192081 0.5809011,0.818475 0.00767,0.979353 -0.2540913,0.07131 -0.2765103,0.105802 -0.2765103,0.425408 0,0.317994 0.023642,0.354987 0.2758681,0.431634 0.5686642,0.172806 0.5544167,0.822045 -0.021589,0.9837 -0.3657035,0.102629 -2.6336943,0.102629 -2.999397,0 -0.5614514,-0.157573 -0.5912572,-0.790893 -0.046249,-0.982613 0.2251246,-0.07919 0.2548444,-0.12987 0.2582749,-0.440394 0.00347,-0.316156 -0.020923,-0.357863 -0.2465488,-0.421184 C 3.8227227,13.87013 3.7923579,13.279381 4.3185824,13.077487 4.5851528,12.975212 4.6089081,12.937289 4.5987373,12.63025 4.5890925,12.339101 4.5497966,12.276245 4.3013916,12.154626 3.923947,11.969831 3.8366805,11.687526 4.0767194,11.427819 4.2266219,11.265634 4.3450002,11.226001 4.7345087,11.207592 L 5.209497,11.185141 V 9.0015432 c 0,-2.1972596 0.039821,-2.5013524 0.3396849,-2.5939907 0.071603,-0.022119 2.850651,-0.041603 6.1756661,-0.043292 l 6.045474,-0.00309 2.039097,-1.5947425 2.039091,-1.5947435 h 0.99806 0.99806 V 2.3229651 c 0,-0.8284235 0.0058,-0.8524001 0.243075,-1.0026504 0.305936,-0.1937412 0.498745,-0.1941947 0.802416,-0.00188 0.229755,0.1454969 0.241217,0.1878709 0.266136,0.9840826 l 0.02602,0.8320417 0.978064,0.020971 0.978065,0.020967 2.038672,1.5944127 2.038672,1.5944127 h 6.086561 6.086562 l 0.191202,0.1956918 c 0.183725,0.1880371 0.191204,0.2823051 0.191204,2.4099072 v 2.2142146 l 0.47499,0.02245 c 0.393574,0.0186 0.507322,0.05743 0.663643,0.226542 0.246701,0.266882 0.131641,0.567893 -0.276839,0.724286 -0.26918,0.103063 -0.289896,0.137412 -0.276564,0.458599 0.01289,0.311465 0.04442,0.358774 0.305684,0.459706 0.524055,0.202429 0.496093,0.793325 -0.0447,0.945128 -0.220671,0.06194 -0.246954,0.107003 -0.250356,0.429323 -0.0034,0.326871 0.01987,0.367315 0.252805,0.438097 0.539037,0.163803 0.524032,0.819314 -0.02227,0.972632 -0.383855,0.107735 -2.765359,0.09723 -3.041011,-0.01341 -0.553934,-0.222337 -0.553078,-0.796567 0.0016,-0.965076 0.251949,-0.07656 0.275865,-0.11383 0.275865,-0.42989 0,-0.316584 -0.02422,-0.35414 -0.284521,-0.440938 -0.553117,-0.184449 -0.54346,-0.77911 0.01563,-0.965566 0.242706,-0.08093 0.268648,-0.123074 0.266846,-0.433426 -0.0016,-0.314149 -0.02763,-0.353376 -0.299624,-0.45518 -0.415343,-0.155464 -0.53253,-0.454872 -0.283491,-0.724287 0.156325,-0.169113 0.270069,-0.207942 0.663643,-0.226542 l 0.47499,-0.02245 v -0.89355 c 0,-0.5244797 -0.03575,-0.8833271 -0.08654,-0.8687966 -0.04761,0.013617 -2.476158,0.9751526 -5.396809,2.1367466 l -5.310262,2.111989 v 4.553794 4.55378 l 7.034298,0.0051 c 3.86887,0.0028 7.155258,0.01783 7.303082,0.03336 0.570644,0.05997 0.557061,-0.0094 0.607624,3.102017 l 0.04616,2.838272 0.599642,0.02038 c 0.671537,0.02285 0.922534,0.167554 0.922534,0.531923 0,0.203019 -0.328818,0.524611 -0.536402,0.524611 -0.07496,0 -0.109373,0.181844 -0.109373,0.577878 0,0.571928 0.0027,0.578734 0.272599,0.660717 0.493481,0.149962 0.495253,0.747929 0.0027,0.952937 -0.267769,0.111476 -0.275321,0.129571 -0.27187,0.651217 0.0034,0.522232 0.01144,0.540542 0.299826,0.686065 0.399363,0.201533 0.451315,0.54939 0.121683,0.814768 -0.231322,0.186232 -0.238394,0.186912 -1.938704,0.186912 -1.871592,0 -2.111981,-0.04126 -2.262234,-0.388254 -0.121763,-0.281219 0.08375,-0.629658 0.410312,-0.695644 0.217745,-0.044 0.228956,-0.07294 0.228956,-0.591186 0,-0.520778 -0.01112,-0.549248 -0.252855,-0.64249 -0.139069,-0.05366 -0.306814,-0.188203 -0.372768,-0.29898 -0.101397,-0.170322 -0.09729,-0.236639 0.02663,-0.429569 0.08059,-0.125488 0.248346,-0.259314 0.372761,-0.297397 0.212049,-0.06491 0.226214,-0.103732 0.226214,-0.620058 0,-0.524518 -0.01096,-0.553022 -0.228954,-0.597077 -0.301915,-0.06101 -0.536497,-0.421987 -0.426117,-0.655719 0.134395,-0.284583 0.352235,-0.376358 0.912313,-0.384376 l 0.526913,-0.0076 0.02528,-1.243593 c 0.01386,-0.683978 0.0061,-1.243594 -0.01745,-1.243594 -0.02349,0 -2.774809,1.090003 -6.114002,2.422224 -3.339192,1.332225 -6.278828,2.499039 -6.532521,2.592923 -0.880765,0.325939 -0.837543,0.16545 -0.510359,1.895025 0.158097,0.835737 0.429715,2.204664 0.603603,3.042064 0.173889,0.8374 0.461205,2.291242 0.638489,3.230761 0.17728,0.939523 0.425434,2.192834 0.551456,2.785139 0.126017,0.59231 0.378933,1.862332 0.562035,2.822275 0.183103,0.959947 0.474517,2.430501 0.647594,3.2679 0.173071,0.837397 0.461948,2.291242 0.641952,3.230762 0.180009,0.93952 0.421535,2.159411 0.536732,2.710869 l 0.209441,1.002653 5.68384,0.03712 c 5.42444,0.03545 5.692697,0.04359 5.877976,0.178616 0.264586,0.192818 0.250315,0.525617 -0.03229,0.753137 l -0.226442,0.182303 -23.090539,-0.0047 C 11.495014,56.416324 1.3859596,56.385757 1.2718905,56.348747 Z m 31.7059839,-1.07019 c 0,-0.017 -0.46703,-0.229911 -1.037849,-0.473123 -0.570813,-0.243212 -1.556772,-0.667771 -2.19101,-0.943466 -0.634243,-0.275696 -2.075164,-0.898363 -3.202056,-1.383708 l -2.048887,-0.882449 -2.102505,0.899373 c -1.156373,0.494654 -2.268556,0.974655 -2.471513,1.066668 -0.202958,0.09201 -1.095506,0.478574 -1.983444,0.859019 -0.887931,0.380449 -1.696315,0.736024 -1.796395,0.790167 -0.151749,0.08209 1.231278,0.09844 8.325845,0.09844 4.679297,0 8.507814,-0.0139 8.507814,-0.03094 z M 16.741146,53.707092 c 0.837194,-0.360539 2.124126,-0.915358 2.859843,-1.23294 0.735724,-0.31758 1.825461,-0.786786 2.421651,-1.042675 0.596184,-0.25589 1.083695,-0.482306 1.083358,-0.503143 -2.78e-4,-0.02084 -0.778721,-0.442553 -1.729748,-0.937136 -0.951021,-0.494587 -2.627556,-1.368504 -3.725634,-1.942044 l -1.996501,-1.042799 -0.143902,0.64231 c -0.07915,0.353273 -0.251189,1.227192 -0.382323,1.942044 -0.228793,1.247234 -0.914194,4.635908 -1.026861,5.076861 l -0.0542,0.212152 0.586069,-0.258558 c 0.322338,-0.142203 1.271048,-0.553536 2.108244,-0.914072 z m 17.66799,-1.333031 c -0.272219,-1.347024 -0.604945,-3.017302 -0.739388,-3.71173 -0.303714,-1.568769 -0.31728,-1.614486 -0.465462,-1.568706 -0.190846,0.05895 -7.327339,3.792833 -7.327776,3.833953 -2.79e-4,0.02042 0.653019,0.318518 1.451635,0.662433 0.798622,0.343916 2.033229,0.876695 2.743581,1.183951 3.481064,1.505714 4.798683,2.069393 4.81476,2.059768 0.0097,-0.0058 -0.205127,-1.112644 -0.47735,-2.459669 z m -5.930928,-4.125286 c 2.195654,-1.146552 4.003396,-2.109649 4.017203,-2.140215 0.01386,-0.03057 -1.782018,-0.998757 -3.99073,-2.15154 l -4.015843,-2.095967 -3.989164,2.084721 c -2.194036,1.146598 -3.989162,2.114739 -3.989162,2.151423 0,0.04757 7.782743,4.186993 7.954689,4.230876 0.0116,0.003 1.817359,-0.932746 4.013007,-2.079298 z m -11.252864,-3.884 c 0.570886,-0.300796 2.056837,-1.077847 3.302113,-1.726789 1.24527,-0.648938 2.380335,-1.248553 2.522361,-1.332479 l 0.258231,-0.152593 -0.5946,-0.404436 c -0.327032,-0.222435 -0.979637,-0.655095 -1.450236,-0.961462 -0.470593,-0.306362 -1.479904,-0.967573 -2.242916,-1.469347 -0.763007,-0.501777 -1.417032,-0.886127 -1.453392,-0.854111 -0.03637,0.03203 -0.115173,0.342295 -0.175146,0.68951 -0.05997,0.347214 -0.352874,1.85119 -0.650883,3.342166 -0.661074,3.3074 -0.680537,3.416439 -0.60998,3.416439 0.03105,0 0.523562,-0.246106 1.094448,-0.546898 z m 15.6601,0.46767 c 0,-0.113161 -0.310552,-1.719076 -0.781794,-4.042776 -0.223668,-1.102919 -0.455487,-2.289387 -0.515153,-2.636601 -0.05966,-0.347215 -0.139471,-0.658492 -0.177347,-0.691732 -0.03788,-0.03324 -0.479281,0.211162 -0.980901,0.54311 -0.501626,0.331952 -1.177397,0.776918 -1.501711,0.988815 -2.802752,1.831218 -3.254901,2.147402 -3.169333,2.216286 0.122763,0.09884 6.977777,3.689055 7.057051,3.696034 0.03804,0.0033 0.06919,-0.02956 0.06919,-0.07314 z M 24.625987,40.4591 c 0.02983,-0.03883 1.412602,-0.962997 3.072862,-2.05368 1.660254,-1.090688 3.039155,-1.997302 3.064223,-2.014699 0.02505,-0.01741 -0.12157,-0.15438 -0.325863,-0.3044 -0.694699,-0.510167 -5.860615,-3.874884 -5.949176,-3.874884 -0.0485,0 -0.825404,0.488528 -1.726504,1.085623 -0.901097,0.597095 -2.219554,1.461776 -2.929905,1.92152 -0.710346,0.45974 -1.368417,0.905052 -1.462377,0.989579 -0.192127,0.172845 -0.199059,0.166194 0.954983,0.916352 0.584218,0.379753 1.582853,1.03335 3.273727,2.142612 0.653796,0.428914 1.336683,0.887556 1.517527,1.01921 0.353835,0.257594 0.426502,0.28219 0.510503,0.172767 z m -5.716891,-6.036634 c 0.355171,-0.227101 1.185453,-0.768867 1.845062,-1.203924 1.522243,-1.004027 2.249596,-1.481143 2.521461,-1.65398 l 0.215137,-0.13677 -0.58415,-0.437018 c -0.321282,-0.24036 -1.125969,-0.857808 -1.788201,-1.3721 -0.662227,-0.514298 -1.461369,-1.113852 -1.775871,-1.332352 l -0.571819,-0.397265 -1.29e-4,1.659864 c -1.17e-4,1.522257 -0.02691,1.801477 -0.323245,3.368082 -0.177715,0.939523 -0.346323,1.789255 -0.374687,1.888301 -0.04028,0.140683 -0.02507,0.163671 0.06956,0.10507 0.06661,-0.04126 0.411717,-0.260813 0.76689,-0.487914 z m 11.995965,0.369868 c -0.02562,-0.09191 -0.192462,-0.941604 -0.370771,-1.888209 -0.296699,-1.575166 -0.324184,-1.860686 -0.324184,-3.367339 v -1.646239 l -0.299827,0.199342 c -0.164899,0.10963 -0.901773,0.659126 -1.637489,1.221086 -0.735724,0.561959 -1.662749,1.269889 -2.060071,1.573182 l -0.722403,0.55144 0.537895,0.341953 c 0.295843,0.188079 0.786979,0.506305 1.09141,0.707178 0.556828,0.367399 0.891133,0.587114 2.607376,1.713643 0.513588,0.337114 0.95938,0.646261 0.990653,0.687 0.106231,0.138369 0.234209,0.07484 0.187411,-0.09304 z m -5.949267,-4.437658 c 0.129111,-0.102121 0.731069,-0.55309 1.33767,-1.002156 0.606606,-0.449062 1.663358,-1.259897 2.348339,-1.801849 l 1.245415,-0.985375 -0.645774,-0.501277 c -1.022899,-0.794013 -3.831308,-2.930994 -4.313302,-3.282088 l -0.438677,-0.319536 -0.483858,0.360492 c -1.777637,1.324411 -4.865878,3.704542 -4.865878,3.750176 0,0.05058 1.79733,1.459867 4.289766,3.363602 1.095416,0.836682 1.02229,0.816656 1.526299,0.418011 z m -7.568876,-3.19363 V 23.89315 h -0.226555 c -0.157082,0 -0.602578,0.264241 -1.452981,0.861833 -3.889654,2.733309 -4.500356,3.174475 -4.450845,3.215252 0.04101,0.03378 5.988853,2.42255 6.107316,2.452816 0.01273,0.0033 0.02304,-1.464661 0.02304,-3.262005 z m 18.381436,1.606547 c 1.103579,-0.433366 2.006503,-0.801234 2.006503,-0.817481 0,-0.02514 -1.857565,-1.350165 -3.084396,-2.200126 -0.206303,-0.142929 -0.884788,-0.619189 -1.507753,-1.058355 -0.785737,-0.553912 -1.202517,-0.798481 -1.360735,-0.798481 h -0.228071 v 3.268473 3.268468 l 1.083974,-0.437282 c 0.596184,-0.240506 1.9869,-0.791851 3.090478,-1.225216 z m -24.650141,-2.22037 c 0.484501,-0.336399 1.519608,-1.062831 2.300237,-1.614288 l 1.419321,-1.00265 -3.306152,-0.0195 c -1.8183828,-0.01078 -3.3295626,-8.35e-4 -3.3581769,0.02239 -0.054172,0.04361 1.9366909,3.226752 2.0177329,3.226096 0.02534,-2.26e-4 0.442537,-0.275613 0.927038,-0.612011 z m 28.72937,-0.979912 c 0.556502,-0.875763 0.988405,-1.611144 0.959794,-1.634177 -0.02858,-0.02305 -1.540072,-0.03312 -3.358791,-0.02239 l -3.306767,0.0195 0.963177,0.680598 c 2.25852,1.595903 3.636666,2.550117 3.68211,2.549444 0.02675,-4.17e-4 0.503981,-0.717257 1.060477,-1.593016 z M 7.5067057,25.37856 6.567921,23.89315 H 5.1968131 3.8257068 l 0.00213,0.575598 0.00213,0.575594 2.2811262,0.905118 c 1.2546181,0.497815 2.2931051,0.907228 2.3077498,0.909814 0.014646,0.0025 -0.395827,-0.663742 -0.9121574,-1.480714 z m 36.5644293,0.09086 1.083974,-0.418303 V 24.47213 23.89315 H 43.784002 42.4129 l -0.935944,1.480908 -0.935939,1.480906 1.223072,-0.483621 c 0.672689,-0.265992 1.710861,-0.671859 2.307046,-0.90193 z M 21.077044,23.55296 c 0.53276,-0.408526 1.29405,-0.993573 1.691745,-1.300105 l 0.723091,-0.557329 -0.769216,-0.593732 c -0.423069,-0.326552 -1.122086,-0.858815 -1.553365,-1.182805 -0.431288,-0.32399 -1.1474,-0.87345 -1.59137,-1.22102 L 18.770715,18.06602 v 3.635842 3.635842 l 0.668833,-0.520982 c 0.367862,-0.286544 1.104731,-0.855235 1.637496,-1.263762 z m 9.133062,-1.855621 V 18.090388 L 27.971961,19.793 c -1.230976,0.936437 -2.28967,1.752596 -2.352646,1.813689 -0.09658,0.09368 0.113079,0.284271 1.338675,1.216928 0.799249,0.608219 1.847558,1.414681 2.329581,1.792136 0.482023,0.37746 0.886786,0.686795 0.899468,0.687413 0.01273,8.36e-4 0.02306,-1.622006 0.02306,-3.605827 z m -3.625022,-2.341584 c 1.105826,-0.841193 2.307095,-1.753149 2.669496,-2.026569 l 0.65891,-0.497125 -0.981796,-0.763075 c -2.279807,-1.771921 -4.351094,-3.316397 -4.447606,-3.316397 -0.09492,0 -1.980489,1.410177 -4.434883,3.316751 l -0.981712,0.762593 2.688395,2.043333 c 1.478617,1.123832 2.717693,2.035816 2.753499,2.026632 0.0358,-0.0092 0.969875,-0.704949 2.075697,-1.546143 z m -5.185158,-5.821023 c 1.116267,-0.84783 2.029569,-1.575306 2.029569,-1.616611 0,-0.0413 -1.048225,-0.894039 -2.32939,-1.89497 l -2.32939,-1.819873 v 3.663227 3.663229 l 0.29982,-0.226744 c 0.164905,-0.12471 1.21313,-0.920425 2.329391,-1.768258 z m 8.788725,-3.483862 -0.02467,-1.8104737 -2.352456,1.8426517 -2.352458,1.842654 0.184508,0.148719 c 0.101477,0.0818 1.160082,0.885203 2.352456,1.785348 l 2.16795,1.636628 0.02467,-1.817526 c 0.01353,-0.999639 0.01353,-2.63224 0,-3.628001 z M 17.386918,9.9303139 c 0,-1.6007394 -0.03311,-2.5251943 -0.09047,-2.5251943 -0.07117,0 -2.857646,1.9040033 -3.046143,2.0814256 -0.02534,0.023877 -0.362025,0.2588275 -0.74813,0.5221068 -0.386111,0.263279 -0.712438,0.511336 -0.725177,0.551236 -0.01824,0.05705 4.262819,1.832365 4.540725,1.883011 0.03804,0.0069 0.06919,-1.123729 0.06919,-2.5125851 z M 34.02957,11.496697 c 1.266368,-0.49892 2.259947,-0.932591 2.214071,-0.966389 -0.04576,-0.03372 -0.373807,-0.261535 -0.72898,-0.506252 -0.35518,-0.2447173 -1.343063,-0.9340883 -2.195308,-1.5319378 -0.852239,-0.5978493 -1.589108,-1.086999 -1.637489,-1.086999 -0.05404,0 -0.08796,0.974955 -0.08796,2.5295772 0,1.3912676 0.0311,2.5155156 0.06919,2.4983276 0.03804,-0.01719 1.102974,-0.438533 2.366482,-0.936327 z M 29.845438,6.9573346 c 0.06136,-0.030525 -0.575786,-0.5907384 -1.588447,-1.3966634 l -1.690885,-1.3456928 -2.075695,-8.01e-5 -2.075697,-8.03e-5 -1.685502,1.3437465 -1.685502,1.3437467 0.209452,0.1450814 c 0.115206,0.079794 1.340483,1.0497998 2.722859,2.1555658 l 2.513404,2.0104856 2.626783,-2.1025689 c 1.444732,-1.1564124 2.672883,-2.1255054 2.72923,-2.1535405 z m -15.623577,1.111537 c 0.415633,-0.2834481 0.781329,-0.5487473 0.812658,-0.589555 0.03737,-0.048704 -0.784876,-0.074197 -2.393191,-0.074197 -1.347587,0 -2.450153,0.017104 -2.450153,0.038009 0,0.020904 0.333315,0.5739108 0.740707,1.2289019 l 0.740707,1.1908931 0.896783,-0.639347 c 0.493234,-0.3516415 1.23685,-0.8712585 1.652489,-1.154705 z m 23.880046,0.5069345 c 0.378256,-0.602008 0.687738,-1.1116887 0.687738,-1.1326228 0,-0.020937 -1.110499,-0.036321 -2.467771,-0.034191 l -2.467769,0.00388 0.553515,0.3968802 c 2.305038,1.6527445 2.865243,2.024331 2.933199,1.9455987 0.04033,-0.04674 0.382832,-0.5775334 0.761088,-1.179543 z M 9.2626681,8.4192032 8.6085762,7.4051192 H 7.5961171 6.5836589 l 0.027883,0.3865241 0.027883,0.3865238 1.6144305,0.6469528 C 9.1417908,9.1809436 9.8791916,9.4633455 9.8925232,9.4526798 9.9058323,9.442024 9.6224166,8.9769498 9.2626657,8.4192032 Z M 41.895263,8.3573008 C 42.385425,8.1345942 42.387518,8.1320967 42.387518,7.7693821 V 7.4051192 H 41.380685 40.373853 L 39.72013,8.4109781 c -0.359549,0.5532218 -0.653724,1.0187363 -0.653724,1.0344771 0,0.040902 2.241943,-0.8214862 2.828857,-1.0881544 z"
       id="path1" />
  </g>
</svg>
